G04 #@! TF.GenerationSoftware,KiCad,Pcbnew,(6.0.6)*
G04 #@! TF.CreationDate,2023-04-07T17:07:22+02:00*
G04 #@! TF.ProjectId,LampeSolairePetite,4c616d70-6553-46f6-9c61-697265506574,R00*
G04 #@! TF.SameCoordinates,Original*
G04 #@! TF.FileFunction,Copper,L1,Top*
G04 #@! TF.FilePolarity,Positive*
%FSLAX46Y46*%
G04 Gerber Fmt 4.6, Leading zero omitted, Abs format (unit mm)*
G04 Created by KiCad (PCBNEW (6.0.6)) date 2023-04-07 17:07:22*
%MOMM*%
%LPD*%
G01*
G04 APERTURE LIST*
G04 Aperture macros list*
%AMRoundRect*
0 Rectangle with rounded corners*
0 $1 Rounding radius*
0 $2 $3 $4 $5 $6 $7 $8 $9 X,Y pos of 4 corners*
0 Add a 4 corners polygon primitive as box body*
4,1,4,$2,$3,$4,$5,$6,$7,$8,$9,$2,$3,0*
0 Add four circle primitives for the rounded corners*
1,1,$1+$1,$2,$3*
1,1,$1+$1,$4,$5*
1,1,$1+$1,$6,$7*
1,1,$1+$1,$8,$9*
0 Add four rect primitives between the rounded corners*
20,1,$1+$1,$2,$3,$4,$5,0*
20,1,$1+$1,$4,$5,$6,$7,0*
20,1,$1+$1,$6,$7,$8,$9,0*
20,1,$1+$1,$8,$9,$2,$3,0*%
%AMFreePoly0*
4,1,6,1.025000,0.000000,0.525000,-0.475000,-0.525000,-0.475000,-0.525000,0.475000,0.525000,0.475000,1.025000,0.000000,1.025000,0.000000,$1*%
%AMFreePoly1*
4,1,6,0.525000,-0.475000,-1.015000,-0.475000,-0.525000,0.000000,-1.025000,0.475000,0.525000,0.475000,0.525000,-0.475000,0.525000,-0.475000,$1*%
%AMFreePoly2*
4,1,6,0.587500,-0.725000,-0.587500,-0.725000,-1.287500,0.000000,-0.587500,0.725000,0.587500,0.725000,0.587500,-0.725000,0.587500,-0.725000,$1*%
%AMFreePoly3*
4,1,6,0.587500,0.000000,1.287500,-0.725000,-0.587500,-0.725000,-0.587500,0.725000,1.287500,0.725000,0.587500,0.000000,0.587500,0.000000,$1*%
G04 Aperture macros list end*
G04 #@! TA.AperFunction,SMDPad,CuDef*
%ADD10RoundRect,0.250000X-0.450000X0.350000X-0.450000X-0.350000X0.450000X-0.350000X0.450000X0.350000X0*%
G04 #@! TD*
G04 #@! TA.AperFunction,SMDPad,CuDef*
%ADD11RoundRect,0.125000X-0.825000X-0.125000X0.825000X-0.125000X0.825000X0.125000X-0.825000X0.125000X0*%
G04 #@! TD*
G04 #@! TA.AperFunction,ComponentPad*
%ADD12R,1.700000X1.700000*%
G04 #@! TD*
G04 #@! TA.AperFunction,ComponentPad*
%ADD13O,1.700000X1.700000*%
G04 #@! TD*
G04 #@! TA.AperFunction,SMDPad,CuDef*
%ADD14R,1.560000X0.650000*%
G04 #@! TD*
G04 #@! TA.AperFunction,SMDPad,CuDef*
%ADD15FreePoly0,270.000000*%
G04 #@! TD*
G04 #@! TA.AperFunction,SMDPad,CuDef*
%ADD16FreePoly1,270.000000*%
G04 #@! TD*
G04 #@! TA.AperFunction,SMDPad,CuDef*
%ADD17FreePoly2,90.000000*%
G04 #@! TD*
G04 #@! TA.AperFunction,SMDPad,CuDef*
%ADD18FreePoly3,90.000000*%
G04 #@! TD*
G04 #@! TA.AperFunction,ComponentPad*
%ADD19R,1.000000X1.000000*%
G04 #@! TD*
G04 #@! TA.AperFunction,ComponentPad*
%ADD20O,1.000000X1.000000*%
G04 #@! TD*
G04 #@! TA.AperFunction,SMDPad,CuDef*
%ADD21RoundRect,0.250000X0.350000X0.450000X-0.350000X0.450000X-0.350000X-0.450000X0.350000X-0.450000X0*%
G04 #@! TD*
G04 #@! TA.AperFunction,ViaPad*
%ADD22C,1.000000*%
G04 #@! TD*
G04 #@! TA.AperFunction,ViaPad*
%ADD23C,0.800000*%
G04 #@! TD*
G04 #@! TA.AperFunction,Conductor*
%ADD24C,0.500000*%
G04 #@! TD*
G04 #@! TA.AperFunction,Conductor*
%ADD25C,0.300000*%
G04 #@! TD*
G04 #@! TA.AperFunction,Conductor*
%ADD26C,0.250000*%
G04 #@! TD*
G04 APERTURE END LIST*
D10*
X134366000Y-84090000D03*
X134366000Y-86090000D03*
D11*
X120960000Y-80895000D03*
X120960000Y-81545000D03*
X120960000Y-82195000D03*
X120960000Y-82845000D03*
X120960000Y-83495000D03*
X120960000Y-84145000D03*
X120960000Y-84795000D03*
X120960000Y-85445000D03*
X120960000Y-86095000D03*
X120960000Y-86745000D03*
X127960000Y-86745000D03*
X127960000Y-86095000D03*
X127960000Y-85445000D03*
X127960000Y-84795000D03*
X127960000Y-84145000D03*
X127960000Y-83495000D03*
X127960000Y-82845000D03*
X127960000Y-82195000D03*
X127960000Y-81545000D03*
X127960000Y-80895000D03*
D10*
X105918000Y-83836000D03*
X105918000Y-85836000D03*
D12*
X96520000Y-86360000D03*
D13*
X96520000Y-88900000D03*
D14*
X107743000Y-78022500D03*
X107743000Y-78972500D03*
X107743000Y-79922500D03*
X110443000Y-79922500D03*
X110443000Y-78022500D03*
D10*
X104013000Y-77972500D03*
X104013000Y-79972500D03*
D15*
X109855000Y-88025000D03*
D16*
X109855000Y-89775000D03*
D15*
X107950000Y-88025000D03*
D16*
X107950000Y-89775000D03*
D10*
X109982000Y-83836000D03*
X109982000Y-85836000D03*
D17*
X113538000Y-77935000D03*
D18*
X113538000Y-80010000D03*
D19*
X119380000Y-91440000D03*
D20*
X120650000Y-91440000D03*
X121920000Y-91440000D03*
X123190000Y-91440000D03*
X124460000Y-91440000D03*
X125730000Y-91440000D03*
X127000000Y-91440000D03*
X128270000Y-91440000D03*
X129540000Y-91440000D03*
X130810000Y-91440000D03*
X132080000Y-91440000D03*
X133350000Y-91440000D03*
D12*
X129535000Y-76200000D03*
D13*
X126995000Y-76200000D03*
X124455000Y-76200000D03*
X121915000Y-76200000D03*
X119375000Y-76200000D03*
D12*
X147320000Y-73660000D03*
D13*
X147320000Y-76200000D03*
X147320000Y-78740000D03*
X147320000Y-81280000D03*
D21*
X141716000Y-76962000D03*
X139716000Y-76962000D03*
D10*
X134366000Y-80280000D03*
X134366000Y-82280000D03*
D15*
X106045000Y-88025000D03*
D16*
X106045000Y-89775000D03*
D15*
X111760000Y-88025000D03*
D16*
X111760000Y-89775000D03*
D10*
X107950000Y-83836000D03*
X107950000Y-85836000D03*
X139700000Y-79010000D03*
X139700000Y-81010000D03*
X112014000Y-83836000D03*
X112014000Y-85836000D03*
D22*
X137922000Y-76962000D03*
X116840000Y-84074000D03*
X116840000Y-80010000D03*
X105918000Y-81788000D03*
X137922000Y-81026000D03*
X105918000Y-78994000D03*
X137922000Y-86106000D03*
D23*
X130793000Y-78486660D03*
X123952000Y-84074000D03*
X127000000Y-78486000D03*
X132842000Y-78486000D03*
X115062000Y-83820000D03*
X115062000Y-77978000D03*
X130793000Y-84074660D03*
D22*
X135890000Y-80264000D03*
X135890000Y-74676000D03*
D23*
X136906000Y-89662000D03*
X136906000Y-78994000D03*
X120650000Y-88138000D03*
X124714000Y-85344000D03*
X125476000Y-86106000D03*
X126386977Y-86719023D03*
X129540000Y-80010000D03*
X130810000Y-88900000D03*
X122936000Y-88900000D03*
X122936000Y-84582000D03*
X132334000Y-80772000D03*
X126259977Y-80750023D03*
X115824000Y-80859500D03*
X115824000Y-89662000D03*
X131542500Y-77470000D03*
X131572000Y-85344000D03*
X118618000Y-79248000D03*
X126238000Y-84836000D03*
X121666000Y-79756000D03*
X124947262Y-82838787D03*
X118872000Y-89408000D03*
X124676683Y-81540638D03*
X107950000Y-90932000D03*
X114300000Y-90932000D03*
X117856000Y-89154000D03*
D24*
X111633000Y-78972500D02*
X112670500Y-80010000D01*
X107743000Y-78972500D02*
X105939500Y-78972500D01*
X113538000Y-80010000D02*
X116840000Y-80010000D01*
X104535000Y-89775000D02*
X106045000Y-89775000D01*
X112670500Y-80010000D02*
X113538000Y-80010000D01*
D25*
X134366000Y-86090000D02*
X137906000Y-86090000D01*
D24*
X97395000Y-89775000D02*
X104535000Y-89775000D01*
X147320000Y-81280000D02*
X139970000Y-81280000D01*
X139716000Y-76962000D02*
X137922000Y-76962000D01*
D25*
X120960000Y-84145000D02*
X118801000Y-84145000D01*
X137906000Y-86090000D02*
X137922000Y-86106000D01*
X118801000Y-84145000D02*
X116911000Y-84145000D01*
D24*
X104930000Y-81788000D02*
X104535000Y-82183000D01*
X139970000Y-81280000D02*
X139700000Y-81010000D01*
X105939500Y-78972500D02*
X105918000Y-78994000D01*
D25*
X119451000Y-83495000D02*
X118801000Y-84145000D01*
D24*
X137922000Y-81026000D02*
X139684000Y-81026000D01*
D25*
X120960000Y-83495000D02*
X119451000Y-83495000D01*
D24*
X96520000Y-88900000D02*
X97395000Y-89775000D01*
D25*
X116911000Y-84145000D02*
X116840000Y-84074000D01*
D24*
X105918000Y-81788000D02*
X104930000Y-81788000D01*
X104535000Y-82183000D02*
X104535000Y-89775000D01*
X107743000Y-78972500D02*
X111633000Y-78972500D01*
X139684000Y-81026000D02*
X139700000Y-81010000D01*
D25*
X129327000Y-83495000D02*
X129977000Y-84145000D01*
D26*
X130792340Y-78486000D02*
X130793000Y-78486660D01*
X130793660Y-78486000D02*
X130793000Y-78486660D01*
X127000000Y-78486000D02*
X130792340Y-78486000D01*
X115273000Y-77935000D02*
X113538000Y-77935000D01*
X115570000Y-78486000D02*
X127000000Y-78486000D01*
X115062000Y-77978000D02*
X115570000Y-78486000D01*
X115062000Y-83820000D02*
X112030000Y-83820000D01*
D25*
X130722660Y-84145000D02*
X130793000Y-84074660D01*
X129977000Y-84145000D02*
X130722660Y-84145000D01*
D26*
X113450500Y-78022500D02*
X113538000Y-77935000D01*
X115062000Y-77978000D02*
X115273000Y-77935000D01*
D25*
X127889000Y-84074000D02*
X127960000Y-84145000D01*
X127960000Y-84145000D02*
X129977000Y-84145000D01*
X123952000Y-84074000D02*
X127889000Y-84074000D01*
D26*
X132842000Y-78486000D02*
X130793660Y-78486000D01*
D25*
X127960000Y-83495000D02*
X129327000Y-83495000D01*
D26*
X112030000Y-83820000D02*
X112014000Y-83836000D01*
X110443000Y-78022500D02*
X113450500Y-78022500D01*
X105918000Y-83836000D02*
X112014000Y-83836000D01*
D25*
X135874000Y-80280000D02*
X135890000Y-80264000D01*
D24*
X102616000Y-78232000D02*
X102616000Y-85344000D01*
D25*
X135890000Y-74676000D02*
X135890000Y-73660000D01*
D24*
X102875500Y-77972500D02*
X102616000Y-78232000D01*
X104013000Y-77972500D02*
X102875500Y-77972500D01*
D25*
X134366000Y-80280000D02*
X135874000Y-80280000D01*
D24*
X107743000Y-75645000D02*
X109728000Y-73660000D01*
X101600000Y-86360000D02*
X96520000Y-86360000D01*
X107743000Y-78022500D02*
X107743000Y-75645000D01*
X109728000Y-73660000D02*
X135890000Y-73660000D01*
X104013000Y-77972500D02*
X107693000Y-77972500D01*
X107693000Y-77972500D02*
X107743000Y-78022500D01*
X102616000Y-85344000D02*
X101600000Y-86360000D01*
X135890000Y-73660000D02*
X147320000Y-73660000D01*
D25*
X141716000Y-76184000D02*
X141716000Y-76962000D01*
X133140661Y-79248000D02*
X137204661Y-75184000D01*
X137204661Y-75184000D02*
X140716000Y-75184000D01*
X140716000Y-75184000D02*
X141716000Y-76184000D01*
D26*
X144018000Y-76962000D02*
X141716000Y-76962000D01*
X144780000Y-76200000D02*
X144018000Y-76962000D01*
X147320000Y-76200000D02*
X144780000Y-76200000D01*
D25*
X121931751Y-81545000D02*
X124228751Y-79248000D01*
X124228751Y-79248000D02*
X133140661Y-79248000D01*
X120960000Y-81545000D02*
X121931751Y-81545000D01*
X119380000Y-87376000D02*
X120011000Y-86745000D01*
D26*
X139970000Y-78740000D02*
X147320000Y-78740000D01*
D25*
X119380000Y-88856046D02*
X119380000Y-87376000D01*
X136906000Y-78994000D02*
X139684000Y-78994000D01*
D26*
X139700000Y-79010000D02*
X139970000Y-78740000D01*
D25*
X139684000Y-78994000D02*
X139700000Y-79010000D01*
X120185954Y-89662000D02*
X119380000Y-88856046D01*
X136906000Y-89662000D02*
X120185954Y-89662000D01*
X120011000Y-86745000D02*
X120960000Y-86745000D01*
X129540000Y-87884000D02*
X129286000Y-88138000D01*
X129540000Y-86360000D02*
X129540000Y-87884000D01*
X127960000Y-86095000D02*
X129275000Y-86095000D01*
X129286000Y-88138000D02*
X120650000Y-88138000D01*
X129275000Y-86095000D02*
X129540000Y-86360000D01*
X124714000Y-85344000D02*
X124613000Y-85445000D01*
X124613000Y-85445000D02*
X120960000Y-85445000D01*
X120971000Y-86106000D02*
X120960000Y-86095000D01*
X125476000Y-86106000D02*
X120971000Y-86106000D01*
D26*
X106045000Y-85963000D02*
X105918000Y-85836000D01*
X106045000Y-88025000D02*
X106045000Y-85963000D01*
X107950000Y-88025000D02*
X107950000Y-85836000D01*
D25*
X127960000Y-86745000D02*
X126412954Y-86745000D01*
X126412954Y-86745000D02*
X126386977Y-86719023D01*
X122021000Y-82195000D02*
X124215477Y-80000523D01*
X129530523Y-80000523D02*
X129540000Y-80010000D01*
X124215477Y-80000523D02*
X129530523Y-80000523D01*
X120960000Y-82195000D02*
X122021000Y-82195000D01*
D26*
X109982000Y-87898000D02*
X109855000Y-88025000D01*
X109982000Y-85836000D02*
X109982000Y-87898000D01*
X111760000Y-88025000D02*
X111760000Y-86090000D01*
X111760000Y-86090000D02*
X112014000Y-85836000D01*
D25*
X120960000Y-84795000D02*
X122723000Y-84795000D01*
X122936000Y-88900000D02*
X130810000Y-88900000D01*
X122723000Y-84795000D02*
X122936000Y-84582000D01*
X132211000Y-80895000D02*
X132334000Y-80772000D01*
X127960000Y-80895000D02*
X132211000Y-80895000D01*
X126213267Y-80703313D02*
X126259977Y-80750023D01*
X120960000Y-82845000D02*
X122312367Y-82845000D01*
X122312367Y-82845000D02*
X124454054Y-80703313D01*
X124454054Y-80703313D02*
X126213267Y-80703313D01*
D26*
X107743000Y-79922500D02*
X104063000Y-79922500D01*
X104063000Y-79922500D02*
X104013000Y-79972500D01*
D25*
X131538339Y-81545000D02*
X132273339Y-82280000D01*
X127960000Y-81545000D02*
X131538339Y-81545000D01*
D26*
X134366000Y-82280000D02*
X134366000Y-84090000D01*
D25*
X132273339Y-82280000D02*
X134366000Y-82280000D01*
X111760000Y-89775000D02*
X115711000Y-89775000D01*
X115859500Y-80895000D02*
X115824000Y-80859500D01*
X115711000Y-89775000D02*
X115824000Y-89662000D01*
X120960000Y-80895000D02*
X115859500Y-80895000D01*
X131572000Y-85344000D02*
X131471000Y-85445000D01*
X131542500Y-75408500D02*
X131542500Y-77470000D01*
X130556000Y-74422000D02*
X131542500Y-75408500D01*
X121153000Y-74422000D02*
X130556000Y-74422000D01*
X131471000Y-85445000D02*
X127960000Y-85445000D01*
X119375000Y-76200000D02*
X121153000Y-74422000D01*
X121158000Y-79248000D02*
X118618000Y-79248000D01*
X121666000Y-79756000D02*
X121158000Y-79248000D01*
X127960000Y-84795000D02*
X126279000Y-84795000D01*
X126279000Y-84795000D02*
X126238000Y-84836000D01*
X124953475Y-82845000D02*
X124947262Y-82838787D01*
X110744000Y-91694000D02*
X109855000Y-90805000D01*
X109855000Y-90805000D02*
X109855000Y-89775000D01*
X127960000Y-82845000D02*
X124953475Y-82845000D01*
X116586000Y-91694000D02*
X110744000Y-91694000D01*
X118872000Y-89408000D02*
X116586000Y-91694000D01*
X116078000Y-90932000D02*
X117856000Y-89154000D01*
X114300000Y-90932000D02*
X116078000Y-90932000D01*
X127960000Y-82195000D02*
X125331045Y-82195000D01*
X125331045Y-82195000D02*
X124676683Y-81540638D01*
X107950000Y-89775000D02*
X107950000Y-90932000D01*
M02*
