M48
; DRILL file {KiCad (6.0.6)} date Sun Apr  2 13:36:12 2023
; FORMAT={-:-/ absolute / inch / decimal}
; #@! TF.CreationDate,2023-04-02T13:36:12+02:00
; #@! TF.GenerationSoftware,Kicad,Pcbnew,(6.0.6)
; #@! TF.FileFunction,Plated,1,2,PTH
FMAT,2
INCH
; #@! TA.AperFunction,Plated,PTH,ViaDrill
T1C0.0157
; #@! TA.AperFunction,Plated,PTH,ViaDrill
T2C0.0236
; #@! TA.AperFunction,Plated,PTH,ComponentDrill
T3C0.0256
; #@! TA.AperFunction,Plated,PTH,ComponentDrill
T4C0.0394
%
G90
G05
T1
X4.25Y-3.58
X4.5Y-3.58
X4.53Y-3.07
X4.53Y-3.3
X4.56Y-3.1834
X4.56Y-3.53
X4.64Y-3.51
X4.67Y-3.12
X4.68Y-3.52
X4.75Y-3.47
X4.79Y-3.14
X4.84Y-3.33
X4.84Y-3.5
X4.88Y-3.31
X4.9085Y-3.2103
X4.91Y-3.36
X4.9192Y-3.2614
X4.94Y-3.39
X4.97Y-3.34
X4.9709Y-3.1791
X4.9759Y-3.4141
X5.0Y-3.09
X5.1Y-3.15
X5.1493Y-3.09
X5.1493Y-3.31
X5.15Y-3.5
X5.1788Y-3.05
X5.18Y-3.36
X5.21Y-3.18
X5.23Y-3.09
X5.39Y-3.11
X5.39Y-3.53
T2
X4.17Y-3.11
X4.17Y-3.22
X4.6Y-3.15
X4.6Y-3.31
X5.35Y-2.94
X5.35Y-3.16
X5.43Y-3.03
X5.43Y-3.19
X5.43Y-3.39
T3
X4.7Y-3.6
X4.75Y-3.6
X4.8Y-3.6
X4.85Y-3.6
X4.9Y-3.6
X4.95Y-3.6
X5.0Y-3.6
X5.05Y-3.6
X5.1Y-3.6
X5.15Y-3.6
X5.2Y-3.6
X5.25Y-3.6
T4
X3.8Y-3.4
X3.8Y-3.5
X4.6998Y-3.0
X4.7998Y-3.0
X4.8998Y-3.0
X4.9998Y-3.0
X5.0998Y-3.0
X5.8Y-2.9
X5.8Y-3.0
X5.8Y-3.1
X5.8Y-3.2
T0
M30
