G04 #@! TF.GenerationSoftware,KiCad,Pcbnew,(6.0.6)*
G04 #@! TF.CreationDate,2023-04-07T17:07:22+02:00*
G04 #@! TF.ProjectId,LampeSolairePetite,4c616d70-6553-46f6-9c61-697265506574,R00*
G04 #@! TF.SameCoordinates,Original*
G04 #@! TF.FileFunction,Legend,Top*
G04 #@! TF.FilePolarity,Positive*
%FSLAX46Y46*%
G04 Gerber Fmt 4.6, Leading zero omitted, Abs format (unit mm)*
G04 Created by KiCad (PCBNEW (6.0.6)) date 2023-04-07 17:07:22*
%MOMM*%
%LPD*%
G01*
G04 APERTURE LIST*
%ADD10C,0.120000*%
%ADD11C,0.300000*%
%ADD12C,0.150000*%
G04 APERTURE END LIST*
D10*
X131572000Y-74676000D02*
G75*
G03*
X131572000Y-74676000I-254000J0D01*
G01*
D11*
X91376571Y-86467142D02*
X92519428Y-86467142D01*
X91948000Y-87038571D02*
X91948000Y-85895714D01*
X91376571Y-89007142D02*
X92519428Y-89007142D01*
D12*
X100805714Y-86812380D02*
X100234285Y-86812380D01*
X100520000Y-86812380D02*
X100520000Y-85812380D01*
X100424761Y-85955238D01*
X100329523Y-86050476D01*
X100234285Y-86098095D01*
X143541714Y-74112380D02*
X142970285Y-74112380D01*
X143256000Y-74112380D02*
X143256000Y-73112380D01*
X143160761Y-73255238D01*
X143065523Y-73350476D01*
X142970285Y-73398095D01*
D10*
X133631000Y-84862936D02*
X133631000Y-85317064D01*
X135101000Y-84862936D02*
X135101000Y-85317064D01*
X121700000Y-87530000D02*
X121700000Y-87255000D01*
X124460000Y-80110000D02*
X121700000Y-80110000D01*
X127220000Y-80110000D02*
X127220000Y-80385000D01*
X124460000Y-87530000D02*
X121700000Y-87530000D01*
X124460000Y-80110000D02*
X127220000Y-80110000D01*
X124460000Y-87530000D02*
X127220000Y-87530000D01*
X127220000Y-87530000D02*
X127220000Y-87255000D01*
X121700000Y-80110000D02*
X121700000Y-80385000D01*
X121700000Y-80385000D02*
X120010000Y-80385000D01*
X105183000Y-84608936D02*
X105183000Y-85063064D01*
X106653000Y-84608936D02*
X106653000Y-85063064D01*
X93270000Y-85160000D02*
X99620000Y-85160000D01*
X93270000Y-90100000D02*
X93270000Y-85160000D01*
X93270000Y-90100000D02*
X99620000Y-90100000D01*
X99620000Y-85160000D02*
X99620000Y-90100000D01*
X98020000Y-85160000D02*
X98020000Y-90100000D01*
X108193000Y-80582500D02*
X109993000Y-80582500D01*
X109993000Y-77362500D02*
X107543000Y-77362500D01*
X103278000Y-78745436D02*
X103278000Y-79199564D01*
X104748000Y-78745436D02*
X104748000Y-79199564D01*
X109247000Y-84608936D02*
X109247000Y-85063064D01*
X110717000Y-84608936D02*
X110717000Y-85063064D01*
X120140000Y-90876529D02*
X120140000Y-90330000D01*
X134045000Y-91132470D02*
X134045000Y-90330000D01*
X120140000Y-92550000D02*
X134045000Y-92550000D01*
X118620000Y-92550000D02*
X118620000Y-91440000D01*
X120140000Y-92550000D02*
X120140000Y-92003471D01*
X119380000Y-92550000D02*
X118620000Y-92550000D01*
X120140000Y-90330000D02*
X134045000Y-90330000D01*
X134045000Y-92550000D02*
X134045000Y-91747530D01*
X118045000Y-74870000D02*
X118045000Y-77530000D01*
X130865000Y-74870000D02*
X130865000Y-76200000D01*
X128265000Y-74870000D02*
X118045000Y-74870000D01*
X129535000Y-74870000D02*
X130865000Y-74870000D01*
X128265000Y-77530000D02*
X118045000Y-77530000D01*
X128265000Y-74870000D02*
X128265000Y-77530000D01*
X144070000Y-82480000D02*
X144070000Y-72460000D01*
X148820000Y-72460000D02*
X148820000Y-82480000D01*
X150420000Y-72460000D02*
X150420000Y-82480000D01*
X144070000Y-82480000D02*
X150420000Y-82480000D01*
X144070000Y-72460000D02*
X150420000Y-72460000D01*
X140943064Y-76227000D02*
X140488936Y-76227000D01*
X140943064Y-77697000D02*
X140488936Y-77697000D01*
X135101000Y-81052936D02*
X135101000Y-81507064D01*
X133631000Y-81052936D02*
X133631000Y-81507064D01*
X107215000Y-84608936D02*
X107215000Y-85063064D01*
X108685000Y-84608936D02*
X108685000Y-85063064D01*
X140435000Y-79782936D02*
X140435000Y-80237064D01*
X138965000Y-79782936D02*
X138965000Y-80237064D01*
X111279000Y-84608936D02*
X111279000Y-85063064D01*
X112749000Y-84608936D02*
X112749000Y-85063064D01*
M02*
