M48
; DRILL file {KiCad (6.0.6)} date Sun Apr  2 13:24:26 2023
; FORMAT={-:-/ absolute / inch / decimal}
; #@! TF.CreationDate,2023-04-02T13:24:26+02:00
; #@! TF.GenerationSoftware,Kicad,Pcbnew,(6.0.6)
; #@! TF.FileFunction,Plated,1,2,PTH
FMAT,2
INCH
; #@! TA.AperFunction,Plated,PTH,ViaDrill
T1C0.0157
; #@! TA.AperFunction,Plated,PTH,ViaDrill
T2C0.0236
; #@! TA.AperFunction,Plated,PTH,ComponentDrill
T3C0.0256
; #@! TA.AperFunction,Plated,PTH,ComponentDrill
T4C0.0394
%
G90
G05
T1
X0.313Y0.2586
X0.563Y0.2586
X0.593Y0.7686
X0.593Y0.5386
X0.623Y0.6551
X0.623Y0.3086
X0.703Y0.3286
X0.733Y0.7186
X0.743Y0.3186
X0.813Y0.3686
X0.853Y0.6986
X0.903Y0.5086
X0.903Y0.3386
X0.943Y0.5286
X0.9715Y0.6283
X0.973Y0.4786
X0.9822Y0.5772
X1.003Y0.4486
X1.033Y0.4986
X1.0339Y0.6594
X1.0389Y0.4244
X1.063Y0.7486
X1.163Y0.6886
X1.2123Y0.7486
X1.2123Y0.5286
X1.213Y0.3386
X1.2418Y0.7886
X1.243Y0.4786
X1.273Y0.6586
X1.293Y0.7486
X1.453Y0.7286
X1.453Y0.3086
T2
X0.233Y0.7286
X0.233Y0.6186
X0.663Y0.6886
X0.663Y0.5286
X1.413Y0.8986
X1.413Y0.6786
X1.493Y0.8086
X1.493Y0.6486
X1.493Y0.4486
T3
X0.763Y0.2386
X0.813Y0.2386
X0.863Y0.2386
X0.913Y0.2386
X0.963Y0.2386
X1.013Y0.2386
X1.063Y0.2386
X1.113Y0.2386
X1.163Y0.2386
X1.213Y0.2386
X1.263Y0.2386
X1.313Y0.2386
T4
X-0.137Y0.6386
X-0.137Y0.5386
X0.7628Y0.8386
X0.8628Y0.8386
X0.9628Y0.8386
X1.0628Y0.8386
X1.1628Y0.8386
X1.863Y0.9386
X1.863Y0.8386
X1.863Y0.7386
X1.863Y0.6386
T0
M30
