G04 #@! TF.GenerationSoftware,KiCad,Pcbnew,(5.1.6)-1*
G04 #@! TF.CreationDate,2020-10-13T20:36:20+02:00*
G04 #@! TF.ProjectId,LampeSolaire2,4c616d70-6553-46f6-9c61-697265322e6b,R00*
G04 #@! TF.SameCoordinates,PX5f5e100PY5cfbb60*
G04 #@! TF.FileFunction,Legend,Bot*
G04 #@! TF.FilePolarity,Positive*
%FSLAX46Y46*%
G04 Gerber Fmt 4.6, Leading zero omitted, Abs format (unit mm)*
G04 Created by KiCad (PCBNEW (5.1.6)-1) date 2020-10-13 20:36:20*
%MOMM*%
%LPD*%
G01*
G04 APERTURE LIST*
%ADD10C,0.300000*%
%ADD11C,0.150000*%
%ADD12C,0.250000*%
%ADD13C,0.120000*%
%ADD14C,0.100000*%
%ADD15C,0.304800*%
G04 APERTURE END LIST*
D10*
X32678571Y-1357142D02*
X33821428Y-1357142D01*
D11*
X25952380Y-13523809D02*
X24952380Y-13523809D01*
X25857142Y-14571428D02*
X25904761Y-14523809D01*
X25952380Y-14380952D01*
X25952380Y-14285714D01*
X25904761Y-14142857D01*
X25809523Y-14047619D01*
X25714285Y-14000000D01*
X25523809Y-13952380D01*
X25380952Y-13952380D01*
X25190476Y-14000000D01*
X25095238Y-14047619D01*
X25000000Y-14142857D01*
X24952380Y-14285714D01*
X24952380Y-14380952D01*
X25000000Y-14523809D01*
X25047619Y-14571428D01*
X25904761Y-14952380D02*
X25952380Y-15095238D01*
X25952380Y-15333333D01*
X25904761Y-15428571D01*
X25857142Y-15476190D01*
X25761904Y-15523809D01*
X25666666Y-15523809D01*
X25571428Y-15476190D01*
X25523809Y-15428571D01*
X25476190Y-15333333D01*
X25428571Y-15142857D01*
X25380952Y-15047619D01*
X25333333Y-15000000D01*
X25238095Y-14952380D01*
X25142857Y-14952380D01*
X25047619Y-15000000D01*
X25000000Y-15047619D01*
X24952380Y-15142857D01*
X24952380Y-15380952D01*
X25000000Y-15523809D01*
X25952380Y-15952380D02*
X24952380Y-15952380D01*
X24952380Y-16333333D01*
X25000000Y-16428571D01*
X25047619Y-16476190D01*
X25142857Y-16523809D01*
X25285714Y-16523809D01*
X25380952Y-16476190D01*
X25428571Y-16428571D01*
X25476190Y-16333333D01*
X25476190Y-15952380D01*
D12*
X87458333Y-1940476D02*
X88053571Y-1940476D01*
X88053571Y-690476D01*
X86505952Y-1940476D02*
X86505952Y-1285714D01*
X86565476Y-1166666D01*
X86684523Y-1107142D01*
X86922619Y-1107142D01*
X87041666Y-1166666D01*
X86505952Y-1880952D02*
X86625000Y-1940476D01*
X86922619Y-1940476D01*
X87041666Y-1880952D01*
X87101190Y-1761904D01*
X87101190Y-1642857D01*
X87041666Y-1523809D01*
X86922619Y-1464285D01*
X86625000Y-1464285D01*
X86505952Y-1404761D01*
X85910714Y-1940476D02*
X85910714Y-1107142D01*
X85910714Y-1226190D02*
X85851190Y-1166666D01*
X85732142Y-1107142D01*
X85553571Y-1107142D01*
X85434523Y-1166666D01*
X85375000Y-1285714D01*
X85375000Y-1940476D01*
X85375000Y-1285714D02*
X85315476Y-1166666D01*
X85196428Y-1107142D01*
X85017857Y-1107142D01*
X84898809Y-1166666D01*
X84839285Y-1285714D01*
X84839285Y-1940476D01*
X84244047Y-1107142D02*
X84244047Y-2357142D01*
X84244047Y-1166666D02*
X84125000Y-1107142D01*
X83886904Y-1107142D01*
X83767857Y-1166666D01*
X83708333Y-1226190D01*
X83648809Y-1345238D01*
X83648809Y-1702380D01*
X83708333Y-1821428D01*
X83767857Y-1880952D01*
X83886904Y-1940476D01*
X84125000Y-1940476D01*
X84244047Y-1880952D01*
X82636904Y-1880952D02*
X82755952Y-1940476D01*
X82994047Y-1940476D01*
X83113095Y-1880952D01*
X83172619Y-1761904D01*
X83172619Y-1285714D01*
X83113095Y-1166666D01*
X82994047Y-1107142D01*
X82755952Y-1107142D01*
X82636904Y-1166666D01*
X82577380Y-1285714D01*
X82577380Y-1404761D01*
X83172619Y-1523809D01*
X82101190Y-1880952D02*
X81922619Y-1940476D01*
X81625000Y-1940476D01*
X81505952Y-1880952D01*
X81446428Y-1821428D01*
X81386904Y-1702380D01*
X81386904Y-1583333D01*
X81446428Y-1464285D01*
X81505952Y-1404761D01*
X81625000Y-1345238D01*
X81863095Y-1285714D01*
X81982142Y-1226190D01*
X82041666Y-1166666D01*
X82101190Y-1047619D01*
X82101190Y-928571D01*
X82041666Y-809523D01*
X81982142Y-750000D01*
X81863095Y-690476D01*
X81565476Y-690476D01*
X81386904Y-750000D01*
X80672619Y-1940476D02*
X80791666Y-1880952D01*
X80851190Y-1821428D01*
X80910714Y-1702380D01*
X80910714Y-1345238D01*
X80851190Y-1226190D01*
X80791666Y-1166666D01*
X80672619Y-1107142D01*
X80494047Y-1107142D01*
X80375000Y-1166666D01*
X80315476Y-1226190D01*
X80255952Y-1345238D01*
X80255952Y-1702380D01*
X80315476Y-1821428D01*
X80375000Y-1880952D01*
X80494047Y-1940476D01*
X80672619Y-1940476D01*
X79541666Y-1940476D02*
X79660714Y-1880952D01*
X79720238Y-1761904D01*
X79720238Y-690476D01*
X78529761Y-1940476D02*
X78529761Y-1285714D01*
X78589285Y-1166666D01*
X78708333Y-1107142D01*
X78946428Y-1107142D01*
X79065476Y-1166666D01*
X78529761Y-1880952D02*
X78648809Y-1940476D01*
X78946428Y-1940476D01*
X79065476Y-1880952D01*
X79125000Y-1761904D01*
X79125000Y-1642857D01*
X79065476Y-1523809D01*
X78946428Y-1464285D01*
X78648809Y-1464285D01*
X78529761Y-1404761D01*
X77934523Y-1940476D02*
X77934523Y-1107142D01*
X77934523Y-690476D02*
X77994047Y-750000D01*
X77934523Y-809523D01*
X77875000Y-750000D01*
X77934523Y-690476D01*
X77934523Y-809523D01*
X77339285Y-1940476D02*
X77339285Y-1107142D01*
X77339285Y-1345238D02*
X77279761Y-1226190D01*
X77220238Y-1166666D01*
X77101190Y-1107142D01*
X76982142Y-1107142D01*
X76089285Y-1880952D02*
X76208333Y-1940476D01*
X76446428Y-1940476D01*
X76565476Y-1880952D01*
X76625000Y-1761904D01*
X76625000Y-1285714D01*
X76565476Y-1166666D01*
X76446428Y-1107142D01*
X76208333Y-1107142D01*
X76089285Y-1166666D01*
X76029761Y-1285714D01*
X76029761Y-1404761D01*
X76625000Y-1523809D01*
X74601190Y-809523D02*
X74541666Y-750000D01*
X74422619Y-690476D01*
X74125000Y-690476D01*
X74005952Y-750000D01*
X73946428Y-809523D01*
X73886904Y-928571D01*
X73886904Y-1047619D01*
X73946428Y-1226190D01*
X74660714Y-1940476D01*
X73886904Y-1940476D01*
X88083333Y-3410714D02*
X87666666Y-3410714D01*
X87488095Y-4065476D02*
X88083333Y-4065476D01*
X88083333Y-2815476D01*
X87488095Y-2815476D01*
X87011904Y-4005952D02*
X86892857Y-4065476D01*
X86654761Y-4065476D01*
X86535714Y-4005952D01*
X86476190Y-3886904D01*
X86476190Y-3827380D01*
X86535714Y-3708333D01*
X86654761Y-3648809D01*
X86833333Y-3648809D01*
X86952380Y-3589285D01*
X87011904Y-3470238D01*
X87011904Y-3410714D01*
X86952380Y-3291666D01*
X86833333Y-3232142D01*
X86654761Y-3232142D01*
X86535714Y-3291666D01*
X86000000Y-4005952D02*
X85880952Y-4065476D01*
X85642857Y-4065476D01*
X85523809Y-4005952D01*
X85464285Y-3886904D01*
X85464285Y-3827380D01*
X85523809Y-3708333D01*
X85642857Y-3648809D01*
X85821428Y-3648809D01*
X85940476Y-3589285D01*
X86000000Y-3470238D01*
X86000000Y-3410714D01*
X85940476Y-3291666D01*
X85821428Y-3232142D01*
X85642857Y-3232142D01*
X85523809Y-3291666D01*
X84452380Y-4005952D02*
X84571428Y-4065476D01*
X84809523Y-4065476D01*
X84928571Y-4005952D01*
X84988095Y-3886904D01*
X84988095Y-3410714D01*
X84928571Y-3291666D01*
X84809523Y-3232142D01*
X84571428Y-3232142D01*
X84452380Y-3291666D01*
X84392857Y-3410714D01*
X84392857Y-3529761D01*
X84988095Y-3648809D01*
X83857142Y-4065476D02*
X83857142Y-3232142D01*
X83857142Y-2815476D02*
X83916666Y-2875000D01*
X83857142Y-2934523D01*
X83797619Y-2875000D01*
X83857142Y-2815476D01*
X83857142Y-2934523D01*
X83380952Y-3232142D02*
X83083333Y-4065476D01*
X82785714Y-3232142D01*
X81773809Y-4065476D02*
X81773809Y-3410714D01*
X81833333Y-3291666D01*
X81952380Y-3232142D01*
X82190476Y-3232142D01*
X82309523Y-3291666D01*
X81773809Y-4005952D02*
X81892857Y-4065476D01*
X82190476Y-4065476D01*
X82309523Y-4005952D01*
X82369047Y-3886904D01*
X82369047Y-3767857D01*
X82309523Y-3648809D01*
X82190476Y-3589285D01*
X81892857Y-3589285D01*
X81773809Y-3529761D01*
X80226190Y-4065476D02*
X80226190Y-2815476D01*
X79511904Y-4065476D01*
X79511904Y-2815476D01*
X78916666Y-4065476D02*
X78916666Y-3232142D01*
X78916666Y-2815476D02*
X78976190Y-2875000D01*
X78916666Y-2934523D01*
X78857142Y-2875000D01*
X78916666Y-2815476D01*
X78916666Y-2934523D01*
X77785714Y-4005952D02*
X77904761Y-4065476D01*
X78142857Y-4065476D01*
X78261904Y-4005952D01*
X78321428Y-3946428D01*
X78380952Y-3827380D01*
X78380952Y-3470238D01*
X78321428Y-3351190D01*
X78261904Y-3291666D01*
X78142857Y-3232142D01*
X77904761Y-3232142D01*
X77785714Y-3291666D01*
X77071428Y-4065476D02*
X77190476Y-4005952D01*
X77250000Y-3946428D01*
X77309523Y-3827380D01*
X77309523Y-3470238D01*
X77250000Y-3351190D01*
X77190476Y-3291666D01*
X77071428Y-3232142D01*
X76892857Y-3232142D01*
X76773809Y-3291666D01*
X76714285Y-3351190D01*
X76654761Y-3470238D01*
X76654761Y-3827380D01*
X76714285Y-3946428D01*
X76773809Y-4005952D01*
X76892857Y-4065476D01*
X77071428Y-4065476D01*
X75940476Y-4065476D02*
X76059523Y-4005952D01*
X76119047Y-3886904D01*
X76119047Y-2815476D01*
X74928571Y-4065476D02*
X74928571Y-3410714D01*
X74988095Y-3291666D01*
X75107142Y-3232142D01*
X75345238Y-3232142D01*
X75464285Y-3291666D01*
X74928571Y-4005952D02*
X75047619Y-4065476D01*
X75345238Y-4065476D01*
X75464285Y-4005952D01*
X75523809Y-3886904D01*
X75523809Y-3767857D01*
X75464285Y-3648809D01*
X75345238Y-3589285D01*
X75047619Y-3589285D01*
X74928571Y-3529761D01*
X74392857Y-4005952D02*
X74273809Y-4065476D01*
X74035714Y-4065476D01*
X73916666Y-4005952D01*
X73857142Y-3886904D01*
X73857142Y-3827380D01*
X73916666Y-3708333D01*
X74035714Y-3648809D01*
X74214285Y-3648809D01*
X74333333Y-3589285D01*
X74392857Y-3470238D01*
X74392857Y-3410714D01*
X74333333Y-3291666D01*
X74214285Y-3232142D01*
X74035714Y-3232142D01*
X73916666Y-3291666D01*
X89065476Y-5059523D02*
X89005952Y-5000000D01*
X88886904Y-4940476D01*
X88589285Y-4940476D01*
X88470238Y-5000000D01*
X88410714Y-5059523D01*
X88351190Y-5178571D01*
X88351190Y-5297619D01*
X88410714Y-5476190D01*
X89125000Y-6190476D01*
X88351190Y-6190476D01*
X87279761Y-4940476D02*
X87517857Y-4940476D01*
X87636904Y-5000000D01*
X87696428Y-5059523D01*
X87815476Y-5238095D01*
X87875000Y-5476190D01*
X87875000Y-5952380D01*
X87815476Y-6071428D01*
X87755952Y-6130952D01*
X87636904Y-6190476D01*
X87398809Y-6190476D01*
X87279761Y-6130952D01*
X87220238Y-6071428D01*
X87160714Y-5952380D01*
X87160714Y-5654761D01*
X87220238Y-5535714D01*
X87279761Y-5476190D01*
X87398809Y-5416666D01*
X87636904Y-5416666D01*
X87755952Y-5476190D01*
X87815476Y-5535714D01*
X87875000Y-5654761D01*
X86386904Y-4940476D02*
X86267857Y-4940476D01*
X86148809Y-5000000D01*
X86089285Y-5059523D01*
X86029761Y-5178571D01*
X85970238Y-5416666D01*
X85970238Y-5714285D01*
X86029761Y-5952380D01*
X86089285Y-6071428D01*
X86148809Y-6130952D01*
X86267857Y-6190476D01*
X86386904Y-6190476D01*
X86505952Y-6130952D01*
X86565476Y-6071428D01*
X86625000Y-5952380D01*
X86684523Y-5714285D01*
X86684523Y-5416666D01*
X86625000Y-5178571D01*
X86565476Y-5059523D01*
X86505952Y-5000000D01*
X86386904Y-4940476D01*
X85375000Y-6190476D02*
X85136904Y-6190476D01*
X85017857Y-6130952D01*
X84958333Y-6071428D01*
X84839285Y-5892857D01*
X84779761Y-5654761D01*
X84779761Y-5178571D01*
X84839285Y-5059523D01*
X84898809Y-5000000D01*
X85017857Y-4940476D01*
X85255952Y-4940476D01*
X85375000Y-5000000D01*
X85434523Y-5059523D01*
X85494047Y-5178571D01*
X85494047Y-5476190D01*
X85434523Y-5595238D01*
X85375000Y-5654761D01*
X85255952Y-5714285D01*
X85017857Y-5714285D01*
X84898809Y-5654761D01*
X84839285Y-5595238D01*
X84779761Y-5476190D01*
X84303571Y-5059523D02*
X84244047Y-5000000D01*
X84125000Y-4940476D01*
X83827380Y-4940476D01*
X83708333Y-5000000D01*
X83648809Y-5059523D01*
X83589285Y-5178571D01*
X83589285Y-5297619D01*
X83648809Y-5476190D01*
X84363095Y-6190476D01*
X83589285Y-6190476D01*
X82815476Y-4940476D02*
X82696428Y-4940476D01*
X82577380Y-5000000D01*
X82517857Y-5059523D01*
X82458333Y-5178571D01*
X82398809Y-5416666D01*
X82398809Y-5714285D01*
X82458333Y-5952380D01*
X82517857Y-6071428D01*
X82577380Y-6130952D01*
X82696428Y-6190476D01*
X82815476Y-6190476D01*
X82934523Y-6130952D01*
X82994047Y-6071428D01*
X83053571Y-5952380D01*
X83113095Y-5714285D01*
X83113095Y-5416666D01*
X83053571Y-5178571D01*
X82994047Y-5059523D01*
X82934523Y-5000000D01*
X82815476Y-4940476D01*
X81922619Y-5059523D02*
X81863095Y-5000000D01*
X81744047Y-4940476D01*
X81446428Y-4940476D01*
X81327380Y-5000000D01*
X81267857Y-5059523D01*
X81208333Y-5178571D01*
X81208333Y-5297619D01*
X81267857Y-5476190D01*
X81982142Y-6190476D01*
X81208333Y-6190476D01*
X80434523Y-4940476D02*
X80315476Y-4940476D01*
X80196428Y-5000000D01*
X80136904Y-5059523D01*
X80077380Y-5178571D01*
X80017857Y-5416666D01*
X80017857Y-5714285D01*
X80077380Y-5952380D01*
X80136904Y-6071428D01*
X80196428Y-6130952D01*
X80315476Y-6190476D01*
X80434523Y-6190476D01*
X80553571Y-6130952D01*
X80613095Y-6071428D01*
X80672619Y-5952380D01*
X80732142Y-5714285D01*
X80732142Y-5416666D01*
X80672619Y-5178571D01*
X80613095Y-5059523D01*
X80553571Y-5000000D01*
X80434523Y-4940476D01*
X78529761Y-5714285D02*
X77577380Y-5714285D01*
X75315476Y-6190476D02*
X75732142Y-5595238D01*
X76029761Y-6190476D02*
X76029761Y-4940476D01*
X75553571Y-4940476D01*
X75434523Y-5000000D01*
X75375000Y-5059523D01*
X75315476Y-5178571D01*
X75315476Y-5357142D01*
X75375000Y-5476190D01*
X75434523Y-5535714D01*
X75553571Y-5595238D01*
X76029761Y-5595238D01*
X74541666Y-4940476D02*
X74422619Y-4940476D01*
X74303571Y-5000000D01*
X74244047Y-5059523D01*
X74184523Y-5178571D01*
X74125000Y-5416666D01*
X74125000Y-5714285D01*
X74184523Y-5952380D01*
X74244047Y-6071428D01*
X74303571Y-6130952D01*
X74422619Y-6190476D01*
X74541666Y-6190476D01*
X74660714Y-6130952D01*
X74720238Y-6071428D01*
X74779761Y-5952380D01*
X74839285Y-5714285D01*
X74839285Y-5416666D01*
X74779761Y-5178571D01*
X74720238Y-5059523D01*
X74660714Y-5000000D01*
X74541666Y-4940476D01*
X73351190Y-4940476D02*
X73232142Y-4940476D01*
X73113095Y-5000000D01*
X73053571Y-5059523D01*
X72994047Y-5178571D01*
X72934523Y-5416666D01*
X72934523Y-5714285D01*
X72994047Y-5952380D01*
X73053571Y-6071428D01*
X73113095Y-6130952D01*
X73232142Y-6190476D01*
X73351190Y-6190476D01*
X73470238Y-6130952D01*
X73529761Y-6071428D01*
X73589285Y-5952380D01*
X73648809Y-5714285D01*
X73648809Y-5416666D01*
X73589285Y-5178571D01*
X73529761Y-5059523D01*
X73470238Y-5000000D01*
X73351190Y-4940476D01*
D11*
X13831071Y-12928571D02*
X13688214Y-12976190D01*
X13640595Y-13023809D01*
X13592976Y-13119047D01*
X13592976Y-13261904D01*
X13640595Y-13357142D01*
X13688214Y-13404761D01*
X13783452Y-13452380D01*
X14164404Y-13452380D01*
X14164404Y-12452380D01*
X13831071Y-12452380D01*
X13735833Y-12500000D01*
X13688214Y-12547619D01*
X13640595Y-12642857D01*
X13640595Y-12738095D01*
X13688214Y-12833333D01*
X13735833Y-12880952D01*
X13831071Y-12928571D01*
X14164404Y-12928571D01*
X12973928Y-12452380D02*
X12878690Y-12452380D01*
X12783452Y-12500000D01*
X12735833Y-12547619D01*
X12688214Y-12642857D01*
X12640595Y-12833333D01*
X12640595Y-13071428D01*
X12688214Y-13261904D01*
X12735833Y-13357142D01*
X12783452Y-13404761D01*
X12878690Y-13452380D01*
X12973928Y-13452380D01*
X13069166Y-13404761D01*
X13116785Y-13357142D01*
X13164404Y-13261904D01*
X13212023Y-13071428D01*
X13212023Y-12833333D01*
X13164404Y-12642857D01*
X13116785Y-12547619D01*
X13069166Y-12500000D01*
X12973928Y-12452380D01*
X13831071Y-10928571D02*
X13688214Y-10976190D01*
X13640595Y-11023809D01*
X13592976Y-11119047D01*
X13592976Y-11261904D01*
X13640595Y-11357142D01*
X13688214Y-11404761D01*
X13783452Y-11452380D01*
X14164404Y-11452380D01*
X14164404Y-10452380D01*
X13831071Y-10452380D01*
X13735833Y-10500000D01*
X13688214Y-10547619D01*
X13640595Y-10642857D01*
X13640595Y-10738095D01*
X13688214Y-10833333D01*
X13735833Y-10880952D01*
X13831071Y-10928571D01*
X14164404Y-10928571D01*
X12640595Y-11452380D02*
X13212023Y-11452380D01*
X12926309Y-11452380D02*
X12926309Y-10452380D01*
X13021547Y-10595238D01*
X13116785Y-10690476D01*
X13212023Y-10738095D01*
X14164404Y-9452380D02*
X14164404Y-8452380D01*
X13688214Y-8785714D02*
X13688214Y-9452380D01*
X13688214Y-8880952D02*
X13640595Y-8833333D01*
X13545357Y-8785714D01*
X13402500Y-8785714D01*
X13307261Y-8833333D01*
X13259642Y-8928571D01*
X13259642Y-9452380D01*
X12354880Y-9452380D02*
X12354880Y-8452380D01*
X12354880Y-9404761D02*
X12450119Y-9452380D01*
X12640595Y-9452380D01*
X12735833Y-9404761D01*
X12783452Y-9357142D01*
X12831071Y-9261904D01*
X12831071Y-8976190D01*
X12783452Y-8880952D01*
X12735833Y-8833333D01*
X12640595Y-8785714D01*
X12450119Y-8785714D01*
X12354880Y-8833333D01*
X11688214Y-8452380D02*
X11592976Y-8452380D01*
X11497738Y-8500000D01*
X11450119Y-8547619D01*
X11402500Y-8642857D01*
X11354880Y-8833333D01*
X11354880Y-9071428D01*
X11402500Y-9261904D01*
X11450119Y-9357142D01*
X11497738Y-9404761D01*
X11592976Y-9452380D01*
X11688214Y-9452380D01*
X11783452Y-9404761D01*
X11831071Y-9357142D01*
X11878690Y-9261904D01*
X11926309Y-9071428D01*
X11926309Y-8833333D01*
X11878690Y-8642857D01*
X11831071Y-8547619D01*
X11783452Y-8500000D01*
X11688214Y-8452380D01*
X14164404Y-7452380D02*
X14164404Y-6452380D01*
X13688214Y-6785714D02*
X13688214Y-7452380D01*
X13688214Y-6880952D02*
X13640595Y-6833333D01*
X13545357Y-6785714D01*
X13402500Y-6785714D01*
X13307261Y-6833333D01*
X13259642Y-6928571D01*
X13259642Y-7452380D01*
X12354880Y-7452380D02*
X12354880Y-6452380D01*
X12354880Y-7404761D02*
X12450119Y-7452380D01*
X12640595Y-7452380D01*
X12735833Y-7404761D01*
X12783452Y-7357142D01*
X12831071Y-7261904D01*
X12831071Y-6976190D01*
X12783452Y-6880952D01*
X12735833Y-6833333D01*
X12640595Y-6785714D01*
X12450119Y-6785714D01*
X12354880Y-6833333D01*
X11354880Y-7452380D02*
X11926309Y-7452380D01*
X11640595Y-7452380D02*
X11640595Y-6452380D01*
X11735833Y-6595238D01*
X11831071Y-6690476D01*
X11926309Y-6738095D01*
X14164404Y-5452380D02*
X14164404Y-4452380D01*
X13783452Y-4452380D01*
X13688214Y-4500000D01*
X13640595Y-4547619D01*
X13592976Y-4642857D01*
X13592976Y-4785714D01*
X13640595Y-4880952D01*
X13688214Y-4928571D01*
X13783452Y-4976190D01*
X14164404Y-4976190D01*
X13021547Y-5452380D02*
X13116785Y-5404761D01*
X13164404Y-5357142D01*
X13212023Y-5261904D01*
X13212023Y-4976190D01*
X13164404Y-4880952D01*
X13116785Y-4833333D01*
X13021547Y-4785714D01*
X12878690Y-4785714D01*
X12783452Y-4833333D01*
X12735833Y-4880952D01*
X12688214Y-4976190D01*
X12688214Y-5261904D01*
X12735833Y-5357142D01*
X12783452Y-5404761D01*
X12878690Y-5452380D01*
X13021547Y-5452380D01*
X12354880Y-4785714D02*
X12164404Y-5452380D01*
X11973928Y-4976190D01*
X11783452Y-5452380D01*
X11592976Y-4785714D01*
X10831071Y-5404761D02*
X10926309Y-5452380D01*
X11116785Y-5452380D01*
X11212023Y-5404761D01*
X11259642Y-5309523D01*
X11259642Y-4928571D01*
X11212023Y-4833333D01*
X11116785Y-4785714D01*
X10926309Y-4785714D01*
X10831071Y-4833333D01*
X10783452Y-4928571D01*
X10783452Y-5023809D01*
X11259642Y-5119047D01*
X10354880Y-5452380D02*
X10354880Y-4785714D01*
X10354880Y-4976190D02*
X10307261Y-4880952D01*
X10259642Y-4833333D01*
X10164404Y-4785714D01*
X10069166Y-4785714D01*
D13*
X37675000Y-5405000D02*
X35135000Y-5405000D01*
X37675000Y-1595000D02*
X35135000Y-1595000D01*
X31325000Y-1595000D02*
X31325000Y-3500000D01*
X37675000Y-5405000D02*
X37675000Y-1595000D01*
X10250000Y-10000000D02*
G75*
G03*
X10250000Y-10000000I-4250000J0D01*
G01*
X98250000Y-10000000D02*
G75*
G03*
X98250000Y-10000000I-4250000J0D01*
G01*
X39150000Y-6500000D02*
X39150000Y-5500000D01*
X40850000Y-5500000D02*
X40850000Y-6500000D01*
X39490000Y-14170000D02*
X39490000Y-16830000D01*
X29270000Y-14170000D02*
X39490000Y-14170000D01*
X29270000Y-16830000D02*
X39490000Y-16830000D01*
X29270000Y-14170000D02*
X29270000Y-16830000D01*
X28000000Y-14170000D02*
X26670000Y-14170000D01*
X26670000Y-14170000D02*
X26670000Y-15500000D01*
D14*
G36*
X27700000Y-13700000D02*
G01*
X27700000Y-12700000D01*
X26700000Y-13700000D01*
X27700000Y-13700000D01*
G37*
X27700000Y-13700000D02*
X27700000Y-12700000D01*
X26700000Y-13700000D01*
X27700000Y-13700000D01*
D11*
X20500000Y-4100000D02*
X18150000Y-4100000D01*
X20500000Y-5900000D02*
X18200000Y-5900000D01*
X18600000Y-5900000D02*
X18550000Y-5900000D01*
X20500000Y-4100000D02*
X20500000Y-5900000D01*
X20500000Y-10100000D02*
X18150000Y-10100000D01*
X20500000Y-11900000D02*
X18200000Y-11900000D01*
X18600000Y-11900000D02*
X18550000Y-11900000D01*
X20500000Y-10100000D02*
X20500000Y-11900000D01*
X20500000Y-12100000D02*
X18150000Y-12100000D01*
X20500000Y-13900000D02*
X18200000Y-13900000D01*
X18600000Y-13900000D02*
X18550000Y-13900000D01*
X20500000Y-12100000D02*
X20500000Y-13900000D01*
X20500000Y-8100000D02*
X18150000Y-8100000D01*
X20500000Y-9900000D02*
X18200000Y-9900000D01*
X18600000Y-9900000D02*
X18550000Y-9900000D01*
X20500000Y-8100000D02*
X20500000Y-9900000D01*
X20500000Y-6100000D02*
X18150000Y-6100000D01*
X20500000Y-7900000D02*
X18200000Y-7900000D01*
X18600000Y-7900000D02*
X18550000Y-7900000D01*
X20500000Y-6100000D02*
X20500000Y-7900000D01*
X46625000Y-14325000D02*
X46625000Y-13975000D01*
X52375000Y-14325000D02*
X52375000Y-13875000D01*
X46625000Y-14325000D02*
X52375000Y-14325000D01*
X49000000Y-6675000D02*
X50000000Y-6675000D01*
X46625000Y-13975000D02*
X45025000Y-13975000D01*
D13*
X24925000Y-9695000D02*
X30075000Y-9695000D01*
X25925000Y-1345000D02*
X24925000Y-2345000D01*
X30075000Y-1345000D02*
X30075000Y-2345000D01*
X25925000Y-1345000D02*
X30075000Y-1345000D01*
D11*
X39133333Y-1652380D02*
X39133333Y-2366666D01*
X39180952Y-2509523D01*
X39276190Y-2604761D01*
X39419047Y-2652380D01*
X39514285Y-2652380D01*
X38228571Y-1985714D02*
X38228571Y-2652380D01*
X38466666Y-1604761D02*
X38704761Y-2319047D01*
X38085714Y-2319047D01*
D15*
D11*
X56952380Y-14738095D02*
X57761904Y-14738095D01*
X57857142Y-14785714D01*
X57904761Y-14833333D01*
X57952380Y-14928571D01*
X57952380Y-15119047D01*
X57904761Y-15214285D01*
X57857142Y-15261904D01*
X57761904Y-15309523D01*
X56952380Y-15309523D01*
X57952380Y-16309523D02*
X57952380Y-15738095D01*
X57952380Y-16023809D02*
X56952380Y-16023809D01*
X57095238Y-15928571D01*
X57190476Y-15833333D01*
X57238095Y-15738095D01*
X60427619Y-12975714D02*
X59427619Y-12642380D01*
X60427619Y-12309047D01*
X59475238Y-12023333D02*
X59427619Y-11880476D01*
X59427619Y-11642380D01*
X59475238Y-11547142D01*
X59522857Y-11499523D01*
X59618095Y-11451904D01*
X59713333Y-11451904D01*
X59808571Y-11499523D01*
X59856190Y-11547142D01*
X59903809Y-11642380D01*
X59951428Y-11832857D01*
X59999047Y-11928095D01*
X60046666Y-11975714D01*
X60141904Y-12023333D01*
X60237142Y-12023333D01*
X60332380Y-11975714D01*
X60380000Y-11928095D01*
X60427619Y-11832857D01*
X60427619Y-11594761D01*
X60380000Y-11451904D01*
X59475238Y-11070952D02*
X59427619Y-10928095D01*
X59427619Y-10690000D01*
X59475238Y-10594761D01*
X59522857Y-10547142D01*
X59618095Y-10499523D01*
X59713333Y-10499523D01*
X59808571Y-10547142D01*
X59856190Y-10594761D01*
X59903809Y-10690000D01*
X59951428Y-10880476D01*
X59999047Y-10975714D01*
X60046666Y-11023333D01*
X60141904Y-11070952D01*
X60237142Y-11070952D01*
X60332380Y-11023333D01*
X60380000Y-10975714D01*
X60427619Y-10880476D01*
X60427619Y-10642380D01*
X60380000Y-10499523D01*
X62967619Y-13023333D02*
X61967619Y-12690000D01*
X62967619Y-12356666D01*
X62062857Y-11451904D02*
X62015238Y-11499523D01*
X61967619Y-11642380D01*
X61967619Y-11737619D01*
X62015238Y-11880476D01*
X62110476Y-11975714D01*
X62205714Y-12023333D01*
X62396190Y-12070952D01*
X62539047Y-12070952D01*
X62729523Y-12023333D01*
X62824761Y-11975714D01*
X62920000Y-11880476D01*
X62967619Y-11737619D01*
X62967619Y-11642380D01*
X62920000Y-11499523D01*
X62872380Y-11451904D01*
X62062857Y-10451904D02*
X62015238Y-10499523D01*
X61967619Y-10642380D01*
X61967619Y-10737619D01*
X62015238Y-10880476D01*
X62110476Y-10975714D01*
X62205714Y-11023333D01*
X62396190Y-11070952D01*
X62539047Y-11070952D01*
X62729523Y-11023333D01*
X62824761Y-10975714D01*
X62920000Y-10880476D01*
X62967619Y-10737619D01*
X62967619Y-10642380D01*
X62920000Y-10499523D01*
X62872380Y-10451904D01*
X64507619Y-12428095D02*
X65507619Y-12428095D01*
X65507619Y-12190000D01*
X65460000Y-12047142D01*
X65364761Y-11951904D01*
X65269523Y-11904285D01*
X65079047Y-11856666D01*
X64936190Y-11856666D01*
X64745714Y-11904285D01*
X64650476Y-11951904D01*
X64555238Y-12047142D01*
X64507619Y-12190000D01*
X64507619Y-12428095D01*
X65507619Y-11237619D02*
X65507619Y-11142380D01*
X65460000Y-11047142D01*
X65412380Y-10999523D01*
X65317142Y-10951904D01*
X65126666Y-10904285D01*
X64888571Y-10904285D01*
X64698095Y-10951904D01*
X64602857Y-10999523D01*
X64555238Y-11047142D01*
X64507619Y-11142380D01*
X64507619Y-11237619D01*
X64555238Y-11332857D01*
X64602857Y-11380476D01*
X64698095Y-11428095D01*
X64888571Y-11475714D01*
X65126666Y-11475714D01*
X65317142Y-11428095D01*
X65412380Y-11380476D01*
X65460000Y-11332857D01*
X65507619Y-11237619D01*
X67047619Y-12428095D02*
X68047619Y-12428095D01*
X68047619Y-12190000D01*
X68000000Y-12047142D01*
X67904761Y-11951904D01*
X67809523Y-11904285D01*
X67619047Y-11856666D01*
X67476190Y-11856666D01*
X67285714Y-11904285D01*
X67190476Y-11951904D01*
X67095238Y-12047142D01*
X67047619Y-12190000D01*
X67047619Y-12428095D01*
X67047619Y-10904285D02*
X67047619Y-11475714D01*
X67047619Y-11190000D02*
X68047619Y-11190000D01*
X67904761Y-11285238D01*
X67809523Y-11380476D01*
X67761904Y-11475714D01*
X69587619Y-12428095D02*
X70587619Y-12428095D01*
X70587619Y-12190000D01*
X70540000Y-12047142D01*
X70444761Y-11951904D01*
X70349523Y-11904285D01*
X70159047Y-11856666D01*
X70016190Y-11856666D01*
X69825714Y-11904285D01*
X69730476Y-11951904D01*
X69635238Y-12047142D01*
X69587619Y-12190000D01*
X69587619Y-12428095D01*
X70492380Y-11475714D02*
X70540000Y-11428095D01*
X70587619Y-11332857D01*
X70587619Y-11094761D01*
X70540000Y-10999523D01*
X70492380Y-10951904D01*
X70397142Y-10904285D01*
X70301904Y-10904285D01*
X70159047Y-10951904D01*
X69587619Y-11523333D01*
X69587619Y-10904285D01*
X72127619Y-12428095D02*
X73127619Y-12428095D01*
X73127619Y-12190000D01*
X73080000Y-12047142D01*
X72984761Y-11951904D01*
X72889523Y-11904285D01*
X72699047Y-11856666D01*
X72556190Y-11856666D01*
X72365714Y-11904285D01*
X72270476Y-11951904D01*
X72175238Y-12047142D01*
X72127619Y-12190000D01*
X72127619Y-12428095D01*
X73127619Y-11523333D02*
X73127619Y-10904285D01*
X72746666Y-11237619D01*
X72746666Y-11094761D01*
X72699047Y-10999523D01*
X72651428Y-10951904D01*
X72556190Y-10904285D01*
X72318095Y-10904285D01*
X72222857Y-10951904D01*
X72175238Y-10999523D01*
X72127619Y-11094761D01*
X72127619Y-11380476D01*
X72175238Y-11475714D01*
X72222857Y-11523333D01*
X75667619Y-12404285D02*
X74667619Y-12070952D01*
X75667619Y-11737619D01*
X75667619Y-11547142D02*
X75667619Y-10975714D01*
X74667619Y-11261428D02*
X75667619Y-11261428D01*
X42166666Y-5607142D02*
X42214285Y-5654761D01*
X42357142Y-5702380D01*
X42452380Y-5702380D01*
X42595238Y-5654761D01*
X42690476Y-5559523D01*
X42738095Y-5464285D01*
X42785714Y-5273809D01*
X42785714Y-5130952D01*
X42738095Y-4940476D01*
X42690476Y-4845238D01*
X42595238Y-4750000D01*
X42452380Y-4702380D01*
X42357142Y-4702380D01*
X42214285Y-4750000D01*
X42166666Y-4797619D01*
X41785714Y-4797619D02*
X41738095Y-4750000D01*
X41642857Y-4702380D01*
X41404761Y-4702380D01*
X41309523Y-4750000D01*
X41261904Y-4797619D01*
X41214285Y-4892857D01*
X41214285Y-4988095D01*
X41261904Y-5130952D01*
X41833333Y-5702380D01*
X41214285Y-5702380D01*
X39952380Y-15166666D02*
X40666666Y-15166666D01*
X40809523Y-15119047D01*
X40904761Y-15023809D01*
X40952380Y-14880952D01*
X40952380Y-14785714D01*
X40047619Y-15595238D02*
X40000000Y-15642857D01*
X39952380Y-15738095D01*
X39952380Y-15976190D01*
X40000000Y-16071428D01*
X40047619Y-16119047D01*
X40142857Y-16166666D01*
X40238095Y-16166666D01*
X40380952Y-16119047D01*
X40952380Y-15547619D01*
X40952380Y-16166666D01*
X22488095Y-5452380D02*
X22488095Y-4452380D01*
X22107142Y-4452380D01*
X22011904Y-4500000D01*
X21964285Y-4547619D01*
X21916666Y-4642857D01*
X21916666Y-4785714D01*
X21964285Y-4880952D01*
X22011904Y-4928571D01*
X22107142Y-4976190D01*
X22488095Y-4976190D01*
X20964285Y-5452380D02*
X21535714Y-5452380D01*
X21250000Y-5452380D02*
X21250000Y-4452380D01*
X21345238Y-4595238D01*
X21440476Y-4690476D01*
X21535714Y-4738095D01*
X22488095Y-11452380D02*
X22488095Y-10452380D01*
X22107142Y-10452380D01*
X22011904Y-10500000D01*
X21964285Y-10547619D01*
X21916666Y-10642857D01*
X21916666Y-10785714D01*
X21964285Y-10880952D01*
X22011904Y-10928571D01*
X22107142Y-10976190D01*
X22488095Y-10976190D01*
X21535714Y-10547619D02*
X21488095Y-10500000D01*
X21392857Y-10452380D01*
X21154761Y-10452380D01*
X21059523Y-10500000D01*
X21011904Y-10547619D01*
X20964285Y-10642857D01*
X20964285Y-10738095D01*
X21011904Y-10880952D01*
X21583333Y-11452380D01*
X20964285Y-11452380D01*
X22488095Y-13452380D02*
X22488095Y-12452380D01*
X22107142Y-12452380D01*
X22011904Y-12500000D01*
X21964285Y-12547619D01*
X21916666Y-12642857D01*
X21916666Y-12785714D01*
X21964285Y-12880952D01*
X22011904Y-12928571D01*
X22107142Y-12976190D01*
X22488095Y-12976190D01*
X21583333Y-12452380D02*
X20964285Y-12452380D01*
X21297619Y-12833333D01*
X21154761Y-12833333D01*
X21059523Y-12880952D01*
X21011904Y-12928571D01*
X20964285Y-13023809D01*
X20964285Y-13261904D01*
X21011904Y-13357142D01*
X21059523Y-13404761D01*
X21154761Y-13452380D01*
X21440476Y-13452380D01*
X21535714Y-13404761D01*
X21583333Y-13357142D01*
X22488095Y-9452380D02*
X22488095Y-8452380D01*
X22107142Y-8452380D01*
X22011904Y-8500000D01*
X21964285Y-8547619D01*
X21916666Y-8642857D01*
X21916666Y-8785714D01*
X21964285Y-8880952D01*
X22011904Y-8928571D01*
X22107142Y-8976190D01*
X22488095Y-8976190D01*
X21059523Y-8785714D02*
X21059523Y-9452380D01*
X21297619Y-8404761D02*
X21535714Y-9119047D01*
X20916666Y-9119047D01*
X22488095Y-7452380D02*
X22488095Y-6452380D01*
X22107142Y-6452380D01*
X22011904Y-6500000D01*
X21964285Y-6547619D01*
X21916666Y-6642857D01*
X21916666Y-6785714D01*
X21964285Y-6880952D01*
X22011904Y-6928571D01*
X22107142Y-6976190D01*
X22488095Y-6976190D01*
X21011904Y-6452380D02*
X21488095Y-6452380D01*
X21535714Y-6928571D01*
X21488095Y-6880952D01*
X21392857Y-6833333D01*
X21154761Y-6833333D01*
X21059523Y-6880952D01*
X21011904Y-6928571D01*
X20964285Y-7023809D01*
X20964285Y-7261904D01*
X21011904Y-7357142D01*
X21059523Y-7404761D01*
X21154761Y-7452380D01*
X21392857Y-7452380D01*
X21488095Y-7404761D01*
X21535714Y-7357142D01*
X50011904Y-5202380D02*
X50011904Y-6011904D01*
X49964285Y-6107142D01*
X49916666Y-6154761D01*
X49821428Y-6202380D01*
X49630952Y-6202380D01*
X49535714Y-6154761D01*
X49488095Y-6107142D01*
X49440476Y-6011904D01*
X49440476Y-5202380D01*
X49011904Y-5297619D02*
X48964285Y-5250000D01*
X48869047Y-5202380D01*
X48630952Y-5202380D01*
X48535714Y-5250000D01*
X48488095Y-5297619D01*
X48440476Y-5392857D01*
X48440476Y-5488095D01*
X48488095Y-5630952D01*
X49059523Y-6202380D01*
X48440476Y-6202380D01*
X24333333Y-952380D02*
X24333333Y-1666666D01*
X24380952Y-1809523D01*
X24476190Y-1904761D01*
X24619047Y-1952380D01*
X24714285Y-1952380D01*
X23952380Y-952380D02*
X23333333Y-952380D01*
X23666666Y-1333333D01*
X23523809Y-1333333D01*
X23428571Y-1380952D01*
X23380952Y-1428571D01*
X23333333Y-1523809D01*
X23333333Y-1761904D01*
X23380952Y-1857142D01*
X23428571Y-1904761D01*
X23523809Y-1952380D01*
X23809523Y-1952380D01*
X23904761Y-1904761D01*
X23952380Y-1857142D01*
M02*
