G04 #@! TF.GenerationSoftware,KiCad,Pcbnew,(5.1.6)-1*
G04 #@! TF.CreationDate,2020-10-13T20:36:20+02:00*
G04 #@! TF.ProjectId,LampeSolaire2,4c616d70-6553-46f6-9c61-697265322e6b,R00*
G04 #@! TF.SameCoordinates,PX5f5e100PY5cfbb60*
G04 #@! TF.FileFunction,Copper,L1,Top*
G04 #@! TF.FilePolarity,Positive*
%FSLAX46Y46*%
G04 Gerber Fmt 4.6, Leading zero omitted, Abs format (unit mm)*
G04 Created by KiCad (PCBNEW (5.1.6)-1) date 2020-10-13 20:36:20*
%MOMM*%
%LPD*%
G01*
G04 APERTURE LIST*
G04 #@! TA.AperFunction,ComponentPad*
%ADD10C,1.900000*%
G04 #@! TD*
G04 #@! TA.AperFunction,SMDPad,CuDef*
%ADD11R,1.500000X1.250000*%
G04 #@! TD*
G04 #@! TA.AperFunction,SMDPad,CuDef*
%ADD12R,1.250000X1.500000*%
G04 #@! TD*
G04 #@! TA.AperFunction,SMDPad,CuDef*
%ADD13R,3.400000X1.500000*%
G04 #@! TD*
G04 #@! TA.AperFunction,ComponentPad*
%ADD14R,1.700000X1.700000*%
G04 #@! TD*
G04 #@! TA.AperFunction,ComponentPad*
%ADD15O,1.700000X1.700000*%
G04 #@! TD*
G04 #@! TA.AperFunction,SMDPad,CuDef*
%ADD16R,1.500000X1.300000*%
G04 #@! TD*
G04 #@! TA.AperFunction,SMDPad,CuDef*
%ADD17R,1.300000X1.500000*%
G04 #@! TD*
G04 #@! TA.AperFunction,SMDPad,CuDef*
%ADD18R,1.700000X2.600000*%
G04 #@! TD*
G04 #@! TA.AperFunction,SMDPad,CuDef*
%ADD19R,0.630000X0.450000*%
G04 #@! TD*
G04 #@! TA.AperFunction,ViaPad*
%ADD20C,1.000000*%
G04 #@! TD*
G04 #@! TA.AperFunction,ViaPad*
%ADD21C,0.800000*%
G04 #@! TD*
G04 #@! TA.AperFunction,Conductor*
%ADD22C,0.500000*%
G04 #@! TD*
G04 #@! TA.AperFunction,Conductor*
%ADD23C,0.250000*%
G04 #@! TD*
G04 #@! TA.AperFunction,Conductor*
%ADD24C,0.254000*%
G04 #@! TD*
G04 APERTURE END LIST*
D10*
X35770000Y-3500000D03*
X33230000Y-3500000D03*
X62420000Y-15500000D03*
X64960000Y-15500000D03*
X67500000Y-15500000D03*
X75120000Y-15500000D03*
X72580000Y-15500000D03*
X70040000Y-15500000D03*
X59880000Y-15500000D03*
D11*
X30750000Y-12500000D03*
X33250000Y-12500000D03*
D12*
X59500000Y-10250000D03*
X59500000Y-12750000D03*
D11*
X63750000Y-12500000D03*
X66250000Y-12500000D03*
X70250000Y-9500000D03*
X72750000Y-9500000D03*
D13*
X47550000Y-13175000D03*
X52450000Y-11905000D03*
X47550000Y-10635000D03*
X47550000Y-8095000D03*
X52450000Y-9365000D03*
X52450000Y-6825000D03*
D14*
X28000000Y-15500000D03*
D15*
X30540000Y-15500000D03*
X33080000Y-15500000D03*
X35620000Y-15500000D03*
X38160000Y-15500000D03*
D16*
X25650000Y-12500000D03*
X28350000Y-12500000D03*
X17150000Y-5000000D03*
X19850000Y-5000000D03*
X17150000Y-11000000D03*
X19850000Y-11000000D03*
X17150000Y-13000000D03*
X19850000Y-13000000D03*
X17150000Y-9000000D03*
X19850000Y-9000000D03*
X17150000Y-7000000D03*
X19850000Y-7000000D03*
X57650000Y-6500000D03*
X60350000Y-6500000D03*
X39350000Y-6500000D03*
X36650000Y-6500000D03*
X36650000Y-9000000D03*
X39350000Y-9000000D03*
D17*
X77500000Y-6650000D03*
X77500000Y-9350000D03*
X75500000Y-6650000D03*
X75500000Y-9350000D03*
D18*
X66500000Y-8500000D03*
D19*
X67840000Y-9450000D03*
X67840000Y-8500000D03*
X67840000Y-7550000D03*
X65160000Y-7550000D03*
X65160000Y-8500000D03*
X65160000Y-9450000D03*
D20*
X57650000Y-4650000D03*
X66500000Y-4650000D03*
X33250000Y-5000000D03*
X43200000Y-10500000D03*
D21*
X19850000Y-14750000D03*
X41950000Y-7700000D03*
X62450000Y-10350000D03*
X47550000Y-6150000D03*
X57300000Y-10000000D03*
X33150000Y-8050000D03*
X49950000Y-4750000D03*
X43300000Y-4750000D03*
X62450000Y-8500000D03*
X55500000Y-8850000D03*
X55550000Y-15500000D03*
X56300000Y-14700000D03*
X56300000Y-9650000D03*
X25650000Y-10850000D03*
X15000000Y-5000000D03*
X15000000Y-11000000D03*
X41950000Y-9850000D03*
X41950000Y-12800000D03*
X15000000Y-13000000D03*
X15000000Y-9000000D03*
X15000000Y-7000000D03*
X44200000Y-5850000D03*
X42000000Y-6500000D03*
X70050000Y-12300000D03*
X72550000Y-13200000D03*
X68800000Y-11450000D03*
D20*
X77500000Y-4450000D03*
X29950000Y-2950000D03*
D22*
X33080000Y-12670000D02*
X33250000Y-12500000D01*
X33080000Y-15500000D02*
X33080000Y-12670000D01*
X39850000Y-12500000D02*
X33250000Y-12500000D01*
X43125000Y-13675000D02*
X41025000Y-13675000D01*
X59880000Y-13130000D02*
X59500000Y-12750000D01*
X59880000Y-15500000D02*
X59880000Y-13130000D01*
X66500000Y-12250000D02*
X66250000Y-12500000D01*
X66500000Y-8500000D02*
X66500000Y-12250000D01*
X66500000Y-8500000D02*
X66500000Y-8100000D01*
X72750000Y-8450000D02*
X72750000Y-9500000D01*
X71850000Y-7550000D02*
X72750000Y-8450000D01*
X67840000Y-7550000D02*
X69950000Y-7550000D01*
X69950000Y-7550000D02*
X71850000Y-7550000D01*
X66500000Y-6850000D02*
X66500000Y-8500000D01*
X69950000Y-7550000D02*
X69950000Y-6900000D01*
X69950000Y-6900000D02*
X69550000Y-6500000D01*
X57650000Y-6500000D02*
X57650000Y-4650000D01*
X69550000Y-6500000D02*
X66550000Y-6500000D01*
X66550000Y-6500000D02*
X66500000Y-6450000D01*
X66500000Y-4650000D02*
X66500000Y-6450000D01*
X66500000Y-6450000D02*
X66500000Y-8500000D01*
X41025000Y-13675000D02*
X39850000Y-12500000D01*
X44825000Y-13175000D02*
X44325000Y-13675000D01*
X47550000Y-13175000D02*
X44825000Y-13175000D01*
X44325000Y-13675000D02*
X43125000Y-13675000D01*
X57650000Y-6500000D02*
X57650000Y-7350000D01*
X57650000Y-7350000D02*
X58800000Y-8500000D01*
X58800000Y-8500000D02*
X61150000Y-8500000D01*
X61150000Y-8500000D02*
X61500000Y-8850000D01*
X61500000Y-8850000D02*
X61500000Y-12100000D01*
X60850000Y-12750000D02*
X59500000Y-12750000D01*
X61500000Y-12100000D02*
X60850000Y-12750000D01*
X43200000Y-13600000D02*
X43125000Y-13675000D01*
X43200000Y-12200000D02*
X43200000Y-13600000D01*
X43200000Y-12200000D02*
X43200000Y-10500000D01*
X47550000Y-14400000D02*
X47550000Y-13175000D01*
X49550000Y-16400000D02*
X47550000Y-14400000D01*
X57350000Y-16400000D02*
X49550000Y-16400000D01*
X59880000Y-15500000D02*
X58250000Y-15500000D01*
X58250000Y-15500000D02*
X57350000Y-16400000D01*
X33250000Y-5000000D02*
X34050000Y-5800000D01*
X34050000Y-10200000D02*
X33250000Y-11000000D01*
X33250000Y-12500000D02*
X33250000Y-11000000D01*
X34100000Y-9000000D02*
X34050000Y-9050000D01*
X36650000Y-9000000D02*
X34100000Y-9000000D01*
X34050000Y-5800000D02*
X34050000Y-9050000D01*
X34050000Y-9050000D02*
X34050000Y-10200000D01*
D23*
X19850000Y-5000000D02*
X19850000Y-7000000D01*
X19850000Y-7000000D02*
X19850000Y-9000000D01*
X19850000Y-9000000D02*
X19850000Y-11000000D01*
X19850000Y-11000000D02*
X19850000Y-13000000D01*
X19850000Y-13000000D02*
X20000000Y-13000000D01*
X30540000Y-12710000D02*
X30750000Y-12500000D01*
X30540000Y-15500000D02*
X30540000Y-12710000D01*
X28350000Y-12500000D02*
X30750000Y-12500000D01*
X19850000Y-13000000D02*
X19850000Y-14750000D01*
X43200000Y-7700000D02*
X41950000Y-7700000D01*
X62450000Y-15470000D02*
X62420000Y-15500000D01*
X62450000Y-10350000D02*
X62450000Y-15470000D01*
X59600000Y-10350000D02*
X59500000Y-10250000D01*
X43595000Y-8095000D02*
X43200000Y-7700000D01*
X47550000Y-8095000D02*
X43595000Y-8095000D01*
X47550000Y-8095000D02*
X47550000Y-6150000D01*
X59500000Y-10250000D02*
X58350000Y-10250000D01*
X58350000Y-10250000D02*
X58100000Y-10000000D01*
X58100000Y-10000000D02*
X57300000Y-10000000D01*
X30750000Y-12500000D02*
X30750000Y-8500000D01*
X30750000Y-8500000D02*
X31200000Y-8050000D01*
X31200000Y-8050000D02*
X33150000Y-8050000D01*
X51085000Y-10000000D02*
X50950000Y-9865000D01*
X53035000Y-9865000D02*
X50950000Y-9865000D01*
X63750000Y-9350000D02*
X62900000Y-8500000D01*
X63850000Y-9450000D02*
X63750000Y-9350000D01*
X65160000Y-9450000D02*
X63850000Y-9450000D01*
X63850000Y-12400000D02*
X63750000Y-12500000D01*
X63850000Y-9450000D02*
X63850000Y-12400000D01*
X49950000Y-4750000D02*
X49950000Y-9050000D01*
X50265000Y-9365000D02*
X52450000Y-9365000D01*
X49950000Y-9050000D02*
X50265000Y-9365000D01*
X62900000Y-8500000D02*
X62450000Y-8500000D01*
X36650000Y-6500000D02*
X36650000Y-5400000D01*
X37300000Y-4750000D02*
X43300000Y-4750000D01*
X36650000Y-5400000D02*
X37300000Y-4750000D01*
X67890000Y-9500000D02*
X67840000Y-9450000D01*
X67840000Y-8500000D02*
X68500000Y-8500000D01*
X68500000Y-8500000D02*
X68950000Y-8950000D01*
X68950000Y-8950000D02*
X68950000Y-9500000D01*
X70250000Y-9500000D02*
X68950000Y-9500000D01*
X68950000Y-9500000D02*
X67890000Y-9500000D01*
X70250000Y-9500000D02*
X70250000Y-10700000D01*
X70250000Y-10700000D02*
X71050000Y-11500000D01*
X77500000Y-11200000D02*
X77500000Y-9350000D01*
X77200000Y-11500000D02*
X77500000Y-11200000D01*
X75500000Y-9350000D02*
X75500000Y-11450000D01*
X75500000Y-11450000D02*
X75450000Y-11500000D01*
X71050000Y-11500000D02*
X75450000Y-11500000D01*
X75450000Y-11500000D02*
X77200000Y-11500000D01*
X55500000Y-8850000D02*
X55500000Y-15450000D01*
X55500000Y-15450000D02*
X55550000Y-15500000D01*
X56300000Y-9650000D02*
X56300000Y-14700000D01*
X28000000Y-15500000D02*
X26000000Y-15500000D01*
X25650000Y-15150000D02*
X25650000Y-12500000D01*
X26000000Y-15500000D02*
X25650000Y-15150000D01*
X25650000Y-10850000D02*
X25650000Y-12500000D01*
X17150000Y-5000000D02*
X15000000Y-5000000D01*
X15000000Y-11000000D02*
X17150000Y-11000000D01*
X41950000Y-9850000D02*
X41950000Y-12800000D01*
X17150000Y-13000000D02*
X15000000Y-13000000D01*
X15000000Y-9000000D02*
X17150000Y-9000000D01*
X15000000Y-7000000D02*
X17150000Y-7000000D01*
X65160000Y-8500000D02*
X63900000Y-8500000D01*
X61900000Y-6500000D02*
X60350000Y-6500000D01*
X63900000Y-8500000D02*
X61900000Y-6500000D01*
X44200000Y-5850000D02*
X44200000Y-5000000D01*
X44200000Y-5000000D02*
X45450000Y-3750000D01*
X45450000Y-3750000D02*
X59550000Y-3750000D01*
X60350000Y-4550000D02*
X60350000Y-6500000D01*
X59550000Y-3750000D02*
X60350000Y-4550000D01*
X39350000Y-9000000D02*
X39350000Y-6500000D01*
X39350000Y-6500000D02*
X42000000Y-6500000D01*
X70050000Y-15490000D02*
X70040000Y-15500000D01*
X70050000Y-12300000D02*
X70050000Y-15490000D01*
X72550000Y-15470000D02*
X72580000Y-15500000D01*
X72550000Y-13200000D02*
X72550000Y-15470000D01*
X68800000Y-14200000D02*
X68800000Y-13000000D01*
X67500000Y-15500000D02*
X68800000Y-14200000D01*
X68800000Y-11450000D02*
X68800000Y-13000000D01*
D22*
X77500000Y-6650000D02*
X77500000Y-4450000D01*
X29950000Y-2950000D02*
X31000000Y-1900000D01*
X31000000Y-1900000D02*
X74000000Y-1900000D01*
X75500000Y-3400000D02*
X75500000Y-6650000D01*
X74000000Y-1900000D02*
X75500000Y-3400000D01*
D24*
G36*
X87873000Y-16840000D02*
G01*
X75967473Y-16840000D01*
X76130379Y-16731150D01*
X76351150Y-16510379D01*
X76524609Y-16250779D01*
X76644089Y-15962327D01*
X76705000Y-15656109D01*
X76705000Y-15343891D01*
X76644089Y-15037673D01*
X76524609Y-14749221D01*
X76351150Y-14489621D01*
X76130379Y-14268850D01*
X75870779Y-14095391D01*
X75582327Y-13975911D01*
X75276109Y-13915000D01*
X74963891Y-13915000D01*
X74657673Y-13975911D01*
X74369221Y-14095391D01*
X74109621Y-14268850D01*
X73888850Y-14489621D01*
X73850000Y-14547764D01*
X73811150Y-14489621D01*
X73590379Y-14268850D01*
X73330779Y-14095391D01*
X73310000Y-14086784D01*
X73310000Y-13903711D01*
X73353937Y-13859774D01*
X73467205Y-13690256D01*
X73545226Y-13501898D01*
X73585000Y-13301939D01*
X73585000Y-13098061D01*
X73545226Y-12898102D01*
X73467205Y-12709744D01*
X73353937Y-12540226D01*
X73209774Y-12396063D01*
X73040256Y-12282795D01*
X72985224Y-12260000D01*
X75412678Y-12260000D01*
X75450000Y-12263676D01*
X75487322Y-12260000D01*
X77162678Y-12260000D01*
X77200000Y-12263676D01*
X77237322Y-12260000D01*
X77237333Y-12260000D01*
X77348986Y-12249003D01*
X77492247Y-12205546D01*
X77624276Y-12134974D01*
X77740001Y-12040001D01*
X77763804Y-12010997D01*
X78010998Y-11763803D01*
X78040001Y-11740001D01*
X78134974Y-11624276D01*
X78205546Y-11492247D01*
X78249003Y-11348986D01*
X78260000Y-11237333D01*
X78260000Y-11237324D01*
X78263676Y-11200001D01*
X78260000Y-11162678D01*
X78260000Y-10727238D01*
X78274482Y-10725812D01*
X78394180Y-10689502D01*
X78504494Y-10630537D01*
X78601185Y-10551185D01*
X78680537Y-10454494D01*
X78739502Y-10344180D01*
X78775812Y-10224482D01*
X78788072Y-10100000D01*
X78788072Y-8600000D01*
X78775812Y-8475518D01*
X78739502Y-8355820D01*
X78680537Y-8245506D01*
X78601185Y-8148815D01*
X78504494Y-8069463D01*
X78394180Y-8010498D01*
X78359573Y-8000000D01*
X78394180Y-7989502D01*
X78504494Y-7930537D01*
X78601185Y-7851185D01*
X78680537Y-7754494D01*
X78739502Y-7644180D01*
X78775812Y-7524482D01*
X78788072Y-7400000D01*
X78788072Y-5900000D01*
X78775812Y-5775518D01*
X78739502Y-5655820D01*
X78680537Y-5545506D01*
X78601185Y-5448815D01*
X78504494Y-5369463D01*
X78394180Y-5310498D01*
X78385000Y-5307713D01*
X78385000Y-5168450D01*
X78505824Y-4987624D01*
X78591383Y-4781067D01*
X78635000Y-4561788D01*
X78635000Y-4338212D01*
X78591383Y-4118933D01*
X78505824Y-3912376D01*
X78381612Y-3726480D01*
X78223520Y-3568388D01*
X78037624Y-3444176D01*
X77831067Y-3358617D01*
X77611788Y-3315000D01*
X77388212Y-3315000D01*
X77168933Y-3358617D01*
X76962376Y-3444176D01*
X76776480Y-3568388D01*
X76618388Y-3726480D01*
X76494176Y-3912376D01*
X76408617Y-4118933D01*
X76385000Y-4237665D01*
X76385000Y-3443465D01*
X76389281Y-3399999D01*
X76385000Y-3356533D01*
X76385000Y-3356523D01*
X76372195Y-3226510D01*
X76321589Y-3059687D01*
X76239411Y-2905941D01*
X76128817Y-2771183D01*
X76095050Y-2743471D01*
X74656534Y-1304956D01*
X74628817Y-1271183D01*
X74494059Y-1160589D01*
X74340313Y-1078411D01*
X74173490Y-1027805D01*
X74043477Y-1015000D01*
X74043469Y-1015000D01*
X74000000Y-1010719D01*
X73956531Y-1015000D01*
X31043465Y-1015000D01*
X30999999Y-1010719D01*
X30956533Y-1015000D01*
X30956523Y-1015000D01*
X30826510Y-1027805D01*
X30659687Y-1078411D01*
X30505941Y-1160589D01*
X30505939Y-1160590D01*
X30505940Y-1160590D01*
X30404953Y-1243468D01*
X30404951Y-1243470D01*
X30371183Y-1271183D01*
X30343470Y-1304951D01*
X29832232Y-1816189D01*
X29618933Y-1858617D01*
X29412376Y-1944176D01*
X29226480Y-2068388D01*
X29068388Y-2226480D01*
X28944176Y-2412376D01*
X28858617Y-2618933D01*
X28815000Y-2838212D01*
X28815000Y-3061788D01*
X28858617Y-3281067D01*
X28944176Y-3487624D01*
X29068388Y-3673520D01*
X29226480Y-3831612D01*
X29412376Y-3955824D01*
X29618933Y-4041383D01*
X29838212Y-4085000D01*
X30061788Y-4085000D01*
X30281067Y-4041383D01*
X30487624Y-3955824D01*
X30673520Y-3831612D01*
X30831612Y-3673520D01*
X30955824Y-3487624D01*
X31041383Y-3281067D01*
X31083811Y-3067768D01*
X31366579Y-2785000D01*
X31815158Y-2785000D01*
X31735065Y-2950671D01*
X31656621Y-3252873D01*
X31638641Y-3564573D01*
X31681816Y-3873791D01*
X31784487Y-4168644D01*
X31870958Y-4330421D01*
X32130248Y-4420147D01*
X33050395Y-3500000D01*
X33036253Y-3485858D01*
X33215858Y-3306253D01*
X33230000Y-3320395D01*
X33244143Y-3306253D01*
X33423748Y-3485858D01*
X33409605Y-3500000D01*
X34329752Y-4420147D01*
X34450613Y-4378324D01*
X34538850Y-4510379D01*
X34759621Y-4731150D01*
X35019221Y-4904609D01*
X35307673Y-5024089D01*
X35613891Y-5085000D01*
X35926109Y-5085000D01*
X35960246Y-5078210D01*
X35944454Y-5107754D01*
X35914180Y-5207558D01*
X35912854Y-5211928D01*
X35900000Y-5211928D01*
X35775518Y-5224188D01*
X35655820Y-5260498D01*
X35545506Y-5319463D01*
X35448815Y-5398815D01*
X35369463Y-5495506D01*
X35310498Y-5605820D01*
X35274188Y-5725518D01*
X35261928Y-5850000D01*
X35261928Y-7150000D01*
X35274188Y-7274482D01*
X35310498Y-7394180D01*
X35369463Y-7504494D01*
X35448815Y-7601185D01*
X35545506Y-7680537D01*
X35655820Y-7739502D01*
X35690427Y-7750000D01*
X35655820Y-7760498D01*
X35545506Y-7819463D01*
X35448815Y-7898815D01*
X35369463Y-7995506D01*
X35310498Y-8105820D01*
X35274188Y-8225518D01*
X35261928Y-8350000D01*
X35265000Y-8714250D01*
X35423750Y-8873000D01*
X36523000Y-8873000D01*
X36523000Y-8853000D01*
X36777000Y-8853000D01*
X36777000Y-8873000D01*
X36797000Y-8873000D01*
X36797000Y-9127000D01*
X36777000Y-9127000D01*
X36777000Y-10126250D01*
X36935750Y-10285000D01*
X37400000Y-10288072D01*
X37524482Y-10275812D01*
X37644180Y-10239502D01*
X37754494Y-10180537D01*
X37851185Y-10101185D01*
X37930537Y-10004494D01*
X37989502Y-9894180D01*
X38000000Y-9859573D01*
X38010498Y-9894180D01*
X38069463Y-10004494D01*
X38148815Y-10101185D01*
X38245506Y-10180537D01*
X38355820Y-10239502D01*
X38475518Y-10275812D01*
X38600000Y-10288072D01*
X40100000Y-10288072D01*
X40224482Y-10275812D01*
X40344180Y-10239502D01*
X40454494Y-10180537D01*
X40551185Y-10101185D01*
X40630537Y-10004494D01*
X40689502Y-9894180D01*
X40725812Y-9774482D01*
X40728414Y-9748061D01*
X40915000Y-9748061D01*
X40915000Y-9951939D01*
X40954774Y-10151898D01*
X41032795Y-10340256D01*
X41146063Y-10509774D01*
X41190000Y-10553711D01*
X41190001Y-12096288D01*
X41146063Y-12140226D01*
X41032795Y-12309744D01*
X40954774Y-12498102D01*
X40915000Y-12698061D01*
X40915000Y-12901939D01*
X40954774Y-13101898D01*
X41032795Y-13290256D01*
X41146063Y-13459774D01*
X41290226Y-13603937D01*
X41459744Y-13717205D01*
X41648102Y-13795226D01*
X41848061Y-13835000D01*
X42051939Y-13835000D01*
X42251898Y-13795226D01*
X42440256Y-13717205D01*
X42609774Y-13603937D01*
X42753937Y-13459774D01*
X42867205Y-13290256D01*
X42945226Y-13101898D01*
X42985000Y-12901939D01*
X42985000Y-12698061D01*
X42945226Y-12498102D01*
X42867205Y-12309744D01*
X42753937Y-12140226D01*
X42710000Y-12096289D01*
X42710000Y-10553711D01*
X42753937Y-10509774D01*
X42867205Y-10340256D01*
X42945226Y-10151898D01*
X42985000Y-9951939D01*
X42985000Y-9748061D01*
X42945226Y-9548102D01*
X42867205Y-9359744D01*
X42753937Y-9190226D01*
X42609774Y-9046063D01*
X42440256Y-8932795D01*
X42251898Y-8854774D01*
X42051939Y-8815000D01*
X41848061Y-8815000D01*
X41648102Y-8854774D01*
X41459744Y-8932795D01*
X41290226Y-9046063D01*
X41146063Y-9190226D01*
X41032795Y-9359744D01*
X40954774Y-9548102D01*
X40915000Y-9748061D01*
X40728414Y-9748061D01*
X40738072Y-9650000D01*
X40738072Y-8350000D01*
X40725812Y-8225518D01*
X40689502Y-8105820D01*
X40630537Y-7995506D01*
X40551185Y-7898815D01*
X40454494Y-7819463D01*
X40344180Y-7760498D01*
X40309573Y-7750000D01*
X40344180Y-7739502D01*
X40454494Y-7680537D01*
X40551185Y-7601185D01*
X40630537Y-7504494D01*
X40689502Y-7394180D01*
X40725812Y-7274482D01*
X40727238Y-7260000D01*
X41011978Y-7260000D01*
X40954774Y-7398102D01*
X40915000Y-7598061D01*
X40915000Y-7801939D01*
X40954774Y-8001898D01*
X41032795Y-8190256D01*
X41146063Y-8359774D01*
X41290226Y-8503937D01*
X41459744Y-8617205D01*
X41648102Y-8695226D01*
X41848061Y-8735000D01*
X42051939Y-8735000D01*
X42251898Y-8695226D01*
X42440256Y-8617205D01*
X42609774Y-8503937D01*
X42653711Y-8460000D01*
X42885199Y-8460000D01*
X43031196Y-8605997D01*
X43054999Y-8635001D01*
X43170724Y-8729974D01*
X43302753Y-8800546D01*
X43446014Y-8844003D01*
X43557667Y-8855000D01*
X43557676Y-8855000D01*
X43594999Y-8858676D01*
X43632322Y-8855000D01*
X45212913Y-8855000D01*
X45224188Y-8969482D01*
X45260498Y-9089180D01*
X45319463Y-9199494D01*
X45398815Y-9296185D01*
X45482667Y-9365000D01*
X45398815Y-9433815D01*
X45319463Y-9530506D01*
X45260498Y-9640820D01*
X45224188Y-9760518D01*
X45211928Y-9885000D01*
X45211928Y-11385000D01*
X45224188Y-11509482D01*
X45260498Y-11629180D01*
X45319463Y-11739494D01*
X45398815Y-11836185D01*
X45482667Y-11905000D01*
X45398815Y-11973815D01*
X45319463Y-12070506D01*
X45260498Y-12180820D01*
X45224188Y-12300518D01*
X45211928Y-12425000D01*
X45215000Y-12889250D01*
X45373750Y-13048000D01*
X47423000Y-13048000D01*
X47423000Y-13028000D01*
X47677000Y-13028000D01*
X47677000Y-13048000D01*
X49726250Y-13048000D01*
X49885000Y-12889250D01*
X49888072Y-12425000D01*
X49875812Y-12300518D01*
X49839502Y-12180820D01*
X49780537Y-12070506D01*
X49701185Y-11973815D01*
X49617333Y-11905000D01*
X49701185Y-11836185D01*
X49780537Y-11739494D01*
X49839502Y-11629180D01*
X49875812Y-11509482D01*
X49888072Y-11385000D01*
X49888072Y-10025282D01*
X49972753Y-10070546D01*
X50111928Y-10112764D01*
X50111928Y-10115000D01*
X50124188Y-10239482D01*
X50160498Y-10359180D01*
X50219463Y-10469494D01*
X50298815Y-10566185D01*
X50382667Y-10635000D01*
X50298815Y-10703815D01*
X50219463Y-10800506D01*
X50160498Y-10910820D01*
X50124188Y-11030518D01*
X50111928Y-11155000D01*
X50111928Y-12655000D01*
X50124188Y-12779482D01*
X50160498Y-12899180D01*
X50219463Y-13009494D01*
X50298815Y-13106185D01*
X50395506Y-13185537D01*
X50505820Y-13244502D01*
X50625518Y-13280812D01*
X50750000Y-13293072D01*
X54150000Y-13293072D01*
X54274482Y-13280812D01*
X54394180Y-13244502D01*
X54504494Y-13185537D01*
X54601185Y-13106185D01*
X54680537Y-13009494D01*
X54739502Y-12899180D01*
X54740001Y-12897536D01*
X54740001Y-14849299D01*
X54632795Y-15009744D01*
X54554774Y-15198102D01*
X54515000Y-15398061D01*
X54515000Y-15601939D01*
X54554774Y-15801898D01*
X54632795Y-15990256D01*
X54746063Y-16159774D01*
X54890226Y-16303937D01*
X55059744Y-16417205D01*
X55248102Y-16495226D01*
X55448061Y-16535000D01*
X55651939Y-16535000D01*
X55851898Y-16495226D01*
X56040256Y-16417205D01*
X56209774Y-16303937D01*
X56353937Y-16159774D01*
X56467205Y-15990256D01*
X56545226Y-15801898D01*
X56564984Y-15702569D01*
X56601898Y-15695226D01*
X56790256Y-15617205D01*
X56869025Y-15564573D01*
X58288641Y-15564573D01*
X58331816Y-15873791D01*
X58434487Y-16168644D01*
X58520958Y-16330421D01*
X58780248Y-16420147D01*
X59700395Y-15500000D01*
X58780248Y-14579853D01*
X58520958Y-14669579D01*
X58385065Y-14950671D01*
X58306621Y-15252873D01*
X58288641Y-15564573D01*
X56869025Y-15564573D01*
X56959774Y-15503937D01*
X57103937Y-15359774D01*
X57217205Y-15190256D01*
X57295226Y-15001898D01*
X57335000Y-14801939D01*
X57335000Y-14598061D01*
X57295226Y-14398102D01*
X57217205Y-14209744D01*
X57103937Y-14040226D01*
X57060000Y-13996289D01*
X57060000Y-13500000D01*
X58236928Y-13500000D01*
X58249188Y-13624482D01*
X58285498Y-13744180D01*
X58344463Y-13854494D01*
X58423815Y-13951185D01*
X58520506Y-14030537D01*
X58630820Y-14089502D01*
X58750518Y-14125812D01*
X58875000Y-14138072D01*
X59058080Y-14136414D01*
X59049579Y-14140958D01*
X58959853Y-14400248D01*
X59880000Y-15320395D01*
X60800147Y-14400248D01*
X60710421Y-14140958D01*
X60480429Y-14029769D01*
X60576185Y-13951185D01*
X60655537Y-13854494D01*
X60714502Y-13744180D01*
X60750812Y-13624482D01*
X60763072Y-13500000D01*
X60760000Y-13035750D01*
X60601250Y-12877000D01*
X59627000Y-12877000D01*
X59627000Y-12897000D01*
X59373000Y-12897000D01*
X59373000Y-12877000D01*
X58398750Y-12877000D01*
X58240000Y-13035750D01*
X58236928Y-13500000D01*
X57060000Y-13500000D01*
X57060000Y-11007538D01*
X57198061Y-11035000D01*
X57401939Y-11035000D01*
X57601898Y-10995226D01*
X57790256Y-10917205D01*
X57886576Y-10852846D01*
X57925724Y-10884974D01*
X58057753Y-10955546D01*
X58201014Y-10999003D01*
X58237181Y-11002565D01*
X58249188Y-11124482D01*
X58285498Y-11244180D01*
X58344463Y-11354494D01*
X58423815Y-11451185D01*
X58483296Y-11500000D01*
X58423815Y-11548815D01*
X58344463Y-11645506D01*
X58285498Y-11755820D01*
X58249188Y-11875518D01*
X58236928Y-12000000D01*
X58240000Y-12464250D01*
X58398750Y-12623000D01*
X59373000Y-12623000D01*
X59373000Y-12603000D01*
X59627000Y-12603000D01*
X59627000Y-12623000D01*
X60601250Y-12623000D01*
X60760000Y-12464250D01*
X60763072Y-12000000D01*
X60750812Y-11875518D01*
X60714502Y-11755820D01*
X60655537Y-11645506D01*
X60576185Y-11548815D01*
X60516704Y-11500000D01*
X60576185Y-11451185D01*
X60655537Y-11354494D01*
X60714502Y-11244180D01*
X60750812Y-11124482D01*
X60763072Y-11000000D01*
X60763072Y-9500000D01*
X60750812Y-9375518D01*
X60714502Y-9255820D01*
X60655537Y-9145506D01*
X60576185Y-9048815D01*
X60479494Y-8969463D01*
X60369180Y-8910498D01*
X60249482Y-8874188D01*
X60125000Y-8861928D01*
X58875000Y-8861928D01*
X58750518Y-8874188D01*
X58630820Y-8910498D01*
X58520506Y-8969463D01*
X58423815Y-9048815D01*
X58344463Y-9145506D01*
X58285498Y-9255820D01*
X58283761Y-9261546D01*
X58248986Y-9250997D01*
X58137333Y-9240000D01*
X58137322Y-9240000D01*
X58100000Y-9236324D01*
X58062678Y-9240000D01*
X58003711Y-9240000D01*
X57959774Y-9196063D01*
X57790256Y-9082795D01*
X57601898Y-9004774D01*
X57401939Y-8965000D01*
X57198061Y-8965000D01*
X57098512Y-8984801D01*
X56959774Y-8846063D01*
X56790256Y-8732795D01*
X56601898Y-8654774D01*
X56512924Y-8637076D01*
X56495226Y-8548102D01*
X56417205Y-8359744D01*
X56303937Y-8190226D01*
X56159774Y-8046063D01*
X55990256Y-7932795D01*
X55801898Y-7854774D01*
X55601939Y-7815000D01*
X55398061Y-7815000D01*
X55198102Y-7854774D01*
X55009744Y-7932795D01*
X54840226Y-8046063D01*
X54696063Y-8190226D01*
X54663210Y-8239393D01*
X54601185Y-8163815D01*
X54517333Y-8095000D01*
X54601185Y-8026185D01*
X54680537Y-7929494D01*
X54739502Y-7819180D01*
X54775812Y-7699482D01*
X54788072Y-7575000D01*
X54788072Y-7150000D01*
X56261928Y-7150000D01*
X56274188Y-7274482D01*
X56310498Y-7394180D01*
X56369463Y-7504494D01*
X56448815Y-7601185D01*
X56545506Y-7680537D01*
X56655820Y-7739502D01*
X56775518Y-7775812D01*
X56900000Y-7788072D01*
X57364250Y-7785000D01*
X57523000Y-7626250D01*
X57523000Y-6627000D01*
X56423750Y-6627000D01*
X56265000Y-6785750D01*
X56261928Y-7150000D01*
X54788072Y-7150000D01*
X54788072Y-6075000D01*
X54775812Y-5950518D01*
X54745321Y-5850000D01*
X56261928Y-5850000D01*
X56265000Y-6214250D01*
X56423750Y-6373000D01*
X57523000Y-6373000D01*
X57523000Y-5373750D01*
X57364250Y-5215000D01*
X56900000Y-5211928D01*
X56775518Y-5224188D01*
X56655820Y-5260498D01*
X56545506Y-5319463D01*
X56448815Y-5398815D01*
X56369463Y-5495506D01*
X56310498Y-5605820D01*
X56274188Y-5725518D01*
X56261928Y-5850000D01*
X54745321Y-5850000D01*
X54739502Y-5830820D01*
X54680537Y-5720506D01*
X54601185Y-5623815D01*
X54504494Y-5544463D01*
X54394180Y-5485498D01*
X54274482Y-5449188D01*
X54150000Y-5436928D01*
X50750000Y-5436928D01*
X50724247Y-5439464D01*
X50753937Y-5409774D01*
X50867205Y-5240256D01*
X50945226Y-5051898D01*
X50985000Y-4851939D01*
X50985000Y-4648061D01*
X50957538Y-4510000D01*
X59235199Y-4510000D01*
X59590000Y-4864802D01*
X59590000Y-5212913D01*
X59475518Y-5224188D01*
X59355820Y-5260498D01*
X59245506Y-5319463D01*
X59148815Y-5398815D01*
X59069463Y-5495506D01*
X59010498Y-5605820D01*
X59000000Y-5640427D01*
X58989502Y-5605820D01*
X58930537Y-5495506D01*
X58851185Y-5398815D01*
X58754494Y-5319463D01*
X58644180Y-5260498D01*
X58524482Y-5224188D01*
X58400000Y-5211928D01*
X57935750Y-5215000D01*
X57777000Y-5373750D01*
X57777000Y-6373000D01*
X57797000Y-6373000D01*
X57797000Y-6627000D01*
X57777000Y-6627000D01*
X57777000Y-7626250D01*
X57935750Y-7785000D01*
X58400000Y-7788072D01*
X58524482Y-7775812D01*
X58644180Y-7739502D01*
X58754494Y-7680537D01*
X58851185Y-7601185D01*
X58930537Y-7504494D01*
X58989502Y-7394180D01*
X59000000Y-7359573D01*
X59010498Y-7394180D01*
X59069463Y-7504494D01*
X59148815Y-7601185D01*
X59245506Y-7680537D01*
X59355820Y-7739502D01*
X59475518Y-7775812D01*
X59600000Y-7788072D01*
X61100000Y-7788072D01*
X61224482Y-7775812D01*
X61344180Y-7739502D01*
X61454494Y-7680537D01*
X61551185Y-7601185D01*
X61630537Y-7504494D01*
X61689502Y-7394180D01*
X61696456Y-7371257D01*
X61928722Y-7603523D01*
X61790226Y-7696063D01*
X61646063Y-7840226D01*
X61532795Y-8009744D01*
X61454774Y-8198102D01*
X61415000Y-8398061D01*
X61415000Y-8601939D01*
X61454774Y-8801898D01*
X61532795Y-8990256D01*
X61646063Y-9159774D01*
X61790226Y-9303937D01*
X61959744Y-9417205D01*
X61978563Y-9425000D01*
X61959744Y-9432795D01*
X61790226Y-9546063D01*
X61646063Y-9690226D01*
X61532795Y-9859744D01*
X61454774Y-10048102D01*
X61415000Y-10248061D01*
X61415000Y-10451939D01*
X61454774Y-10651898D01*
X61532795Y-10840256D01*
X61646063Y-11009774D01*
X61690000Y-11053711D01*
X61690001Y-14086784D01*
X61669221Y-14095391D01*
X61409621Y-14268850D01*
X61188850Y-14489621D01*
X61100613Y-14621676D01*
X60979752Y-14579853D01*
X60059605Y-15500000D01*
X60979752Y-16420147D01*
X61100613Y-16378324D01*
X61188850Y-16510379D01*
X61409621Y-16731150D01*
X61572527Y-16840000D01*
X60717010Y-16840000D01*
X60800147Y-16599752D01*
X59880000Y-15679605D01*
X58959853Y-16599752D01*
X59042990Y-16840000D01*
X38805445Y-16840000D01*
X38863411Y-16815990D01*
X39106632Y-16653475D01*
X39313475Y-16446632D01*
X39475990Y-16203411D01*
X39587932Y-15933158D01*
X39645000Y-15646260D01*
X39645000Y-15353740D01*
X39587932Y-15066842D01*
X39475990Y-14796589D01*
X39313475Y-14553368D01*
X39106632Y-14346525D01*
X38863411Y-14184010D01*
X38593158Y-14072068D01*
X38306260Y-14015000D01*
X38013740Y-14015000D01*
X37726842Y-14072068D01*
X37456589Y-14184010D01*
X37213368Y-14346525D01*
X37006525Y-14553368D01*
X36890000Y-14727760D01*
X36773475Y-14553368D01*
X36566632Y-14346525D01*
X36323411Y-14184010D01*
X36053158Y-14072068D01*
X35766260Y-14015000D01*
X35473740Y-14015000D01*
X35186842Y-14072068D01*
X34916589Y-14184010D01*
X34673368Y-14346525D01*
X34466525Y-14553368D01*
X34344805Y-14735534D01*
X34275178Y-14618645D01*
X34080269Y-14402412D01*
X33846920Y-14228359D01*
X33584099Y-14103175D01*
X33436890Y-14058524D01*
X33207000Y-14179845D01*
X33207000Y-15373000D01*
X33227000Y-15373000D01*
X33227000Y-15627000D01*
X33207000Y-15627000D01*
X33207000Y-15647000D01*
X32953000Y-15647000D01*
X32953000Y-15627000D01*
X32933000Y-15627000D01*
X32933000Y-15373000D01*
X32953000Y-15373000D01*
X32953000Y-14179845D01*
X32723110Y-14058524D01*
X32575901Y-14103175D01*
X32313080Y-14228359D01*
X32079731Y-14402412D01*
X31884822Y-14618645D01*
X31815195Y-14735534D01*
X31693475Y-14553368D01*
X31486632Y-14346525D01*
X31300000Y-14221822D01*
X31300000Y-13925000D01*
X45211928Y-13925000D01*
X45224188Y-14049482D01*
X45260498Y-14169180D01*
X45319463Y-14279494D01*
X45398815Y-14376185D01*
X45495506Y-14455537D01*
X45605820Y-14514502D01*
X45725518Y-14550812D01*
X45850000Y-14563072D01*
X47264250Y-14560000D01*
X47423000Y-14401250D01*
X47423000Y-13302000D01*
X47677000Y-13302000D01*
X47677000Y-14401250D01*
X47835750Y-14560000D01*
X49250000Y-14563072D01*
X49374482Y-14550812D01*
X49494180Y-14514502D01*
X49604494Y-14455537D01*
X49701185Y-14376185D01*
X49780537Y-14279494D01*
X49839502Y-14169180D01*
X49875812Y-14049482D01*
X49888072Y-13925000D01*
X49885000Y-13460750D01*
X49726250Y-13302000D01*
X47677000Y-13302000D01*
X47423000Y-13302000D01*
X45373750Y-13302000D01*
X45215000Y-13460750D01*
X45211928Y-13925000D01*
X31300000Y-13925000D01*
X31300000Y-13763072D01*
X31500000Y-13763072D01*
X31624482Y-13750812D01*
X31744180Y-13714502D01*
X31854494Y-13655537D01*
X31951185Y-13576185D01*
X32000000Y-13516704D01*
X32048815Y-13576185D01*
X32145506Y-13655537D01*
X32255820Y-13714502D01*
X32375518Y-13750812D01*
X32500000Y-13763072D01*
X32964250Y-13760000D01*
X33123000Y-13601250D01*
X33123000Y-12627000D01*
X33377000Y-12627000D01*
X33377000Y-13601250D01*
X33535750Y-13760000D01*
X34000000Y-13763072D01*
X34124482Y-13750812D01*
X34244180Y-13714502D01*
X34354494Y-13655537D01*
X34451185Y-13576185D01*
X34530537Y-13479494D01*
X34589502Y-13369180D01*
X34625812Y-13249482D01*
X34638072Y-13125000D01*
X34635000Y-12785750D01*
X34476250Y-12627000D01*
X33377000Y-12627000D01*
X33123000Y-12627000D01*
X33103000Y-12627000D01*
X33103000Y-12373000D01*
X33123000Y-12373000D01*
X33123000Y-11398750D01*
X33377000Y-11398750D01*
X33377000Y-12373000D01*
X34476250Y-12373000D01*
X34635000Y-12214250D01*
X34638072Y-11875000D01*
X34625812Y-11750518D01*
X34589502Y-11630820D01*
X34530537Y-11520506D01*
X34451185Y-11423815D01*
X34354494Y-11344463D01*
X34244180Y-11285498D01*
X34124482Y-11249188D01*
X34000000Y-11236928D01*
X33535750Y-11240000D01*
X33377000Y-11398750D01*
X33123000Y-11398750D01*
X32964250Y-11240000D01*
X32500000Y-11236928D01*
X32375518Y-11249188D01*
X32255820Y-11285498D01*
X32145506Y-11344463D01*
X32048815Y-11423815D01*
X32000000Y-11483296D01*
X31951185Y-11423815D01*
X31854494Y-11344463D01*
X31744180Y-11285498D01*
X31624482Y-11249188D01*
X31510000Y-11237913D01*
X31510000Y-9650000D01*
X35261928Y-9650000D01*
X35274188Y-9774482D01*
X35310498Y-9894180D01*
X35369463Y-10004494D01*
X35448815Y-10101185D01*
X35545506Y-10180537D01*
X35655820Y-10239502D01*
X35775518Y-10275812D01*
X35900000Y-10288072D01*
X36364250Y-10285000D01*
X36523000Y-10126250D01*
X36523000Y-9127000D01*
X35423750Y-9127000D01*
X35265000Y-9285750D01*
X35261928Y-9650000D01*
X31510000Y-9650000D01*
X31510000Y-8814801D01*
X31514801Y-8810000D01*
X32446289Y-8810000D01*
X32490226Y-8853937D01*
X32659744Y-8967205D01*
X32848102Y-9045226D01*
X33048061Y-9085000D01*
X33251939Y-9085000D01*
X33451898Y-9045226D01*
X33640256Y-8967205D01*
X33809774Y-8853937D01*
X33953937Y-8709774D01*
X34067205Y-8540256D01*
X34145226Y-8351898D01*
X34185000Y-8151939D01*
X34185000Y-7948061D01*
X34145226Y-7748102D01*
X34067205Y-7559744D01*
X33953937Y-7390226D01*
X33809774Y-7246063D01*
X33640256Y-7132795D01*
X33451898Y-7054774D01*
X33251939Y-7015000D01*
X33048061Y-7015000D01*
X32848102Y-7054774D01*
X32659744Y-7132795D01*
X32490226Y-7246063D01*
X32446289Y-7290000D01*
X31237322Y-7290000D01*
X31199999Y-7286324D01*
X31162676Y-7290000D01*
X31162667Y-7290000D01*
X31051014Y-7300997D01*
X30907753Y-7344454D01*
X30775723Y-7415026D01*
X30733146Y-7449969D01*
X30659999Y-7509999D01*
X30636196Y-7539003D01*
X30238998Y-7936201D01*
X30210000Y-7959999D01*
X30186202Y-7988997D01*
X30186201Y-7988998D01*
X30115026Y-8075724D01*
X30044454Y-8207754D01*
X30024056Y-8275000D01*
X30000999Y-8351013D01*
X30000998Y-8351015D01*
X29986324Y-8500000D01*
X29990001Y-8537332D01*
X29990000Y-11237913D01*
X29875518Y-11249188D01*
X29755820Y-11285498D01*
X29645506Y-11344463D01*
X29562491Y-11412591D01*
X29551185Y-11398815D01*
X29454494Y-11319463D01*
X29344180Y-11260498D01*
X29224482Y-11224188D01*
X29100000Y-11211928D01*
X27600000Y-11211928D01*
X27475518Y-11224188D01*
X27355820Y-11260498D01*
X27245506Y-11319463D01*
X27148815Y-11398815D01*
X27069463Y-11495506D01*
X27010498Y-11605820D01*
X27000000Y-11640427D01*
X26989502Y-11605820D01*
X26930537Y-11495506D01*
X26851185Y-11398815D01*
X26754494Y-11319463D01*
X26644180Y-11260498D01*
X26605147Y-11248657D01*
X26645226Y-11151898D01*
X26685000Y-10951939D01*
X26685000Y-10748061D01*
X26645226Y-10548102D01*
X26567205Y-10359744D01*
X26453937Y-10190226D01*
X26309774Y-10046063D01*
X26140256Y-9932795D01*
X25951898Y-9854774D01*
X25751939Y-9815000D01*
X25548061Y-9815000D01*
X25348102Y-9854774D01*
X25159744Y-9932795D01*
X24990226Y-10046063D01*
X24846063Y-10190226D01*
X24732795Y-10359744D01*
X24654774Y-10548102D01*
X24615000Y-10748061D01*
X24615000Y-10951939D01*
X24654774Y-11151898D01*
X24694853Y-11248657D01*
X24655820Y-11260498D01*
X24545506Y-11319463D01*
X24448815Y-11398815D01*
X24369463Y-11495506D01*
X24310498Y-11605820D01*
X24274188Y-11725518D01*
X24261928Y-11850000D01*
X24261928Y-13150000D01*
X24274188Y-13274482D01*
X24310498Y-13394180D01*
X24369463Y-13504494D01*
X24448815Y-13601185D01*
X24545506Y-13680537D01*
X24655820Y-13739502D01*
X24775518Y-13775812D01*
X24890001Y-13787087D01*
X24890000Y-15112677D01*
X24886324Y-15150000D01*
X24890000Y-15187322D01*
X24890000Y-15187332D01*
X24900997Y-15298985D01*
X24934604Y-15409774D01*
X24944454Y-15442246D01*
X25015026Y-15574276D01*
X25037729Y-15601939D01*
X25109999Y-15690001D01*
X25139003Y-15713804D01*
X25436196Y-16010997D01*
X25459999Y-16040001D01*
X25575724Y-16134974D01*
X25707753Y-16205546D01*
X25851014Y-16249003D01*
X25962667Y-16260000D01*
X25962675Y-16260000D01*
X26000000Y-16263676D01*
X26037325Y-16260000D01*
X26511928Y-16260000D01*
X26511928Y-16350000D01*
X26524188Y-16474482D01*
X26560498Y-16594180D01*
X26619463Y-16704494D01*
X26698815Y-16801185D01*
X26746111Y-16840000D01*
X12127000Y-16840000D01*
X12127000Y-4898061D01*
X13965000Y-4898061D01*
X13965000Y-5101939D01*
X14004774Y-5301898D01*
X14082795Y-5490256D01*
X14196063Y-5659774D01*
X14340226Y-5803937D01*
X14509744Y-5917205D01*
X14698102Y-5995226D01*
X14722103Y-6000000D01*
X14698102Y-6004774D01*
X14509744Y-6082795D01*
X14340226Y-6196063D01*
X14196063Y-6340226D01*
X14082795Y-6509744D01*
X14004774Y-6698102D01*
X13965000Y-6898061D01*
X13965000Y-7101939D01*
X14004774Y-7301898D01*
X14082795Y-7490256D01*
X14196063Y-7659774D01*
X14340226Y-7803937D01*
X14509744Y-7917205D01*
X14698102Y-7995226D01*
X14722103Y-8000000D01*
X14698102Y-8004774D01*
X14509744Y-8082795D01*
X14340226Y-8196063D01*
X14196063Y-8340226D01*
X14082795Y-8509744D01*
X14004774Y-8698102D01*
X13965000Y-8898061D01*
X13965000Y-9101939D01*
X14004774Y-9301898D01*
X14082795Y-9490256D01*
X14196063Y-9659774D01*
X14340226Y-9803937D01*
X14509744Y-9917205D01*
X14698102Y-9995226D01*
X14722103Y-10000000D01*
X14698102Y-10004774D01*
X14509744Y-10082795D01*
X14340226Y-10196063D01*
X14196063Y-10340226D01*
X14082795Y-10509744D01*
X14004774Y-10698102D01*
X13965000Y-10898061D01*
X13965000Y-11101939D01*
X14004774Y-11301898D01*
X14082795Y-11490256D01*
X14196063Y-11659774D01*
X14340226Y-11803937D01*
X14509744Y-11917205D01*
X14698102Y-11995226D01*
X14722103Y-12000000D01*
X14698102Y-12004774D01*
X14509744Y-12082795D01*
X14340226Y-12196063D01*
X14196063Y-12340226D01*
X14082795Y-12509744D01*
X14004774Y-12698102D01*
X13965000Y-12898061D01*
X13965000Y-13101939D01*
X14004774Y-13301898D01*
X14082795Y-13490256D01*
X14196063Y-13659774D01*
X14340226Y-13803937D01*
X14509744Y-13917205D01*
X14698102Y-13995226D01*
X14898061Y-14035000D01*
X15101939Y-14035000D01*
X15301898Y-13995226D01*
X15490256Y-13917205D01*
X15659774Y-13803937D01*
X15703711Y-13760000D01*
X15772762Y-13760000D01*
X15774188Y-13774482D01*
X15810498Y-13894180D01*
X15869463Y-14004494D01*
X15948815Y-14101185D01*
X16045506Y-14180537D01*
X16155820Y-14239502D01*
X16275518Y-14275812D01*
X16400000Y-14288072D01*
X17900000Y-14288072D01*
X18024482Y-14275812D01*
X18144180Y-14239502D01*
X18254494Y-14180537D01*
X18351185Y-14101185D01*
X18430537Y-14004494D01*
X18489502Y-13894180D01*
X18500000Y-13859573D01*
X18510498Y-13894180D01*
X18569463Y-14004494D01*
X18648815Y-14101185D01*
X18745506Y-14180537D01*
X18855820Y-14239502D01*
X18931651Y-14262505D01*
X18854774Y-14448102D01*
X18815000Y-14648061D01*
X18815000Y-14851939D01*
X18854774Y-15051898D01*
X18932795Y-15240256D01*
X19046063Y-15409774D01*
X19190226Y-15553937D01*
X19359744Y-15667205D01*
X19548102Y-15745226D01*
X19748061Y-15785000D01*
X19951939Y-15785000D01*
X20151898Y-15745226D01*
X20340256Y-15667205D01*
X20509774Y-15553937D01*
X20653937Y-15409774D01*
X20767205Y-15240256D01*
X20845226Y-15051898D01*
X20885000Y-14851939D01*
X20885000Y-14648061D01*
X20845226Y-14448102D01*
X20768349Y-14262505D01*
X20844180Y-14239502D01*
X20954494Y-14180537D01*
X21051185Y-14101185D01*
X21130537Y-14004494D01*
X21189502Y-13894180D01*
X21225812Y-13774482D01*
X21238072Y-13650000D01*
X21238072Y-12350000D01*
X21225812Y-12225518D01*
X21189502Y-12105820D01*
X21132939Y-12000000D01*
X21189502Y-11894180D01*
X21225812Y-11774482D01*
X21238072Y-11650000D01*
X21238072Y-10350000D01*
X21225812Y-10225518D01*
X21189502Y-10105820D01*
X21132939Y-10000000D01*
X21189502Y-9894180D01*
X21225812Y-9774482D01*
X21238072Y-9650000D01*
X21238072Y-8350000D01*
X21225812Y-8225518D01*
X21189502Y-8105820D01*
X21132939Y-8000000D01*
X21189502Y-7894180D01*
X21225812Y-7774482D01*
X21238072Y-7650000D01*
X21238072Y-6350000D01*
X21225812Y-6225518D01*
X21189502Y-6105820D01*
X21132939Y-6000000D01*
X21189502Y-5894180D01*
X21225812Y-5774482D01*
X21238072Y-5650000D01*
X21238072Y-4599752D01*
X32309853Y-4599752D01*
X32399579Y-4859042D01*
X32680671Y-4994935D01*
X32982873Y-5073379D01*
X33294573Y-5091359D01*
X33603791Y-5048184D01*
X33898644Y-4945513D01*
X34060421Y-4859042D01*
X34150147Y-4599752D01*
X33230000Y-3679605D01*
X32309853Y-4599752D01*
X21238072Y-4599752D01*
X21238072Y-4350000D01*
X21225812Y-4225518D01*
X21189502Y-4105820D01*
X21130537Y-3995506D01*
X21051185Y-3898815D01*
X20954494Y-3819463D01*
X20844180Y-3760498D01*
X20724482Y-3724188D01*
X20600000Y-3711928D01*
X19100000Y-3711928D01*
X18975518Y-3724188D01*
X18855820Y-3760498D01*
X18745506Y-3819463D01*
X18648815Y-3898815D01*
X18569463Y-3995506D01*
X18510498Y-4105820D01*
X18500000Y-4140427D01*
X18489502Y-4105820D01*
X18430537Y-3995506D01*
X18351185Y-3898815D01*
X18254494Y-3819463D01*
X18144180Y-3760498D01*
X18024482Y-3724188D01*
X17900000Y-3711928D01*
X16400000Y-3711928D01*
X16275518Y-3724188D01*
X16155820Y-3760498D01*
X16045506Y-3819463D01*
X15948815Y-3898815D01*
X15869463Y-3995506D01*
X15810498Y-4105820D01*
X15774188Y-4225518D01*
X15772762Y-4240000D01*
X15703711Y-4240000D01*
X15659774Y-4196063D01*
X15490256Y-4082795D01*
X15301898Y-4004774D01*
X15101939Y-3965000D01*
X14898061Y-3965000D01*
X14698102Y-4004774D01*
X14509744Y-4082795D01*
X14340226Y-4196063D01*
X14196063Y-4340226D01*
X14082795Y-4509744D01*
X14004774Y-4698102D01*
X13965000Y-4898061D01*
X12127000Y-4898061D01*
X12127000Y-660000D01*
X87873000Y-660000D01*
X87873000Y-16840000D01*
G37*
X87873000Y-16840000D02*
X75967473Y-16840000D01*
X76130379Y-16731150D01*
X76351150Y-16510379D01*
X76524609Y-16250779D01*
X76644089Y-15962327D01*
X76705000Y-15656109D01*
X76705000Y-15343891D01*
X76644089Y-15037673D01*
X76524609Y-14749221D01*
X76351150Y-14489621D01*
X76130379Y-14268850D01*
X75870779Y-14095391D01*
X75582327Y-13975911D01*
X75276109Y-13915000D01*
X74963891Y-13915000D01*
X74657673Y-13975911D01*
X74369221Y-14095391D01*
X74109621Y-14268850D01*
X73888850Y-14489621D01*
X73850000Y-14547764D01*
X73811150Y-14489621D01*
X73590379Y-14268850D01*
X73330779Y-14095391D01*
X73310000Y-14086784D01*
X73310000Y-13903711D01*
X73353937Y-13859774D01*
X73467205Y-13690256D01*
X73545226Y-13501898D01*
X73585000Y-13301939D01*
X73585000Y-13098061D01*
X73545226Y-12898102D01*
X73467205Y-12709744D01*
X73353937Y-12540226D01*
X73209774Y-12396063D01*
X73040256Y-12282795D01*
X72985224Y-12260000D01*
X75412678Y-12260000D01*
X75450000Y-12263676D01*
X75487322Y-12260000D01*
X77162678Y-12260000D01*
X77200000Y-12263676D01*
X77237322Y-12260000D01*
X77237333Y-12260000D01*
X77348986Y-12249003D01*
X77492247Y-12205546D01*
X77624276Y-12134974D01*
X77740001Y-12040001D01*
X77763804Y-12010997D01*
X78010998Y-11763803D01*
X78040001Y-11740001D01*
X78134974Y-11624276D01*
X78205546Y-11492247D01*
X78249003Y-11348986D01*
X78260000Y-11237333D01*
X78260000Y-11237324D01*
X78263676Y-11200001D01*
X78260000Y-11162678D01*
X78260000Y-10727238D01*
X78274482Y-10725812D01*
X78394180Y-10689502D01*
X78504494Y-10630537D01*
X78601185Y-10551185D01*
X78680537Y-10454494D01*
X78739502Y-10344180D01*
X78775812Y-10224482D01*
X78788072Y-10100000D01*
X78788072Y-8600000D01*
X78775812Y-8475518D01*
X78739502Y-8355820D01*
X78680537Y-8245506D01*
X78601185Y-8148815D01*
X78504494Y-8069463D01*
X78394180Y-8010498D01*
X78359573Y-8000000D01*
X78394180Y-7989502D01*
X78504494Y-7930537D01*
X78601185Y-7851185D01*
X78680537Y-7754494D01*
X78739502Y-7644180D01*
X78775812Y-7524482D01*
X78788072Y-7400000D01*
X78788072Y-5900000D01*
X78775812Y-5775518D01*
X78739502Y-5655820D01*
X78680537Y-5545506D01*
X78601185Y-5448815D01*
X78504494Y-5369463D01*
X78394180Y-5310498D01*
X78385000Y-5307713D01*
X78385000Y-5168450D01*
X78505824Y-4987624D01*
X78591383Y-4781067D01*
X78635000Y-4561788D01*
X78635000Y-4338212D01*
X78591383Y-4118933D01*
X78505824Y-3912376D01*
X78381612Y-3726480D01*
X78223520Y-3568388D01*
X78037624Y-3444176D01*
X77831067Y-3358617D01*
X77611788Y-3315000D01*
X77388212Y-3315000D01*
X77168933Y-3358617D01*
X76962376Y-3444176D01*
X76776480Y-3568388D01*
X76618388Y-3726480D01*
X76494176Y-3912376D01*
X76408617Y-4118933D01*
X76385000Y-4237665D01*
X76385000Y-3443465D01*
X76389281Y-3399999D01*
X76385000Y-3356533D01*
X76385000Y-3356523D01*
X76372195Y-3226510D01*
X76321589Y-3059687D01*
X76239411Y-2905941D01*
X76128817Y-2771183D01*
X76095050Y-2743471D01*
X74656534Y-1304956D01*
X74628817Y-1271183D01*
X74494059Y-1160589D01*
X74340313Y-1078411D01*
X74173490Y-1027805D01*
X74043477Y-1015000D01*
X74043469Y-1015000D01*
X74000000Y-1010719D01*
X73956531Y-1015000D01*
X31043465Y-1015000D01*
X30999999Y-1010719D01*
X30956533Y-1015000D01*
X30956523Y-1015000D01*
X30826510Y-1027805D01*
X30659687Y-1078411D01*
X30505941Y-1160589D01*
X30505939Y-1160590D01*
X30505940Y-1160590D01*
X30404953Y-1243468D01*
X30404951Y-1243470D01*
X30371183Y-1271183D01*
X30343470Y-1304951D01*
X29832232Y-1816189D01*
X29618933Y-1858617D01*
X29412376Y-1944176D01*
X29226480Y-2068388D01*
X29068388Y-2226480D01*
X28944176Y-2412376D01*
X28858617Y-2618933D01*
X28815000Y-2838212D01*
X28815000Y-3061788D01*
X28858617Y-3281067D01*
X28944176Y-3487624D01*
X29068388Y-3673520D01*
X29226480Y-3831612D01*
X29412376Y-3955824D01*
X29618933Y-4041383D01*
X29838212Y-4085000D01*
X30061788Y-4085000D01*
X30281067Y-4041383D01*
X30487624Y-3955824D01*
X30673520Y-3831612D01*
X30831612Y-3673520D01*
X30955824Y-3487624D01*
X31041383Y-3281067D01*
X31083811Y-3067768D01*
X31366579Y-2785000D01*
X31815158Y-2785000D01*
X31735065Y-2950671D01*
X31656621Y-3252873D01*
X31638641Y-3564573D01*
X31681816Y-3873791D01*
X31784487Y-4168644D01*
X31870958Y-4330421D01*
X32130248Y-4420147D01*
X33050395Y-3500000D01*
X33036253Y-3485858D01*
X33215858Y-3306253D01*
X33230000Y-3320395D01*
X33244143Y-3306253D01*
X33423748Y-3485858D01*
X33409605Y-3500000D01*
X34329752Y-4420147D01*
X34450613Y-4378324D01*
X34538850Y-4510379D01*
X34759621Y-4731150D01*
X35019221Y-4904609D01*
X35307673Y-5024089D01*
X35613891Y-5085000D01*
X35926109Y-5085000D01*
X35960246Y-5078210D01*
X35944454Y-5107754D01*
X35914180Y-5207558D01*
X35912854Y-5211928D01*
X35900000Y-5211928D01*
X35775518Y-5224188D01*
X35655820Y-5260498D01*
X35545506Y-5319463D01*
X35448815Y-5398815D01*
X35369463Y-5495506D01*
X35310498Y-5605820D01*
X35274188Y-5725518D01*
X35261928Y-5850000D01*
X35261928Y-7150000D01*
X35274188Y-7274482D01*
X35310498Y-7394180D01*
X35369463Y-7504494D01*
X35448815Y-7601185D01*
X35545506Y-7680537D01*
X35655820Y-7739502D01*
X35690427Y-7750000D01*
X35655820Y-7760498D01*
X35545506Y-7819463D01*
X35448815Y-7898815D01*
X35369463Y-7995506D01*
X35310498Y-8105820D01*
X35274188Y-8225518D01*
X35261928Y-8350000D01*
X35265000Y-8714250D01*
X35423750Y-8873000D01*
X36523000Y-8873000D01*
X36523000Y-8853000D01*
X36777000Y-8853000D01*
X36777000Y-8873000D01*
X36797000Y-8873000D01*
X36797000Y-9127000D01*
X36777000Y-9127000D01*
X36777000Y-10126250D01*
X36935750Y-10285000D01*
X37400000Y-10288072D01*
X37524482Y-10275812D01*
X37644180Y-10239502D01*
X37754494Y-10180537D01*
X37851185Y-10101185D01*
X37930537Y-10004494D01*
X37989502Y-9894180D01*
X38000000Y-9859573D01*
X38010498Y-9894180D01*
X38069463Y-10004494D01*
X38148815Y-10101185D01*
X38245506Y-10180537D01*
X38355820Y-10239502D01*
X38475518Y-10275812D01*
X38600000Y-10288072D01*
X40100000Y-10288072D01*
X40224482Y-10275812D01*
X40344180Y-10239502D01*
X40454494Y-10180537D01*
X40551185Y-10101185D01*
X40630537Y-10004494D01*
X40689502Y-9894180D01*
X40725812Y-9774482D01*
X40728414Y-9748061D01*
X40915000Y-9748061D01*
X40915000Y-9951939D01*
X40954774Y-10151898D01*
X41032795Y-10340256D01*
X41146063Y-10509774D01*
X41190000Y-10553711D01*
X41190001Y-12096288D01*
X41146063Y-12140226D01*
X41032795Y-12309744D01*
X40954774Y-12498102D01*
X40915000Y-12698061D01*
X40915000Y-12901939D01*
X40954774Y-13101898D01*
X41032795Y-13290256D01*
X41146063Y-13459774D01*
X41290226Y-13603937D01*
X41459744Y-13717205D01*
X41648102Y-13795226D01*
X41848061Y-13835000D01*
X42051939Y-13835000D01*
X42251898Y-13795226D01*
X42440256Y-13717205D01*
X42609774Y-13603937D01*
X42753937Y-13459774D01*
X42867205Y-13290256D01*
X42945226Y-13101898D01*
X42985000Y-12901939D01*
X42985000Y-12698061D01*
X42945226Y-12498102D01*
X42867205Y-12309744D01*
X42753937Y-12140226D01*
X42710000Y-12096289D01*
X42710000Y-10553711D01*
X42753937Y-10509774D01*
X42867205Y-10340256D01*
X42945226Y-10151898D01*
X42985000Y-9951939D01*
X42985000Y-9748061D01*
X42945226Y-9548102D01*
X42867205Y-9359744D01*
X42753937Y-9190226D01*
X42609774Y-9046063D01*
X42440256Y-8932795D01*
X42251898Y-8854774D01*
X42051939Y-8815000D01*
X41848061Y-8815000D01*
X41648102Y-8854774D01*
X41459744Y-8932795D01*
X41290226Y-9046063D01*
X41146063Y-9190226D01*
X41032795Y-9359744D01*
X40954774Y-9548102D01*
X40915000Y-9748061D01*
X40728414Y-9748061D01*
X40738072Y-9650000D01*
X40738072Y-8350000D01*
X40725812Y-8225518D01*
X40689502Y-8105820D01*
X40630537Y-7995506D01*
X40551185Y-7898815D01*
X40454494Y-7819463D01*
X40344180Y-7760498D01*
X40309573Y-7750000D01*
X40344180Y-7739502D01*
X40454494Y-7680537D01*
X40551185Y-7601185D01*
X40630537Y-7504494D01*
X40689502Y-7394180D01*
X40725812Y-7274482D01*
X40727238Y-7260000D01*
X41011978Y-7260000D01*
X40954774Y-7398102D01*
X40915000Y-7598061D01*
X40915000Y-7801939D01*
X40954774Y-8001898D01*
X41032795Y-8190256D01*
X41146063Y-8359774D01*
X41290226Y-8503937D01*
X41459744Y-8617205D01*
X41648102Y-8695226D01*
X41848061Y-8735000D01*
X42051939Y-8735000D01*
X42251898Y-8695226D01*
X42440256Y-8617205D01*
X42609774Y-8503937D01*
X42653711Y-8460000D01*
X42885199Y-8460000D01*
X43031196Y-8605997D01*
X43054999Y-8635001D01*
X43170724Y-8729974D01*
X43302753Y-8800546D01*
X43446014Y-8844003D01*
X43557667Y-8855000D01*
X43557676Y-8855000D01*
X43594999Y-8858676D01*
X43632322Y-8855000D01*
X45212913Y-8855000D01*
X45224188Y-8969482D01*
X45260498Y-9089180D01*
X45319463Y-9199494D01*
X45398815Y-9296185D01*
X45482667Y-9365000D01*
X45398815Y-9433815D01*
X45319463Y-9530506D01*
X45260498Y-9640820D01*
X45224188Y-9760518D01*
X45211928Y-9885000D01*
X45211928Y-11385000D01*
X45224188Y-11509482D01*
X45260498Y-11629180D01*
X45319463Y-11739494D01*
X45398815Y-11836185D01*
X45482667Y-11905000D01*
X45398815Y-11973815D01*
X45319463Y-12070506D01*
X45260498Y-12180820D01*
X45224188Y-12300518D01*
X45211928Y-12425000D01*
X45215000Y-12889250D01*
X45373750Y-13048000D01*
X47423000Y-13048000D01*
X47423000Y-13028000D01*
X47677000Y-13028000D01*
X47677000Y-13048000D01*
X49726250Y-13048000D01*
X49885000Y-12889250D01*
X49888072Y-12425000D01*
X49875812Y-12300518D01*
X49839502Y-12180820D01*
X49780537Y-12070506D01*
X49701185Y-11973815D01*
X49617333Y-11905000D01*
X49701185Y-11836185D01*
X49780537Y-11739494D01*
X49839502Y-11629180D01*
X49875812Y-11509482D01*
X49888072Y-11385000D01*
X49888072Y-10025282D01*
X49972753Y-10070546D01*
X50111928Y-10112764D01*
X50111928Y-10115000D01*
X50124188Y-10239482D01*
X50160498Y-10359180D01*
X50219463Y-10469494D01*
X50298815Y-10566185D01*
X50382667Y-10635000D01*
X50298815Y-10703815D01*
X50219463Y-10800506D01*
X50160498Y-10910820D01*
X50124188Y-11030518D01*
X50111928Y-11155000D01*
X50111928Y-12655000D01*
X50124188Y-12779482D01*
X50160498Y-12899180D01*
X50219463Y-13009494D01*
X50298815Y-13106185D01*
X50395506Y-13185537D01*
X50505820Y-13244502D01*
X50625518Y-13280812D01*
X50750000Y-13293072D01*
X54150000Y-13293072D01*
X54274482Y-13280812D01*
X54394180Y-13244502D01*
X54504494Y-13185537D01*
X54601185Y-13106185D01*
X54680537Y-13009494D01*
X54739502Y-12899180D01*
X54740001Y-12897536D01*
X54740001Y-14849299D01*
X54632795Y-15009744D01*
X54554774Y-15198102D01*
X54515000Y-15398061D01*
X54515000Y-15601939D01*
X54554774Y-15801898D01*
X54632795Y-15990256D01*
X54746063Y-16159774D01*
X54890226Y-16303937D01*
X55059744Y-16417205D01*
X55248102Y-16495226D01*
X55448061Y-16535000D01*
X55651939Y-16535000D01*
X55851898Y-16495226D01*
X56040256Y-16417205D01*
X56209774Y-16303937D01*
X56353937Y-16159774D01*
X56467205Y-15990256D01*
X56545226Y-15801898D01*
X56564984Y-15702569D01*
X56601898Y-15695226D01*
X56790256Y-15617205D01*
X56869025Y-15564573D01*
X58288641Y-15564573D01*
X58331816Y-15873791D01*
X58434487Y-16168644D01*
X58520958Y-16330421D01*
X58780248Y-16420147D01*
X59700395Y-15500000D01*
X58780248Y-14579853D01*
X58520958Y-14669579D01*
X58385065Y-14950671D01*
X58306621Y-15252873D01*
X58288641Y-15564573D01*
X56869025Y-15564573D01*
X56959774Y-15503937D01*
X57103937Y-15359774D01*
X57217205Y-15190256D01*
X57295226Y-15001898D01*
X57335000Y-14801939D01*
X57335000Y-14598061D01*
X57295226Y-14398102D01*
X57217205Y-14209744D01*
X57103937Y-14040226D01*
X57060000Y-13996289D01*
X57060000Y-13500000D01*
X58236928Y-13500000D01*
X58249188Y-13624482D01*
X58285498Y-13744180D01*
X58344463Y-13854494D01*
X58423815Y-13951185D01*
X58520506Y-14030537D01*
X58630820Y-14089502D01*
X58750518Y-14125812D01*
X58875000Y-14138072D01*
X59058080Y-14136414D01*
X59049579Y-14140958D01*
X58959853Y-14400248D01*
X59880000Y-15320395D01*
X60800147Y-14400248D01*
X60710421Y-14140958D01*
X60480429Y-14029769D01*
X60576185Y-13951185D01*
X60655537Y-13854494D01*
X60714502Y-13744180D01*
X60750812Y-13624482D01*
X60763072Y-13500000D01*
X60760000Y-13035750D01*
X60601250Y-12877000D01*
X59627000Y-12877000D01*
X59627000Y-12897000D01*
X59373000Y-12897000D01*
X59373000Y-12877000D01*
X58398750Y-12877000D01*
X58240000Y-13035750D01*
X58236928Y-13500000D01*
X57060000Y-13500000D01*
X57060000Y-11007538D01*
X57198061Y-11035000D01*
X57401939Y-11035000D01*
X57601898Y-10995226D01*
X57790256Y-10917205D01*
X57886576Y-10852846D01*
X57925724Y-10884974D01*
X58057753Y-10955546D01*
X58201014Y-10999003D01*
X58237181Y-11002565D01*
X58249188Y-11124482D01*
X58285498Y-11244180D01*
X58344463Y-11354494D01*
X58423815Y-11451185D01*
X58483296Y-11500000D01*
X58423815Y-11548815D01*
X58344463Y-11645506D01*
X58285498Y-11755820D01*
X58249188Y-11875518D01*
X58236928Y-12000000D01*
X58240000Y-12464250D01*
X58398750Y-12623000D01*
X59373000Y-12623000D01*
X59373000Y-12603000D01*
X59627000Y-12603000D01*
X59627000Y-12623000D01*
X60601250Y-12623000D01*
X60760000Y-12464250D01*
X60763072Y-12000000D01*
X60750812Y-11875518D01*
X60714502Y-11755820D01*
X60655537Y-11645506D01*
X60576185Y-11548815D01*
X60516704Y-11500000D01*
X60576185Y-11451185D01*
X60655537Y-11354494D01*
X60714502Y-11244180D01*
X60750812Y-11124482D01*
X60763072Y-11000000D01*
X60763072Y-9500000D01*
X60750812Y-9375518D01*
X60714502Y-9255820D01*
X60655537Y-9145506D01*
X60576185Y-9048815D01*
X60479494Y-8969463D01*
X60369180Y-8910498D01*
X60249482Y-8874188D01*
X60125000Y-8861928D01*
X58875000Y-8861928D01*
X58750518Y-8874188D01*
X58630820Y-8910498D01*
X58520506Y-8969463D01*
X58423815Y-9048815D01*
X58344463Y-9145506D01*
X58285498Y-9255820D01*
X58283761Y-9261546D01*
X58248986Y-9250997D01*
X58137333Y-9240000D01*
X58137322Y-9240000D01*
X58100000Y-9236324D01*
X58062678Y-9240000D01*
X58003711Y-9240000D01*
X57959774Y-9196063D01*
X57790256Y-9082795D01*
X57601898Y-9004774D01*
X57401939Y-8965000D01*
X57198061Y-8965000D01*
X57098512Y-8984801D01*
X56959774Y-8846063D01*
X56790256Y-8732795D01*
X56601898Y-8654774D01*
X56512924Y-8637076D01*
X56495226Y-8548102D01*
X56417205Y-8359744D01*
X56303937Y-8190226D01*
X56159774Y-8046063D01*
X55990256Y-7932795D01*
X55801898Y-7854774D01*
X55601939Y-7815000D01*
X55398061Y-7815000D01*
X55198102Y-7854774D01*
X55009744Y-7932795D01*
X54840226Y-8046063D01*
X54696063Y-8190226D01*
X54663210Y-8239393D01*
X54601185Y-8163815D01*
X54517333Y-8095000D01*
X54601185Y-8026185D01*
X54680537Y-7929494D01*
X54739502Y-7819180D01*
X54775812Y-7699482D01*
X54788072Y-7575000D01*
X54788072Y-7150000D01*
X56261928Y-7150000D01*
X56274188Y-7274482D01*
X56310498Y-7394180D01*
X56369463Y-7504494D01*
X56448815Y-7601185D01*
X56545506Y-7680537D01*
X56655820Y-7739502D01*
X56775518Y-7775812D01*
X56900000Y-7788072D01*
X57364250Y-7785000D01*
X57523000Y-7626250D01*
X57523000Y-6627000D01*
X56423750Y-6627000D01*
X56265000Y-6785750D01*
X56261928Y-7150000D01*
X54788072Y-7150000D01*
X54788072Y-6075000D01*
X54775812Y-5950518D01*
X54745321Y-5850000D01*
X56261928Y-5850000D01*
X56265000Y-6214250D01*
X56423750Y-6373000D01*
X57523000Y-6373000D01*
X57523000Y-5373750D01*
X57364250Y-5215000D01*
X56900000Y-5211928D01*
X56775518Y-5224188D01*
X56655820Y-5260498D01*
X56545506Y-5319463D01*
X56448815Y-5398815D01*
X56369463Y-5495506D01*
X56310498Y-5605820D01*
X56274188Y-5725518D01*
X56261928Y-5850000D01*
X54745321Y-5850000D01*
X54739502Y-5830820D01*
X54680537Y-5720506D01*
X54601185Y-5623815D01*
X54504494Y-5544463D01*
X54394180Y-5485498D01*
X54274482Y-5449188D01*
X54150000Y-5436928D01*
X50750000Y-5436928D01*
X50724247Y-5439464D01*
X50753937Y-5409774D01*
X50867205Y-5240256D01*
X50945226Y-5051898D01*
X50985000Y-4851939D01*
X50985000Y-4648061D01*
X50957538Y-4510000D01*
X59235199Y-4510000D01*
X59590000Y-4864802D01*
X59590000Y-5212913D01*
X59475518Y-5224188D01*
X59355820Y-5260498D01*
X59245506Y-5319463D01*
X59148815Y-5398815D01*
X59069463Y-5495506D01*
X59010498Y-5605820D01*
X59000000Y-5640427D01*
X58989502Y-5605820D01*
X58930537Y-5495506D01*
X58851185Y-5398815D01*
X58754494Y-5319463D01*
X58644180Y-5260498D01*
X58524482Y-5224188D01*
X58400000Y-5211928D01*
X57935750Y-5215000D01*
X57777000Y-5373750D01*
X57777000Y-6373000D01*
X57797000Y-6373000D01*
X57797000Y-6627000D01*
X57777000Y-6627000D01*
X57777000Y-7626250D01*
X57935750Y-7785000D01*
X58400000Y-7788072D01*
X58524482Y-7775812D01*
X58644180Y-7739502D01*
X58754494Y-7680537D01*
X58851185Y-7601185D01*
X58930537Y-7504494D01*
X58989502Y-7394180D01*
X59000000Y-7359573D01*
X59010498Y-7394180D01*
X59069463Y-7504494D01*
X59148815Y-7601185D01*
X59245506Y-7680537D01*
X59355820Y-7739502D01*
X59475518Y-7775812D01*
X59600000Y-7788072D01*
X61100000Y-7788072D01*
X61224482Y-7775812D01*
X61344180Y-7739502D01*
X61454494Y-7680537D01*
X61551185Y-7601185D01*
X61630537Y-7504494D01*
X61689502Y-7394180D01*
X61696456Y-7371257D01*
X61928722Y-7603523D01*
X61790226Y-7696063D01*
X61646063Y-7840226D01*
X61532795Y-8009744D01*
X61454774Y-8198102D01*
X61415000Y-8398061D01*
X61415000Y-8601939D01*
X61454774Y-8801898D01*
X61532795Y-8990256D01*
X61646063Y-9159774D01*
X61790226Y-9303937D01*
X61959744Y-9417205D01*
X61978563Y-9425000D01*
X61959744Y-9432795D01*
X61790226Y-9546063D01*
X61646063Y-9690226D01*
X61532795Y-9859744D01*
X61454774Y-10048102D01*
X61415000Y-10248061D01*
X61415000Y-10451939D01*
X61454774Y-10651898D01*
X61532795Y-10840256D01*
X61646063Y-11009774D01*
X61690000Y-11053711D01*
X61690001Y-14086784D01*
X61669221Y-14095391D01*
X61409621Y-14268850D01*
X61188850Y-14489621D01*
X61100613Y-14621676D01*
X60979752Y-14579853D01*
X60059605Y-15500000D01*
X60979752Y-16420147D01*
X61100613Y-16378324D01*
X61188850Y-16510379D01*
X61409621Y-16731150D01*
X61572527Y-16840000D01*
X60717010Y-16840000D01*
X60800147Y-16599752D01*
X59880000Y-15679605D01*
X58959853Y-16599752D01*
X59042990Y-16840000D01*
X38805445Y-16840000D01*
X38863411Y-16815990D01*
X39106632Y-16653475D01*
X39313475Y-16446632D01*
X39475990Y-16203411D01*
X39587932Y-15933158D01*
X39645000Y-15646260D01*
X39645000Y-15353740D01*
X39587932Y-15066842D01*
X39475990Y-14796589D01*
X39313475Y-14553368D01*
X39106632Y-14346525D01*
X38863411Y-14184010D01*
X38593158Y-14072068D01*
X38306260Y-14015000D01*
X38013740Y-14015000D01*
X37726842Y-14072068D01*
X37456589Y-14184010D01*
X37213368Y-14346525D01*
X37006525Y-14553368D01*
X36890000Y-14727760D01*
X36773475Y-14553368D01*
X36566632Y-14346525D01*
X36323411Y-14184010D01*
X36053158Y-14072068D01*
X35766260Y-14015000D01*
X35473740Y-14015000D01*
X35186842Y-14072068D01*
X34916589Y-14184010D01*
X34673368Y-14346525D01*
X34466525Y-14553368D01*
X34344805Y-14735534D01*
X34275178Y-14618645D01*
X34080269Y-14402412D01*
X33846920Y-14228359D01*
X33584099Y-14103175D01*
X33436890Y-14058524D01*
X33207000Y-14179845D01*
X33207000Y-15373000D01*
X33227000Y-15373000D01*
X33227000Y-15627000D01*
X33207000Y-15627000D01*
X33207000Y-15647000D01*
X32953000Y-15647000D01*
X32953000Y-15627000D01*
X32933000Y-15627000D01*
X32933000Y-15373000D01*
X32953000Y-15373000D01*
X32953000Y-14179845D01*
X32723110Y-14058524D01*
X32575901Y-14103175D01*
X32313080Y-14228359D01*
X32079731Y-14402412D01*
X31884822Y-14618645D01*
X31815195Y-14735534D01*
X31693475Y-14553368D01*
X31486632Y-14346525D01*
X31300000Y-14221822D01*
X31300000Y-13925000D01*
X45211928Y-13925000D01*
X45224188Y-14049482D01*
X45260498Y-14169180D01*
X45319463Y-14279494D01*
X45398815Y-14376185D01*
X45495506Y-14455537D01*
X45605820Y-14514502D01*
X45725518Y-14550812D01*
X45850000Y-14563072D01*
X47264250Y-14560000D01*
X47423000Y-14401250D01*
X47423000Y-13302000D01*
X47677000Y-13302000D01*
X47677000Y-14401250D01*
X47835750Y-14560000D01*
X49250000Y-14563072D01*
X49374482Y-14550812D01*
X49494180Y-14514502D01*
X49604494Y-14455537D01*
X49701185Y-14376185D01*
X49780537Y-14279494D01*
X49839502Y-14169180D01*
X49875812Y-14049482D01*
X49888072Y-13925000D01*
X49885000Y-13460750D01*
X49726250Y-13302000D01*
X47677000Y-13302000D01*
X47423000Y-13302000D01*
X45373750Y-13302000D01*
X45215000Y-13460750D01*
X45211928Y-13925000D01*
X31300000Y-13925000D01*
X31300000Y-13763072D01*
X31500000Y-13763072D01*
X31624482Y-13750812D01*
X31744180Y-13714502D01*
X31854494Y-13655537D01*
X31951185Y-13576185D01*
X32000000Y-13516704D01*
X32048815Y-13576185D01*
X32145506Y-13655537D01*
X32255820Y-13714502D01*
X32375518Y-13750812D01*
X32500000Y-13763072D01*
X32964250Y-13760000D01*
X33123000Y-13601250D01*
X33123000Y-12627000D01*
X33377000Y-12627000D01*
X33377000Y-13601250D01*
X33535750Y-13760000D01*
X34000000Y-13763072D01*
X34124482Y-13750812D01*
X34244180Y-13714502D01*
X34354494Y-13655537D01*
X34451185Y-13576185D01*
X34530537Y-13479494D01*
X34589502Y-13369180D01*
X34625812Y-13249482D01*
X34638072Y-13125000D01*
X34635000Y-12785750D01*
X34476250Y-12627000D01*
X33377000Y-12627000D01*
X33123000Y-12627000D01*
X33103000Y-12627000D01*
X33103000Y-12373000D01*
X33123000Y-12373000D01*
X33123000Y-11398750D01*
X33377000Y-11398750D01*
X33377000Y-12373000D01*
X34476250Y-12373000D01*
X34635000Y-12214250D01*
X34638072Y-11875000D01*
X34625812Y-11750518D01*
X34589502Y-11630820D01*
X34530537Y-11520506D01*
X34451185Y-11423815D01*
X34354494Y-11344463D01*
X34244180Y-11285498D01*
X34124482Y-11249188D01*
X34000000Y-11236928D01*
X33535750Y-11240000D01*
X33377000Y-11398750D01*
X33123000Y-11398750D01*
X32964250Y-11240000D01*
X32500000Y-11236928D01*
X32375518Y-11249188D01*
X32255820Y-11285498D01*
X32145506Y-11344463D01*
X32048815Y-11423815D01*
X32000000Y-11483296D01*
X31951185Y-11423815D01*
X31854494Y-11344463D01*
X31744180Y-11285498D01*
X31624482Y-11249188D01*
X31510000Y-11237913D01*
X31510000Y-9650000D01*
X35261928Y-9650000D01*
X35274188Y-9774482D01*
X35310498Y-9894180D01*
X35369463Y-10004494D01*
X35448815Y-10101185D01*
X35545506Y-10180537D01*
X35655820Y-10239502D01*
X35775518Y-10275812D01*
X35900000Y-10288072D01*
X36364250Y-10285000D01*
X36523000Y-10126250D01*
X36523000Y-9127000D01*
X35423750Y-9127000D01*
X35265000Y-9285750D01*
X35261928Y-9650000D01*
X31510000Y-9650000D01*
X31510000Y-8814801D01*
X31514801Y-8810000D01*
X32446289Y-8810000D01*
X32490226Y-8853937D01*
X32659744Y-8967205D01*
X32848102Y-9045226D01*
X33048061Y-9085000D01*
X33251939Y-9085000D01*
X33451898Y-9045226D01*
X33640256Y-8967205D01*
X33809774Y-8853937D01*
X33953937Y-8709774D01*
X34067205Y-8540256D01*
X34145226Y-8351898D01*
X34185000Y-8151939D01*
X34185000Y-7948061D01*
X34145226Y-7748102D01*
X34067205Y-7559744D01*
X33953937Y-7390226D01*
X33809774Y-7246063D01*
X33640256Y-7132795D01*
X33451898Y-7054774D01*
X33251939Y-7015000D01*
X33048061Y-7015000D01*
X32848102Y-7054774D01*
X32659744Y-7132795D01*
X32490226Y-7246063D01*
X32446289Y-7290000D01*
X31237322Y-7290000D01*
X31199999Y-7286324D01*
X31162676Y-7290000D01*
X31162667Y-7290000D01*
X31051014Y-7300997D01*
X30907753Y-7344454D01*
X30775723Y-7415026D01*
X30733146Y-7449969D01*
X30659999Y-7509999D01*
X30636196Y-7539003D01*
X30238998Y-7936201D01*
X30210000Y-7959999D01*
X30186202Y-7988997D01*
X30186201Y-7988998D01*
X30115026Y-8075724D01*
X30044454Y-8207754D01*
X30024056Y-8275000D01*
X30000999Y-8351013D01*
X30000998Y-8351015D01*
X29986324Y-8500000D01*
X29990001Y-8537332D01*
X29990000Y-11237913D01*
X29875518Y-11249188D01*
X29755820Y-11285498D01*
X29645506Y-11344463D01*
X29562491Y-11412591D01*
X29551185Y-11398815D01*
X29454494Y-11319463D01*
X29344180Y-11260498D01*
X29224482Y-11224188D01*
X29100000Y-11211928D01*
X27600000Y-11211928D01*
X27475518Y-11224188D01*
X27355820Y-11260498D01*
X27245506Y-11319463D01*
X27148815Y-11398815D01*
X27069463Y-11495506D01*
X27010498Y-11605820D01*
X27000000Y-11640427D01*
X26989502Y-11605820D01*
X26930537Y-11495506D01*
X26851185Y-11398815D01*
X26754494Y-11319463D01*
X26644180Y-11260498D01*
X26605147Y-11248657D01*
X26645226Y-11151898D01*
X26685000Y-10951939D01*
X26685000Y-10748061D01*
X26645226Y-10548102D01*
X26567205Y-10359744D01*
X26453937Y-10190226D01*
X26309774Y-10046063D01*
X26140256Y-9932795D01*
X25951898Y-9854774D01*
X25751939Y-9815000D01*
X25548061Y-9815000D01*
X25348102Y-9854774D01*
X25159744Y-9932795D01*
X24990226Y-10046063D01*
X24846063Y-10190226D01*
X24732795Y-10359744D01*
X24654774Y-10548102D01*
X24615000Y-10748061D01*
X24615000Y-10951939D01*
X24654774Y-11151898D01*
X24694853Y-11248657D01*
X24655820Y-11260498D01*
X24545506Y-11319463D01*
X24448815Y-11398815D01*
X24369463Y-11495506D01*
X24310498Y-11605820D01*
X24274188Y-11725518D01*
X24261928Y-11850000D01*
X24261928Y-13150000D01*
X24274188Y-13274482D01*
X24310498Y-13394180D01*
X24369463Y-13504494D01*
X24448815Y-13601185D01*
X24545506Y-13680537D01*
X24655820Y-13739502D01*
X24775518Y-13775812D01*
X24890001Y-13787087D01*
X24890000Y-15112677D01*
X24886324Y-15150000D01*
X24890000Y-15187322D01*
X24890000Y-15187332D01*
X24900997Y-15298985D01*
X24934604Y-15409774D01*
X24944454Y-15442246D01*
X25015026Y-15574276D01*
X25037729Y-15601939D01*
X25109999Y-15690001D01*
X25139003Y-15713804D01*
X25436196Y-16010997D01*
X25459999Y-16040001D01*
X25575724Y-16134974D01*
X25707753Y-16205546D01*
X25851014Y-16249003D01*
X25962667Y-16260000D01*
X25962675Y-16260000D01*
X26000000Y-16263676D01*
X26037325Y-16260000D01*
X26511928Y-16260000D01*
X26511928Y-16350000D01*
X26524188Y-16474482D01*
X26560498Y-16594180D01*
X26619463Y-16704494D01*
X26698815Y-16801185D01*
X26746111Y-16840000D01*
X12127000Y-16840000D01*
X12127000Y-4898061D01*
X13965000Y-4898061D01*
X13965000Y-5101939D01*
X14004774Y-5301898D01*
X14082795Y-5490256D01*
X14196063Y-5659774D01*
X14340226Y-5803937D01*
X14509744Y-5917205D01*
X14698102Y-5995226D01*
X14722103Y-6000000D01*
X14698102Y-6004774D01*
X14509744Y-6082795D01*
X14340226Y-6196063D01*
X14196063Y-6340226D01*
X14082795Y-6509744D01*
X14004774Y-6698102D01*
X13965000Y-6898061D01*
X13965000Y-7101939D01*
X14004774Y-7301898D01*
X14082795Y-7490256D01*
X14196063Y-7659774D01*
X14340226Y-7803937D01*
X14509744Y-7917205D01*
X14698102Y-7995226D01*
X14722103Y-8000000D01*
X14698102Y-8004774D01*
X14509744Y-8082795D01*
X14340226Y-8196063D01*
X14196063Y-8340226D01*
X14082795Y-8509744D01*
X14004774Y-8698102D01*
X13965000Y-8898061D01*
X13965000Y-9101939D01*
X14004774Y-9301898D01*
X14082795Y-9490256D01*
X14196063Y-9659774D01*
X14340226Y-9803937D01*
X14509744Y-9917205D01*
X14698102Y-9995226D01*
X14722103Y-10000000D01*
X14698102Y-10004774D01*
X14509744Y-10082795D01*
X14340226Y-10196063D01*
X14196063Y-10340226D01*
X14082795Y-10509744D01*
X14004774Y-10698102D01*
X13965000Y-10898061D01*
X13965000Y-11101939D01*
X14004774Y-11301898D01*
X14082795Y-11490256D01*
X14196063Y-11659774D01*
X14340226Y-11803937D01*
X14509744Y-11917205D01*
X14698102Y-11995226D01*
X14722103Y-12000000D01*
X14698102Y-12004774D01*
X14509744Y-12082795D01*
X14340226Y-12196063D01*
X14196063Y-12340226D01*
X14082795Y-12509744D01*
X14004774Y-12698102D01*
X13965000Y-12898061D01*
X13965000Y-13101939D01*
X14004774Y-13301898D01*
X14082795Y-13490256D01*
X14196063Y-13659774D01*
X14340226Y-13803937D01*
X14509744Y-13917205D01*
X14698102Y-13995226D01*
X14898061Y-14035000D01*
X15101939Y-14035000D01*
X15301898Y-13995226D01*
X15490256Y-13917205D01*
X15659774Y-13803937D01*
X15703711Y-13760000D01*
X15772762Y-13760000D01*
X15774188Y-13774482D01*
X15810498Y-13894180D01*
X15869463Y-14004494D01*
X15948815Y-14101185D01*
X16045506Y-14180537D01*
X16155820Y-14239502D01*
X16275518Y-14275812D01*
X16400000Y-14288072D01*
X17900000Y-14288072D01*
X18024482Y-14275812D01*
X18144180Y-14239502D01*
X18254494Y-14180537D01*
X18351185Y-14101185D01*
X18430537Y-14004494D01*
X18489502Y-13894180D01*
X18500000Y-13859573D01*
X18510498Y-13894180D01*
X18569463Y-14004494D01*
X18648815Y-14101185D01*
X18745506Y-14180537D01*
X18855820Y-14239502D01*
X18931651Y-14262505D01*
X18854774Y-14448102D01*
X18815000Y-14648061D01*
X18815000Y-14851939D01*
X18854774Y-15051898D01*
X18932795Y-15240256D01*
X19046063Y-15409774D01*
X19190226Y-15553937D01*
X19359744Y-15667205D01*
X19548102Y-15745226D01*
X19748061Y-15785000D01*
X19951939Y-15785000D01*
X20151898Y-15745226D01*
X20340256Y-15667205D01*
X20509774Y-15553937D01*
X20653937Y-15409774D01*
X20767205Y-15240256D01*
X20845226Y-15051898D01*
X20885000Y-14851939D01*
X20885000Y-14648061D01*
X20845226Y-14448102D01*
X20768349Y-14262505D01*
X20844180Y-14239502D01*
X20954494Y-14180537D01*
X21051185Y-14101185D01*
X21130537Y-14004494D01*
X21189502Y-13894180D01*
X21225812Y-13774482D01*
X21238072Y-13650000D01*
X21238072Y-12350000D01*
X21225812Y-12225518D01*
X21189502Y-12105820D01*
X21132939Y-12000000D01*
X21189502Y-11894180D01*
X21225812Y-11774482D01*
X21238072Y-11650000D01*
X21238072Y-10350000D01*
X21225812Y-10225518D01*
X21189502Y-10105820D01*
X21132939Y-10000000D01*
X21189502Y-9894180D01*
X21225812Y-9774482D01*
X21238072Y-9650000D01*
X21238072Y-8350000D01*
X21225812Y-8225518D01*
X21189502Y-8105820D01*
X21132939Y-8000000D01*
X21189502Y-7894180D01*
X21225812Y-7774482D01*
X21238072Y-7650000D01*
X21238072Y-6350000D01*
X21225812Y-6225518D01*
X21189502Y-6105820D01*
X21132939Y-6000000D01*
X21189502Y-5894180D01*
X21225812Y-5774482D01*
X21238072Y-5650000D01*
X21238072Y-4599752D01*
X32309853Y-4599752D01*
X32399579Y-4859042D01*
X32680671Y-4994935D01*
X32982873Y-5073379D01*
X33294573Y-5091359D01*
X33603791Y-5048184D01*
X33898644Y-4945513D01*
X34060421Y-4859042D01*
X34150147Y-4599752D01*
X33230000Y-3679605D01*
X32309853Y-4599752D01*
X21238072Y-4599752D01*
X21238072Y-4350000D01*
X21225812Y-4225518D01*
X21189502Y-4105820D01*
X21130537Y-3995506D01*
X21051185Y-3898815D01*
X20954494Y-3819463D01*
X20844180Y-3760498D01*
X20724482Y-3724188D01*
X20600000Y-3711928D01*
X19100000Y-3711928D01*
X18975518Y-3724188D01*
X18855820Y-3760498D01*
X18745506Y-3819463D01*
X18648815Y-3898815D01*
X18569463Y-3995506D01*
X18510498Y-4105820D01*
X18500000Y-4140427D01*
X18489502Y-4105820D01*
X18430537Y-3995506D01*
X18351185Y-3898815D01*
X18254494Y-3819463D01*
X18144180Y-3760498D01*
X18024482Y-3724188D01*
X17900000Y-3711928D01*
X16400000Y-3711928D01*
X16275518Y-3724188D01*
X16155820Y-3760498D01*
X16045506Y-3819463D01*
X15948815Y-3898815D01*
X15869463Y-3995506D01*
X15810498Y-4105820D01*
X15774188Y-4225518D01*
X15772762Y-4240000D01*
X15703711Y-4240000D01*
X15659774Y-4196063D01*
X15490256Y-4082795D01*
X15301898Y-4004774D01*
X15101939Y-3965000D01*
X14898061Y-3965000D01*
X14698102Y-4004774D01*
X14509744Y-4082795D01*
X14340226Y-4196063D01*
X14196063Y-4340226D01*
X14082795Y-4509744D01*
X14004774Y-4698102D01*
X13965000Y-4898061D01*
X12127000Y-4898061D01*
X12127000Y-660000D01*
X87873000Y-660000D01*
X87873000Y-16840000D01*
G36*
X74615000Y-3766579D02*
G01*
X74615001Y-5307713D01*
X74605820Y-5310498D01*
X74495506Y-5369463D01*
X74398815Y-5448815D01*
X74319463Y-5545506D01*
X74260498Y-5655820D01*
X74224188Y-5775518D01*
X74211928Y-5900000D01*
X74211928Y-7400000D01*
X74224188Y-7524482D01*
X74260498Y-7644180D01*
X74319463Y-7754494D01*
X74398815Y-7851185D01*
X74495506Y-7930537D01*
X74605820Y-7989502D01*
X74640427Y-8000000D01*
X74605820Y-8010498D01*
X74495506Y-8069463D01*
X74398815Y-8148815D01*
X74319463Y-8245506D01*
X74260498Y-8355820D01*
X74224188Y-8475518D01*
X74211928Y-8600000D01*
X74211928Y-10100000D01*
X74224188Y-10224482D01*
X74260498Y-10344180D01*
X74319463Y-10454494D01*
X74398815Y-10551185D01*
X74495506Y-10630537D01*
X74605820Y-10689502D01*
X74725518Y-10725812D01*
X74740001Y-10727238D01*
X74740001Y-10740000D01*
X73660124Y-10740000D01*
X73744180Y-10714502D01*
X73854494Y-10655537D01*
X73951185Y-10576185D01*
X74030537Y-10479494D01*
X74089502Y-10369180D01*
X74125812Y-10249482D01*
X74138072Y-10125000D01*
X74135000Y-9785750D01*
X73976250Y-9627000D01*
X72877000Y-9627000D01*
X72877000Y-9647000D01*
X72623000Y-9647000D01*
X72623000Y-9627000D01*
X72603000Y-9627000D01*
X72603000Y-9373000D01*
X72623000Y-9373000D01*
X72623000Y-8398750D01*
X72877000Y-8398750D01*
X72877000Y-9373000D01*
X73976250Y-9373000D01*
X74135000Y-9214250D01*
X74138072Y-8875000D01*
X74125812Y-8750518D01*
X74089502Y-8630820D01*
X74030537Y-8520506D01*
X73951185Y-8423815D01*
X73854494Y-8344463D01*
X73744180Y-8285498D01*
X73624482Y-8249188D01*
X73500000Y-8236928D01*
X73035750Y-8240000D01*
X72877000Y-8398750D01*
X72623000Y-8398750D01*
X72464250Y-8240000D01*
X72000000Y-8236928D01*
X71875518Y-8249188D01*
X71755820Y-8285498D01*
X71645506Y-8344463D01*
X71548815Y-8423815D01*
X71500000Y-8483296D01*
X71451185Y-8423815D01*
X71354494Y-8344463D01*
X71244180Y-8285498D01*
X71124482Y-8249188D01*
X71000000Y-8236928D01*
X69500000Y-8236928D01*
X69375518Y-8249188D01*
X69335982Y-8261181D01*
X69063804Y-7989003D01*
X69040001Y-7959999D01*
X68924276Y-7865026D01*
X68792247Y-7794454D01*
X68771372Y-7788122D01*
X68631250Y-7648000D01*
X68267420Y-7648000D01*
X68155000Y-7636928D01*
X67986749Y-7636928D01*
X67987309Y-7452000D01*
X68631250Y-7452000D01*
X68790000Y-7293250D01*
X68777491Y-7184855D01*
X68738189Y-7066106D01*
X68676476Y-6957306D01*
X68594722Y-6862636D01*
X68496071Y-6785735D01*
X68384312Y-6729557D01*
X68263740Y-6696262D01*
X68138990Y-6687129D01*
X68125750Y-6690000D01*
X67967000Y-6848750D01*
X67967000Y-7046469D01*
X67939502Y-6955820D01*
X67880537Y-6845506D01*
X67801185Y-6748815D01*
X67704494Y-6669463D01*
X67594180Y-6610498D01*
X67474482Y-6574188D01*
X67350000Y-6561928D01*
X66785750Y-6565000D01*
X66627000Y-6723750D01*
X66627000Y-8373000D01*
X66647000Y-8373000D01*
X66647000Y-8627000D01*
X66627000Y-8627000D01*
X66627000Y-10276250D01*
X66785750Y-10435000D01*
X67350000Y-10438072D01*
X67474482Y-10425812D01*
X67594180Y-10389502D01*
X67704494Y-10330537D01*
X67725775Y-10313072D01*
X68155000Y-10313072D01*
X68279482Y-10300812D01*
X68399180Y-10264502D01*
X68407603Y-10260000D01*
X68877379Y-10260000D01*
X68910498Y-10369180D01*
X68938922Y-10422356D01*
X68901939Y-10415000D01*
X68698061Y-10415000D01*
X68498102Y-10454774D01*
X68309744Y-10532795D01*
X68140226Y-10646063D01*
X67996063Y-10790226D01*
X67882795Y-10959744D01*
X67804774Y-11148102D01*
X67765000Y-11348061D01*
X67765000Y-11551939D01*
X67804774Y-11751898D01*
X67882795Y-11940256D01*
X67996063Y-12109774D01*
X68040000Y-12153711D01*
X68040001Y-12962667D01*
X68040000Y-13885198D01*
X67951451Y-13973748D01*
X67656109Y-13915000D01*
X67343891Y-13915000D01*
X67037673Y-13975911D01*
X66749221Y-14095391D01*
X66489621Y-14268850D01*
X66268850Y-14489621D01*
X66230000Y-14547764D01*
X66191150Y-14489621D01*
X65970379Y-14268850D01*
X65710779Y-14095391D01*
X65422327Y-13975911D01*
X65116109Y-13915000D01*
X64803891Y-13915000D01*
X64497673Y-13975911D01*
X64209221Y-14095391D01*
X63949621Y-14268850D01*
X63728850Y-14489621D01*
X63690000Y-14547764D01*
X63651150Y-14489621D01*
X63430379Y-14268850D01*
X63210000Y-14121598D01*
X63210000Y-13763072D01*
X64500000Y-13763072D01*
X64624482Y-13750812D01*
X64744180Y-13714502D01*
X64854494Y-13655537D01*
X64951185Y-13576185D01*
X65000000Y-13516704D01*
X65048815Y-13576185D01*
X65145506Y-13655537D01*
X65255820Y-13714502D01*
X65375518Y-13750812D01*
X65500000Y-13763072D01*
X65964250Y-13760000D01*
X66123000Y-13601250D01*
X66123000Y-12627000D01*
X66377000Y-12627000D01*
X66377000Y-13601250D01*
X66535750Y-13760000D01*
X67000000Y-13763072D01*
X67124482Y-13750812D01*
X67244180Y-13714502D01*
X67354494Y-13655537D01*
X67451185Y-13576185D01*
X67530537Y-13479494D01*
X67589502Y-13369180D01*
X67625812Y-13249482D01*
X67638072Y-13125000D01*
X67635000Y-12785750D01*
X67476250Y-12627000D01*
X66377000Y-12627000D01*
X66123000Y-12627000D01*
X66103000Y-12627000D01*
X66103000Y-12373000D01*
X66123000Y-12373000D01*
X66123000Y-11398750D01*
X66377000Y-11398750D01*
X66377000Y-12373000D01*
X67476250Y-12373000D01*
X67635000Y-12214250D01*
X67638072Y-11875000D01*
X67625812Y-11750518D01*
X67589502Y-11630820D01*
X67530537Y-11520506D01*
X67451185Y-11423815D01*
X67354494Y-11344463D01*
X67244180Y-11285498D01*
X67124482Y-11249188D01*
X67000000Y-11236928D01*
X66535750Y-11240000D01*
X66377000Y-11398750D01*
X66123000Y-11398750D01*
X65964250Y-11240000D01*
X65500000Y-11236928D01*
X65375518Y-11249188D01*
X65255820Y-11285498D01*
X65145506Y-11344463D01*
X65048815Y-11423815D01*
X65000000Y-11483296D01*
X64951185Y-11423815D01*
X64854494Y-11344463D01*
X64744180Y-11285498D01*
X64624482Y-11249188D01*
X64610000Y-11247762D01*
X64610000Y-10267287D01*
X64720518Y-10300812D01*
X64845000Y-10313072D01*
X65274225Y-10313072D01*
X65295506Y-10330537D01*
X65405820Y-10389502D01*
X65525518Y-10425812D01*
X65650000Y-10438072D01*
X66214250Y-10435000D01*
X66373000Y-10276250D01*
X66373000Y-8627000D01*
X66353000Y-8627000D01*
X66353000Y-8373000D01*
X66373000Y-8373000D01*
X66373000Y-6723750D01*
X66214250Y-6565000D01*
X65650000Y-6561928D01*
X65525518Y-6574188D01*
X65405820Y-6610498D01*
X65295506Y-6669463D01*
X65274225Y-6686928D01*
X64845000Y-6686928D01*
X64720518Y-6699188D01*
X64600820Y-6735498D01*
X64490506Y-6794463D01*
X64393815Y-6873815D01*
X64314463Y-6970506D01*
X64255498Y-7080820D01*
X64219188Y-7200518D01*
X64206928Y-7325000D01*
X64206928Y-7732126D01*
X62463804Y-5989003D01*
X62440001Y-5959999D01*
X62324276Y-5865026D01*
X62192247Y-5794454D01*
X62048986Y-5750997D01*
X61937333Y-5740000D01*
X61937322Y-5740000D01*
X61900000Y-5736324D01*
X61862678Y-5740000D01*
X61727238Y-5740000D01*
X61725812Y-5725518D01*
X61689502Y-5605820D01*
X61630537Y-5495506D01*
X61551185Y-5398815D01*
X61454494Y-5319463D01*
X61344180Y-5260498D01*
X61224482Y-5224188D01*
X61110000Y-5212913D01*
X61110000Y-4587323D01*
X61113676Y-4550000D01*
X61110000Y-4512677D01*
X61110000Y-4512667D01*
X61099003Y-4401014D01*
X61055546Y-4257753D01*
X60984974Y-4125724D01*
X60890001Y-4009999D01*
X60861004Y-3986202D01*
X60113803Y-3239002D01*
X60090001Y-3209999D01*
X59974276Y-3115026D01*
X59842247Y-3044454D01*
X59698986Y-3000997D01*
X59587333Y-2990000D01*
X59587322Y-2990000D01*
X59550000Y-2986324D01*
X59512678Y-2990000D01*
X45487323Y-2990000D01*
X45450000Y-2986324D01*
X45412677Y-2990000D01*
X45412667Y-2990000D01*
X45301014Y-3000997D01*
X45157753Y-3044454D01*
X45025723Y-3115026D01*
X45012097Y-3126209D01*
X44909999Y-3209999D01*
X44886201Y-3238997D01*
X44069455Y-4055744D01*
X43959774Y-3946063D01*
X43790256Y-3832795D01*
X43601898Y-3754774D01*
X43401939Y-3715000D01*
X43198061Y-3715000D01*
X42998102Y-3754774D01*
X42809744Y-3832795D01*
X42640226Y-3946063D01*
X42596289Y-3990000D01*
X37337323Y-3990000D01*
X37300000Y-3986324D01*
X37283475Y-3987952D01*
X37294089Y-3962327D01*
X37355000Y-3656109D01*
X37355000Y-3343891D01*
X37294089Y-3037673D01*
X37189429Y-2785000D01*
X73633422Y-2785000D01*
X74615000Y-3766579D01*
G37*
X74615000Y-3766579D02*
X74615001Y-5307713D01*
X74605820Y-5310498D01*
X74495506Y-5369463D01*
X74398815Y-5448815D01*
X74319463Y-5545506D01*
X74260498Y-5655820D01*
X74224188Y-5775518D01*
X74211928Y-5900000D01*
X74211928Y-7400000D01*
X74224188Y-7524482D01*
X74260498Y-7644180D01*
X74319463Y-7754494D01*
X74398815Y-7851185D01*
X74495506Y-7930537D01*
X74605820Y-7989502D01*
X74640427Y-8000000D01*
X74605820Y-8010498D01*
X74495506Y-8069463D01*
X74398815Y-8148815D01*
X74319463Y-8245506D01*
X74260498Y-8355820D01*
X74224188Y-8475518D01*
X74211928Y-8600000D01*
X74211928Y-10100000D01*
X74224188Y-10224482D01*
X74260498Y-10344180D01*
X74319463Y-10454494D01*
X74398815Y-10551185D01*
X74495506Y-10630537D01*
X74605820Y-10689502D01*
X74725518Y-10725812D01*
X74740001Y-10727238D01*
X74740001Y-10740000D01*
X73660124Y-10740000D01*
X73744180Y-10714502D01*
X73854494Y-10655537D01*
X73951185Y-10576185D01*
X74030537Y-10479494D01*
X74089502Y-10369180D01*
X74125812Y-10249482D01*
X74138072Y-10125000D01*
X74135000Y-9785750D01*
X73976250Y-9627000D01*
X72877000Y-9627000D01*
X72877000Y-9647000D01*
X72623000Y-9647000D01*
X72623000Y-9627000D01*
X72603000Y-9627000D01*
X72603000Y-9373000D01*
X72623000Y-9373000D01*
X72623000Y-8398750D01*
X72877000Y-8398750D01*
X72877000Y-9373000D01*
X73976250Y-9373000D01*
X74135000Y-9214250D01*
X74138072Y-8875000D01*
X74125812Y-8750518D01*
X74089502Y-8630820D01*
X74030537Y-8520506D01*
X73951185Y-8423815D01*
X73854494Y-8344463D01*
X73744180Y-8285498D01*
X73624482Y-8249188D01*
X73500000Y-8236928D01*
X73035750Y-8240000D01*
X72877000Y-8398750D01*
X72623000Y-8398750D01*
X72464250Y-8240000D01*
X72000000Y-8236928D01*
X71875518Y-8249188D01*
X71755820Y-8285498D01*
X71645506Y-8344463D01*
X71548815Y-8423815D01*
X71500000Y-8483296D01*
X71451185Y-8423815D01*
X71354494Y-8344463D01*
X71244180Y-8285498D01*
X71124482Y-8249188D01*
X71000000Y-8236928D01*
X69500000Y-8236928D01*
X69375518Y-8249188D01*
X69335982Y-8261181D01*
X69063804Y-7989003D01*
X69040001Y-7959999D01*
X68924276Y-7865026D01*
X68792247Y-7794454D01*
X68771372Y-7788122D01*
X68631250Y-7648000D01*
X68267420Y-7648000D01*
X68155000Y-7636928D01*
X67986749Y-7636928D01*
X67987309Y-7452000D01*
X68631250Y-7452000D01*
X68790000Y-7293250D01*
X68777491Y-7184855D01*
X68738189Y-7066106D01*
X68676476Y-6957306D01*
X68594722Y-6862636D01*
X68496071Y-6785735D01*
X68384312Y-6729557D01*
X68263740Y-6696262D01*
X68138990Y-6687129D01*
X68125750Y-6690000D01*
X67967000Y-6848750D01*
X67967000Y-7046469D01*
X67939502Y-6955820D01*
X67880537Y-6845506D01*
X67801185Y-6748815D01*
X67704494Y-6669463D01*
X67594180Y-6610498D01*
X67474482Y-6574188D01*
X67350000Y-6561928D01*
X66785750Y-6565000D01*
X66627000Y-6723750D01*
X66627000Y-8373000D01*
X66647000Y-8373000D01*
X66647000Y-8627000D01*
X66627000Y-8627000D01*
X66627000Y-10276250D01*
X66785750Y-10435000D01*
X67350000Y-10438072D01*
X67474482Y-10425812D01*
X67594180Y-10389502D01*
X67704494Y-10330537D01*
X67725775Y-10313072D01*
X68155000Y-10313072D01*
X68279482Y-10300812D01*
X68399180Y-10264502D01*
X68407603Y-10260000D01*
X68877379Y-10260000D01*
X68910498Y-10369180D01*
X68938922Y-10422356D01*
X68901939Y-10415000D01*
X68698061Y-10415000D01*
X68498102Y-10454774D01*
X68309744Y-10532795D01*
X68140226Y-10646063D01*
X67996063Y-10790226D01*
X67882795Y-10959744D01*
X67804774Y-11148102D01*
X67765000Y-11348061D01*
X67765000Y-11551939D01*
X67804774Y-11751898D01*
X67882795Y-11940256D01*
X67996063Y-12109774D01*
X68040000Y-12153711D01*
X68040001Y-12962667D01*
X68040000Y-13885198D01*
X67951451Y-13973748D01*
X67656109Y-13915000D01*
X67343891Y-13915000D01*
X67037673Y-13975911D01*
X66749221Y-14095391D01*
X66489621Y-14268850D01*
X66268850Y-14489621D01*
X66230000Y-14547764D01*
X66191150Y-14489621D01*
X65970379Y-14268850D01*
X65710779Y-14095391D01*
X65422327Y-13975911D01*
X65116109Y-13915000D01*
X64803891Y-13915000D01*
X64497673Y-13975911D01*
X64209221Y-14095391D01*
X63949621Y-14268850D01*
X63728850Y-14489621D01*
X63690000Y-14547764D01*
X63651150Y-14489621D01*
X63430379Y-14268850D01*
X63210000Y-14121598D01*
X63210000Y-13763072D01*
X64500000Y-13763072D01*
X64624482Y-13750812D01*
X64744180Y-13714502D01*
X64854494Y-13655537D01*
X64951185Y-13576185D01*
X65000000Y-13516704D01*
X65048815Y-13576185D01*
X65145506Y-13655537D01*
X65255820Y-13714502D01*
X65375518Y-13750812D01*
X65500000Y-13763072D01*
X65964250Y-13760000D01*
X66123000Y-13601250D01*
X66123000Y-12627000D01*
X66377000Y-12627000D01*
X66377000Y-13601250D01*
X66535750Y-13760000D01*
X67000000Y-13763072D01*
X67124482Y-13750812D01*
X67244180Y-13714502D01*
X67354494Y-13655537D01*
X67451185Y-13576185D01*
X67530537Y-13479494D01*
X67589502Y-13369180D01*
X67625812Y-13249482D01*
X67638072Y-13125000D01*
X67635000Y-12785750D01*
X67476250Y-12627000D01*
X66377000Y-12627000D01*
X66123000Y-12627000D01*
X66103000Y-12627000D01*
X66103000Y-12373000D01*
X66123000Y-12373000D01*
X66123000Y-11398750D01*
X66377000Y-11398750D01*
X66377000Y-12373000D01*
X67476250Y-12373000D01*
X67635000Y-12214250D01*
X67638072Y-11875000D01*
X67625812Y-11750518D01*
X67589502Y-11630820D01*
X67530537Y-11520506D01*
X67451185Y-11423815D01*
X67354494Y-11344463D01*
X67244180Y-11285498D01*
X67124482Y-11249188D01*
X67000000Y-11236928D01*
X66535750Y-11240000D01*
X66377000Y-11398750D01*
X66123000Y-11398750D01*
X65964250Y-11240000D01*
X65500000Y-11236928D01*
X65375518Y-11249188D01*
X65255820Y-11285498D01*
X65145506Y-11344463D01*
X65048815Y-11423815D01*
X65000000Y-11483296D01*
X64951185Y-11423815D01*
X64854494Y-11344463D01*
X64744180Y-11285498D01*
X64624482Y-11249188D01*
X64610000Y-11247762D01*
X64610000Y-10267287D01*
X64720518Y-10300812D01*
X64845000Y-10313072D01*
X65274225Y-10313072D01*
X65295506Y-10330537D01*
X65405820Y-10389502D01*
X65525518Y-10425812D01*
X65650000Y-10438072D01*
X66214250Y-10435000D01*
X66373000Y-10276250D01*
X66373000Y-8627000D01*
X66353000Y-8627000D01*
X66353000Y-8373000D01*
X66373000Y-8373000D01*
X66373000Y-6723750D01*
X66214250Y-6565000D01*
X65650000Y-6561928D01*
X65525518Y-6574188D01*
X65405820Y-6610498D01*
X65295506Y-6669463D01*
X65274225Y-6686928D01*
X64845000Y-6686928D01*
X64720518Y-6699188D01*
X64600820Y-6735498D01*
X64490506Y-6794463D01*
X64393815Y-6873815D01*
X64314463Y-6970506D01*
X64255498Y-7080820D01*
X64219188Y-7200518D01*
X64206928Y-7325000D01*
X64206928Y-7732126D01*
X62463804Y-5989003D01*
X62440001Y-5959999D01*
X62324276Y-5865026D01*
X62192247Y-5794454D01*
X62048986Y-5750997D01*
X61937333Y-5740000D01*
X61937322Y-5740000D01*
X61900000Y-5736324D01*
X61862678Y-5740000D01*
X61727238Y-5740000D01*
X61725812Y-5725518D01*
X61689502Y-5605820D01*
X61630537Y-5495506D01*
X61551185Y-5398815D01*
X61454494Y-5319463D01*
X61344180Y-5260498D01*
X61224482Y-5224188D01*
X61110000Y-5212913D01*
X61110000Y-4587323D01*
X61113676Y-4550000D01*
X61110000Y-4512677D01*
X61110000Y-4512667D01*
X61099003Y-4401014D01*
X61055546Y-4257753D01*
X60984974Y-4125724D01*
X60890001Y-4009999D01*
X60861004Y-3986202D01*
X60113803Y-3239002D01*
X60090001Y-3209999D01*
X59974276Y-3115026D01*
X59842247Y-3044454D01*
X59698986Y-3000997D01*
X59587333Y-2990000D01*
X59587322Y-2990000D01*
X59550000Y-2986324D01*
X59512678Y-2990000D01*
X45487323Y-2990000D01*
X45450000Y-2986324D01*
X45412677Y-2990000D01*
X45412667Y-2990000D01*
X45301014Y-3000997D01*
X45157753Y-3044454D01*
X45025723Y-3115026D01*
X45012097Y-3126209D01*
X44909999Y-3209999D01*
X44886201Y-3238997D01*
X44069455Y-4055744D01*
X43959774Y-3946063D01*
X43790256Y-3832795D01*
X43601898Y-3754774D01*
X43401939Y-3715000D01*
X43198061Y-3715000D01*
X42998102Y-3754774D01*
X42809744Y-3832795D01*
X42640226Y-3946063D01*
X42596289Y-3990000D01*
X37337323Y-3990000D01*
X37300000Y-3986324D01*
X37283475Y-3987952D01*
X37294089Y-3962327D01*
X37355000Y-3656109D01*
X37355000Y-3343891D01*
X37294089Y-3037673D01*
X37189429Y-2785000D01*
X73633422Y-2785000D01*
X74615000Y-3766579D01*
M02*
