G04 #@! TF.GenerationSoftware,KiCad,Pcbnew,(5.1.6)-1*
G04 #@! TF.CreationDate,2020-10-13T20:36:20+02:00*
G04 #@! TF.ProjectId,LampeSolaire2,4c616d70-6553-46f6-9c61-697265322e6b,R00*
G04 #@! TF.SameCoordinates,PX5f5e100PY5cfbb60*
G04 #@! TF.FileFunction,Copper,L2,Bot*
G04 #@! TF.FilePolarity,Positive*
%FSLAX46Y46*%
G04 Gerber Fmt 4.6, Leading zero omitted, Abs format (unit mm)*
G04 Created by KiCad (PCBNEW (5.1.6)-1) date 2020-10-13 20:36:20*
%MOMM*%
%LPD*%
G01*
G04 APERTURE LIST*
G04 #@! TA.AperFunction,ComponentPad*
%ADD10C,1.900000*%
G04 #@! TD*
G04 #@! TA.AperFunction,SMDPad,CuDef*
%ADD11R,1.250000X1.500000*%
G04 #@! TD*
G04 #@! TA.AperFunction,ComponentPad*
%ADD12R,1.700000X1.700000*%
G04 #@! TD*
G04 #@! TA.AperFunction,ComponentPad*
%ADD13O,1.700000X1.700000*%
G04 #@! TD*
G04 #@! TA.AperFunction,SMDPad,CuDef*
%ADD14R,1.400000X1.000000*%
G04 #@! TD*
G04 #@! TA.AperFunction,SMDPad,CuDef*
%ADD15R,1.750000X0.450000*%
G04 #@! TD*
G04 #@! TA.AperFunction,SMDPad,CuDef*
%ADD16R,3.400000X1.500000*%
G04 #@! TD*
G04 #@! TA.AperFunction,ViaPad*
%ADD17C,1.000000*%
G04 #@! TD*
G04 #@! TA.AperFunction,ViaPad*
%ADD18C,0.800000*%
G04 #@! TD*
G04 #@! TA.AperFunction,Conductor*
%ADD19C,0.500000*%
G04 #@! TD*
G04 #@! TA.AperFunction,Conductor*
%ADD20C,0.450000*%
G04 #@! TD*
G04 #@! TA.AperFunction,Conductor*
%ADD21C,0.250000*%
G04 #@! TD*
G04 APERTURE END LIST*
D10*
X35770000Y-3500000D03*
X33230000Y-3500000D03*
X62420000Y-15500000D03*
X64960000Y-15500000D03*
X67500000Y-15500000D03*
X75120000Y-15500000D03*
X72580000Y-15500000D03*
X70040000Y-15500000D03*
X59880000Y-15500000D03*
D11*
X40000000Y-7250000D03*
X40000000Y-4750000D03*
D12*
X28000000Y-15500000D03*
D13*
X30540000Y-15500000D03*
X33080000Y-15500000D03*
X35620000Y-15500000D03*
X38160000Y-15500000D03*
D14*
X17375000Y-5000000D03*
X19625000Y-5000000D03*
X17375000Y-11000000D03*
X19625000Y-11000000D03*
X17375000Y-13000000D03*
X19625000Y-13000000D03*
X17375000Y-9000000D03*
X19625000Y-9000000D03*
X17375000Y-7000000D03*
X19625000Y-7000000D03*
D15*
X45900000Y-13425000D03*
X45900000Y-12775000D03*
X45900000Y-12125000D03*
X45900000Y-11475000D03*
X45900000Y-10825000D03*
X45900000Y-10175000D03*
X45900000Y-9525000D03*
X45900000Y-8875000D03*
X45900000Y-8225000D03*
X45900000Y-7575000D03*
X53100000Y-7575000D03*
X53100000Y-8225000D03*
X53100000Y-8875000D03*
X53100000Y-9525000D03*
X53100000Y-10175000D03*
X53100000Y-10825000D03*
X53100000Y-11475000D03*
X53100000Y-12125000D03*
X53100000Y-12775000D03*
X53100000Y-13425000D03*
D16*
X29950000Y-7405000D03*
X29950000Y-4865000D03*
X25050000Y-6135000D03*
X25050000Y-3595000D03*
D17*
X57650000Y-4650000D03*
X66500000Y-4650000D03*
X33250000Y-5000000D03*
X43200000Y-10500000D03*
D18*
X19850000Y-14750000D03*
X41950000Y-7700000D03*
X62450000Y-10350000D03*
X47550000Y-6150000D03*
X57300000Y-10000000D03*
X33150000Y-8050000D03*
X49950000Y-4750000D03*
X43300000Y-4750000D03*
X62450000Y-8500000D03*
X55500000Y-8850000D03*
X55550000Y-15500000D03*
X56300000Y-14700000D03*
X56300000Y-9650000D03*
X25650000Y-10850000D03*
X15000000Y-5000000D03*
X15000000Y-11000000D03*
X41950000Y-9850000D03*
X41950000Y-12800000D03*
X15000000Y-13000000D03*
X15000000Y-9000000D03*
X15000000Y-7000000D03*
X44200000Y-5850000D03*
X42000000Y-6500000D03*
X70050000Y-12300000D03*
X72550000Y-13200000D03*
X68800000Y-11450000D03*
D17*
X77500000Y-4450000D03*
X29950000Y-2950000D03*
D19*
X57650000Y-4650000D02*
X66500000Y-4650000D01*
X29950000Y-7405000D02*
X28055000Y-7405000D01*
X29950000Y-7405000D02*
X25355000Y-7405000D01*
X25050000Y-7100000D02*
X25050000Y-6135000D01*
X25355000Y-7405000D02*
X25050000Y-7100000D01*
X19625000Y-5000000D02*
X21150000Y-5000000D01*
X22285000Y-6135000D02*
X25050000Y-6135000D01*
X21150000Y-5000000D02*
X22285000Y-6135000D01*
X29950000Y-7405000D02*
X31095000Y-7405000D01*
X31095000Y-7405000D02*
X31550000Y-6950000D01*
X33250000Y-5950000D02*
X33250000Y-5000000D01*
X32250000Y-6950000D02*
X33250000Y-5950000D01*
X31550000Y-6950000D02*
X32250000Y-6950000D01*
X39750000Y-5000000D02*
X40000000Y-4750000D01*
X33250000Y-5000000D02*
X39750000Y-5000000D01*
X33230000Y-4980000D02*
X33250000Y-5000000D01*
X33230000Y-3500000D02*
X33230000Y-4980000D01*
D20*
X43525000Y-10175000D02*
X43200000Y-10500000D01*
X45900000Y-10175000D02*
X43525000Y-10175000D01*
X43525000Y-10825000D02*
X43200000Y-10500000D01*
X45900000Y-10825000D02*
X43525000Y-10825000D01*
D21*
X53100000Y-10175000D02*
X53100000Y-10825000D01*
X19850000Y-14750000D02*
X22750000Y-14750000D01*
X22750000Y-14750000D02*
X23850000Y-13650000D01*
X23850000Y-13650000D02*
X30100000Y-13650000D01*
X30540000Y-14090000D02*
X30540000Y-15500000D01*
X30100000Y-13650000D02*
X30540000Y-14090000D01*
X60525000Y-10825000D02*
X61000000Y-10350000D01*
X61000000Y-10350000D02*
X62450000Y-10350000D01*
X38550000Y-7250000D02*
X40000000Y-7250000D01*
X38100000Y-7700000D02*
X38550000Y-7250000D01*
X41500000Y-7250000D02*
X41950000Y-7700000D01*
X40000000Y-7250000D02*
X41500000Y-7250000D01*
X57300000Y-10800000D02*
X57325000Y-10825000D01*
X57300000Y-10000000D02*
X57300000Y-10800000D01*
X53100000Y-10825000D02*
X57325000Y-10825000D01*
X57325000Y-10825000D02*
X60525000Y-10825000D01*
X49925000Y-10175000D02*
X53100000Y-10175000D01*
X49300000Y-9550000D02*
X49925000Y-10175000D01*
X47550000Y-6150000D02*
X48550000Y-6150000D01*
X49300000Y-6900000D02*
X49300000Y-9550000D01*
X48550000Y-6150000D02*
X49300000Y-6900000D01*
X37750000Y-8050000D02*
X38100000Y-7700000D01*
X33150000Y-8050000D02*
X37750000Y-8050000D01*
X61400000Y-8500000D02*
X58250000Y-8500000D01*
X54500000Y-4750000D02*
X53700000Y-4750000D01*
X58250000Y-8500000D02*
X54500000Y-4750000D01*
X49950000Y-4750000D02*
X53700000Y-4750000D01*
X43300000Y-4750000D02*
X49950000Y-4750000D01*
X61400000Y-8500000D02*
X62450000Y-8500000D01*
X53100000Y-8875000D02*
X55475000Y-8875000D01*
X55475000Y-8875000D02*
X55500000Y-8850000D01*
X55550000Y-15500000D02*
X38160000Y-15500000D01*
X35620000Y-15500000D02*
X37020000Y-14100000D01*
X37020000Y-14100000D02*
X39300000Y-14100000D01*
X39300000Y-14100000D02*
X40249990Y-15049990D01*
X40249990Y-15049990D02*
X53650010Y-15049990D01*
X53650010Y-15049990D02*
X54000000Y-14700000D01*
X54000000Y-14700000D02*
X56300000Y-14700000D01*
X53100000Y-9525000D02*
X54725000Y-9525000D01*
X54725000Y-9525000D02*
X54850000Y-9650000D01*
X54850000Y-9650000D02*
X56300000Y-9650000D01*
X45900000Y-11475000D02*
X27075000Y-11475000D01*
X27075000Y-11475000D02*
X26450000Y-10850000D01*
X26450000Y-10850000D02*
X25650000Y-10850000D01*
X15000000Y-5000000D02*
X17375000Y-5000000D01*
X17375000Y-11000000D02*
X15000000Y-11000000D01*
X45875000Y-12800000D02*
X45900000Y-12775000D01*
X41950000Y-12800000D02*
X45875000Y-12800000D01*
X19625000Y-11000000D02*
X22950000Y-11000000D01*
X24100000Y-9850000D02*
X41950000Y-9850000D01*
X22950000Y-11000000D02*
X24100000Y-9850000D01*
X45900000Y-13425000D02*
X45900000Y-14000000D01*
X45900000Y-14000000D02*
X45400000Y-14500000D01*
X45400000Y-14500000D02*
X40650000Y-14500000D01*
X40650000Y-14500000D02*
X38550000Y-12400000D01*
X19625000Y-13000000D02*
X20900000Y-13000000D01*
X22500000Y-13000000D02*
X19625000Y-13000000D01*
X38550000Y-12400000D02*
X23100000Y-12400000D01*
X23100000Y-12400000D02*
X22500000Y-13000000D01*
X15000000Y-13000000D02*
X17375000Y-13000000D01*
X17375000Y-9000000D02*
X15000000Y-9000000D01*
X21999990Y-9399990D02*
X21600000Y-9000000D01*
X45900000Y-9525000D02*
X43648002Y-9525000D01*
X21600000Y-9000000D02*
X19625000Y-9000000D01*
X43648002Y-9525000D02*
X43123002Y-9000000D01*
X43123002Y-9000000D02*
X40900000Y-9000000D01*
X40900000Y-9000000D02*
X40500010Y-9399990D01*
X40500010Y-9399990D02*
X21999990Y-9399990D01*
X43961410Y-8875000D02*
X45900000Y-8875000D01*
X43636401Y-8549991D02*
X43961410Y-8875000D01*
X19625000Y-7000000D02*
X20800020Y-7000000D01*
X20800020Y-7000000D02*
X22750000Y-8949980D01*
X22750000Y-8949980D02*
X39800002Y-8949980D01*
X39800002Y-8949980D02*
X40199991Y-8549991D01*
X40199991Y-8549991D02*
X43636401Y-8549991D01*
X17375000Y-7000000D02*
X15000000Y-7000000D01*
X45900000Y-7575000D02*
X44875000Y-7575000D01*
X44875000Y-7575000D02*
X44200000Y-6900000D01*
X44200000Y-6900000D02*
X44200000Y-5850000D01*
X43000000Y-6500000D02*
X42000000Y-6500000D01*
X45900000Y-8225000D02*
X44725000Y-8225000D01*
X44725000Y-8225000D02*
X43000000Y-6500000D01*
X65475000Y-12125000D02*
X65650000Y-12300000D01*
X65650000Y-12300000D02*
X70050000Y-12300000D01*
X53100000Y-12125000D02*
X65475000Y-12125000D01*
X64875000Y-12775000D02*
X65300000Y-13200000D01*
X65300000Y-13200000D02*
X72550000Y-13200000D01*
X54325000Y-12775000D02*
X53100000Y-12775000D01*
X64875000Y-12775000D02*
X54325000Y-12775000D01*
X53100000Y-8225000D02*
X54625000Y-8225000D01*
X54625000Y-8225000D02*
X54800000Y-8050000D01*
X54800000Y-8050000D02*
X56750000Y-8050000D01*
X56750000Y-8050000D02*
X58200000Y-9500000D01*
X62300000Y-9500000D02*
X62800000Y-9500000D01*
X58200000Y-9500000D02*
X62300000Y-9500000D01*
X62800000Y-9500000D02*
X63950000Y-10650000D01*
X63950000Y-10650000D02*
X72250000Y-10650000D01*
X75120000Y-13520000D02*
X75120000Y-15500000D01*
X72250000Y-10650000D02*
X75120000Y-13520000D01*
X52925000Y-11475000D02*
X53100000Y-11475000D01*
X68775000Y-11475000D02*
X68800000Y-11450000D01*
X66025000Y-11475000D02*
X68775000Y-11475000D01*
X66025000Y-11475000D02*
X52925000Y-11475000D01*
X64960000Y-13960000D02*
X64960000Y-15500000D01*
X64425000Y-13425000D02*
X64960000Y-13960000D01*
X53100000Y-13425000D02*
X64425000Y-13425000D01*
D19*
X75850000Y-2000000D02*
X77500000Y-3650000D01*
X77500000Y-3650000D02*
X77500000Y-4450000D01*
X25050000Y-2550000D02*
X25600000Y-2000000D01*
X25050000Y-3595000D02*
X25050000Y-2550000D01*
X25600000Y-2000000D02*
X35700000Y-2000000D01*
X35770000Y-2070000D02*
X35700000Y-2000000D01*
X35770000Y-3500000D02*
X35770000Y-2070000D01*
X35700000Y-2000000D02*
X75850000Y-2000000D01*
X29950000Y-4865000D02*
X29950000Y-2950000D01*
M02*
