M48
; DRILL file {KiCad (5.1.6)-1} date 10/13/20 20:36:25
; FORMAT={-:-/ absolute / inch / decimal}
; #@! TF.CreationDate,2020-10-13T20:36:25+02:00
; #@! TF.GenerationSoftware,Kicad,Pcbnew,(5.1.6)-1
; #@! TF.FileFunction,Plated,1,2,PTH
FMAT,2
INCH
T1C0.0157
T2C0.0236
T3C0.0394
T4C0.0433
%
G90
G05
T1
X0.5906Y-0.1969
X0.5906Y-0.2756
X0.5906Y-0.3543
X0.5906Y-0.4331
X0.5906Y-0.5118
X0.7815Y-0.5807
X1.0098Y-0.4272
X1.3051Y-0.3169
X1.6516Y-0.3031
X1.6516Y-0.3878
X1.6516Y-0.5039
X1.6535Y-0.2559
X1.7047Y-0.187
X1.7402Y-0.2303
X1.872Y-0.2421
X1.9665Y-0.187
X2.185Y-0.3484
X2.187Y-0.6102
X2.2165Y-0.3799
X2.2165Y-0.5787
X2.2559Y-0.3937
X2.4587Y-0.3346
X2.4587Y-0.4075
X2.7087Y-0.4508
X2.7579Y-0.4843
X2.8563Y-0.5197
T2
X1.1791Y-0.1161
X1.3091Y-0.1969
X1.7008Y-0.4134
X2.2697Y-0.1831
X2.6181Y-0.1831
X3.0512Y-0.1752
T3
X1.1024Y-0.6102
X1.2024Y-0.6102
X1.3024Y-0.6102
X1.4024Y-0.6102
X1.5024Y-0.6102
T4
X2.3575Y-0.6102
X2.4575Y-0.6102
X2.5575Y-0.6102
X2.6575Y-0.6102
X2.7575Y-0.6102
X2.8575Y-0.6102
X2.9575Y-0.6102
X1.3083Y-0.1378
X1.4083Y-0.1378
T0
M30
