G04 #@! TF.GenerationSoftware,KiCad,Pcbnew,(5.1.6)-1*
G04 #@! TF.CreationDate,2020-10-13T20:36:20+02:00*
G04 #@! TF.ProjectId,LampeSolaire2,4c616d70-6553-46f6-9c61-697265322e6b,R00*
G04 #@! TF.SameCoordinates,PX5f5e100PY5cfbb60*
G04 #@! TF.FileFunction,Soldermask,Top*
G04 #@! TF.FilePolarity,Negative*
%FSLAX46Y46*%
G04 Gerber Fmt 4.6, Leading zero omitted, Abs format (unit mm)*
G04 Created by KiCad (PCBNEW (5.1.6)-1) date 2020-10-13 20:36:20*
%MOMM*%
%LPD*%
G01*
G04 APERTURE LIST*
%ADD10C,2.000000*%
%ADD11C,5.600000*%
%ADD12R,1.600000X1.350000*%
%ADD13R,1.350000X1.600000*%
%ADD14R,3.500000X1.600000*%
%ADD15R,1.800000X1.800000*%
%ADD16O,1.800000X1.800000*%
%ADD17R,1.600000X1.400000*%
%ADD18R,1.400000X1.600000*%
%ADD19R,1.800000X2.700000*%
%ADD20R,0.730000X0.550000*%
G04 APERTURE END LIST*
D10*
X35770000Y-3500000D03*
X33230000Y-3500000D03*
D11*
X94000000Y-10000000D03*
X6000000Y-10000000D03*
D10*
X62420000Y-15500000D03*
X64960000Y-15500000D03*
X67500000Y-15500000D03*
X75120000Y-15500000D03*
X72580000Y-15500000D03*
X70040000Y-15500000D03*
X59880000Y-15500000D03*
D12*
X30750000Y-12500000D03*
X33250000Y-12500000D03*
D13*
X59500000Y-10250000D03*
X59500000Y-12750000D03*
D12*
X63750000Y-12500000D03*
X66250000Y-12500000D03*
X70250000Y-9500000D03*
X72750000Y-9500000D03*
D14*
X47550000Y-13175000D03*
X52450000Y-11905000D03*
X47550000Y-10635000D03*
X47550000Y-8095000D03*
X52450000Y-9365000D03*
X52450000Y-6825000D03*
D15*
X28000000Y-15500000D03*
D16*
X30540000Y-15500000D03*
X33080000Y-15500000D03*
X35620000Y-15500000D03*
X38160000Y-15500000D03*
D17*
X25650000Y-12500000D03*
X28350000Y-12500000D03*
X17150000Y-5000000D03*
X19850000Y-5000000D03*
X17150000Y-11000000D03*
X19850000Y-11000000D03*
X17150000Y-13000000D03*
X19850000Y-13000000D03*
X17150000Y-9000000D03*
X19850000Y-9000000D03*
X17150000Y-7000000D03*
X19850000Y-7000000D03*
X57650000Y-6500000D03*
X60350000Y-6500000D03*
X39350000Y-6500000D03*
X36650000Y-6500000D03*
X36650000Y-9000000D03*
X39350000Y-9000000D03*
D18*
X77500000Y-6650000D03*
X77500000Y-9350000D03*
X75500000Y-6650000D03*
X75500000Y-9350000D03*
D19*
X66500000Y-8500000D03*
D20*
X67840000Y-9450000D03*
X67840000Y-8500000D03*
X67840000Y-7550000D03*
X65160000Y-7550000D03*
X65160000Y-8500000D03*
X65160000Y-9450000D03*
M02*
