G04 #@! TF.GenerationSoftware,KiCad,Pcbnew,(5.1.6)-1*
G04 #@! TF.CreationDate,2020-10-13T20:36:20+02:00*
G04 #@! TF.ProjectId,LampeSolaire2,4c616d70-6553-46f6-9c61-697265322e6b,R00*
G04 #@! TF.SameCoordinates,PX5f5e100PY5cfbb60*
G04 #@! TF.FileFunction,Legend,Top*
G04 #@! TF.FilePolarity,Positive*
%FSLAX46Y46*%
G04 Gerber Fmt 4.6, Leading zero omitted, Abs format (unit mm)*
G04 Created by KiCad (PCBNEW (5.1.6)-1) date 2020-10-13 20:36:20*
%MOMM*%
%LPD*%
G01*
G04 APERTURE LIST*
%ADD10C,0.120000*%
%ADD11C,0.150000*%
G04 APERTURE END LIST*
D10*
X31500000Y-13350000D02*
X32500000Y-13350000D01*
X32500000Y-11650000D02*
X31500000Y-11650000D01*
X58650000Y-11000000D02*
X58650000Y-12000000D01*
X60350000Y-12000000D02*
X60350000Y-11000000D01*
X64500000Y-13350000D02*
X65500000Y-13350000D01*
X65500000Y-11650000D02*
X64500000Y-11650000D01*
X71000000Y-10350000D02*
X72000000Y-10350000D01*
X72000000Y-8650000D02*
X71000000Y-8650000D01*
X51575000Y-4575000D02*
X47425000Y-4575000D01*
X47425000Y-4575000D02*
X47425000Y-5575000D01*
X51575000Y-4575000D02*
X52575000Y-5575000D01*
X52575000Y-15465000D02*
X47425000Y-15465000D01*
X26400000Y-11620000D02*
X27600000Y-11620000D01*
X27600000Y-13380000D02*
X26400000Y-13380000D01*
X17900000Y-4120000D02*
X19100000Y-4120000D01*
X19100000Y-5880000D02*
X17900000Y-5880000D01*
X17900000Y-10120000D02*
X19100000Y-10120000D01*
X19100000Y-11880000D02*
X17900000Y-11880000D01*
X17900000Y-12120000D02*
X19100000Y-12120000D01*
X19100000Y-13880000D02*
X17900000Y-13880000D01*
X17900000Y-8120000D02*
X19100000Y-8120000D01*
X19100000Y-9880000D02*
X17900000Y-9880000D01*
X17900000Y-6120000D02*
X19100000Y-6120000D01*
X19100000Y-7880000D02*
X17900000Y-7880000D01*
X58400000Y-5620000D02*
X59600000Y-5620000D01*
X59600000Y-7380000D02*
X58400000Y-7380000D01*
X38600000Y-7380000D02*
X37400000Y-7380000D01*
X37400000Y-5620000D02*
X38600000Y-5620000D01*
X37400000Y-8120000D02*
X38600000Y-8120000D01*
X38600000Y-9880000D02*
X37400000Y-9880000D01*
X78380000Y-7400000D02*
X78380000Y-8600000D01*
X76620000Y-8600000D02*
X76620000Y-7400000D01*
X76380000Y-7400000D02*
X76380000Y-8600000D01*
X74620000Y-8600000D02*
X74620000Y-7400000D01*
D11*
X67000000Y-6850000D02*
X66000000Y-6850000D01*
X68230000Y-10150000D02*
X65475000Y-10150000D01*
X31833333Y-10857142D02*
X31785714Y-10904761D01*
X31642857Y-10952380D01*
X31547619Y-10952380D01*
X31404761Y-10904761D01*
X31309523Y-10809523D01*
X31261904Y-10714285D01*
X31214285Y-10523809D01*
X31214285Y-10380952D01*
X31261904Y-10190476D01*
X31309523Y-10095238D01*
X31404761Y-10000000D01*
X31547619Y-9952380D01*
X31642857Y-9952380D01*
X31785714Y-10000000D01*
X31833333Y-10047619D01*
X32785714Y-10952380D02*
X32214285Y-10952380D01*
X32500000Y-10952380D02*
X32500000Y-9952380D01*
X32404761Y-10095238D01*
X32309523Y-10190476D01*
X32214285Y-10238095D01*
X57333333Y-11857142D02*
X57285714Y-11904761D01*
X57142857Y-11952380D01*
X57047619Y-11952380D01*
X56904761Y-11904761D01*
X56809523Y-11809523D01*
X56761904Y-11714285D01*
X56714285Y-11523809D01*
X56714285Y-11380952D01*
X56761904Y-11190476D01*
X56809523Y-11095238D01*
X56904761Y-11000000D01*
X57047619Y-10952380D01*
X57142857Y-10952380D01*
X57285714Y-11000000D01*
X57333333Y-11047619D01*
X57666666Y-10952380D02*
X58285714Y-10952380D01*
X57952380Y-11333333D01*
X58095238Y-11333333D01*
X58190476Y-11380952D01*
X58238095Y-11428571D01*
X58285714Y-11523809D01*
X58285714Y-11761904D01*
X58238095Y-11857142D01*
X58190476Y-11904761D01*
X58095238Y-11952380D01*
X57809523Y-11952380D01*
X57714285Y-11904761D01*
X57666666Y-11857142D01*
X64833333Y-11357142D02*
X64785714Y-11404761D01*
X64642857Y-11452380D01*
X64547619Y-11452380D01*
X64404761Y-11404761D01*
X64309523Y-11309523D01*
X64261904Y-11214285D01*
X64214285Y-11023809D01*
X64214285Y-10880952D01*
X64261904Y-10690476D01*
X64309523Y-10595238D01*
X64404761Y-10500000D01*
X64547619Y-10452380D01*
X64642857Y-10452380D01*
X64785714Y-10500000D01*
X64833333Y-10547619D01*
X65690476Y-10785714D02*
X65690476Y-11452380D01*
X65452380Y-10404761D02*
X65214285Y-11119047D01*
X65833333Y-11119047D01*
X71333333Y-8107142D02*
X71285714Y-8154761D01*
X71142857Y-8202380D01*
X71047619Y-8202380D01*
X70904761Y-8154761D01*
X70809523Y-8059523D01*
X70761904Y-7964285D01*
X70714285Y-7773809D01*
X70714285Y-7630952D01*
X70761904Y-7440476D01*
X70809523Y-7345238D01*
X70904761Y-7250000D01*
X71047619Y-7202380D01*
X71142857Y-7202380D01*
X71285714Y-7250000D01*
X71333333Y-7297619D01*
X72238095Y-7202380D02*
X71761904Y-7202380D01*
X71714285Y-7678571D01*
X71761904Y-7630952D01*
X71857142Y-7583333D01*
X72095238Y-7583333D01*
X72190476Y-7630952D01*
X72238095Y-7678571D01*
X72285714Y-7773809D01*
X72285714Y-8011904D01*
X72238095Y-8107142D01*
X72190476Y-8154761D01*
X72095238Y-8202380D01*
X71857142Y-8202380D01*
X71761904Y-8154761D01*
X71714285Y-8107142D01*
X49516666Y-3177380D02*
X49516666Y-3891666D01*
X49469047Y-4034523D01*
X49373809Y-4129761D01*
X49230952Y-4177380D01*
X49135714Y-4177380D01*
X50516666Y-4177380D02*
X49945238Y-4177380D01*
X50230952Y-4177380D02*
X50230952Y-3177380D01*
X50135714Y-3320238D01*
X50040476Y-3415476D01*
X49945238Y-3463095D01*
X26833333Y-10952380D02*
X26500000Y-10476190D01*
X26261904Y-10952380D02*
X26261904Y-9952380D01*
X26642857Y-9952380D01*
X26738095Y-10000000D01*
X26785714Y-10047619D01*
X26833333Y-10142857D01*
X26833333Y-10285714D01*
X26785714Y-10380952D01*
X26738095Y-10428571D01*
X26642857Y-10476190D01*
X26261904Y-10476190D01*
X27785714Y-10952380D02*
X27214285Y-10952380D01*
X27500000Y-10952380D02*
X27500000Y-9952380D01*
X27404761Y-10095238D01*
X27309523Y-10190476D01*
X27214285Y-10238095D01*
X21833333Y-5452380D02*
X21500000Y-4976190D01*
X21261904Y-5452380D02*
X21261904Y-4452380D01*
X21642857Y-4452380D01*
X21738095Y-4500000D01*
X21785714Y-4547619D01*
X21833333Y-4642857D01*
X21833333Y-4785714D01*
X21785714Y-4880952D01*
X21738095Y-4928571D01*
X21642857Y-4976190D01*
X21261904Y-4976190D01*
X22214285Y-4547619D02*
X22261904Y-4500000D01*
X22357142Y-4452380D01*
X22595238Y-4452380D01*
X22690476Y-4500000D01*
X22738095Y-4547619D01*
X22785714Y-4642857D01*
X22785714Y-4738095D01*
X22738095Y-4880952D01*
X22166666Y-5452380D01*
X22785714Y-5452380D01*
X21833333Y-11452380D02*
X21500000Y-10976190D01*
X21261904Y-11452380D02*
X21261904Y-10452380D01*
X21642857Y-10452380D01*
X21738095Y-10500000D01*
X21785714Y-10547619D01*
X21833333Y-10642857D01*
X21833333Y-10785714D01*
X21785714Y-10880952D01*
X21738095Y-10928571D01*
X21642857Y-10976190D01*
X21261904Y-10976190D01*
X22166666Y-10452380D02*
X22785714Y-10452380D01*
X22452380Y-10833333D01*
X22595238Y-10833333D01*
X22690476Y-10880952D01*
X22738095Y-10928571D01*
X22785714Y-11023809D01*
X22785714Y-11261904D01*
X22738095Y-11357142D01*
X22690476Y-11404761D01*
X22595238Y-11452380D01*
X22309523Y-11452380D01*
X22214285Y-11404761D01*
X22166666Y-11357142D01*
X21833333Y-13452380D02*
X21500000Y-12976190D01*
X21261904Y-13452380D02*
X21261904Y-12452380D01*
X21642857Y-12452380D01*
X21738095Y-12500000D01*
X21785714Y-12547619D01*
X21833333Y-12642857D01*
X21833333Y-12785714D01*
X21785714Y-12880952D01*
X21738095Y-12928571D01*
X21642857Y-12976190D01*
X21261904Y-12976190D01*
X22690476Y-12785714D02*
X22690476Y-13452380D01*
X22452380Y-12404761D02*
X22214285Y-13119047D01*
X22833333Y-13119047D01*
X21833333Y-9452380D02*
X21500000Y-8976190D01*
X21261904Y-9452380D02*
X21261904Y-8452380D01*
X21642857Y-8452380D01*
X21738095Y-8500000D01*
X21785714Y-8547619D01*
X21833333Y-8642857D01*
X21833333Y-8785714D01*
X21785714Y-8880952D01*
X21738095Y-8928571D01*
X21642857Y-8976190D01*
X21261904Y-8976190D01*
X22738095Y-8452380D02*
X22261904Y-8452380D01*
X22214285Y-8928571D01*
X22261904Y-8880952D01*
X22357142Y-8833333D01*
X22595238Y-8833333D01*
X22690476Y-8880952D01*
X22738095Y-8928571D01*
X22785714Y-9023809D01*
X22785714Y-9261904D01*
X22738095Y-9357142D01*
X22690476Y-9404761D01*
X22595238Y-9452380D01*
X22357142Y-9452380D01*
X22261904Y-9404761D01*
X22214285Y-9357142D01*
X21833333Y-7452380D02*
X21500000Y-6976190D01*
X21261904Y-7452380D02*
X21261904Y-6452380D01*
X21642857Y-6452380D01*
X21738095Y-6500000D01*
X21785714Y-6547619D01*
X21833333Y-6642857D01*
X21833333Y-6785714D01*
X21785714Y-6880952D01*
X21738095Y-6928571D01*
X21642857Y-6976190D01*
X21261904Y-6976190D01*
X22690476Y-6452380D02*
X22500000Y-6452380D01*
X22404761Y-6500000D01*
X22357142Y-6547619D01*
X22261904Y-6690476D01*
X22214285Y-6880952D01*
X22214285Y-7261904D01*
X22261904Y-7357142D01*
X22309523Y-7404761D01*
X22404761Y-7452380D01*
X22595238Y-7452380D01*
X22690476Y-7404761D01*
X22738095Y-7357142D01*
X22785714Y-7261904D01*
X22785714Y-7023809D01*
X22738095Y-6928571D01*
X22690476Y-6880952D01*
X22595238Y-6833333D01*
X22404761Y-6833333D01*
X22309523Y-6880952D01*
X22261904Y-6928571D01*
X22214285Y-7023809D01*
X58833333Y-5202380D02*
X58500000Y-4726190D01*
X58261904Y-5202380D02*
X58261904Y-4202380D01*
X58642857Y-4202380D01*
X58738095Y-4250000D01*
X58785714Y-4297619D01*
X58833333Y-4392857D01*
X58833333Y-4535714D01*
X58785714Y-4630952D01*
X58738095Y-4678571D01*
X58642857Y-4726190D01*
X58261904Y-4726190D01*
X59166666Y-4202380D02*
X59833333Y-4202380D01*
X59404761Y-5202380D01*
X34333333Y-6952380D02*
X34000000Y-6476190D01*
X33761904Y-6952380D02*
X33761904Y-5952380D01*
X34142857Y-5952380D01*
X34238095Y-6000000D01*
X34285714Y-6047619D01*
X34333333Y-6142857D01*
X34333333Y-6285714D01*
X34285714Y-6380952D01*
X34238095Y-6428571D01*
X34142857Y-6476190D01*
X33761904Y-6476190D01*
X34904761Y-6380952D02*
X34809523Y-6333333D01*
X34761904Y-6285714D01*
X34714285Y-6190476D01*
X34714285Y-6142857D01*
X34761904Y-6047619D01*
X34809523Y-6000000D01*
X34904761Y-5952380D01*
X35095238Y-5952380D01*
X35190476Y-6000000D01*
X35238095Y-6047619D01*
X35285714Y-6142857D01*
X35285714Y-6190476D01*
X35238095Y-6285714D01*
X35190476Y-6333333D01*
X35095238Y-6380952D01*
X34904761Y-6380952D01*
X34809523Y-6428571D01*
X34761904Y-6476190D01*
X34714285Y-6571428D01*
X34714285Y-6761904D01*
X34761904Y-6857142D01*
X34809523Y-6904761D01*
X34904761Y-6952380D01*
X35095238Y-6952380D01*
X35190476Y-6904761D01*
X35238095Y-6857142D01*
X35285714Y-6761904D01*
X35285714Y-6571428D01*
X35238095Y-6476190D01*
X35190476Y-6428571D01*
X35095238Y-6380952D01*
X34333333Y-9452380D02*
X34000000Y-8976190D01*
X33761904Y-9452380D02*
X33761904Y-8452380D01*
X34142857Y-8452380D01*
X34238095Y-8500000D01*
X34285714Y-8547619D01*
X34333333Y-8642857D01*
X34333333Y-8785714D01*
X34285714Y-8880952D01*
X34238095Y-8928571D01*
X34142857Y-8976190D01*
X33761904Y-8976190D01*
X34809523Y-9452380D02*
X35000000Y-9452380D01*
X35095238Y-9404761D01*
X35142857Y-9357142D01*
X35238095Y-9214285D01*
X35285714Y-9023809D01*
X35285714Y-8642857D01*
X35238095Y-8547619D01*
X35190476Y-8500000D01*
X35095238Y-8452380D01*
X34904761Y-8452380D01*
X34809523Y-8500000D01*
X34761904Y-8547619D01*
X34714285Y-8642857D01*
X34714285Y-8880952D01*
X34761904Y-8976190D01*
X34809523Y-9023809D01*
X34904761Y-9071428D01*
X35095238Y-9071428D01*
X35190476Y-9023809D01*
X35238095Y-8976190D01*
X35285714Y-8880952D01*
X77952380Y-12642857D02*
X77476190Y-12976190D01*
X77952380Y-13214285D02*
X76952380Y-13214285D01*
X76952380Y-12833333D01*
X77000000Y-12738095D01*
X77047619Y-12690476D01*
X77142857Y-12642857D01*
X77285714Y-12642857D01*
X77380952Y-12690476D01*
X77428571Y-12738095D01*
X77476190Y-12833333D01*
X77476190Y-13214285D01*
X77952380Y-11690476D02*
X77952380Y-12261904D01*
X77952380Y-11976190D02*
X76952380Y-11976190D01*
X77095238Y-12071428D01*
X77190476Y-12166666D01*
X77238095Y-12261904D01*
X76952380Y-11071428D02*
X76952380Y-10976190D01*
X77000000Y-10880952D01*
X77047619Y-10833333D01*
X77142857Y-10785714D01*
X77333333Y-10738095D01*
X77571428Y-10738095D01*
X77761904Y-10785714D01*
X77857142Y-10833333D01*
X77904761Y-10880952D01*
X77952380Y-10976190D01*
X77952380Y-11071428D01*
X77904761Y-11166666D01*
X77857142Y-11214285D01*
X77761904Y-11261904D01*
X77571428Y-11309523D01*
X77333333Y-11309523D01*
X77142857Y-11261904D01*
X77047619Y-11214285D01*
X77000000Y-11166666D01*
X76952380Y-11071428D01*
X75952380Y-12642857D02*
X75476190Y-12976190D01*
X75952380Y-13214285D02*
X74952380Y-13214285D01*
X74952380Y-12833333D01*
X75000000Y-12738095D01*
X75047619Y-12690476D01*
X75142857Y-12642857D01*
X75285714Y-12642857D01*
X75380952Y-12690476D01*
X75428571Y-12738095D01*
X75476190Y-12833333D01*
X75476190Y-13214285D01*
X75952380Y-11690476D02*
X75952380Y-12261904D01*
X75952380Y-11976190D02*
X74952380Y-11976190D01*
X75095238Y-12071428D01*
X75190476Y-12166666D01*
X75238095Y-12261904D01*
X75952380Y-10738095D02*
X75952380Y-11309523D01*
X75952380Y-11023809D02*
X74952380Y-11023809D01*
X75095238Y-11119047D01*
X75190476Y-11214285D01*
X75238095Y-11309523D01*
X65738095Y-5452380D02*
X65738095Y-6261904D01*
X65785714Y-6357142D01*
X65833333Y-6404761D01*
X65928571Y-6452380D01*
X66119047Y-6452380D01*
X66214285Y-6404761D01*
X66261904Y-6357142D01*
X66309523Y-6261904D01*
X66309523Y-5452380D01*
X66690476Y-5452380D02*
X67309523Y-5452380D01*
X66976190Y-5833333D01*
X67119047Y-5833333D01*
X67214285Y-5880952D01*
X67261904Y-5928571D01*
X67309523Y-6023809D01*
X67309523Y-6261904D01*
X67261904Y-6357142D01*
X67214285Y-6404761D01*
X67119047Y-6452380D01*
X66833333Y-6452380D01*
X66738095Y-6404761D01*
X66690476Y-6357142D01*
M02*
