G04 #@! TF.GenerationSoftware,KiCad,Pcbnew,(6.0.6)*
G04 #@! TF.CreationDate,2023-04-02T13:36:09+02:00*
G04 #@! TF.ProjectId,LampeSolairePetite,4c616d70-6553-46f6-9c61-697265506574,R00*
G04 #@! TF.SameCoordinates,Original*
G04 #@! TF.FileFunction,Copper,L2,Bot*
G04 #@! TF.FilePolarity,Positive*
%FSLAX46Y46*%
G04 Gerber Fmt 4.6, Leading zero omitted, Abs format (unit mm)*
G04 Created by KiCad (PCBNEW (6.0.6)) date 2023-04-02 13:36:09*
%MOMM*%
%LPD*%
G01*
G04 APERTURE LIST*
G04 Aperture macros list*
%AMRoundRect*
0 Rectangle with rounded corners*
0 $1 Rounding radius*
0 $2 $3 $4 $5 $6 $7 $8 $9 X,Y pos of 4 corners*
0 Add a 4 corners polygon primitive as box body*
4,1,4,$2,$3,$4,$5,$6,$7,$8,$9,$2,$3,0*
0 Add four circle primitives for the rounded corners*
1,1,$1+$1,$2,$3*
1,1,$1+$1,$4,$5*
1,1,$1+$1,$6,$7*
1,1,$1+$1,$8,$9*
0 Add four rect primitives between the rounded corners*
20,1,$1+$1,$2,$3,$4,$5,0*
20,1,$1+$1,$4,$5,$6,$7,0*
20,1,$1+$1,$6,$7,$8,$9,0*
20,1,$1+$1,$8,$9,$2,$3,0*%
%AMFreePoly0*
4,1,6,0.587500,-0.725000,-0.587500,-0.725000,-1.287500,0.000000,-0.587500,0.725000,0.587500,0.725000,0.587500,-0.725000,0.587500,-0.725000,$1*%
%AMFreePoly1*
4,1,6,0.587500,0.000000,1.287500,-0.725000,-0.587500,-0.725000,-0.587500,0.725000,1.287500,0.725000,0.587500,0.000000,0.587500,0.000000,$1*%
G04 Aperture macros list end*
G04 #@! TA.AperFunction,Profile*
%ADD10C,0.050000*%
G04 #@! TD*
G04 #@! TA.AperFunction,ComponentPad*
%ADD11R,1.700000X1.700000*%
G04 #@! TD*
G04 #@! TA.AperFunction,ComponentPad*
%ADD12O,1.700000X1.700000*%
G04 #@! TD*
G04 #@! TA.AperFunction,ComponentPad*
%ADD13R,1.000000X1.000000*%
G04 #@! TD*
G04 #@! TA.AperFunction,ComponentPad*
%ADD14O,1.000000X1.000000*%
G04 #@! TD*
G04 #@! TA.AperFunction,SMDPad,CuDef*
%ADD15FreePoly0,0.000000*%
G04 #@! TD*
G04 #@! TA.AperFunction,SMDPad,CuDef*
%ADD16FreePoly1,0.000000*%
G04 #@! TD*
G04 #@! TA.AperFunction,SMDPad,CuDef*
%ADD17RoundRect,0.250000X-0.450000X0.350000X-0.450000X-0.350000X0.450000X-0.350000X0.450000X0.350000X0*%
G04 #@! TD*
G04 #@! TA.AperFunction,ViaPad*
%ADD18C,1.000000*%
G04 #@! TD*
G04 #@! TA.AperFunction,ViaPad*
%ADD19C,0.800000*%
G04 #@! TD*
G04 #@! TA.AperFunction,Conductor*
%ADD20C,0.300000*%
G04 #@! TD*
G04 #@! TA.AperFunction,Conductor*
%ADD21C,0.500000*%
G04 #@! TD*
G04 #@! TA.AperFunction,Conductor*
%ADD22C,0.250000*%
G04 #@! TD*
G04 APERTURE END LIST*
D10*
X90000000Y-72000000D02*
X152000000Y-72000000D01*
X152000000Y-72000000D02*
X152000000Y-93000000D01*
X152000000Y-93000000D02*
X90000000Y-93000000D01*
X90000000Y-93000000D02*
X90000000Y-72000000D01*
D11*
X96520000Y-86360000D03*
D12*
X96520000Y-88900000D03*
D13*
X119380000Y-91440000D03*
D14*
X120650000Y-91440000D03*
X121920000Y-91440000D03*
X123190000Y-91440000D03*
X124460000Y-91440000D03*
X125730000Y-91440000D03*
X127000000Y-91440000D03*
X128270000Y-91440000D03*
X129540000Y-91440000D03*
X130810000Y-91440000D03*
X132080000Y-91440000D03*
X133350000Y-91440000D03*
D11*
X129535000Y-76200000D03*
D12*
X126995000Y-76200000D03*
X124455000Y-76200000D03*
X121915000Y-76200000D03*
X119375000Y-76200000D03*
D11*
X147320000Y-73660000D03*
D12*
X147320000Y-76200000D03*
X147320000Y-78740000D03*
X147320000Y-81280000D03*
D15*
X125497500Y-78486000D03*
D16*
X123422500Y-78486000D03*
D17*
X132842000Y-75200000D03*
X132842000Y-77200000D03*
D18*
X137922000Y-76962000D03*
X116840000Y-84074000D03*
X116840000Y-80010000D03*
X105918000Y-81788000D03*
X137922000Y-81026000D03*
X105918000Y-78994000D03*
X137922000Y-86106000D03*
D19*
X130793000Y-78486660D03*
X123952000Y-84074000D03*
X127000000Y-78486000D03*
X132842000Y-78486000D03*
X115062000Y-83820000D03*
X115062000Y-77978000D03*
X130793000Y-84074660D03*
D18*
X135890000Y-80264000D03*
X135890000Y-74676000D03*
D19*
X136906000Y-89662000D03*
X136906000Y-78994000D03*
X120650000Y-88138000D03*
X124714000Y-85344000D03*
X125476000Y-86106000D03*
X126386977Y-86719023D03*
X129540000Y-80010000D03*
X130810000Y-88900000D03*
X122936000Y-88900000D03*
X122936000Y-84582000D03*
X132334000Y-80772000D03*
X126259977Y-80750023D03*
X115824000Y-80859500D03*
X115824000Y-89662000D03*
X131542500Y-77470000D03*
X131572000Y-85344000D03*
X118618000Y-79248000D03*
X126238000Y-84836000D03*
X121666000Y-79756000D03*
X124947262Y-82838787D03*
X118872000Y-89408000D03*
X124676683Y-81540638D03*
X107950000Y-90932000D03*
X114300000Y-90932000D03*
X117856000Y-89154000D03*
D20*
X133350000Y-91440000D02*
X136652000Y-91440000D01*
X119380000Y-91440000D02*
X117348000Y-91440000D01*
D21*
X137922000Y-76962000D02*
X137922000Y-81026000D01*
D20*
X116840000Y-84074000D02*
X116840000Y-80010000D01*
D21*
X124455000Y-76200000D02*
X123422500Y-77232500D01*
D20*
X116840000Y-90932000D02*
X116840000Y-84074000D01*
X117348000Y-91440000D02*
X116840000Y-90932000D01*
D21*
X123422500Y-78486000D02*
X120581375Y-78486000D01*
X116927500Y-80097500D02*
X116840000Y-80010000D01*
D20*
X137922000Y-90170000D02*
X137922000Y-86106000D01*
D21*
X124455000Y-76200000D02*
X124455000Y-74681000D01*
D20*
X136652000Y-91440000D02*
X137922000Y-90170000D01*
D21*
X124455000Y-74681000D02*
X125476000Y-73660000D01*
D20*
X137922000Y-86106000D02*
X137922000Y-81026000D01*
D21*
X123422500Y-77232500D02*
X123422500Y-78486000D01*
X125476000Y-73660000D02*
X136906000Y-73660000D01*
X120581375Y-78486000D02*
X118969875Y-80097500D01*
X136906000Y-73660000D02*
X137922000Y-74676000D01*
X105918000Y-78994000D02*
X105918000Y-81788000D01*
X118969875Y-80097500D02*
X116927500Y-80097500D01*
X137922000Y-74676000D02*
X137922000Y-76962000D01*
D22*
X126995000Y-76200000D02*
X126995000Y-78481000D01*
D20*
X130810000Y-84057660D02*
X130793000Y-84074660D01*
X125497500Y-78486000D02*
X127000000Y-78486000D01*
X124460000Y-91440000D02*
X124460000Y-87376000D01*
D22*
X132842000Y-78486000D02*
X132842000Y-77200000D01*
X115062000Y-77978000D02*
X115062000Y-83820000D01*
X126995000Y-78481000D02*
X127000000Y-78486000D01*
D20*
X130793000Y-78486660D02*
X130810000Y-78503660D01*
X123952000Y-86868000D02*
X123952000Y-84074000D01*
X130810000Y-78503660D02*
X130810000Y-84057660D01*
X124460000Y-87376000D02*
X123952000Y-86868000D01*
X135890000Y-80264000D02*
X135890000Y-74676000D01*
X136906000Y-89662000D02*
X136906000Y-78994000D01*
X120650000Y-88138000D02*
X120650000Y-91440000D01*
X124714000Y-86868000D02*
X124714000Y-85344000D01*
X125730000Y-87884000D02*
X124714000Y-86868000D01*
X125730000Y-91440000D02*
X125730000Y-87884000D01*
X127000000Y-91440000D02*
X127000000Y-88392000D01*
X125476000Y-86868000D02*
X125476000Y-86106000D01*
X127000000Y-88392000D02*
X125476000Y-86868000D01*
X128270000Y-88602046D02*
X126386977Y-86719023D01*
X128270000Y-91440000D02*
X128270000Y-88602046D01*
X129540000Y-80010000D02*
X129540000Y-91440000D01*
X130810000Y-91440000D02*
X130810000Y-88900000D01*
X122936000Y-84582000D02*
X122936000Y-88900000D01*
X132334000Y-80772000D02*
X132334000Y-91186000D01*
X132334000Y-91186000D02*
X132080000Y-91440000D01*
D22*
X130551000Y-75184000D02*
X132826000Y-75184000D01*
X129535000Y-76200000D02*
X130551000Y-75184000D01*
D20*
X129535000Y-76200000D02*
X129535000Y-77475000D01*
D22*
X132826000Y-75184000D02*
X132842000Y-75200000D01*
D20*
X129535000Y-77475000D02*
X126259977Y-80750023D01*
X115824000Y-80859500D02*
X115824000Y-89662000D01*
X131542500Y-85314500D02*
X131572000Y-85344000D01*
X131542500Y-77470000D02*
X131542500Y-85314500D01*
X121725000Y-79561000D02*
X121666000Y-79620000D01*
X121666000Y-79620000D02*
X121666000Y-79756000D01*
X118618000Y-79248000D02*
X118867000Y-79248000D01*
X126238000Y-82042000D02*
X123757000Y-79561000D01*
X118867000Y-79248000D02*
X121915000Y-76200000D01*
X126238000Y-84836000D02*
X126238000Y-82042000D01*
X123757000Y-79561000D02*
X121725000Y-79561000D01*
X118872000Y-83312000D02*
X119345213Y-82838787D01*
X118872000Y-89408000D02*
X118872000Y-83312000D01*
X119345213Y-82838787D02*
X124947262Y-82838787D01*
X107950000Y-90932000D02*
X114300000Y-90932000D01*
X117856000Y-89154000D02*
X117856000Y-82550000D01*
X117856000Y-82550000D02*
X118865362Y-81540638D01*
X118865362Y-81540638D02*
X124676683Y-81540638D01*
G04 #@! TA.AperFunction,Conductor*
G36*
X145926249Y-72528502D02*
G01*
X145972742Y-72582158D01*
X145982846Y-72652432D01*
X145976111Y-72678728D01*
X145968255Y-72699684D01*
X145961500Y-72761866D01*
X145961500Y-74558134D01*
X145968255Y-74620316D01*
X146019385Y-74756705D01*
X146106739Y-74873261D01*
X146223295Y-74960615D01*
X146231704Y-74963767D01*
X146231705Y-74963768D01*
X146340451Y-75004535D01*
X146397216Y-75047176D01*
X146421916Y-75113738D01*
X146406709Y-75183087D01*
X146387316Y-75209568D01*
X146309715Y-75290773D01*
X146260629Y-75342138D01*
X146257720Y-75346403D01*
X146257714Y-75346411D01*
X146214193Y-75410211D01*
X146134743Y-75526680D01*
X146040688Y-75729305D01*
X145980989Y-75944570D01*
X145957251Y-76166695D01*
X145957548Y-76171848D01*
X145957548Y-76171851D01*
X145963011Y-76266590D01*
X145970110Y-76389715D01*
X145971247Y-76394761D01*
X145971248Y-76394767D01*
X145982031Y-76442614D01*
X146019222Y-76607639D01*
X146103266Y-76814616D01*
X146105965Y-76819020D01*
X146217291Y-77000688D01*
X146219987Y-77005088D01*
X146366250Y-77173938D01*
X146538126Y-77316632D01*
X146608595Y-77357811D01*
X146611445Y-77359476D01*
X146660169Y-77411114D01*
X146673240Y-77480897D01*
X146646509Y-77546669D01*
X146606055Y-77580027D01*
X146593607Y-77586507D01*
X146589474Y-77589610D01*
X146589471Y-77589612D01*
X146419100Y-77717530D01*
X146414965Y-77720635D01*
X146411393Y-77724373D01*
X146276251Y-77865791D01*
X146260629Y-77882138D01*
X146257715Y-77886410D01*
X146257714Y-77886411D01*
X146239838Y-77912617D01*
X146134743Y-78066680D01*
X146108213Y-78123834D01*
X146048720Y-78252002D01*
X146040688Y-78269305D01*
X145980989Y-78484570D01*
X145957251Y-78706695D01*
X145957548Y-78711848D01*
X145957548Y-78711851D01*
X145969812Y-78924547D01*
X145970110Y-78929715D01*
X145971247Y-78934761D01*
X145971248Y-78934767D01*
X145984597Y-78994000D01*
X146019222Y-79147639D01*
X146057461Y-79241811D01*
X146089236Y-79320063D01*
X146103266Y-79354616D01*
X146125396Y-79390729D01*
X146211320Y-79530944D01*
X146219987Y-79545088D01*
X146366250Y-79713938D01*
X146538126Y-79856632D01*
X146563525Y-79871474D01*
X146611955Y-79899774D01*
X146660679Y-79951412D01*
X146673750Y-80021195D01*
X146647019Y-80086967D01*
X146606562Y-80120327D01*
X146598457Y-80124546D01*
X146589738Y-80130036D01*
X146419433Y-80257905D01*
X146411726Y-80264748D01*
X146264590Y-80418717D01*
X146258104Y-80426727D01*
X146138098Y-80602649D01*
X146133000Y-80611623D01*
X146043338Y-80804783D01*
X146039775Y-80814470D01*
X145984389Y-81014183D01*
X145985912Y-81022607D01*
X145998292Y-81026000D01*
X148638344Y-81026000D01*
X148651875Y-81022027D01*
X148653180Y-81012947D01*
X148611214Y-80845875D01*
X148607894Y-80836124D01*
X148522972Y-80640814D01*
X148518105Y-80631739D01*
X148402426Y-80452926D01*
X148396136Y-80444757D01*
X148252806Y-80287240D01*
X148245273Y-80280215D01*
X148078139Y-80148222D01*
X148069556Y-80142520D01*
X148032602Y-80122120D01*
X147982631Y-80071687D01*
X147967859Y-80002245D01*
X147992975Y-79935839D01*
X148020327Y-79909232D01*
X148074409Y-79870656D01*
X148199860Y-79781173D01*
X148256180Y-79725050D01*
X148303089Y-79678304D01*
X148358096Y-79623489D01*
X148367739Y-79610070D01*
X148485435Y-79446277D01*
X148488453Y-79442077D01*
X148515089Y-79388184D01*
X148585136Y-79246453D01*
X148585137Y-79246451D01*
X148587430Y-79241811D01*
X148652370Y-79028069D01*
X148681529Y-78806590D01*
X148683156Y-78740000D01*
X148664852Y-78517361D01*
X148610431Y-78300702D01*
X148521354Y-78095840D01*
X148452520Y-77989439D01*
X148402822Y-77912617D01*
X148402820Y-77912614D01*
X148400014Y-77908277D01*
X148249670Y-77743051D01*
X148245619Y-77739852D01*
X148245615Y-77739848D01*
X148078414Y-77607800D01*
X148078410Y-77607798D01*
X148074359Y-77604598D01*
X148033053Y-77581796D01*
X147983084Y-77531364D01*
X147968312Y-77461921D01*
X147993428Y-77395516D01*
X148020780Y-77368909D01*
X148064603Y-77337650D01*
X148199860Y-77241173D01*
X148250447Y-77190763D01*
X148294124Y-77147238D01*
X148358096Y-77083489D01*
X148417594Y-77000689D01*
X148485435Y-76906277D01*
X148488453Y-76902077D01*
X148501995Y-76874678D01*
X148585136Y-76706453D01*
X148585137Y-76706451D01*
X148587430Y-76701811D01*
X148652370Y-76488069D01*
X148681529Y-76266590D01*
X148681897Y-76251522D01*
X148683074Y-76203365D01*
X148683074Y-76203361D01*
X148683156Y-76200000D01*
X148664852Y-75977361D01*
X148610431Y-75760702D01*
X148521354Y-75555840D01*
X148460371Y-75461574D01*
X148402822Y-75372617D01*
X148402820Y-75372614D01*
X148400014Y-75368277D01*
X148396532Y-75364450D01*
X148252798Y-75206488D01*
X148221746Y-75142642D01*
X148230141Y-75072143D01*
X148275317Y-75017375D01*
X148301761Y-75003706D01*
X148408297Y-74963767D01*
X148416705Y-74960615D01*
X148533261Y-74873261D01*
X148620615Y-74756705D01*
X148671745Y-74620316D01*
X148678500Y-74558134D01*
X148678500Y-72761866D01*
X148671745Y-72699684D01*
X148663889Y-72678728D01*
X148658707Y-72607921D01*
X148692629Y-72545552D01*
X148754885Y-72511424D01*
X148781872Y-72508500D01*
X151365500Y-72508500D01*
X151433621Y-72528502D01*
X151480114Y-72582158D01*
X151491500Y-72634500D01*
X151491500Y-92365500D01*
X151471498Y-92433621D01*
X151417842Y-92480114D01*
X151365500Y-92491500D01*
X134007404Y-92491500D01*
X133939283Y-92471498D01*
X133892790Y-92417842D01*
X133882686Y-92347568D01*
X133912180Y-92282988D01*
X133929831Y-92266210D01*
X134043645Y-92177289D01*
X134052527Y-92168831D01*
X134173643Y-92028517D01*
X134180711Y-92018497D01*
X134272262Y-91857337D01*
X134277256Y-91846121D01*
X134322142Y-91711190D01*
X134322643Y-91697097D01*
X134316454Y-91694000D01*
X133222000Y-91694000D01*
X133153879Y-91673998D01*
X133107386Y-91620342D01*
X133096000Y-91568000D01*
X133096000Y-91167885D01*
X133604000Y-91167885D01*
X133608475Y-91183124D01*
X133609865Y-91184329D01*
X133617548Y-91186000D01*
X134308183Y-91186000D01*
X134321714Y-91182027D01*
X134322806Y-91174433D01*
X134288231Y-91059919D01*
X134283560Y-91048586D01*
X134196540Y-90884923D01*
X134189751Y-90874706D01*
X134072603Y-90731067D01*
X134063959Y-90722363D01*
X133921144Y-90604216D01*
X133910973Y-90597356D01*
X133747924Y-90509196D01*
X133736619Y-90504444D01*
X133621308Y-90468750D01*
X133607205Y-90468544D01*
X133604000Y-90475299D01*
X133604000Y-91167885D01*
X133096000Y-91167885D01*
X133096000Y-90482076D01*
X133091525Y-90466837D01*
X133088613Y-90464314D01*
X133035986Y-90440279D01*
X132997603Y-90380553D01*
X132992500Y-90345056D01*
X132992500Y-81446759D01*
X133012502Y-81378638D01*
X133024864Y-81362449D01*
X133068621Y-81313852D01*
X133068622Y-81313851D01*
X133073040Y-81308944D01*
X133168527Y-81143556D01*
X133227542Y-80961928D01*
X133228680Y-80951107D01*
X133246814Y-80778565D01*
X133247504Y-80772000D01*
X133236428Y-80666620D01*
X133228232Y-80588635D01*
X133228232Y-80588633D01*
X133227542Y-80582072D01*
X133168527Y-80400444D01*
X133081582Y-80249851D01*
X134876719Y-80249851D01*
X134877235Y-80255995D01*
X134892581Y-80438749D01*
X134893268Y-80446934D01*
X134906830Y-80494229D01*
X134944269Y-80624794D01*
X134947783Y-80637050D01*
X134962980Y-80666620D01*
X135033987Y-80804783D01*
X135038187Y-80812956D01*
X135161035Y-80967953D01*
X135165728Y-80971947D01*
X135165729Y-80971948D01*
X135265427Y-81056797D01*
X135311650Y-81096136D01*
X135484294Y-81192624D01*
X135672392Y-81253740D01*
X135868777Y-81277158D01*
X135874912Y-81276686D01*
X135874914Y-81276686D01*
X136059831Y-81262457D01*
X136059836Y-81262456D01*
X136065972Y-81261984D01*
X136071907Y-81260327D01*
X136087617Y-81255941D01*
X136158607Y-81256888D01*
X136217816Y-81296064D01*
X136246445Y-81361033D01*
X136247500Y-81377300D01*
X136247500Y-88987241D01*
X136227498Y-89055362D01*
X136215136Y-89071551D01*
X136166960Y-89125056D01*
X136071473Y-89290444D01*
X136012458Y-89472072D01*
X136011768Y-89478633D01*
X136011768Y-89478635D01*
X136000593Y-89584960D01*
X135992496Y-89662000D01*
X135993186Y-89668565D01*
X136010863Y-89836749D01*
X136012458Y-89851928D01*
X136071473Y-90033556D01*
X136166960Y-90198944D01*
X136171378Y-90203851D01*
X136171379Y-90203852D01*
X136270174Y-90313575D01*
X136294747Y-90340866D01*
X136350098Y-90381081D01*
X136443773Y-90449140D01*
X136449248Y-90453118D01*
X136455276Y-90455802D01*
X136455278Y-90455803D01*
X136615983Y-90527353D01*
X136623712Y-90530794D01*
X136717113Y-90550647D01*
X136804056Y-90569128D01*
X136804061Y-90569128D01*
X136810513Y-90570500D01*
X137001487Y-90570500D01*
X137007939Y-90569128D01*
X137007944Y-90569128D01*
X137094887Y-90550647D01*
X137188288Y-90530794D01*
X137196017Y-90527353D01*
X137356722Y-90455803D01*
X137356724Y-90455802D01*
X137362752Y-90453118D01*
X137368228Y-90449140D01*
X137461902Y-90381081D01*
X137517253Y-90340866D01*
X137541826Y-90313575D01*
X137640621Y-90203852D01*
X137640622Y-90203851D01*
X137645040Y-90198944D01*
X137740527Y-90033556D01*
X137799542Y-89851928D01*
X137801138Y-89836749D01*
X137818814Y-89668565D01*
X137819504Y-89662000D01*
X137811407Y-89584960D01*
X137800232Y-89478635D01*
X137800232Y-89478633D01*
X137799542Y-89472072D01*
X137740527Y-89290444D01*
X137645040Y-89125056D01*
X137596864Y-89071551D01*
X137566146Y-89007544D01*
X137564500Y-88987241D01*
X137564500Y-88546485D01*
X143836854Y-88546485D01*
X143837156Y-88550320D01*
X143855108Y-88778417D01*
X143862370Y-88870695D01*
X143927206Y-89189378D01*
X144030398Y-89497784D01*
X144032052Y-89501253D01*
X144032053Y-89501254D01*
X144044044Y-89526393D01*
X144170405Y-89791316D01*
X144172467Y-89794553D01*
X144172470Y-89794558D01*
X144220320Y-89869667D01*
X144345141Y-90065597D01*
X144347584Y-90068560D01*
X144347585Y-90068562D01*
X144519239Y-90276794D01*
X144552001Y-90316538D01*
X144787902Y-90540399D01*
X145049326Y-90733843D01*
X145063871Y-90742072D01*
X145329019Y-90892086D01*
X145329023Y-90892088D01*
X145332376Y-90893985D01*
X145632832Y-91018438D01*
X145713420Y-91040787D01*
X145942500Y-91104317D01*
X145942508Y-91104319D01*
X145946216Y-91105347D01*
X146267856Y-91153416D01*
X146271154Y-91153560D01*
X146382918Y-91158440D01*
X146382922Y-91158440D01*
X146384294Y-91158500D01*
X146582598Y-91158500D01*
X146824605Y-91143698D01*
X146828388Y-91142997D01*
X146828395Y-91142996D01*
X147028459Y-91105916D01*
X147144372Y-91084433D01*
X147353682Y-91018438D01*
X147450860Y-90987798D01*
X147450863Y-90987797D01*
X147454532Y-90986640D01*
X147458029Y-90985046D01*
X147458035Y-90985044D01*
X147746954Y-90853376D01*
X147746958Y-90853374D01*
X147750462Y-90851777D01*
X147798411Y-90822394D01*
X148024473Y-90683863D01*
X148024476Y-90683861D01*
X148027751Y-90681854D01*
X148030755Y-90679464D01*
X148030760Y-90679461D01*
X148155008Y-90580629D01*
X148282264Y-90479405D01*
X148284958Y-90476664D01*
X148284962Y-90476660D01*
X148507513Y-90250190D01*
X148507517Y-90250185D01*
X148510208Y-90247447D01*
X148675707Y-90031765D01*
X148705835Y-89992502D01*
X148705837Y-89992498D01*
X148708185Y-89989439D01*
X148837346Y-89770166D01*
X148871289Y-89712543D01*
X148871291Y-89712540D01*
X148873242Y-89709227D01*
X149002920Y-89410988D01*
X149004319Y-89406267D01*
X149067483Y-89193027D01*
X149095285Y-89099169D01*
X149148961Y-88778417D01*
X149163146Y-88453515D01*
X149145243Y-88226041D01*
X149137932Y-88133140D01*
X149137932Y-88133137D01*
X149137630Y-88129305D01*
X149072794Y-87810622D01*
X148969602Y-87502216D01*
X148951396Y-87464045D01*
X148886370Y-87327715D01*
X148829595Y-87208684D01*
X148654859Y-86934403D01*
X148507470Y-86755606D01*
X148450442Y-86686425D01*
X148450438Y-86686420D01*
X148447999Y-86683462D01*
X148212098Y-86459601D01*
X147950674Y-86266157D01*
X147745781Y-86150234D01*
X147670981Y-86107914D01*
X147670977Y-86107912D01*
X147667624Y-86106015D01*
X147367168Y-85981562D01*
X147263712Y-85952871D01*
X147057500Y-85895683D01*
X147057492Y-85895681D01*
X147053784Y-85894653D01*
X146732144Y-85846584D01*
X146728846Y-85846440D01*
X146617082Y-85841560D01*
X146617078Y-85841560D01*
X146615706Y-85841500D01*
X146417402Y-85841500D01*
X146175395Y-85856302D01*
X146171612Y-85857003D01*
X146171605Y-85857004D01*
X146042438Y-85880944D01*
X145855628Y-85915567D01*
X145671058Y-85973762D01*
X145549140Y-86012202D01*
X145549137Y-86012203D01*
X145545468Y-86013360D01*
X145541971Y-86014954D01*
X145541965Y-86014956D01*
X145253046Y-86146624D01*
X145253042Y-86146626D01*
X145249538Y-86148223D01*
X145246259Y-86150233D01*
X145246256Y-86150234D01*
X145082153Y-86250797D01*
X144972249Y-86318146D01*
X144969245Y-86320536D01*
X144969240Y-86320539D01*
X144844992Y-86419371D01*
X144717736Y-86520595D01*
X144715042Y-86523336D01*
X144715038Y-86523340D01*
X144492487Y-86749810D01*
X144492483Y-86749815D01*
X144489792Y-86752553D01*
X144291815Y-87010561D01*
X144180255Y-87199953D01*
X144147997Y-87254717D01*
X144126758Y-87290773D01*
X143997080Y-87589012D01*
X143995986Y-87592706D01*
X143995984Y-87592711D01*
X143974936Y-87663768D01*
X143904715Y-87900831D01*
X143851039Y-88221583D01*
X143836854Y-88546485D01*
X137564500Y-88546485D01*
X137564500Y-81547966D01*
X145988257Y-81547966D01*
X146018565Y-81682446D01*
X146021645Y-81692275D01*
X146101770Y-81889603D01*
X146106413Y-81898794D01*
X146217694Y-82080388D01*
X146223777Y-82088699D01*
X146363213Y-82249667D01*
X146370580Y-82256883D01*
X146534434Y-82392916D01*
X146542881Y-82398831D01*
X146726756Y-82506279D01*
X146736042Y-82510729D01*
X146935001Y-82586703D01*
X146944899Y-82589579D01*
X147048250Y-82610606D01*
X147062299Y-82609410D01*
X147066000Y-82599065D01*
X147066000Y-82598517D01*
X147574000Y-82598517D01*
X147578064Y-82612359D01*
X147591478Y-82614393D01*
X147598184Y-82613534D01*
X147608262Y-82611392D01*
X147812255Y-82550191D01*
X147821842Y-82546433D01*
X148013095Y-82452739D01*
X148021945Y-82447464D01*
X148195328Y-82323792D01*
X148203200Y-82317139D01*
X148354052Y-82166812D01*
X148360730Y-82158965D01*
X148485003Y-81986020D01*
X148490313Y-81977183D01*
X148584670Y-81786267D01*
X148588469Y-81776672D01*
X148650377Y-81572910D01*
X148652555Y-81562837D01*
X148653986Y-81551962D01*
X148651775Y-81537778D01*
X148638617Y-81534000D01*
X147592115Y-81534000D01*
X147576876Y-81538475D01*
X147575671Y-81539865D01*
X147574000Y-81547548D01*
X147574000Y-82598517D01*
X147066000Y-82598517D01*
X147066000Y-81552115D01*
X147061525Y-81536876D01*
X147060135Y-81535671D01*
X147052452Y-81534000D01*
X146003225Y-81534000D01*
X145989694Y-81537973D01*
X145988257Y-81547966D01*
X137564500Y-81547966D01*
X137564500Y-79668759D01*
X137584502Y-79600638D01*
X137596864Y-79584449D01*
X137640621Y-79535852D01*
X137640622Y-79535851D01*
X137645040Y-79530944D01*
X137740527Y-79365556D01*
X137799542Y-79183928D01*
X137801138Y-79168749D01*
X137818814Y-79000565D01*
X137819504Y-78994000D01*
X137813278Y-78934767D01*
X137800232Y-78810635D01*
X137800232Y-78810633D01*
X137799542Y-78804072D01*
X137740527Y-78622444D01*
X137725383Y-78596213D01*
X137658049Y-78479588D01*
X137645040Y-78457056D01*
X137562805Y-78365724D01*
X137521675Y-78320045D01*
X137521674Y-78320044D01*
X137517253Y-78315134D01*
X137402829Y-78232000D01*
X137368094Y-78206763D01*
X137368093Y-78206762D01*
X137362752Y-78202882D01*
X137356724Y-78200198D01*
X137356722Y-78200197D01*
X137194319Y-78127891D01*
X137194318Y-78127891D01*
X137188288Y-78125206D01*
X137085888Y-78103440D01*
X137007944Y-78086872D01*
X137007939Y-78086872D01*
X137001487Y-78085500D01*
X136810513Y-78085500D01*
X136804061Y-78086872D01*
X136804056Y-78086872D01*
X136700697Y-78108842D01*
X136629906Y-78103440D01*
X136573273Y-78060623D01*
X136548780Y-77993985D01*
X136548500Y-77985595D01*
X136548500Y-75501456D01*
X136568502Y-75433335D01*
X136586165Y-75411956D01*
X136588847Y-75409861D01*
X136653463Y-75335003D01*
X136714049Y-75264813D01*
X136714050Y-75264811D01*
X136718078Y-75260145D01*
X136815769Y-75088179D01*
X136878197Y-74900513D01*
X136902985Y-74704295D01*
X136903222Y-74687296D01*
X136903331Y-74679523D01*
X136903331Y-74679520D01*
X136903380Y-74676000D01*
X136884080Y-74479167D01*
X136878973Y-74462250D01*
X136828697Y-74295731D01*
X136826916Y-74289831D01*
X136734066Y-74115204D01*
X136651004Y-74013360D01*
X136612960Y-73966713D01*
X136612957Y-73966710D01*
X136609065Y-73961938D01*
X136602724Y-73956692D01*
X136461425Y-73839799D01*
X136461421Y-73839797D01*
X136456675Y-73835870D01*
X136282701Y-73741802D01*
X136093768Y-73683318D01*
X136087643Y-73682674D01*
X136087642Y-73682674D01*
X135903204Y-73663289D01*
X135903202Y-73663289D01*
X135897075Y-73662645D01*
X135814576Y-73670153D01*
X135706251Y-73680011D01*
X135706248Y-73680012D01*
X135700112Y-73680570D01*
X135694206Y-73682308D01*
X135694202Y-73682309D01*
X135589076Y-73713249D01*
X135510381Y-73736410D01*
X135504923Y-73739263D01*
X135504919Y-73739265D01*
X135414147Y-73786720D01*
X135335110Y-73828040D01*
X135180975Y-73951968D01*
X135053846Y-74103474D01*
X135050879Y-74108872D01*
X135050875Y-74108877D01*
X135021822Y-74161725D01*
X134958567Y-74276787D01*
X134956706Y-74282654D01*
X134956705Y-74282656D01*
X134900627Y-74459436D01*
X134898765Y-74465306D01*
X134876719Y-74661851D01*
X134878856Y-74687296D01*
X134892300Y-74847402D01*
X134893268Y-74858934D01*
X134904867Y-74899385D01*
X134935019Y-75004535D01*
X134947783Y-75049050D01*
X134950602Y-75054535D01*
X135031607Y-75212152D01*
X135038187Y-75224956D01*
X135161035Y-75379953D01*
X135165729Y-75383947D01*
X135165730Y-75383949D01*
X135187164Y-75402191D01*
X135226076Y-75461574D01*
X135231500Y-75498144D01*
X135231500Y-79438975D01*
X135211498Y-79507096D01*
X135189719Y-79531317D01*
X135190184Y-79531792D01*
X135185782Y-79536103D01*
X135180975Y-79539968D01*
X135053846Y-79691474D01*
X135050879Y-79696872D01*
X135050875Y-79696877D01*
X134995070Y-79798387D01*
X134958567Y-79864787D01*
X134956706Y-79870654D01*
X134956705Y-79870656D01*
X134910420Y-80016565D01*
X134898765Y-80053306D01*
X134876719Y-80249851D01*
X133081582Y-80249851D01*
X133073040Y-80235056D01*
X133059034Y-80219500D01*
X132949675Y-80098045D01*
X132949674Y-80098044D01*
X132945253Y-80093134D01*
X132830829Y-80010000D01*
X132796094Y-79984763D01*
X132796093Y-79984762D01*
X132790752Y-79980882D01*
X132784724Y-79978198D01*
X132784722Y-79978197D01*
X132622319Y-79905891D01*
X132622318Y-79905891D01*
X132616288Y-79903206D01*
X132512895Y-79881229D01*
X132435944Y-79864872D01*
X132435939Y-79864872D01*
X132429487Y-79863500D01*
X132327000Y-79863500D01*
X132258879Y-79843498D01*
X132212386Y-79789842D01*
X132201000Y-79737500D01*
X132201000Y-79388184D01*
X132221002Y-79320063D01*
X132274658Y-79273570D01*
X132344932Y-79263466D01*
X132385131Y-79277380D01*
X132385248Y-79277118D01*
X132388304Y-79278479D01*
X132388308Y-79278480D01*
X132391274Y-79279801D01*
X132506571Y-79331134D01*
X132559712Y-79354794D01*
X132653113Y-79374647D01*
X132740056Y-79393128D01*
X132740061Y-79393128D01*
X132746513Y-79394500D01*
X132937487Y-79394500D01*
X132943939Y-79393128D01*
X132943944Y-79393128D01*
X133030887Y-79374647D01*
X133124288Y-79354794D01*
X133172046Y-79333531D01*
X133292722Y-79279803D01*
X133292724Y-79279802D01*
X133298752Y-79277118D01*
X133329794Y-79254565D01*
X133413839Y-79193502D01*
X133453253Y-79164866D01*
X133532247Y-79077134D01*
X133576621Y-79027852D01*
X133576622Y-79027851D01*
X133581040Y-79022944D01*
X133653411Y-78897594D01*
X133673223Y-78863279D01*
X133673224Y-78863278D01*
X133676527Y-78857556D01*
X133735542Y-78675928D01*
X133740143Y-78632158D01*
X133754814Y-78492565D01*
X133755504Y-78486000D01*
X133744280Y-78379206D01*
X133736233Y-78302642D01*
X133736232Y-78302638D01*
X133735542Y-78296072D01*
X133730497Y-78280544D01*
X133728471Y-78209576D01*
X133764702Y-78149496D01*
X133766348Y-78148478D01*
X133891305Y-78023303D01*
X133960325Y-77911333D01*
X133980275Y-77878968D01*
X133980276Y-77878966D01*
X133984115Y-77872738D01*
X134027130Y-77743051D01*
X134037632Y-77711389D01*
X134037632Y-77711387D01*
X134039797Y-77704861D01*
X134050500Y-77600400D01*
X134050500Y-76799600D01*
X134049622Y-76791134D01*
X134040238Y-76700692D01*
X134040237Y-76700688D01*
X134039526Y-76693834D01*
X133995834Y-76562872D01*
X133985868Y-76533002D01*
X133983550Y-76526054D01*
X133890478Y-76375652D01*
X133803891Y-76289216D01*
X133769812Y-76226934D01*
X133774815Y-76156114D01*
X133803736Y-76111025D01*
X133886134Y-76028483D01*
X133891305Y-76023303D01*
X133922718Y-75972342D01*
X133980275Y-75878968D01*
X133980276Y-75878966D01*
X133984115Y-75872738D01*
X134019611Y-75765720D01*
X134037632Y-75711389D01*
X134037632Y-75711387D01*
X134039797Y-75704861D01*
X134050500Y-75600400D01*
X134050500Y-74799600D01*
X134046098Y-74757173D01*
X134040238Y-74700692D01*
X134040237Y-74700688D01*
X134039526Y-74693834D01*
X134034752Y-74679523D01*
X133985868Y-74533002D01*
X133983550Y-74526054D01*
X133890478Y-74375652D01*
X133765303Y-74250695D01*
X133759072Y-74246854D01*
X133620968Y-74161725D01*
X133620966Y-74161724D01*
X133614738Y-74157885D01*
X133534995Y-74131436D01*
X133453389Y-74104368D01*
X133453387Y-74104368D01*
X133446861Y-74102203D01*
X133440025Y-74101503D01*
X133440022Y-74101502D01*
X133396969Y-74097091D01*
X133342400Y-74091500D01*
X132341600Y-74091500D01*
X132338354Y-74091837D01*
X132338350Y-74091837D01*
X132242692Y-74101762D01*
X132242688Y-74101763D01*
X132235834Y-74102474D01*
X132229298Y-74104655D01*
X132229296Y-74104655D01*
X132181369Y-74120645D01*
X132068054Y-74158450D01*
X131917652Y-74251522D01*
X131792695Y-74376697D01*
X131788855Y-74382927D01*
X131788854Y-74382928D01*
X131722474Y-74490616D01*
X131669702Y-74538109D01*
X131615214Y-74550500D01*
X130629767Y-74550500D01*
X130618584Y-74549973D01*
X130611091Y-74548298D01*
X130603165Y-74548547D01*
X130603164Y-74548547D01*
X130543001Y-74550438D01*
X130539043Y-74550500D01*
X130511144Y-74550500D01*
X130507154Y-74551004D01*
X130495320Y-74551936D01*
X130451111Y-74553326D01*
X130443497Y-74555538D01*
X130443492Y-74555539D01*
X130431659Y-74558977D01*
X130412296Y-74562988D01*
X130392203Y-74565526D01*
X130384836Y-74568443D01*
X130384831Y-74568444D01*
X130351092Y-74581802D01*
X130339865Y-74585646D01*
X130297407Y-74597982D01*
X130290581Y-74602019D01*
X130279972Y-74608293D01*
X130262224Y-74616988D01*
X130243383Y-74624448D01*
X130236967Y-74629110D01*
X130236966Y-74629110D01*
X130207613Y-74650436D01*
X130197693Y-74656952D01*
X130166465Y-74675420D01*
X130166462Y-74675422D01*
X130159638Y-74679458D01*
X130145317Y-74693779D01*
X130130284Y-74706619D01*
X130113893Y-74718528D01*
X130108842Y-74724634D01*
X130085702Y-74752605D01*
X130077712Y-74761384D01*
X130034501Y-74804595D01*
X129972189Y-74838621D01*
X129945406Y-74841500D01*
X128636866Y-74841500D01*
X128574684Y-74848255D01*
X128438295Y-74899385D01*
X128321739Y-74986739D01*
X128234385Y-75103295D01*
X128231233Y-75111703D01*
X128189919Y-75221907D01*
X128147277Y-75278671D01*
X128080716Y-75303371D01*
X128011367Y-75288163D01*
X127978743Y-75262476D01*
X127928151Y-75206875D01*
X127928142Y-75206866D01*
X127924670Y-75203051D01*
X127920619Y-75199852D01*
X127920615Y-75199848D01*
X127753414Y-75067800D01*
X127753410Y-75067798D01*
X127749359Y-75064598D01*
X127713028Y-75044542D01*
X127657494Y-75013886D01*
X127553789Y-74956638D01*
X127548920Y-74954914D01*
X127548916Y-74954912D01*
X127348087Y-74883795D01*
X127348083Y-74883794D01*
X127343212Y-74882069D01*
X127338119Y-74881162D01*
X127338116Y-74881161D01*
X127128373Y-74843800D01*
X127128367Y-74843799D01*
X127123284Y-74842894D01*
X127049452Y-74841992D01*
X126905081Y-74840228D01*
X126905079Y-74840228D01*
X126899911Y-74840165D01*
X126679091Y-74873955D01*
X126466756Y-74943357D01*
X126433604Y-74960615D01*
X126275108Y-75043123D01*
X126268607Y-75046507D01*
X126264474Y-75049610D01*
X126264471Y-75049612D01*
X126140567Y-75142642D01*
X126089965Y-75180635D01*
X126064541Y-75207240D01*
X125996280Y-75278671D01*
X125935629Y-75342138D01*
X125932720Y-75346403D01*
X125932714Y-75346411D01*
X125889193Y-75410211D01*
X125828204Y-75499618D01*
X125827898Y-75500066D01*
X125772987Y-75545069D01*
X125702462Y-75553240D01*
X125638715Y-75521986D01*
X125618018Y-75497502D01*
X125537426Y-75372926D01*
X125531136Y-75364757D01*
X125387806Y-75207240D01*
X125380273Y-75200215D01*
X125213139Y-75068222D01*
X125204552Y-75062517D01*
X125018117Y-74959599D01*
X125008705Y-74955369D01*
X124807959Y-74884280D01*
X124797988Y-74881646D01*
X124726837Y-74868972D01*
X124713540Y-74870432D01*
X124709000Y-74884989D01*
X124709000Y-76328000D01*
X124688998Y-76396121D01*
X124635342Y-76442614D01*
X124583000Y-76454000D01*
X124327000Y-76454000D01*
X124258879Y-76433998D01*
X124212386Y-76380342D01*
X124201000Y-76328000D01*
X124201000Y-74883102D01*
X124197082Y-74869758D01*
X124182806Y-74867771D01*
X124144324Y-74873660D01*
X124134288Y-74876051D01*
X123931868Y-74942212D01*
X123922359Y-74946209D01*
X123733463Y-75044542D01*
X123724738Y-75050036D01*
X123554433Y-75177905D01*
X123546726Y-75184748D01*
X123399590Y-75338717D01*
X123393109Y-75346722D01*
X123288498Y-75500074D01*
X123233587Y-75545076D01*
X123163062Y-75553247D01*
X123099315Y-75521993D01*
X123078618Y-75497509D01*
X122997822Y-75372617D01*
X122997820Y-75372614D01*
X122995014Y-75368277D01*
X122844670Y-75203051D01*
X122840619Y-75199852D01*
X122840615Y-75199848D01*
X122673414Y-75067800D01*
X122673410Y-75067798D01*
X122669359Y-75064598D01*
X122633028Y-75044542D01*
X122577494Y-75013886D01*
X122473789Y-74956638D01*
X122468920Y-74954914D01*
X122468916Y-74954912D01*
X122268087Y-74883795D01*
X122268083Y-74883794D01*
X122263212Y-74882069D01*
X122258119Y-74881162D01*
X122258116Y-74881161D01*
X122048373Y-74843800D01*
X122048367Y-74843799D01*
X122043284Y-74842894D01*
X121969452Y-74841992D01*
X121825081Y-74840228D01*
X121825079Y-74840228D01*
X121819911Y-74840165D01*
X121599091Y-74873955D01*
X121386756Y-74943357D01*
X121353604Y-74960615D01*
X121195108Y-75043123D01*
X121188607Y-75046507D01*
X121184474Y-75049610D01*
X121184471Y-75049612D01*
X121060567Y-75142642D01*
X121009965Y-75180635D01*
X120984541Y-75207240D01*
X120916280Y-75278671D01*
X120855629Y-75342138D01*
X120748201Y-75499621D01*
X120693293Y-75544621D01*
X120622768Y-75552792D01*
X120559021Y-75521538D01*
X120538324Y-75497054D01*
X120457822Y-75372617D01*
X120457820Y-75372614D01*
X120455014Y-75368277D01*
X120304670Y-75203051D01*
X120300619Y-75199852D01*
X120300615Y-75199848D01*
X120133414Y-75067800D01*
X120133410Y-75067798D01*
X120129359Y-75064598D01*
X120093028Y-75044542D01*
X120037494Y-75013886D01*
X119933789Y-74956638D01*
X119928920Y-74954914D01*
X119928916Y-74954912D01*
X119728087Y-74883795D01*
X119728083Y-74883794D01*
X119723212Y-74882069D01*
X119718119Y-74881162D01*
X119718116Y-74881161D01*
X119508373Y-74843800D01*
X119508367Y-74843799D01*
X119503284Y-74842894D01*
X119429452Y-74841992D01*
X119285081Y-74840228D01*
X119285079Y-74840228D01*
X119279911Y-74840165D01*
X119059091Y-74873955D01*
X118846756Y-74943357D01*
X118813604Y-74960615D01*
X118655108Y-75043123D01*
X118648607Y-75046507D01*
X118644474Y-75049610D01*
X118644471Y-75049612D01*
X118520567Y-75142642D01*
X118469965Y-75180635D01*
X118444541Y-75207240D01*
X118376280Y-75278671D01*
X118315629Y-75342138D01*
X118312720Y-75346403D01*
X118312714Y-75346411D01*
X118269193Y-75410211D01*
X118189743Y-75526680D01*
X118095688Y-75729305D01*
X118035989Y-75944570D01*
X118012251Y-76166695D01*
X118012548Y-76171848D01*
X118012548Y-76171851D01*
X118018011Y-76266590D01*
X118025110Y-76389715D01*
X118026247Y-76394761D01*
X118026248Y-76394767D01*
X118037031Y-76442614D01*
X118074222Y-76607639D01*
X118158266Y-76814616D01*
X118160965Y-76819020D01*
X118272291Y-77000688D01*
X118274987Y-77005088D01*
X118421250Y-77173938D01*
X118593126Y-77316632D01*
X118786000Y-77429338D01*
X118790825Y-77431180D01*
X118790826Y-77431181D01*
X118816686Y-77441056D01*
X118994692Y-77509030D01*
X118999760Y-77510061D01*
X118999763Y-77510062D01*
X119064860Y-77523306D01*
X119213597Y-77553567D01*
X119218771Y-77553757D01*
X119218773Y-77553757D01*
X119326544Y-77557709D01*
X119393886Y-77580194D01*
X119438381Y-77635517D01*
X119445903Y-77706114D01*
X119411021Y-77772719D01*
X118869694Y-78314046D01*
X118807382Y-78348072D01*
X118754402Y-78348197D01*
X118713487Y-78339500D01*
X118522513Y-78339500D01*
X118516061Y-78340872D01*
X118516056Y-78340872D01*
X118448279Y-78355279D01*
X118335712Y-78379206D01*
X118329682Y-78381891D01*
X118329681Y-78381891D01*
X118167278Y-78454197D01*
X118167276Y-78454198D01*
X118161248Y-78456882D01*
X118155907Y-78460762D01*
X118155906Y-78460763D01*
X118129996Y-78479588D01*
X118006747Y-78569134D01*
X118002326Y-78574044D01*
X118002325Y-78574045D01*
X117903445Y-78683863D01*
X117878960Y-78711056D01*
X117858863Y-78745865D01*
X117797626Y-78851931D01*
X117783473Y-78876444D01*
X117724458Y-79058072D01*
X117723768Y-79064633D01*
X117723768Y-79064635D01*
X117712524Y-79171618D01*
X117704496Y-79248000D01*
X117705186Y-79254565D01*
X117719894Y-79394500D01*
X117724458Y-79437928D01*
X117783473Y-79619556D01*
X117878960Y-79784944D01*
X117883378Y-79789851D01*
X117883379Y-79789852D01*
X118002325Y-79921955D01*
X118006747Y-79926866D01*
X118094615Y-79990706D01*
X118130207Y-80016565D01*
X118161248Y-80039118D01*
X118167276Y-80041802D01*
X118167278Y-80041803D01*
X118301929Y-80101753D01*
X118335712Y-80116794D01*
X118429113Y-80136647D01*
X118516056Y-80155128D01*
X118516061Y-80155128D01*
X118522513Y-80156500D01*
X118713487Y-80156500D01*
X118719939Y-80155128D01*
X118719944Y-80155128D01*
X118806887Y-80136647D01*
X118900288Y-80116794D01*
X118934071Y-80101753D01*
X119068722Y-80041803D01*
X119068724Y-80041802D01*
X119074752Y-80039118D01*
X119105794Y-80016565D01*
X119141385Y-79990706D01*
X119229253Y-79926866D01*
X119233675Y-79921955D01*
X119352621Y-79789852D01*
X119352622Y-79789851D01*
X119357040Y-79784944D01*
X119452527Y-79619556D01*
X119455609Y-79610069D01*
X119457020Y-79607768D01*
X119457254Y-79607242D01*
X119457323Y-79607273D01*
X119486347Y-79559913D01*
X121488928Y-77557332D01*
X121551240Y-77523306D01*
X121603140Y-77522956D01*
X121753597Y-77553567D01*
X121758772Y-77553757D01*
X121758774Y-77553757D01*
X121971673Y-77561564D01*
X121971677Y-77561564D01*
X121976837Y-77561753D01*
X121981957Y-77561097D01*
X121981959Y-77561097D01*
X122193132Y-77534045D01*
X122263242Y-77545229D01*
X122316176Y-77592543D01*
X122335127Y-77660963D01*
X122333859Y-77676956D01*
X122322416Y-77756541D01*
X122321776Y-77765495D01*
X122321776Y-78213885D01*
X122326251Y-78229124D01*
X122327641Y-78230329D01*
X122335324Y-78232000D01*
X123550500Y-78232000D01*
X123618621Y-78252002D01*
X123665114Y-78305658D01*
X123676500Y-78358000D01*
X123676500Y-78614000D01*
X123656498Y-78682121D01*
X123602842Y-78728614D01*
X123550500Y-78740000D01*
X122339891Y-78740000D01*
X122324652Y-78744475D01*
X122323447Y-78745865D01*
X122321776Y-78753548D01*
X122321776Y-78776500D01*
X122301774Y-78844621D01*
X122248118Y-78891114D01*
X122195776Y-78902500D01*
X122009422Y-78902500D01*
X121958174Y-78891607D01*
X121954323Y-78889892D01*
X121954315Y-78889889D01*
X121948288Y-78887206D01*
X121835721Y-78863279D01*
X121767944Y-78848872D01*
X121767939Y-78848872D01*
X121761487Y-78847500D01*
X121570513Y-78847500D01*
X121564061Y-78848872D01*
X121564056Y-78848872D01*
X121496279Y-78863279D01*
X121383712Y-78887206D01*
X121377682Y-78889891D01*
X121377681Y-78889891D01*
X121215278Y-78962197D01*
X121215276Y-78962198D01*
X121209248Y-78964882D01*
X121203907Y-78968762D01*
X121203906Y-78968763D01*
X121177707Y-78987798D01*
X121054747Y-79077134D01*
X121050326Y-79082044D01*
X121050325Y-79082045D01*
X120952937Y-79190206D01*
X120926960Y-79219056D01*
X120910249Y-79248000D01*
X120846152Y-79359020D01*
X120831473Y-79384444D01*
X120772458Y-79566072D01*
X120771768Y-79572633D01*
X120771768Y-79572635D01*
X120766864Y-79619292D01*
X120752496Y-79756000D01*
X120753186Y-79762565D01*
X120771398Y-79935839D01*
X120772458Y-79945928D01*
X120831473Y-80127556D01*
X120834776Y-80133278D01*
X120834777Y-80133279D01*
X120847392Y-80155128D01*
X120926960Y-80292944D01*
X120931378Y-80297851D01*
X120931379Y-80297852D01*
X121050325Y-80429955D01*
X121054747Y-80434866D01*
X121209248Y-80547118D01*
X121215276Y-80549802D01*
X121215278Y-80549803D01*
X121287756Y-80582072D01*
X121383712Y-80624794D01*
X121419526Y-80632407D01*
X121421805Y-80632891D01*
X121484279Y-80666620D01*
X121518600Y-80728769D01*
X121513872Y-80799608D01*
X121471596Y-80856646D01*
X121405195Y-80881773D01*
X121395608Y-80882138D01*
X118947418Y-80882138D01*
X118935562Y-80881579D01*
X118935559Y-80881579D01*
X118927825Y-80879850D01*
X118856993Y-80882076D01*
X118853035Y-80882138D01*
X118823930Y-80882138D01*
X118819530Y-80882694D01*
X118807698Y-80883626D01*
X118761531Y-80885076D01*
X118740941Y-80891058D01*
X118721580Y-80895068D01*
X118714592Y-80895950D01*
X118708158Y-80896763D01*
X118708157Y-80896763D01*
X118700298Y-80897756D01*
X118692933Y-80900672D01*
X118692929Y-80900673D01*
X118657344Y-80914762D01*
X118646114Y-80918607D01*
X118601761Y-80931493D01*
X118594937Y-80935529D01*
X118583305Y-80942408D01*
X118565549Y-80951107D01*
X118545606Y-80959003D01*
X118527789Y-80971948D01*
X118508230Y-80986158D01*
X118498311Y-80992673D01*
X118465385Y-81012146D01*
X118465381Y-81012149D01*
X118458555Y-81016186D01*
X118443394Y-81031347D01*
X118428362Y-81044186D01*
X118411005Y-81056797D01*
X118383279Y-81090313D01*
X118381560Y-81092390D01*
X118373570Y-81101171D01*
X117448391Y-82026349D01*
X117439612Y-82034337D01*
X117432920Y-82038584D01*
X117427495Y-82044361D01*
X117384395Y-82090258D01*
X117381640Y-82093100D01*
X117361073Y-82113667D01*
X117358356Y-82117170D01*
X117350648Y-82126195D01*
X117319028Y-82159867D01*
X117315207Y-82166818D01*
X117315206Y-82166819D01*
X117308697Y-82178658D01*
X117297843Y-82195182D01*
X117294775Y-82199138D01*
X117284696Y-82212132D01*
X117281549Y-82219404D01*
X117281548Y-82219406D01*
X117266346Y-82254535D01*
X117261124Y-82265195D01*
X117238876Y-82305663D01*
X117233541Y-82326441D01*
X117227142Y-82345131D01*
X117218620Y-82364824D01*
X117217380Y-82372655D01*
X117211394Y-82410448D01*
X117208987Y-82422071D01*
X117197500Y-82466812D01*
X117197500Y-82488259D01*
X117195949Y-82507969D01*
X117192594Y-82529152D01*
X117193340Y-82537043D01*
X117196941Y-82575138D01*
X117197500Y-82586996D01*
X117197500Y-88479241D01*
X117177498Y-88547362D01*
X117165136Y-88563551D01*
X117116960Y-88617056D01*
X117021473Y-88782444D01*
X116962458Y-88964072D01*
X116942496Y-89154000D01*
X116962458Y-89343928D01*
X117021473Y-89525556D01*
X117024776Y-89531278D01*
X117024777Y-89531279D01*
X117052252Y-89578866D01*
X117116960Y-89690944D01*
X117121378Y-89695851D01*
X117121379Y-89695852D01*
X117203280Y-89786812D01*
X117244747Y-89832866D01*
X117399248Y-89945118D01*
X117405276Y-89947802D01*
X117405278Y-89947803D01*
X117564811Y-90018831D01*
X117573712Y-90022794D01*
X117667113Y-90042647D01*
X117754056Y-90061128D01*
X117754061Y-90061128D01*
X117760513Y-90062500D01*
X117951487Y-90062500D01*
X117957940Y-90061128D01*
X117957953Y-90061127D01*
X118121495Y-90026364D01*
X118192285Y-90031765D01*
X118241328Y-90065300D01*
X118256322Y-90081953D01*
X118256329Y-90081959D01*
X118260747Y-90086866D01*
X118266089Y-90090747D01*
X118266091Y-90090749D01*
X118391094Y-90181569D01*
X118415248Y-90199118D01*
X118421276Y-90201802D01*
X118421278Y-90201803D01*
X118458819Y-90218517D01*
X118589712Y-90276794D01*
X118590183Y-90276894D01*
X118646915Y-90315685D01*
X118674552Y-90381081D01*
X118662447Y-90451038D01*
X118624939Y-90496272D01*
X118524276Y-90571715D01*
X118511715Y-90584276D01*
X118435214Y-90686351D01*
X118426676Y-90701946D01*
X118381522Y-90822394D01*
X118377895Y-90837649D01*
X118372369Y-90888514D01*
X118372000Y-90895328D01*
X118372000Y-91167885D01*
X118376475Y-91183124D01*
X118377865Y-91184329D01*
X118385548Y-91186000D01*
X119107885Y-91186000D01*
X119123124Y-91181525D01*
X119124329Y-91180135D01*
X119126000Y-91172452D01*
X119126000Y-90450116D01*
X119115319Y-90413740D01*
X119115319Y-90342744D01*
X119153703Y-90283017D01*
X119184967Y-90263135D01*
X119322719Y-90201805D01*
X119322726Y-90201801D01*
X119328752Y-90199118D01*
X119368567Y-90170191D01*
X119384883Y-90158336D01*
X119483253Y-90086866D01*
X119506428Y-90061128D01*
X119606621Y-89949852D01*
X119606622Y-89949851D01*
X119611040Y-89944944D01*
X119697866Y-89794558D01*
X119703223Y-89785279D01*
X119703224Y-89785278D01*
X119706527Y-89779556D01*
X119745667Y-89659096D01*
X119785741Y-89600490D01*
X119851137Y-89572853D01*
X119921094Y-89584960D01*
X119973400Y-89632966D01*
X119991500Y-89698032D01*
X119991500Y-90306000D01*
X119971498Y-90374121D01*
X119917842Y-90420614D01*
X119865500Y-90432000D01*
X119652115Y-90432000D01*
X119636876Y-90436475D01*
X119635671Y-90437865D01*
X119634000Y-90445548D01*
X119634000Y-91568000D01*
X119613998Y-91636121D01*
X119560342Y-91682614D01*
X119508000Y-91694000D01*
X118390116Y-91694000D01*
X118374877Y-91698475D01*
X118373672Y-91699865D01*
X118372001Y-91707548D01*
X118372001Y-91984669D01*
X118372371Y-91991490D01*
X118377895Y-92042352D01*
X118381521Y-92057604D01*
X118426676Y-92178054D01*
X118435211Y-92193644D01*
X118507377Y-92289935D01*
X118532224Y-92356442D01*
X118517171Y-92425824D01*
X118466996Y-92476054D01*
X118406550Y-92491500D01*
X90634500Y-92491500D01*
X90566379Y-92471498D01*
X90519886Y-92417842D01*
X90508500Y-92365500D01*
X90508500Y-90932000D01*
X107036496Y-90932000D01*
X107037186Y-90938565D01*
X107048750Y-91048586D01*
X107056458Y-91121928D01*
X107115473Y-91303556D01*
X107210960Y-91468944D01*
X107338747Y-91610866D01*
X107425640Y-91673998D01*
X107476831Y-91711190D01*
X107493248Y-91723118D01*
X107499276Y-91725802D01*
X107499278Y-91725803D01*
X107661681Y-91798109D01*
X107667712Y-91800794D01*
X107761112Y-91820647D01*
X107848056Y-91839128D01*
X107848061Y-91839128D01*
X107854513Y-91840500D01*
X108045487Y-91840500D01*
X108051939Y-91839128D01*
X108051944Y-91839128D01*
X108138887Y-91820647D01*
X108232288Y-91800794D01*
X108238319Y-91798109D01*
X108400722Y-91725803D01*
X108400724Y-91725802D01*
X108406752Y-91723118D01*
X108423170Y-91711190D01*
X108548210Y-91620342D01*
X108556163Y-91614564D01*
X108623031Y-91590706D01*
X108630224Y-91590500D01*
X113619776Y-91590500D01*
X113687897Y-91610502D01*
X113693834Y-91614562D01*
X113701790Y-91620342D01*
X113826831Y-91711190D01*
X113843248Y-91723118D01*
X113849276Y-91725802D01*
X113849278Y-91725803D01*
X114011681Y-91798109D01*
X114017712Y-91800794D01*
X114111112Y-91820647D01*
X114198056Y-91839128D01*
X114198061Y-91839128D01*
X114204513Y-91840500D01*
X114395487Y-91840500D01*
X114401939Y-91839128D01*
X114401944Y-91839128D01*
X114488887Y-91820647D01*
X114582288Y-91800794D01*
X114588319Y-91798109D01*
X114750722Y-91725803D01*
X114750724Y-91725802D01*
X114756752Y-91723118D01*
X114773170Y-91711190D01*
X114824360Y-91673998D01*
X114911253Y-91610866D01*
X115039040Y-91468944D01*
X115134527Y-91303556D01*
X115193542Y-91121928D01*
X115201251Y-91048586D01*
X115212814Y-90938565D01*
X115213504Y-90932000D01*
X115209309Y-90892086D01*
X115194232Y-90748635D01*
X115194232Y-90748633D01*
X115193542Y-90742072D01*
X115171861Y-90675345D01*
X115136797Y-90567429D01*
X115134769Y-90496462D01*
X115171432Y-90435664D01*
X115235144Y-90404338D01*
X115305678Y-90412431D01*
X115330690Y-90426557D01*
X115367248Y-90453118D01*
X115373276Y-90455802D01*
X115373278Y-90455803D01*
X115533983Y-90527353D01*
X115541712Y-90530794D01*
X115635113Y-90550647D01*
X115722056Y-90569128D01*
X115722061Y-90569128D01*
X115728513Y-90570500D01*
X115919487Y-90570500D01*
X115925939Y-90569128D01*
X115925944Y-90569128D01*
X116012887Y-90550647D01*
X116106288Y-90530794D01*
X116114017Y-90527353D01*
X116274722Y-90455803D01*
X116274724Y-90455802D01*
X116280752Y-90453118D01*
X116286228Y-90449140D01*
X116379902Y-90381081D01*
X116435253Y-90340866D01*
X116459826Y-90313575D01*
X116558621Y-90203852D01*
X116558622Y-90203851D01*
X116563040Y-90198944D01*
X116658527Y-90033556D01*
X116717542Y-89851928D01*
X116719138Y-89836749D01*
X116736814Y-89668565D01*
X116737504Y-89662000D01*
X116729407Y-89584960D01*
X116718232Y-89478635D01*
X116718232Y-89478633D01*
X116717542Y-89472072D01*
X116658527Y-89290444D01*
X116563040Y-89125056D01*
X116514864Y-89071551D01*
X116484146Y-89007544D01*
X116482500Y-88987241D01*
X116482500Y-81534259D01*
X116502502Y-81466138D01*
X116514864Y-81449949D01*
X116558621Y-81401352D01*
X116558622Y-81401351D01*
X116563040Y-81396444D01*
X116631910Y-81277158D01*
X116655223Y-81236779D01*
X116655224Y-81236778D01*
X116658527Y-81231056D01*
X116717542Y-81049428D01*
X116719443Y-81031347D01*
X116736814Y-80866065D01*
X116737504Y-80859500D01*
X116731209Y-80799608D01*
X116718232Y-80676135D01*
X116718232Y-80676133D01*
X116717542Y-80669572D01*
X116658527Y-80487944D01*
X116563040Y-80322556D01*
X116540797Y-80297852D01*
X116439675Y-80185545D01*
X116439674Y-80185544D01*
X116435253Y-80180634D01*
X116326683Y-80101753D01*
X116286094Y-80072263D01*
X116286093Y-80072262D01*
X116280752Y-80068382D01*
X116274724Y-80065698D01*
X116274722Y-80065697D01*
X116112319Y-79993391D01*
X116112318Y-79993391D01*
X116106288Y-79990706D01*
X116005760Y-79969338D01*
X115925944Y-79952372D01*
X115925939Y-79952372D01*
X115919487Y-79951000D01*
X115821500Y-79951000D01*
X115753379Y-79930998D01*
X115706886Y-79877342D01*
X115695500Y-79825000D01*
X115695500Y-78680524D01*
X115715502Y-78612403D01*
X115727858Y-78596221D01*
X115801040Y-78514944D01*
X115880201Y-78377834D01*
X115893223Y-78355279D01*
X115893224Y-78355278D01*
X115896527Y-78349556D01*
X115955542Y-78167928D01*
X115960177Y-78123834D01*
X115974814Y-77984565D01*
X115975504Y-77978000D01*
X115971947Y-77944153D01*
X115956232Y-77794635D01*
X115956232Y-77794633D01*
X115955542Y-77788072D01*
X115896527Y-77606444D01*
X115893038Y-77600400D01*
X115840881Y-77510062D01*
X115801040Y-77441056D01*
X115780859Y-77418642D01*
X115677675Y-77304045D01*
X115677674Y-77304044D01*
X115673253Y-77299134D01*
X115518752Y-77186882D01*
X115512724Y-77184198D01*
X115512722Y-77184197D01*
X115350319Y-77111891D01*
X115350318Y-77111891D01*
X115344288Y-77109206D01*
X115223300Y-77083489D01*
X115163944Y-77070872D01*
X115163939Y-77070872D01*
X115157487Y-77069500D01*
X114966513Y-77069500D01*
X114960061Y-77070872D01*
X114960056Y-77070872D01*
X114900700Y-77083489D01*
X114779712Y-77109206D01*
X114773682Y-77111891D01*
X114773681Y-77111891D01*
X114611278Y-77184197D01*
X114611276Y-77184198D01*
X114605248Y-77186882D01*
X114450747Y-77299134D01*
X114446326Y-77304044D01*
X114446325Y-77304045D01*
X114343142Y-77418642D01*
X114322960Y-77441056D01*
X114283119Y-77510062D01*
X114230963Y-77600400D01*
X114227473Y-77606444D01*
X114168458Y-77788072D01*
X114167768Y-77794633D01*
X114167768Y-77794635D01*
X114152053Y-77944153D01*
X114148496Y-77978000D01*
X114149186Y-77984565D01*
X114163824Y-78123834D01*
X114168458Y-78167928D01*
X114227473Y-78349556D01*
X114230776Y-78355278D01*
X114230777Y-78355279D01*
X114243799Y-78377834D01*
X114322960Y-78514944D01*
X114396137Y-78596215D01*
X114426853Y-78660221D01*
X114428500Y-78680524D01*
X114428500Y-83117476D01*
X114408498Y-83185597D01*
X114396142Y-83201779D01*
X114322960Y-83283056D01*
X114227473Y-83448444D01*
X114168458Y-83630072D01*
X114167768Y-83636633D01*
X114167768Y-83636635D01*
X114156138Y-83747287D01*
X114148496Y-83820000D01*
X114149186Y-83826565D01*
X114156826Y-83899251D01*
X114168458Y-84009928D01*
X114227473Y-84191556D01*
X114322960Y-84356944D01*
X114327378Y-84361851D01*
X114327379Y-84361852D01*
X114393692Y-84435500D01*
X114450747Y-84498866D01*
X114463107Y-84507846D01*
X114574207Y-84588565D01*
X114605248Y-84611118D01*
X114611276Y-84613802D01*
X114611278Y-84613803D01*
X114773681Y-84686109D01*
X114779712Y-84688794D01*
X114873113Y-84708647D01*
X114960056Y-84727128D01*
X114960061Y-84727128D01*
X114966513Y-84728500D01*
X115039500Y-84728500D01*
X115107621Y-84748502D01*
X115154114Y-84802158D01*
X115165500Y-84854500D01*
X115165500Y-88987241D01*
X115145498Y-89055362D01*
X115133136Y-89071551D01*
X115084960Y-89125056D01*
X114989473Y-89290444D01*
X114930458Y-89472072D01*
X114929768Y-89478633D01*
X114929768Y-89478635D01*
X114918593Y-89584960D01*
X114910496Y-89662000D01*
X114911186Y-89668565D01*
X114928863Y-89836749D01*
X114930458Y-89851928D01*
X114946047Y-89899907D01*
X114987203Y-90026571D01*
X114989231Y-90097538D01*
X114952568Y-90158336D01*
X114888856Y-90189662D01*
X114818322Y-90181569D01*
X114793310Y-90167443D01*
X114756752Y-90140882D01*
X114750724Y-90138198D01*
X114750722Y-90138197D01*
X114588319Y-90065891D01*
X114588318Y-90065891D01*
X114582288Y-90063206D01*
X114469721Y-90039279D01*
X114401944Y-90024872D01*
X114401939Y-90024872D01*
X114395487Y-90023500D01*
X114204513Y-90023500D01*
X114198061Y-90024872D01*
X114198056Y-90024872D01*
X114130279Y-90039279D01*
X114017712Y-90063206D01*
X114011682Y-90065891D01*
X114011681Y-90065891D01*
X113849278Y-90138197D01*
X113849276Y-90138198D01*
X113843248Y-90140882D01*
X113694092Y-90249251D01*
X113693837Y-90249436D01*
X113626969Y-90273294D01*
X113619776Y-90273500D01*
X108630224Y-90273500D01*
X108562103Y-90253498D01*
X108556163Y-90249436D01*
X108555909Y-90249251D01*
X108406752Y-90140882D01*
X108400724Y-90138198D01*
X108400722Y-90138197D01*
X108238319Y-90065891D01*
X108238318Y-90065891D01*
X108232288Y-90063206D01*
X108119721Y-90039279D01*
X108051944Y-90024872D01*
X108051939Y-90024872D01*
X108045487Y-90023500D01*
X107854513Y-90023500D01*
X107848061Y-90024872D01*
X107848056Y-90024872D01*
X107780279Y-90039279D01*
X107667712Y-90063206D01*
X107661682Y-90065891D01*
X107661681Y-90065891D01*
X107499278Y-90138197D01*
X107499276Y-90138198D01*
X107493248Y-90140882D01*
X107338747Y-90253134D01*
X107334326Y-90258044D01*
X107334325Y-90258045D01*
X107224019Y-90380553D01*
X107210960Y-90395056D01*
X107179735Y-90449140D01*
X107128745Y-90537457D01*
X107115473Y-90560444D01*
X107056458Y-90742072D01*
X107055768Y-90748633D01*
X107055768Y-90748635D01*
X107040691Y-90892086D01*
X107036496Y-90932000D01*
X90508500Y-90932000D01*
X90508500Y-89167966D01*
X95188257Y-89167966D01*
X95218565Y-89302446D01*
X95221645Y-89312275D01*
X95301770Y-89509603D01*
X95306413Y-89518794D01*
X95417694Y-89700388D01*
X95423777Y-89708699D01*
X95563213Y-89869667D01*
X95570580Y-89876883D01*
X95734434Y-90012916D01*
X95742881Y-90018831D01*
X95926756Y-90126279D01*
X95936042Y-90130729D01*
X96135001Y-90206703D01*
X96144899Y-90209579D01*
X96248250Y-90230606D01*
X96262299Y-90229410D01*
X96266000Y-90219065D01*
X96266000Y-90218517D01*
X96774000Y-90218517D01*
X96778064Y-90232359D01*
X96791478Y-90234393D01*
X96798184Y-90233534D01*
X96808262Y-90231392D01*
X97012255Y-90170191D01*
X97021842Y-90166433D01*
X97213095Y-90072739D01*
X97221945Y-90067464D01*
X97395328Y-89943792D01*
X97403200Y-89937139D01*
X97554052Y-89786812D01*
X97560730Y-89778965D01*
X97685003Y-89606020D01*
X97690313Y-89597183D01*
X97784670Y-89406267D01*
X97788469Y-89396672D01*
X97850377Y-89192910D01*
X97852555Y-89182837D01*
X97853986Y-89171962D01*
X97851775Y-89157778D01*
X97838617Y-89154000D01*
X96792115Y-89154000D01*
X96776876Y-89158475D01*
X96775671Y-89159865D01*
X96774000Y-89167548D01*
X96774000Y-90218517D01*
X96266000Y-90218517D01*
X96266000Y-89172115D01*
X96261525Y-89156876D01*
X96260135Y-89155671D01*
X96252452Y-89154000D01*
X95203225Y-89154000D01*
X95189694Y-89157973D01*
X95188257Y-89167966D01*
X90508500Y-89167966D01*
X90508500Y-87258134D01*
X95161500Y-87258134D01*
X95168255Y-87320316D01*
X95219385Y-87456705D01*
X95306739Y-87573261D01*
X95423295Y-87660615D01*
X95431704Y-87663767D01*
X95431705Y-87663768D01*
X95540960Y-87704726D01*
X95597725Y-87747367D01*
X95622425Y-87813929D01*
X95607218Y-87883278D01*
X95587825Y-87909759D01*
X95464590Y-88038717D01*
X95458104Y-88046727D01*
X95338098Y-88222649D01*
X95333000Y-88231623D01*
X95243338Y-88424783D01*
X95239775Y-88434470D01*
X95184389Y-88634183D01*
X95185912Y-88642607D01*
X95198292Y-88646000D01*
X97838344Y-88646000D01*
X97851875Y-88642027D01*
X97853180Y-88632947D01*
X97811214Y-88465875D01*
X97807894Y-88456124D01*
X97722972Y-88260814D01*
X97718105Y-88251739D01*
X97602426Y-88072926D01*
X97596136Y-88064757D01*
X97452293Y-87906677D01*
X97421241Y-87842831D01*
X97429635Y-87772333D01*
X97474812Y-87717564D01*
X97501256Y-87703895D01*
X97608297Y-87663767D01*
X97616705Y-87660615D01*
X97733261Y-87573261D01*
X97820615Y-87456705D01*
X97871745Y-87320316D01*
X97878500Y-87258134D01*
X97878500Y-85461866D01*
X97871745Y-85399684D01*
X97820615Y-85263295D01*
X97733261Y-85146739D01*
X97616705Y-85059385D01*
X97480316Y-85008255D01*
X97418134Y-85001500D01*
X95621866Y-85001500D01*
X95559684Y-85008255D01*
X95423295Y-85059385D01*
X95306739Y-85146739D01*
X95219385Y-85263295D01*
X95168255Y-85399684D01*
X95161500Y-85461866D01*
X95161500Y-87258134D01*
X90508500Y-87258134D01*
X90508500Y-76546485D01*
X91836854Y-76546485D01*
X91837156Y-76550320D01*
X91860517Y-76847145D01*
X91862370Y-76870695D01*
X91927206Y-77189378D01*
X92030398Y-77497784D01*
X92032052Y-77501253D01*
X92032053Y-77501254D01*
X92074198Y-77589612D01*
X92170405Y-77791316D01*
X92172467Y-77794553D01*
X92172470Y-77794558D01*
X92217851Y-77865791D01*
X92345141Y-78065597D01*
X92347584Y-78068560D01*
X92347585Y-78068562D01*
X92547643Y-78311251D01*
X92552001Y-78316538D01*
X92787902Y-78540399D01*
X93049326Y-78733843D01*
X93124722Y-78776500D01*
X93329019Y-78892086D01*
X93329023Y-78892088D01*
X93332376Y-78893985D01*
X93335937Y-78895460D01*
X93335939Y-78895461D01*
X93406159Y-78924547D01*
X93632832Y-79018438D01*
X93685424Y-79033023D01*
X93942500Y-79104317D01*
X93942508Y-79104319D01*
X93946216Y-79105347D01*
X94267856Y-79153416D01*
X94271154Y-79153560D01*
X94382918Y-79158440D01*
X94382922Y-79158440D01*
X94384294Y-79158500D01*
X94582598Y-79158500D01*
X94824605Y-79143698D01*
X94828388Y-79142997D01*
X94828395Y-79142996D01*
X95028459Y-79105916D01*
X95144372Y-79084433D01*
X95357526Y-79017226D01*
X95450860Y-78987798D01*
X95450863Y-78987797D01*
X95454532Y-78986640D01*
X95458029Y-78985046D01*
X95458035Y-78985044D01*
X95746954Y-78853376D01*
X95746958Y-78853374D01*
X95750462Y-78851777D01*
X95755203Y-78848872D01*
X96024473Y-78683863D01*
X96024476Y-78683861D01*
X96027751Y-78681854D01*
X96030755Y-78679464D01*
X96030760Y-78679461D01*
X96174341Y-78565251D01*
X96282264Y-78479405D01*
X96284958Y-78476664D01*
X96284962Y-78476660D01*
X96507513Y-78250190D01*
X96507517Y-78250185D01*
X96510208Y-78247447D01*
X96652236Y-78062353D01*
X96705835Y-77992502D01*
X96705837Y-77992498D01*
X96708185Y-77989439D01*
X96832777Y-77777923D01*
X96871289Y-77712543D01*
X96871291Y-77712540D01*
X96873242Y-77709227D01*
X97002920Y-77410988D01*
X97004941Y-77404167D01*
X97067483Y-77193027D01*
X97095285Y-77099169D01*
X97148961Y-76778417D01*
X97163146Y-76453515D01*
X97145314Y-76226934D01*
X97137932Y-76133140D01*
X97137932Y-76133137D01*
X97137630Y-76129305D01*
X97072794Y-75810622D01*
X96969602Y-75502216D01*
X96829595Y-75208684D01*
X96826007Y-75203051D01*
X96724121Y-75043123D01*
X96654859Y-74934403D01*
X96626922Y-74900513D01*
X96450442Y-74686425D01*
X96450438Y-74686420D01*
X96447999Y-74683462D01*
X96212098Y-74459601D01*
X95950674Y-74266157D01*
X95759304Y-74157885D01*
X95670981Y-74107914D01*
X95670977Y-74107912D01*
X95667624Y-74106015D01*
X95661490Y-74103474D01*
X95441139Y-74012202D01*
X95367168Y-73981562D01*
X95246522Y-73948104D01*
X95057500Y-73895683D01*
X95057492Y-73895681D01*
X95053784Y-73894653D01*
X94732144Y-73846584D01*
X94728846Y-73846440D01*
X94617082Y-73841560D01*
X94617078Y-73841560D01*
X94615706Y-73841500D01*
X94417402Y-73841500D01*
X94175395Y-73856302D01*
X94171612Y-73857003D01*
X94171605Y-73857004D01*
X94015511Y-73885935D01*
X93855628Y-73915567D01*
X93671058Y-73973762D01*
X93549140Y-74012202D01*
X93549137Y-74012203D01*
X93545468Y-74013360D01*
X93541971Y-74014954D01*
X93541965Y-74014956D01*
X93253046Y-74146624D01*
X93253042Y-74146626D01*
X93249538Y-74148223D01*
X93246259Y-74150233D01*
X93246256Y-74150234D01*
X93018455Y-74289831D01*
X92972249Y-74318146D01*
X92969245Y-74320536D01*
X92969240Y-74320539D01*
X92899954Y-74375652D01*
X92717736Y-74520595D01*
X92715042Y-74523336D01*
X92715038Y-74523340D01*
X92492487Y-74749810D01*
X92492483Y-74749815D01*
X92489792Y-74752553D01*
X92390735Y-74881646D01*
X92327721Y-74963768D01*
X92291815Y-75010561D01*
X92214014Y-75142642D01*
X92133887Y-75278671D01*
X92126758Y-75290773D01*
X91997080Y-75589012D01*
X91995986Y-75592706D01*
X91995984Y-75592711D01*
X91992759Y-75603598D01*
X91904715Y-75900831D01*
X91851039Y-76221583D01*
X91836854Y-76546485D01*
X90508500Y-76546485D01*
X90508500Y-72634500D01*
X90528502Y-72566379D01*
X90582158Y-72519886D01*
X90634500Y-72508500D01*
X145858128Y-72508500D01*
X145926249Y-72528502D01*
G37*
G04 #@! TD.AperFunction*
G04 #@! TA.AperFunction,Conductor*
G36*
X123267338Y-76874678D02*
G01*
X123295166Y-76906511D01*
X123352694Y-77000388D01*
X123358772Y-77008692D01*
X123385267Y-77039279D01*
X123414749Y-77103865D01*
X123404634Y-77174137D01*
X123358132Y-77227785D01*
X123290029Y-77247776D01*
X123080741Y-77247776D01*
X123012620Y-77227774D01*
X122966127Y-77174118D01*
X122956023Y-77103844D01*
X122978418Y-77048250D01*
X123083453Y-76902077D01*
X123084640Y-76902930D01*
X123131960Y-76859362D01*
X123201897Y-76847145D01*
X123267338Y-76874678D01*
G37*
G04 #@! TD.AperFunction*
M02*
