G04 #@! TF.GenerationSoftware,KiCad,Pcbnew,(6.0.6)*
G04 #@! TF.CreationDate,2023-04-02T13:24:19+02:00*
G04 #@! TF.ProjectId,LampeSolairePetite,4c616d70-6553-46f6-9c61-697265506574,R00*
G04 #@! TF.SameCoordinates,PX5f5e100PY5cfbb60*
G04 #@! TF.FileFunction,Soldermask,Top*
G04 #@! TF.FilePolarity,Negative*
%FSLAX46Y46*%
G04 Gerber Fmt 4.6, Leading zero omitted, Abs format (unit mm)*
G04 Created by KiCad (PCBNEW (6.0.6)) date 2023-04-02 13:24:19*
%MOMM*%
%LPD*%
G01*
G04 APERTURE LIST*
G04 Aperture macros list*
%AMRoundRect*
0 Rectangle with rounded corners*
0 $1 Rounding radius*
0 $2 $3 $4 $5 $6 $7 $8 $9 X,Y pos of 4 corners*
0 Add a 4 corners polygon primitive as box body*
4,1,4,$2,$3,$4,$5,$6,$7,$8,$9,$2,$3,0*
0 Add four circle primitives for the rounded corners*
1,1,$1+$1,$2,$3*
1,1,$1+$1,$4,$5*
1,1,$1+$1,$6,$7*
1,1,$1+$1,$8,$9*
0 Add four rect primitives between the rounded corners*
20,1,$1+$1,$2,$3,$4,$5,0*
20,1,$1+$1,$4,$5,$6,$7,0*
20,1,$1+$1,$6,$7,$8,$9,0*
20,1,$1+$1,$8,$9,$2,$3,0*%
%AMFreePoly0*
4,1,6,0.525000,-0.475000,-1.015000,-0.475000,-0.525000,0.000000,-1.025000,0.475000,0.525000,0.475000,0.525000,-0.475000,0.525000,-0.475000,$1*%
%AMFreePoly1*
4,1,6,1.025000,0.000000,0.525000,-0.475000,-0.525000,-0.475000,-0.525000,0.475000,0.525000,0.475000,1.025000,0.000000,1.025000,0.000000,$1*%
%AMFreePoly2*
4,1,6,0.587500,-0.725000,-0.587500,-0.725000,-1.287500,0.000000,-0.587500,0.725000,0.587500,0.725000,0.587500,-0.725000,0.587500,-0.725000,$1*%
%AMFreePoly3*
4,1,6,0.587500,0.000000,1.287500,-0.725000,-0.587500,-0.725000,-0.587500,0.725000,1.287500,0.725000,0.587500,0.000000,0.587500,0.000000,$1*%
G04 Aperture macros list end*
%ADD10R,1.700000X1.700000*%
%ADD11O,1.700000X1.700000*%
%ADD12RoundRect,0.250000X-0.450000X0.350000X-0.450000X-0.350000X0.450000X-0.350000X0.450000X0.350000X0*%
%ADD13FreePoly0,90.000000*%
%ADD14FreePoly1,90.000000*%
%ADD15FreePoly2,90.000000*%
%ADD16FreePoly3,90.000000*%
%ADD17RoundRect,0.125000X-0.825000X-0.125000X0.825000X-0.125000X0.825000X0.125000X-0.825000X0.125000X0*%
%ADD18R,1.560000X0.650000*%
%ADD19RoundRect,0.250000X0.350000X0.450000X-0.350000X0.450000X-0.350000X-0.450000X0.350000X-0.450000X0*%
%ADD20R,1.000000X1.000000*%
%ADD21O,1.000000X1.000000*%
G04 APERTURE END LIST*
D10*
X47320000Y23840000D03*
D11*
X47320000Y21300000D03*
X47320000Y18760000D03*
X47320000Y16220000D03*
D12*
X39700000Y16490000D03*
X39700000Y18490000D03*
D11*
X19375000Y21300000D03*
X21915000Y21300000D03*
X24455000Y21300000D03*
X26995000Y21300000D03*
D10*
X29535000Y21300000D03*
D13*
X11760000Y9475000D03*
D14*
X11760000Y7725000D03*
D13*
X9855000Y9475000D03*
D14*
X9855000Y7725000D03*
D13*
X7950000Y9475000D03*
D14*
X7950000Y7725000D03*
X6045000Y7725000D03*
D13*
X6045000Y9475000D03*
D15*
X13538000Y19565000D03*
D16*
X13538000Y17490000D03*
D17*
X27960000Y16605000D03*
X27960000Y15955000D03*
X27960000Y15305000D03*
X27960000Y14655000D03*
X27960000Y14005000D03*
X27960000Y13355000D03*
X27960000Y12705000D03*
X27960000Y12055000D03*
X27960000Y11405000D03*
X27960000Y10755000D03*
X20960000Y10755000D03*
X20960000Y11405000D03*
X20960000Y12055000D03*
X20960000Y12705000D03*
X20960000Y13355000D03*
X20960000Y14005000D03*
X20960000Y14655000D03*
X20960000Y15305000D03*
X20960000Y15955000D03*
X20960000Y16605000D03*
D18*
X7743000Y19477500D03*
X7743000Y18527500D03*
X7743000Y17577500D03*
X10443000Y17577500D03*
X10443000Y19477500D03*
D19*
X39716000Y20538000D03*
X41716000Y20538000D03*
D12*
X34366000Y11410000D03*
X34366000Y13410000D03*
X34366000Y15220000D03*
X34366000Y17220000D03*
X12014000Y11664000D03*
X12014000Y13664000D03*
X4013000Y17527500D03*
X4013000Y19527500D03*
X9982000Y11664000D03*
X9982000Y13664000D03*
X7950000Y13664000D03*
X7950000Y11664000D03*
X5918000Y11664000D03*
X5918000Y13664000D03*
D20*
X19380000Y6060000D03*
D21*
X20650000Y6060000D03*
X21920000Y6060000D03*
X23190000Y6060000D03*
X24460000Y6060000D03*
X25730000Y6060000D03*
X27000000Y6060000D03*
X28270000Y6060000D03*
X29540000Y6060000D03*
X30810000Y6060000D03*
X32080000Y6060000D03*
X33350000Y6060000D03*
D11*
X-3480000Y13680000D03*
D10*
X-3480000Y16220000D03*
M02*
