G04 #@! TF.GenerationSoftware,KiCad,Pcbnew,(5.1.6)-1*
G04 #@! TF.CreationDate,2020-10-13T20:36:20+02:00*
G04 #@! TF.ProjectId,LampeSolaire2,4c616d70-6553-46f6-9c61-697265322e6b,R00*
G04 #@! TF.SameCoordinates,PX5f5e100PY5cfbb60*
G04 #@! TF.FileFunction,Soldermask,Bot*
G04 #@! TF.FilePolarity,Negative*
%FSLAX46Y46*%
G04 Gerber Fmt 4.6, Leading zero omitted, Abs format (unit mm)*
G04 Created by KiCad (PCBNEW (5.1.6)-1) date 2020-10-13 20:36:20*
%MOMM*%
%LPD*%
G01*
G04 APERTURE LIST*
%ADD10C,2.000000*%
%ADD11C,5.600000*%
%ADD12R,1.350000X1.600000*%
%ADD13R,1.800000X1.800000*%
%ADD14O,1.800000X1.800000*%
%ADD15R,1.500000X1.100000*%
%ADD16R,1.850000X0.550000*%
%ADD17R,3.500000X1.600000*%
G04 APERTURE END LIST*
D10*
X35770000Y-3500000D03*
X33230000Y-3500000D03*
D11*
X94000000Y-10000000D03*
X6000000Y-10000000D03*
D10*
X62420000Y-15500000D03*
X64960000Y-15500000D03*
X67500000Y-15500000D03*
X75120000Y-15500000D03*
X72580000Y-15500000D03*
X70040000Y-15500000D03*
X59880000Y-15500000D03*
D12*
X40000000Y-7250000D03*
X40000000Y-4750000D03*
D13*
X28000000Y-15500000D03*
D14*
X30540000Y-15500000D03*
X33080000Y-15500000D03*
X35620000Y-15500000D03*
X38160000Y-15500000D03*
D15*
X17375000Y-5000000D03*
X19625000Y-5000000D03*
X17375000Y-11000000D03*
X19625000Y-11000000D03*
X17375000Y-13000000D03*
X19625000Y-13000000D03*
X17375000Y-9000000D03*
X19625000Y-9000000D03*
X17375000Y-7000000D03*
X19625000Y-7000000D03*
D16*
X45900000Y-13425000D03*
X45900000Y-12775000D03*
X45900000Y-12125000D03*
X45900000Y-11475000D03*
X45900000Y-10825000D03*
X45900000Y-10175000D03*
X45900000Y-9525000D03*
X45900000Y-8875000D03*
X45900000Y-8225000D03*
X45900000Y-7575000D03*
X53100000Y-7575000D03*
X53100000Y-8225000D03*
X53100000Y-8875000D03*
X53100000Y-9525000D03*
X53100000Y-10175000D03*
X53100000Y-10825000D03*
X53100000Y-11475000D03*
X53100000Y-12125000D03*
X53100000Y-12775000D03*
X53100000Y-13425000D03*
D17*
X29950000Y-7405000D03*
X29950000Y-4865000D03*
X25050000Y-6135000D03*
X25050000Y-3595000D03*
M02*
