%TF.GenerationSoftware,KiCad,Pcbnew,(6.0.6)*%
%TF.CreationDate,2023-04-07T17:46:17+02:00*%
%TF.ProjectId,LedDriver,4c656444-7269-4766-9572-2e6b69636164,rev?*%
%TF.SameCoordinates,Original*%
%TF.FileFunction,Copper,L1,Top*%
%TF.FilePolarity,Positive*%
%FSLAX46Y46*%
G04 Gerber Fmt 4.6, Leading zero omitted, Abs format (unit mm)*
G04 Created by KiCad (PCBNEW (6.0.6)) date 2023-04-07 17:46:17*
%MOMM*%
%LPD*%
G01*
G04 APERTURE LIST*
G04 Aperture macros list*
%AMRoundRect*
0 Rectangle with rounded corners*
0 $1 Rounding radius*
0 $2 $3 $4 $5 $6 $7 $8 $9 X,Y pos of 4 corners*
0 Add a 4 corners polygon primitive as box body*
4,1,4,$2,$3,$4,$5,$6,$7,$8,$9,$2,$3,0*
0 Add four circle primitives for the rounded corners*
1,1,$1+$1,$2,$3*
1,1,$1+$1,$4,$5*
1,1,$1+$1,$6,$7*
1,1,$1+$1,$8,$9*
0 Add four rect primitives between the rounded corners*
20,1,$1+$1,$2,$3,$4,$5,0*
20,1,$1+$1,$4,$5,$6,$7,0*
20,1,$1+$1,$6,$7,$8,$9,0*
20,1,$1+$1,$8,$9,$2,$3,0*%
%AMFreePoly0*
4,1,6,0.587500,0.000000,1.287500,-0.725000,-0.587500,-0.725000,-0.587500,0.725000,1.287500,0.725000,0.587500,0.000000,0.587500,0.000000,$1*%
%AMFreePoly1*
4,1,6,0.587500,-0.725000,-0.587500,-0.725000,-1.287500,0.000000,-0.587500,0.725000,0.587500,0.725000,0.587500,-0.725000,0.587500,-0.725000,$1*%
G04 Aperture macros list end*
%TA.AperFunction,ComponentPad*%
%ADD10R,1.700000X1.700000*%
%TD*%
%TA.AperFunction,ComponentPad*%
%ADD11O,1.700000X1.700000*%
%TD*%
%TA.AperFunction,ComponentPad*%
%ADD12C,1.700000*%
%TD*%
%TA.AperFunction,SMDPad,CuDef*%
%ADD13R,2.000000X0.650000*%
%TD*%
%TA.AperFunction,SMDPad,CuDef*%
%ADD14RoundRect,0.250000X-0.450000X0.350000X-0.450000X-0.350000X0.450000X-0.350000X0.450000X0.350000X0*%
%TD*%
%TA.AperFunction,SMDPad,CuDef*%
%ADD15RoundRect,0.250000X-0.350000X-0.450000X0.350000X-0.450000X0.350000X0.450000X-0.350000X0.450000X0*%
%TD*%
%TA.AperFunction,SMDPad,CuDef*%
%ADD16RoundRect,0.750000X-0.750000X-2.400000X0.750000X-2.400000X0.750000X2.400000X-0.750000X2.400000X0*%
%TD*%
%TA.AperFunction,SMDPad,CuDef*%
%ADD17FreePoly0,270.000000*%
%TD*%
%TA.AperFunction,SMDPad,CuDef*%
%ADD18FreePoly1,270.000000*%
%TD*%
%TA.AperFunction,SMDPad,CuDef*%
%ADD19FreePoly0,90.000000*%
%TD*%
%TA.AperFunction,SMDPad,CuDef*%
%ADD20FreePoly1,90.000000*%
%TD*%
%TA.AperFunction,ViaPad*%
%ADD21C,1.000000*%
%TD*%
%TA.AperFunction,ViaPad*%
%ADD22C,0.800000*%
%TD*%
%TA.AperFunction,Conductor*%
%ADD23C,0.500000*%
%TD*%
%TA.AperFunction,Conductor*%
%ADD24C,0.250000*%
%TD*%
G04 APERTURE END LIST*
D10*
%TO.P,D1,1,A*%
%TO.N,/Vout*%
X157480000Y-81280000D03*
X157480000Y-78740000D03*
D11*
%TO.P,D1,2,K*%
%TO.N,/Vfb*%
X161290000Y-81280000D03*
X161290000Y-78740000D03*
%TD*%
D12*
%TO.P,RV1,1,1*%
%TO.N,/Vfb*%
X157480000Y-88900000D03*
%TO.P,RV1,2,2*%
%TO.N,GND*%
X160020000Y-91440000D03*
%TO.P,RV1,3,3*%
%TO.N,unconnected-(RV1-Pad3)*%
X162560000Y-88900000D03*
%TD*%
D13*
%TO.P,U1,1,SW*%
%TO.N,Net-(L1-Pad2)*%
X145610000Y-86680000D03*
%TO.P,U1,2,GND*%
%TO.N,GND*%
X145610000Y-87630000D03*
%TO.P,U1,3,FB*%
%TO.N,/Vfb*%
X145610000Y-88580000D03*
%TO.P,U1,4,CTRL*%
%TO.N,/CTRL*%
X149030000Y-88580000D03*
%TO.P,U1,5,Vout*%
%TO.N,/Vout*%
X149030000Y-87630000D03*
%TO.P,U1,6,Vin*%
%TO.N,VCC*%
X149030000Y-86680000D03*
%TD*%
D14*
%TO.P,R3,1*%
%TO.N,/Vfb*%
X153670000Y-89805000D03*
%TO.P,R3,2*%
%TO.N,GND*%
X153670000Y-91805000D03*
%TD*%
D15*
%TO.P,R2,1*%
%TO.N,Net-(J1-Pad3)*%
X136160000Y-87630000D03*
%TO.P,R2,2*%
%TO.N,/CTRL*%
X138160000Y-87630000D03*
%TD*%
%TO.P,R1,2*%
%TO.N,/CTRL*%
X138160000Y-85090000D03*
%TO.P,R1,1*%
%TO.N,Net-(J1-Pad2)*%
X136160000Y-85090000D03*
%TD*%
D16*
%TO.P,L1,1,1*%
%TO.N,VCC*%
X144820000Y-80010000D03*
%TO.P,L1,2,2*%
%TO.N,Net-(L1-Pad2)*%
X149820000Y-80010000D03*
%TD*%
D10*
%TO.P,J1,1,P1*%
%TO.N,VCC*%
X129540000Y-79985000D03*
D11*
%TO.P,J1,2,P2*%
%TO.N,Net-(J1-Pad2)*%
X129540000Y-82525000D03*
%TO.P,J1,3,P3*%
%TO.N,Net-(J1-Pad3)*%
X129540000Y-85065000D03*
%TO.P,J1,4,P4*%
%TO.N,GND*%
X129540000Y-87605000D03*
%TD*%
D17*
%TO.P,C2,2*%
%TO.N,GND*%
X152400000Y-85322500D03*
D18*
%TO.P,C2,1*%
%TO.N,/Vout*%
X152400000Y-87397500D03*
%TD*%
D19*
%TO.P,C1,2*%
%TO.N,GND*%
X142240000Y-88667500D03*
D20*
%TO.P,C1,1*%
%TO.N,VCC*%
X142240000Y-86592500D03*
%TD*%
D21*
%TO.N,GND*%
X154432000Y-85344000D03*
D22*
%TO.N,/CTRL*%
X143764000Y-90424000D03*
X149098000Y-90424000D03*
D21*
%TO.N,GND*%
X143764000Y-88900000D03*
%TO.N,Net-(L1-Pad2)*%
X152654000Y-80010000D03*
X145542000Y-85344000D03*
%TD*%
D23*
%TO.N,/Vfb*%
X161290000Y-85090000D02*
X161290000Y-81280000D01*
X157480000Y-88900000D02*
X161290000Y-85090000D01*
X154575000Y-88900000D02*
X153670000Y-89805000D01*
X157480000Y-88900000D02*
X154575000Y-88900000D01*
%TO.N,GND*%
X154035000Y-91440000D02*
X160020000Y-91440000D01*
X153670000Y-91805000D02*
X154035000Y-91440000D01*
%TO.N,/Vfb*%
X152765000Y-89805000D02*
X153670000Y-89805000D01*
X146050000Y-91440000D02*
X151130000Y-91440000D01*
X145610000Y-91000000D02*
X146050000Y-91440000D01*
X145610000Y-88580000D02*
X145610000Y-91000000D01*
X151130000Y-91440000D02*
X152765000Y-89805000D01*
X161290000Y-78740000D02*
X161290000Y-81280000D01*
%TO.N,/Vout*%
X157480000Y-81280000D02*
X157480000Y-78740000D01*
X157480000Y-85090000D02*
X157480000Y-81280000D01*
X155172500Y-87397500D02*
X157480000Y-85090000D01*
X152400000Y-87397500D02*
X155172500Y-87397500D01*
%TO.N,GND*%
X152421500Y-85344000D02*
X152400000Y-85322500D01*
X154432000Y-85344000D02*
X152421500Y-85344000D01*
D24*
%TO.N,/CTRL*%
X149098000Y-90424000D02*
X149098000Y-88648000D01*
X149098000Y-88648000D02*
X149030000Y-88580000D01*
X138160000Y-88122000D02*
X140462000Y-90424000D01*
X138160000Y-87630000D02*
X138160000Y-88122000D01*
X140462000Y-90424000D02*
X143764000Y-90424000D01*
D23*
%TO.N,GND*%
X142240000Y-88667500D02*
X143531500Y-88667500D01*
X143531500Y-88667500D02*
X143764000Y-88900000D01*
X143764000Y-88138000D02*
X143764000Y-88900000D01*
X144272000Y-87630000D02*
X143764000Y-88138000D01*
X145610000Y-87630000D02*
X144272000Y-87630000D01*
D24*
%TO.N,/CTRL*%
X138160000Y-87630000D02*
X138160000Y-85090000D01*
D23*
%TO.N,/Vout*%
X152167500Y-87630000D02*
X152400000Y-87397500D01*
X149030000Y-87630000D02*
X152167500Y-87630000D01*
%TO.N,Net-(L1-Pad2)*%
X152654000Y-80010000D02*
X149820000Y-80010000D01*
X145610000Y-85412000D02*
X145542000Y-85344000D01*
X145610000Y-86680000D02*
X145610000Y-85412000D01*
%TO.N,VCC*%
X146362500Y-84012500D02*
X144820000Y-84012500D01*
X149030000Y-86680000D02*
X146362500Y-84012500D01*
X144820000Y-84012500D02*
X142240000Y-86592500D01*
X144820000Y-80010000D02*
X144820000Y-84012500D01*
X144795000Y-79985000D02*
X144820000Y-80010000D01*
X129540000Y-79985000D02*
X144795000Y-79985000D01*
D24*
%TO.N,Net-(J1-Pad3)*%
X133595000Y-85065000D02*
X136160000Y-87630000D01*
X129540000Y-85065000D02*
X133595000Y-85065000D01*
%TO.N,Net-(J1-Pad2)*%
X133595000Y-82525000D02*
X129540000Y-82525000D01*
X136160000Y-85090000D02*
X133595000Y-82525000D01*
%TD*%
M02*
