%TF.GenerationSoftware,KiCad,Pcbnew,(6.0.6)*%
%TF.CreationDate,2023-07-05T13:12:53+02:00*%
%TF.ProjectId,LedDriver,4c656444-7269-4766-9572-2e6b69636164,rev?*%
%TF.SameCoordinates,Original*%
%TF.FileFunction,OtherDrawing,Comment*%
%FSLAX46Y46*%
G04 Gerber Fmt 4.6, Leading zero omitted, Abs format (unit mm)*
G04 Created by KiCad (PCBNEW (6.0.6)) date 2023-07-05 13:12:53*
%MOMM*%
%LPD*%
G01*
G04 APERTURE LIST*
%ADD10C,0.150000*%
%ADD11C,0.100000*%
G04 APERTURE END LIST*
D10*
X140333333Y-68152381D02*
X140952380Y-68152381D01*
X140619047Y-68533334D01*
X140761904Y-68533334D01*
X140857142Y-68580953D01*
X140904761Y-68628572D01*
X140952380Y-68723810D01*
X140952380Y-68961905D01*
X140904761Y-69057143D01*
X140857142Y-69104762D01*
X140761904Y-69152381D01*
X140476190Y-69152381D01*
X140380952Y-69104762D01*
X140333333Y-69057143D01*
X141523809Y-68580953D02*
X141428571Y-68533334D01*
X141380952Y-68485715D01*
X141333333Y-68390477D01*
X141333333Y-68342858D01*
X141380952Y-68247620D01*
X141428571Y-68200001D01*
X141523809Y-68152381D01*
X141714285Y-68152381D01*
X141809523Y-68200001D01*
X141857142Y-68247620D01*
X141904761Y-68342858D01*
X141904761Y-68390477D01*
X141857142Y-68485715D01*
X141809523Y-68533334D01*
X141714285Y-68580953D01*
X141523809Y-68580953D01*
X141428571Y-68628572D01*
X141380952Y-68676191D01*
X141333333Y-68771429D01*
X141333333Y-68961905D01*
X141380952Y-69057143D01*
X141428571Y-69104762D01*
X141523809Y-69152381D01*
X141714285Y-69152381D01*
X141809523Y-69104762D01*
X141857142Y-69057143D01*
X141904761Y-68961905D01*
X141904761Y-68771429D01*
X141857142Y-68676191D01*
X141809523Y-68628572D01*
X141714285Y-68580953D01*
X142333333Y-69057143D02*
X142380952Y-69104762D01*
X142333333Y-69152381D01*
X142285714Y-69104762D01*
X142333333Y-69057143D01*
X142333333Y-69152381D01*
X143000000Y-68152381D02*
X143095238Y-68152381D01*
X143190476Y-68200001D01*
X143238095Y-68247620D01*
X143285714Y-68342858D01*
X143333333Y-68533334D01*
X143333333Y-68771429D01*
X143285714Y-68961905D01*
X143238095Y-69057143D01*
X143190476Y-69104762D01*
X143095238Y-69152381D01*
X143000000Y-69152381D01*
X142904761Y-69104762D01*
X142857142Y-69057143D01*
X142809523Y-68961905D01*
X142761904Y-68771429D01*
X142761904Y-68533334D01*
X142809523Y-68342858D01*
X142857142Y-68247620D01*
X142904761Y-68200001D01*
X143000000Y-68152381D01*
X143952380Y-68152381D02*
X144047619Y-68152381D01*
X144142857Y-68200001D01*
X144190476Y-68247620D01*
X144238095Y-68342858D01*
X144285714Y-68533334D01*
X144285714Y-68771429D01*
X144238095Y-68961905D01*
X144190476Y-69057143D01*
X144142857Y-69104762D01*
X144047619Y-69152381D01*
X143952380Y-69152381D01*
X143857142Y-69104762D01*
X143809523Y-69057143D01*
X143761904Y-68961905D01*
X143714285Y-68771429D01*
X143714285Y-68533334D01*
X143761904Y-68342858D01*
X143809523Y-68247620D01*
X143857142Y-68200001D01*
X143952380Y-68152381D01*
X144904761Y-68152381D02*
X145000000Y-68152381D01*
X145095238Y-68200001D01*
X145142857Y-68247620D01*
X145190476Y-68342858D01*
X145238095Y-68533334D01*
X145238095Y-68771429D01*
X145190476Y-68961905D01*
X145142857Y-69057143D01*
X145095238Y-69104762D01*
X145000000Y-69152381D01*
X144904761Y-69152381D01*
X144809523Y-69104762D01*
X144761904Y-69057143D01*
X144714285Y-68961905D01*
X144666666Y-68771429D01*
X144666666Y-68533334D01*
X144714285Y-68342858D01*
X144761904Y-68247620D01*
X144809523Y-68200001D01*
X144904761Y-68152381D01*
X145857142Y-68152381D02*
X145952380Y-68152381D01*
X146047619Y-68200001D01*
X146095238Y-68247620D01*
X146142857Y-68342858D01*
X146190476Y-68533334D01*
X146190476Y-68771429D01*
X146142857Y-68961905D01*
X146095238Y-69057143D01*
X146047619Y-69104762D01*
X145952380Y-69152381D01*
X145857142Y-69152381D01*
X145761904Y-69104762D01*
X145714285Y-69057143D01*
X145666666Y-68961905D01*
X145619047Y-68771429D01*
X145619047Y-68533334D01*
X145666666Y-68342858D01*
X145714285Y-68247620D01*
X145761904Y-68200001D01*
X145857142Y-68152381D01*
X147380952Y-69152381D02*
X147380952Y-68485715D01*
X147380952Y-68580953D02*
X147428571Y-68533334D01*
X147523809Y-68485715D01*
X147666666Y-68485715D01*
X147761904Y-68533334D01*
X147809523Y-68628572D01*
X147809523Y-69152381D01*
X147809523Y-68628572D02*
X147857142Y-68533334D01*
X147952380Y-68485715D01*
X148095238Y-68485715D01*
X148190476Y-68533334D01*
X148238095Y-68628572D01*
X148238095Y-69152381D01*
X148714285Y-69152381D02*
X148714285Y-68485715D01*
X148714285Y-68580953D02*
X148761904Y-68533334D01*
X148857142Y-68485715D01*
X149000000Y-68485715D01*
X149095238Y-68533334D01*
X149142857Y-68628572D01*
X149142857Y-69152381D01*
X149142857Y-68628572D02*
X149190476Y-68533334D01*
X149285714Y-68485715D01*
X149428571Y-68485715D01*
X149523809Y-68533334D01*
X149571428Y-68628572D01*
X149571428Y-69152381D01*
D11*
X164000000Y-75500000D02*
X164000000Y-69263581D01*
X126000000Y-75500000D02*
X126000000Y-69263581D01*
X164000000Y-69850001D02*
X126000000Y-69850001D01*
X164000000Y-69850001D02*
X126000000Y-69850001D01*
X164000000Y-69850001D02*
X162873496Y-69263580D01*
X164000000Y-69850001D02*
X162873496Y-70436422D01*
X126000000Y-69850001D02*
X127126504Y-70436422D01*
X126000000Y-69850001D02*
X127126504Y-69263580D01*
D10*
X170752380Y-88547619D02*
X170752380Y-89119047D01*
X170752380Y-88833333D02*
X169752380Y-88833333D01*
X169895238Y-88928571D01*
X169990476Y-89023809D01*
X170038095Y-89119047D01*
X169752380Y-88214285D02*
X169752380Y-87547619D01*
X170752380Y-87976190D01*
X170657142Y-87166666D02*
X170704761Y-87119047D01*
X170752380Y-87166666D01*
X170704761Y-87214285D01*
X170657142Y-87166666D01*
X170752380Y-87166666D01*
X169752380Y-86500000D02*
X169752380Y-86404761D01*
X169800000Y-86309523D01*
X169847619Y-86261904D01*
X169942857Y-86214285D01*
X170133333Y-86166666D01*
X170371428Y-86166666D01*
X170561904Y-86214285D01*
X170657142Y-86261904D01*
X170704761Y-86309523D01*
X170752380Y-86404761D01*
X170752380Y-86500000D01*
X170704761Y-86595238D01*
X170657142Y-86642857D01*
X170561904Y-86690476D01*
X170371428Y-86738095D01*
X170133333Y-86738095D01*
X169942857Y-86690476D01*
X169847619Y-86642857D01*
X169800000Y-86595238D01*
X169752380Y-86500000D01*
X169752380Y-85547619D02*
X169752380Y-85452380D01*
X169800000Y-85357142D01*
X169847619Y-85309523D01*
X169942857Y-85261904D01*
X170133333Y-85214285D01*
X170371428Y-85214285D01*
X170561904Y-85261904D01*
X170657142Y-85309523D01*
X170704761Y-85357142D01*
X170752380Y-85452380D01*
X170752380Y-85547619D01*
X170704761Y-85642857D01*
X170657142Y-85690476D01*
X170561904Y-85738095D01*
X170371428Y-85785714D01*
X170133333Y-85785714D01*
X169942857Y-85738095D01*
X169847619Y-85690476D01*
X169800000Y-85642857D01*
X169752380Y-85547619D01*
X169752380Y-84595238D02*
X169752380Y-84500000D01*
X169800000Y-84404761D01*
X169847619Y-84357142D01*
X169942857Y-84309523D01*
X170133333Y-84261904D01*
X170371428Y-84261904D01*
X170561904Y-84309523D01*
X170657142Y-84357142D01*
X170704761Y-84404761D01*
X170752380Y-84500000D01*
X170752380Y-84595238D01*
X170704761Y-84690476D01*
X170657142Y-84738095D01*
X170561904Y-84785714D01*
X170371428Y-84833333D01*
X170133333Y-84833333D01*
X169942857Y-84785714D01*
X169847619Y-84738095D01*
X169800000Y-84690476D01*
X169752380Y-84595238D01*
X169752380Y-83642857D02*
X169752380Y-83547619D01*
X169800000Y-83452380D01*
X169847619Y-83404761D01*
X169942857Y-83357142D01*
X170133333Y-83309523D01*
X170371428Y-83309523D01*
X170561904Y-83357142D01*
X170657142Y-83404761D01*
X170704761Y-83452380D01*
X170752380Y-83547619D01*
X170752380Y-83642857D01*
X170704761Y-83738095D01*
X170657142Y-83785714D01*
X170561904Y-83833333D01*
X170371428Y-83880952D01*
X170133333Y-83880952D01*
X169942857Y-83833333D01*
X169847619Y-83785714D01*
X169800000Y-83738095D01*
X169752380Y-83642857D01*
X170752380Y-82119047D02*
X170085714Y-82119047D01*
X170180952Y-82119047D02*
X170133333Y-82071428D01*
X170085714Y-81976190D01*
X170085714Y-81833333D01*
X170133333Y-81738095D01*
X170228571Y-81690476D01*
X170752380Y-81690476D01*
X170228571Y-81690476D02*
X170133333Y-81642857D01*
X170085714Y-81547619D01*
X170085714Y-81404761D01*
X170133333Y-81309523D01*
X170228571Y-81261904D01*
X170752380Y-81261904D01*
X170752380Y-80785714D02*
X170085714Y-80785714D01*
X170180952Y-80785714D02*
X170133333Y-80738095D01*
X170085714Y-80642857D01*
X170085714Y-80500000D01*
X170133333Y-80404761D01*
X170228571Y-80357142D01*
X170752380Y-80357142D01*
X170228571Y-80357142D02*
X170133333Y-80309523D01*
X170085714Y-80214285D01*
X170085714Y-80071428D01*
X170133333Y-79976190D01*
X170228571Y-79928571D01*
X170752380Y-79928571D01*
D11*
X164500000Y-93000000D02*
X172036420Y-93000000D01*
X164500000Y-76000000D02*
X172036420Y-76000000D01*
X171450000Y-93000000D02*
X171450000Y-76000000D01*
X171450000Y-93000000D02*
X171450000Y-76000000D01*
X171450000Y-93000000D02*
X172036421Y-91873496D01*
X171450000Y-93000000D02*
X170863579Y-91873496D01*
X171450000Y-76000000D02*
X170863579Y-77126504D01*
X171450000Y-76000000D02*
X172036421Y-77126504D01*
M02*
