%TF.GenerationSoftware,KiCad,Pcbnew,(6.0.6)*%
%TF.CreationDate,2023-04-07T17:46:17+02:00*%
%TF.ProjectId,LedDriver,4c656444-7269-4766-9572-2e6b69636164,rev?*%
%TF.SameCoordinates,Original*%
%TF.FileFunction,Legend,Bot*%
%TF.FilePolarity,Positive*%
%FSLAX46Y46*%
G04 Gerber Fmt 4.6, Leading zero omitted, Abs format (unit mm)*
G04 Created by KiCad (PCBNEW (6.0.6)) date 2023-04-07 17:46:17*
%MOMM*%
%LPD*%
G01*
G04 APERTURE LIST*
%ADD10C,0.300000*%
G04 APERTURE END LIST*
D10*
X140392857Y-79763571D02*
X139678571Y-79763571D01*
X139678571Y-78263571D01*
X141464285Y-79692142D02*
X141321428Y-79763571D01*
X141035714Y-79763571D01*
X140892857Y-79692142D01*
X140821428Y-79549285D01*
X140821428Y-78977857D01*
X140892857Y-78835000D01*
X141035714Y-78763571D01*
X141321428Y-78763571D01*
X141464285Y-78835000D01*
X141535714Y-78977857D01*
X141535714Y-79120714D01*
X140821428Y-79263571D01*
X142821428Y-79763571D02*
X142821428Y-78263571D01*
X142821428Y-79692142D02*
X142678571Y-79763571D01*
X142392857Y-79763571D01*
X142250000Y-79692142D01*
X142178571Y-79620714D01*
X142107142Y-79477857D01*
X142107142Y-79049285D01*
X142178571Y-78906428D01*
X142250000Y-78835000D01*
X142392857Y-78763571D01*
X142678571Y-78763571D01*
X142821428Y-78835000D01*
X145321428Y-79763571D02*
X145321428Y-78263571D01*
X145321428Y-79692142D02*
X145178571Y-79763571D01*
X144892857Y-79763571D01*
X144750000Y-79692142D01*
X144678571Y-79620714D01*
X144607142Y-79477857D01*
X144607142Y-79049285D01*
X144678571Y-78906428D01*
X144750000Y-78835000D01*
X144892857Y-78763571D01*
X145178571Y-78763571D01*
X145321428Y-78835000D01*
X146035714Y-79763571D02*
X146035714Y-78763571D01*
X146035714Y-79049285D02*
X146107142Y-78906428D01*
X146178571Y-78835000D01*
X146321428Y-78763571D01*
X146464285Y-78763571D01*
X146964285Y-79763571D02*
X146964285Y-78763571D01*
X146964285Y-78263571D02*
X146892857Y-78335000D01*
X146964285Y-78406428D01*
X147035714Y-78335000D01*
X146964285Y-78263571D01*
X146964285Y-78406428D01*
X147535714Y-78763571D02*
X147892857Y-79763571D01*
X148250000Y-78763571D01*
X149392857Y-79692142D02*
X149250000Y-79763571D01*
X148964285Y-79763571D01*
X148821428Y-79692142D01*
X148750000Y-79549285D01*
X148750000Y-78977857D01*
X148821428Y-78835000D01*
X148964285Y-78763571D01*
X149250000Y-78763571D01*
X149392857Y-78835000D01*
X149464285Y-78977857D01*
X149464285Y-79120714D01*
X148750000Y-79263571D01*
X150107142Y-79763571D02*
X150107142Y-78763571D01*
X150107142Y-79049285D02*
X150178571Y-78906428D01*
X150250000Y-78835000D01*
X150392857Y-78763571D01*
X150535714Y-78763571D01*
X136500000Y-81392857D02*
X137000000Y-81392857D01*
X137214285Y-82178571D02*
X136500000Y-82178571D01*
X136500000Y-80678571D01*
X137214285Y-80678571D01*
X137785714Y-82107142D02*
X137928571Y-82178571D01*
X138214285Y-82178571D01*
X138357142Y-82107142D01*
X138428571Y-81964285D01*
X138428571Y-81892857D01*
X138357142Y-81750000D01*
X138214285Y-81678571D01*
X138000000Y-81678571D01*
X137857142Y-81607142D01*
X137785714Y-81464285D01*
X137785714Y-81392857D01*
X137857142Y-81250000D01*
X138000000Y-81178571D01*
X138214285Y-81178571D01*
X138357142Y-81250000D01*
X139000000Y-82107142D02*
X139142857Y-82178571D01*
X139428571Y-82178571D01*
X139571428Y-82107142D01*
X139642857Y-81964285D01*
X139642857Y-81892857D01*
X139571428Y-81750000D01*
X139428571Y-81678571D01*
X139214285Y-81678571D01*
X139071428Y-81607142D01*
X139000000Y-81464285D01*
X139000000Y-81392857D01*
X139071428Y-81250000D01*
X139214285Y-81178571D01*
X139428571Y-81178571D01*
X139571428Y-81250000D01*
X140857142Y-82107142D02*
X140714285Y-82178571D01*
X140428571Y-82178571D01*
X140285714Y-82107142D01*
X140214285Y-81964285D01*
X140214285Y-81392857D01*
X140285714Y-81250000D01*
X140428571Y-81178571D01*
X140714285Y-81178571D01*
X140857142Y-81250000D01*
X140928571Y-81392857D01*
X140928571Y-81535714D01*
X140214285Y-81678571D01*
X141571428Y-82178571D02*
X141571428Y-81178571D01*
X141571428Y-80678571D02*
X141500000Y-80750000D01*
X141571428Y-80821428D01*
X141642857Y-80750000D01*
X141571428Y-80678571D01*
X141571428Y-80821428D01*
X142142857Y-81178571D02*
X142500000Y-82178571D01*
X142857142Y-81178571D01*
X144071428Y-82178571D02*
X144071428Y-81392857D01*
X144000000Y-81250000D01*
X143857142Y-81178571D01*
X143571428Y-81178571D01*
X143428571Y-81250000D01*
X144071428Y-82107142D02*
X143928571Y-82178571D01*
X143571428Y-82178571D01*
X143428571Y-82107142D01*
X143357142Y-81964285D01*
X143357142Y-81821428D01*
X143428571Y-81678571D01*
X143571428Y-81607142D01*
X143928571Y-81607142D01*
X144071428Y-81535714D01*
X145928571Y-82178571D02*
X145928571Y-80678571D01*
X146785714Y-82178571D01*
X146785714Y-80678571D01*
X147500000Y-82178571D02*
X147500000Y-81178571D01*
X147500000Y-80678571D02*
X147428571Y-80750000D01*
X147500000Y-80821428D01*
X147571428Y-80750000D01*
X147500000Y-80678571D01*
X147500000Y-80821428D01*
X148857142Y-82107142D02*
X148714285Y-82178571D01*
X148428571Y-82178571D01*
X148285714Y-82107142D01*
X148214285Y-82035714D01*
X148142857Y-81892857D01*
X148142857Y-81464285D01*
X148214285Y-81321428D01*
X148285714Y-81250000D01*
X148428571Y-81178571D01*
X148714285Y-81178571D01*
X148857142Y-81250000D01*
X149714285Y-82178571D02*
X149571428Y-82107142D01*
X149500000Y-82035714D01*
X149428571Y-81892857D01*
X149428571Y-81464285D01*
X149500000Y-81321428D01*
X149571428Y-81250000D01*
X149714285Y-81178571D01*
X149928571Y-81178571D01*
X150071428Y-81250000D01*
X150142857Y-81321428D01*
X150214285Y-81464285D01*
X150214285Y-81892857D01*
X150142857Y-82035714D01*
X150071428Y-82107142D01*
X149928571Y-82178571D01*
X149714285Y-82178571D01*
X151071428Y-82178571D02*
X150928571Y-82107142D01*
X150857142Y-81964285D01*
X150857142Y-80678571D01*
X152285714Y-82178571D02*
X152285714Y-81392857D01*
X152214285Y-81250000D01*
X152071428Y-81178571D01*
X151785714Y-81178571D01*
X151642857Y-81250000D01*
X152285714Y-82107142D02*
X152142857Y-82178571D01*
X151785714Y-82178571D01*
X151642857Y-82107142D01*
X151571428Y-81964285D01*
X151571428Y-81821428D01*
X151642857Y-81678571D01*
X151785714Y-81607142D01*
X152142857Y-81607142D01*
X152285714Y-81535714D01*
X152928571Y-82107142D02*
X153071428Y-82178571D01*
X153357142Y-82178571D01*
X153500000Y-82107142D01*
X153571428Y-81964285D01*
X153571428Y-81892857D01*
X153500000Y-81750000D01*
X153357142Y-81678571D01*
X153142857Y-81678571D01*
X153000000Y-81607142D01*
X152928571Y-81464285D01*
X152928571Y-81392857D01*
X153000000Y-81250000D01*
X153142857Y-81178571D01*
X153357142Y-81178571D01*
X153500000Y-81250000D01*
X134607142Y-83236428D02*
X134678571Y-83165000D01*
X134821428Y-83093571D01*
X135178571Y-83093571D01*
X135321428Y-83165000D01*
X135392857Y-83236428D01*
X135464285Y-83379285D01*
X135464285Y-83522142D01*
X135392857Y-83736428D01*
X134535714Y-84593571D01*
X135464285Y-84593571D01*
X136392857Y-83093571D02*
X136535714Y-83093571D01*
X136678571Y-83165000D01*
X136750000Y-83236428D01*
X136821428Y-83379285D01*
X136892857Y-83665000D01*
X136892857Y-84022142D01*
X136821428Y-84307857D01*
X136750000Y-84450714D01*
X136678571Y-84522142D01*
X136535714Y-84593571D01*
X136392857Y-84593571D01*
X136250000Y-84522142D01*
X136178571Y-84450714D01*
X136107142Y-84307857D01*
X136035714Y-84022142D01*
X136035714Y-83665000D01*
X136107142Y-83379285D01*
X136178571Y-83236428D01*
X136250000Y-83165000D01*
X136392857Y-83093571D01*
X137464285Y-83236428D02*
X137535714Y-83165000D01*
X137678571Y-83093571D01*
X138035714Y-83093571D01*
X138178571Y-83165000D01*
X138250000Y-83236428D01*
X138321428Y-83379285D01*
X138321428Y-83522142D01*
X138250000Y-83736428D01*
X137392857Y-84593571D01*
X138321428Y-84593571D01*
X138821428Y-83093571D02*
X139750000Y-83093571D01*
X139250000Y-83665000D01*
X139464285Y-83665000D01*
X139607142Y-83736428D01*
X139678571Y-83807857D01*
X139750000Y-83950714D01*
X139750000Y-84307857D01*
X139678571Y-84450714D01*
X139607142Y-84522142D01*
X139464285Y-84593571D01*
X139035714Y-84593571D01*
X138892857Y-84522142D01*
X138821428Y-84450714D01*
X140392857Y-84450714D02*
X140464285Y-84522142D01*
X140392857Y-84593571D01*
X140321428Y-84522142D01*
X140392857Y-84450714D01*
X140392857Y-84593571D01*
X141392857Y-83093571D02*
X141535714Y-83093571D01*
X141678571Y-83165000D01*
X141750000Y-83236428D01*
X141821428Y-83379285D01*
X141892857Y-83665000D01*
X141892857Y-84022142D01*
X141821428Y-84307857D01*
X141750000Y-84450714D01*
X141678571Y-84522142D01*
X141535714Y-84593571D01*
X141392857Y-84593571D01*
X141250000Y-84522142D01*
X141178571Y-84450714D01*
X141107142Y-84307857D01*
X141035714Y-84022142D01*
X141035714Y-83665000D01*
X141107142Y-83379285D01*
X141178571Y-83236428D01*
X141250000Y-83165000D01*
X141392857Y-83093571D01*
X143178571Y-83593571D02*
X143178571Y-84593571D01*
X142821428Y-83022142D02*
X142464285Y-84093571D01*
X143392857Y-84093571D01*
X143964285Y-84450714D02*
X144035714Y-84522142D01*
X143964285Y-84593571D01*
X143892857Y-84522142D01*
X143964285Y-84450714D01*
X143964285Y-84593571D01*
X144964285Y-83093571D02*
X145107142Y-83093571D01*
X145250000Y-83165000D01*
X145321428Y-83236428D01*
X145392857Y-83379285D01*
X145464285Y-83665000D01*
X145464285Y-84022142D01*
X145392857Y-84307857D01*
X145321428Y-84450714D01*
X145250000Y-84522142D01*
X145107142Y-84593571D01*
X144964285Y-84593571D01*
X144821428Y-84522142D01*
X144750000Y-84450714D01*
X144678571Y-84307857D01*
X144607142Y-84022142D01*
X144607142Y-83665000D01*
X144678571Y-83379285D01*
X144750000Y-83236428D01*
X144821428Y-83165000D01*
X144964285Y-83093571D01*
X145964285Y-83093571D02*
X146964285Y-83093571D01*
X146321428Y-84593571D01*
X148678571Y-84022142D02*
X149821428Y-84022142D01*
X152535714Y-84593571D02*
X152035714Y-83879285D01*
X151678571Y-84593571D02*
X151678571Y-83093571D01*
X152250000Y-83093571D01*
X152392857Y-83165000D01*
X152464285Y-83236428D01*
X152535714Y-83379285D01*
X152535714Y-83593571D01*
X152464285Y-83736428D01*
X152392857Y-83807857D01*
X152250000Y-83879285D01*
X151678571Y-83879285D01*
X153464285Y-83093571D02*
X153607142Y-83093571D01*
X153750000Y-83165000D01*
X153821428Y-83236428D01*
X153892857Y-83379285D01*
X153964285Y-83665000D01*
X153964285Y-84022142D01*
X153892857Y-84307857D01*
X153821428Y-84450714D01*
X153750000Y-84522142D01*
X153607142Y-84593571D01*
X153464285Y-84593571D01*
X153321428Y-84522142D01*
X153250000Y-84450714D01*
X153178571Y-84307857D01*
X153107142Y-84022142D01*
X153107142Y-83665000D01*
X153178571Y-83379285D01*
X153250000Y-83236428D01*
X153321428Y-83165000D01*
X153464285Y-83093571D01*
X154892857Y-83093571D02*
X155035714Y-83093571D01*
X155178571Y-83165000D01*
X155250000Y-83236428D01*
X155321428Y-83379285D01*
X155392857Y-83665000D01*
X155392857Y-84022142D01*
X155321428Y-84307857D01*
X155250000Y-84450714D01*
X155178571Y-84522142D01*
X155035714Y-84593571D01*
X154892857Y-84593571D01*
X154750000Y-84522142D01*
X154678571Y-84450714D01*
X154607142Y-84307857D01*
X154535714Y-84022142D01*
X154535714Y-83665000D01*
X154607142Y-83379285D01*
X154678571Y-83236428D01*
X154750000Y-83165000D01*
X154892857Y-83093571D01*
M02*
