M48
; DRILL file {KiCad (6.0.6)} date Wed Jul  5 13:12:56 2023
; FORMAT={-:-/ absolute / inch / decimal}
; #@! TF.CreationDate,2023-07-05T13:12:56+02:00
; #@! TF.GenerationSoftware,Kicad,Pcbnew,(6.0.6)
; #@! TF.FileFunction,Plated,1,2,PTH
FMAT,2
INCH
; #@! TA.AperFunction,Plated,PTH,ViaDrill
T1C0.0157
; #@! TA.AperFunction,Plated,PTH,ViaDrill
T2C0.0236
; #@! TA.AperFunction,Plated,PTH,ComponentDrill
T3C0.0394
%
G90
G05
T1
X5.225Y-3.05
X5.275Y-3.05
X5.325Y-3.05
X5.34Y-3.58
X5.34Y-3.62
X5.375Y-3.05
X5.38Y-3.58
X5.38Y-3.62
X5.42Y-3.58
X5.42Y-3.62
X5.425Y-3.05
X5.46Y-3.58
X5.46Y-3.62
X5.475Y-3.05
X5.5Y-3.62
X5.525Y-3.05
X5.54Y-3.62
X5.575Y-3.05
X5.58Y-3.62
X5.62Y-3.62
X5.66Y-3.35
X5.66Y-3.42
X5.66Y-3.56
X5.66Y-3.62
X5.7Y-3.62
X5.8Y-3.36
X5.8Y-3.4
X5.8Y-3.44
X5.8Y-3.49
X5.87Y-3.56
X5.925Y-3.55
X5.93Y-3.32
X5.93Y-3.36
X5.95Y-3.5
X6.0Y-3.5
X6.025Y-3.05
X6.075Y-3.05
X6.075Y-3.1
X6.075Y-3.15
X6.075Y-3.2
X6.12Y-3.56
X6.12Y-3.6
X6.125Y-3.05
X6.125Y-3.1
X6.125Y-3.15
X6.125Y-3.2
X6.18Y-3.6
X6.22Y-3.6
T2
X5.66Y-3.5
X5.73Y-3.36
X6.01Y-3.15
X6.08Y-3.36
T3
X5.1Y-3.149
X5.1Y-3.249
X5.1Y-3.349
X5.1Y-3.449
X6.2Y-3.1
X6.2Y-3.2
X6.2Y-3.5
X6.3Y-3.6
X6.35Y-3.1
X6.35Y-3.2
X6.4Y-3.5
T0
M30
