%TF.GenerationSoftware,KiCad,Pcbnew,(6.0.6)*%
%TF.CreationDate,2023-07-05T13:12:53+02:00*%
%TF.ProjectId,LedDriver,4c656444-7269-4766-9572-2e6b69636164,rev?*%
%TF.SameCoordinates,Original*%
%TF.FileFunction,Copper,L1,Top*%
%TF.FilePolarity,Positive*%
%FSLAX46Y46*%
G04 Gerber Fmt 4.6, Leading zero omitted, Abs format (unit mm)*
G04 Created by KiCad (PCBNEW (6.0.6)) date 2023-07-05 13:12:53*
%MOMM*%
%LPD*%
G01*
G04 APERTURE LIST*
G04 Aperture macros list*
%AMRoundRect*
0 Rectangle with rounded corners*
0 $1 Rounding radius*
0 $2 $3 $4 $5 $6 $7 $8 $9 X,Y pos of 4 corners*
0 Add a 4 corners polygon primitive as box body*
4,1,4,$2,$3,$4,$5,$6,$7,$8,$9,$2,$3,0*
0 Add four circle primitives for the rounded corners*
1,1,$1+$1,$2,$3*
1,1,$1+$1,$4,$5*
1,1,$1+$1,$6,$7*
1,1,$1+$1,$8,$9*
0 Add four rect primitives between the rounded corners*
20,1,$1+$1,$2,$3,$4,$5,0*
20,1,$1+$1,$4,$5,$6,$7,0*
20,1,$1+$1,$6,$7,$8,$9,0*
20,1,$1+$1,$8,$9,$2,$3,0*%
%AMFreePoly0*
4,1,6,0.587500,-0.725000,-0.587500,-0.725000,-1.287500,0.000000,-0.587500,0.725000,0.587500,0.725000,0.587500,-0.725000,0.587500,-0.725000,$1*%
%AMFreePoly1*
4,1,6,0.587500,0.000000,1.287500,-0.725000,-0.587500,-0.725000,-0.587500,0.725000,1.287500,0.725000,0.587500,0.000000,0.587500,0.000000,$1*%
G04 Aperture macros list end*
%TA.AperFunction,SMDPad,CuDef*%
%ADD10RoundRect,0.750000X-0.750000X-2.400000X0.750000X-2.400000X0.750000X2.400000X-0.750000X2.400000X0*%
%TD*%
%TA.AperFunction,SMDPad,CuDef*%
%ADD11FreePoly0,270.000000*%
%TD*%
%TA.AperFunction,SMDPad,CuDef*%
%ADD12FreePoly1,270.000000*%
%TD*%
%TA.AperFunction,SMDPad,CuDef*%
%ADD13RoundRect,0.250000X-0.350000X-0.450000X0.350000X-0.450000X0.350000X0.450000X-0.350000X0.450000X0*%
%TD*%
%TA.AperFunction,ComponentPad*%
%ADD14R,1.700000X1.700000*%
%TD*%
%TA.AperFunction,ComponentPad*%
%ADD15O,1.700000X1.700000*%
%TD*%
%TA.AperFunction,ComponentPad*%
%ADD16C,1.700000*%
%TD*%
%TA.AperFunction,SMDPad,CuDef*%
%ADD17FreePoly0,90.000000*%
%TD*%
%TA.AperFunction,SMDPad,CuDef*%
%ADD18FreePoly1,90.000000*%
%TD*%
%TA.AperFunction,SMDPad,CuDef*%
%ADD19RoundRect,0.250000X-0.450000X0.350000X-0.450000X-0.350000X0.450000X-0.350000X0.450000X0.350000X0*%
%TD*%
%TA.AperFunction,SMDPad,CuDef*%
%ADD20R,2.000000X0.650000*%
%TD*%
%TA.AperFunction,ViaPad*%
%ADD21C,0.800000*%
%TD*%
%TA.AperFunction,ViaPad*%
%ADD22C,1.000000*%
%TD*%
%TA.AperFunction,Conductor*%
%ADD23C,0.500000*%
%TD*%
%TA.AperFunction,Conductor*%
%ADD24C,0.250000*%
%TD*%
G04 APERTURE END LIST*
D10*
%TO.P,L1,1,1*%
%TO.N,VCC*%
X144820000Y-80010000D03*
%TO.P,L1,2,2*%
%TO.N,Net-(L1-Pad2)*%
X149820000Y-80010000D03*
%TD*%
D11*
%TO.P,C2,1*%
%TO.N,/Vout*%
X152400000Y-87397500D03*
D12*
%TO.P,C2,2*%
%TO.N,GND*%
X152400000Y-85322500D03*
%TD*%
D13*
%TO.P,R2,1*%
%TO.N,Net-(J1-Pad3)*%
X136160000Y-87630000D03*
%TO.P,R2,2*%
%TO.N,/CTRL*%
X138160000Y-87630000D03*
%TD*%
D14*
%TO.P,D1,1,A*%
%TO.N,/Vout*%
X157480000Y-81280000D03*
X157480000Y-78740000D03*
D15*
%TO.P,D1,2,K*%
%TO.N,/Vfb*%
X161290000Y-78740000D03*
X161290000Y-81280000D03*
%TD*%
D16*
%TO.P,RV1,1,1*%
%TO.N,/Vfb*%
X157480000Y-88900000D03*
%TO.P,RV1,2,2*%
%TO.N,GND*%
X160020000Y-91440000D03*
%TO.P,RV1,3,3*%
%TO.N,unconnected-(RV1-Pad3)*%
X162560000Y-88900000D03*
%TD*%
D17*
%TO.P,C1,1*%
%TO.N,VCC*%
X142240000Y-86592500D03*
D18*
%TO.P,C1,2*%
%TO.N,GND*%
X142240000Y-88667500D03*
%TD*%
D19*
%TO.P,R3,1*%
%TO.N,/Vfb*%
X153670000Y-89805000D03*
%TO.P,R3,2*%
%TO.N,GND*%
X153670000Y-91805000D03*
%TD*%
D20*
%TO.P,U1,1,SW*%
%TO.N,Net-(L1-Pad2)*%
X145610000Y-86680000D03*
%TO.P,U1,2,GND*%
%TO.N,GND*%
X145610000Y-87630000D03*
%TO.P,U1,3,FB*%
%TO.N,/Vfb*%
X145610000Y-88580000D03*
%TO.P,U1,4,CTRL*%
%TO.N,/CTRL*%
X149030000Y-88580000D03*
%TO.P,U1,5,Vout*%
%TO.N,/Vout*%
X149030000Y-87630000D03*
%TO.P,U1,6,Vin*%
%TO.N,VCC*%
X149030000Y-86680000D03*
%TD*%
D13*
%TO.P,R1,1*%
%TO.N,Net-(J1-Pad2)*%
X136160000Y-85090000D03*
%TO.P,R1,2*%
%TO.N,/CTRL*%
X138160000Y-85090000D03*
%TD*%
D14*
%TO.P,J1,1,P1*%
%TO.N,VCC*%
X129540000Y-79985000D03*
D15*
%TO.P,J1,2,P2*%
%TO.N,Net-(J1-Pad2)*%
X129540000Y-82525000D03*
%TO.P,J1,3,P3*%
%TO.N,Net-(J1-Pad3)*%
X129540000Y-85065000D03*
%TO.P,J1,4,P4*%
%TO.N,GND*%
X129540000Y-87605000D03*
%TD*%
D21*
%TO.N,GND*%
X136525000Y-77470000D03*
X141732000Y-91948000D03*
X156972000Y-91440000D03*
X139065000Y-77470000D03*
X154305000Y-77470000D03*
X143764000Y-91948000D03*
X157988000Y-91440000D03*
X133985000Y-77470000D03*
X139700000Y-91948000D03*
X140335000Y-77470000D03*
X154305000Y-78740000D03*
X138684000Y-91948000D03*
X137795000Y-77470000D03*
X152400000Y-88900000D03*
X137668000Y-90932000D03*
X154305000Y-81280000D03*
D22*
X143764000Y-88900000D03*
D21*
X137668000Y-91948000D03*
X135636000Y-91948000D03*
X144780000Y-91948000D03*
X135636000Y-90932000D03*
X147320000Y-88646000D03*
X138684000Y-90932000D03*
X155575000Y-81280000D03*
X136652000Y-90932000D03*
X150622000Y-84328000D03*
X155575000Y-80010000D03*
X154305000Y-80010000D03*
X141605000Y-77470000D03*
X143764000Y-85090000D03*
X150622000Y-85344000D03*
X150495000Y-90170000D03*
X155448000Y-91440000D03*
X153035000Y-77470000D03*
X140716000Y-91948000D03*
X136652000Y-91948000D03*
X142748000Y-91948000D03*
X155448000Y-90424000D03*
X132715000Y-77470000D03*
X155575000Y-78740000D03*
X147320000Y-85344000D03*
X155575000Y-77470000D03*
X147320000Y-86360000D03*
X135255000Y-77470000D03*
X151130000Y-88900000D03*
D22*
X154432000Y-85344000D03*
D21*
X143764000Y-86868000D03*
X147320000Y-87376000D03*
D22*
%TO.N,Net-(L1-Pad2)*%
X145542000Y-85344000D03*
X152654000Y-80010000D03*
D21*
%TO.N,/CTRL*%
X149098000Y-90424000D03*
X143764000Y-90424000D03*
%TD*%
D23*
%TO.N,VCC*%
X129540000Y-79985000D02*
X144795000Y-79985000D01*
X144795000Y-79985000D02*
X144820000Y-80010000D01*
X142748000Y-83820000D02*
X142240000Y-84328000D01*
X149030000Y-86680000D02*
X149030000Y-84514000D01*
X144272000Y-83820000D02*
X142748000Y-83820000D01*
X149030000Y-84514000D02*
X148336000Y-83820000D01*
X142240000Y-84328000D02*
X142240000Y-86592500D01*
X148336000Y-83820000D02*
X144780000Y-83820000D01*
X144820000Y-80010000D02*
X144820000Y-83780000D01*
X144820000Y-83780000D02*
X144780000Y-83820000D01*
X144780000Y-83820000D02*
X144272000Y-83820000D01*
%TO.N,GND*%
X157988000Y-91440000D02*
X160020000Y-91440000D01*
X154035000Y-91440000D02*
X155448000Y-91440000D01*
X156972000Y-91440000D02*
X157988000Y-91440000D01*
X152421500Y-85344000D02*
X152400000Y-85322500D01*
X145610000Y-87630000D02*
X144272000Y-87630000D01*
X154432000Y-85344000D02*
X152421500Y-85344000D01*
X142240000Y-88667500D02*
X143531500Y-88667500D01*
X155448000Y-91440000D02*
X156972000Y-91440000D01*
X143531500Y-88667500D02*
X143764000Y-88900000D01*
X153670000Y-91805000D02*
X154035000Y-91440000D01*
X144272000Y-87630000D02*
X143764000Y-88138000D01*
X143764000Y-88138000D02*
X143764000Y-88900000D01*
%TO.N,/Vout*%
X152400000Y-87397500D02*
X155172500Y-87397500D01*
X157480000Y-81280000D02*
X157480000Y-78740000D01*
X157480000Y-85090000D02*
X157480000Y-81280000D01*
X155172500Y-87397500D02*
X157480000Y-85090000D01*
X149030000Y-87630000D02*
X152167500Y-87630000D01*
X152167500Y-87630000D02*
X152400000Y-87397500D01*
%TO.N,/Vfb*%
X157480000Y-88900000D02*
X161290000Y-85090000D01*
X146050000Y-91440000D02*
X151130000Y-91440000D01*
X145610000Y-91000000D02*
X146050000Y-91440000D01*
X151130000Y-91440000D02*
X152765000Y-89805000D01*
X154575000Y-88900000D02*
X153670000Y-89805000D01*
X145610000Y-88580000D02*
X145610000Y-91000000D01*
X152765000Y-89805000D02*
X153670000Y-89805000D01*
X161290000Y-85090000D02*
X161290000Y-81280000D01*
X161290000Y-78740000D02*
X161290000Y-81280000D01*
X157480000Y-88900000D02*
X154575000Y-88900000D01*
D24*
%TO.N,Net-(J1-Pad2)*%
X136160000Y-85090000D02*
X133595000Y-82525000D01*
X133595000Y-82525000D02*
X129540000Y-82525000D01*
%TO.N,Net-(J1-Pad3)*%
X133595000Y-85065000D02*
X136160000Y-87630000D01*
X129540000Y-85065000D02*
X133595000Y-85065000D01*
D23*
%TO.N,Net-(L1-Pad2)*%
X145610000Y-86680000D02*
X145610000Y-85412000D01*
X145610000Y-85412000D02*
X145542000Y-85344000D01*
X152654000Y-80010000D02*
X149820000Y-80010000D01*
D24*
%TO.N,/CTRL*%
X138160000Y-87630000D02*
X138160000Y-88122000D01*
X149098000Y-88648000D02*
X149030000Y-88580000D01*
X140462000Y-90424000D02*
X143764000Y-90424000D01*
X138160000Y-87630000D02*
X138160000Y-85090000D01*
X138160000Y-88122000D02*
X140462000Y-90424000D01*
X149098000Y-90424000D02*
X149098000Y-88648000D01*
%TD*%
%TA.AperFunction,Conductor*%
%TO.N,GND*%
G36*
X143155524Y-76528502D02*
G01*
X143202017Y-76582158D01*
X143212121Y-76652432D01*
X143182627Y-76717012D01*
X143176498Y-76723595D01*
X143100620Y-76799473D01*
X142972409Y-76983945D01*
X142878890Y-77188206D01*
X142877495Y-77193638D01*
X142877495Y-77193639D01*
X142826815Y-77391029D01*
X142823022Y-77405800D01*
X142820547Y-77436233D01*
X142815634Y-77496638D01*
X142811500Y-77547458D01*
X142811500Y-79100500D01*
X142791498Y-79168621D01*
X142737842Y-79215114D01*
X142685500Y-79226500D01*
X131024500Y-79226500D01*
X130956379Y-79206498D01*
X130909886Y-79152842D01*
X130898500Y-79100500D01*
X130898500Y-79086866D01*
X130891745Y-79024684D01*
X130840615Y-78888295D01*
X130753261Y-78771739D01*
X130636705Y-78684385D01*
X130500316Y-78633255D01*
X130438134Y-78626500D01*
X128641866Y-78626500D01*
X128579684Y-78633255D01*
X128443295Y-78684385D01*
X128326739Y-78771739D01*
X128239385Y-78888295D01*
X128188255Y-79024684D01*
X128181500Y-79086866D01*
X128181500Y-80883134D01*
X128188255Y-80945316D01*
X128239385Y-81081705D01*
X128326739Y-81198261D01*
X128443295Y-81285615D01*
X128451704Y-81288767D01*
X128451705Y-81288768D01*
X128560451Y-81329535D01*
X128617216Y-81372176D01*
X128641916Y-81438738D01*
X128626709Y-81508087D01*
X128607316Y-81534568D01*
X128480629Y-81667138D01*
X128354743Y-81851680D01*
X128316011Y-81935121D01*
X128279471Y-82013841D01*
X128260688Y-82054305D01*
X128200989Y-82269570D01*
X128177251Y-82491695D01*
X128177548Y-82496848D01*
X128177548Y-82496851D01*
X128186372Y-82649886D01*
X128190110Y-82714715D01*
X128191247Y-82719761D01*
X128191248Y-82719767D01*
X128215271Y-82826361D01*
X128239222Y-82932639D01*
X128291378Y-83061085D01*
X128320154Y-83131951D01*
X128323266Y-83139616D01*
X128439987Y-83330088D01*
X128586250Y-83498938D01*
X128758126Y-83641632D01*
X128782105Y-83655644D01*
X128831445Y-83684476D01*
X128880169Y-83736114D01*
X128893240Y-83805897D01*
X128866509Y-83871669D01*
X128826055Y-83905027D01*
X128813607Y-83911507D01*
X128809474Y-83914610D01*
X128809471Y-83914612D01*
X128641544Y-84040695D01*
X128634965Y-84045635D01*
X128480629Y-84207138D01*
X128477715Y-84211410D01*
X128477714Y-84211411D01*
X128440786Y-84265545D01*
X128354743Y-84391680D01*
X128316824Y-84473370D01*
X128264381Y-84586350D01*
X128260688Y-84594305D01*
X128200989Y-84809570D01*
X128177251Y-85031695D01*
X128177548Y-85036848D01*
X128177548Y-85036851D01*
X128184527Y-85157885D01*
X128190110Y-85254715D01*
X128191247Y-85259761D01*
X128191248Y-85259767D01*
X128211025Y-85347523D01*
X128239222Y-85472639D01*
X128289966Y-85597608D01*
X128313215Y-85654862D01*
X128323266Y-85679616D01*
X128370184Y-85756179D01*
X128431372Y-85856029D01*
X128439987Y-85870088D01*
X128586250Y-86038938D01*
X128758126Y-86181632D01*
X128822740Y-86219389D01*
X128831955Y-86224774D01*
X128880679Y-86276412D01*
X128893750Y-86346195D01*
X128867019Y-86411967D01*
X128826562Y-86445327D01*
X128818457Y-86449546D01*
X128809738Y-86455036D01*
X128639433Y-86582905D01*
X128631726Y-86589748D01*
X128484590Y-86743717D01*
X128478104Y-86751727D01*
X128358098Y-86927649D01*
X128353000Y-86936623D01*
X128263338Y-87129783D01*
X128259775Y-87139470D01*
X128204389Y-87339183D01*
X128205912Y-87347607D01*
X128218292Y-87351000D01*
X130858344Y-87351000D01*
X130871875Y-87347027D01*
X130873180Y-87337947D01*
X130831214Y-87170875D01*
X130827894Y-87161124D01*
X130742972Y-86965814D01*
X130738105Y-86956739D01*
X130622426Y-86777926D01*
X130616136Y-86769757D01*
X130472806Y-86612240D01*
X130465273Y-86605215D01*
X130298139Y-86473222D01*
X130289556Y-86467520D01*
X130252602Y-86447120D01*
X130202631Y-86396687D01*
X130187859Y-86327245D01*
X130212975Y-86260839D01*
X130240327Y-86234232D01*
X130263797Y-86217491D01*
X130419860Y-86106173D01*
X130578096Y-85948489D01*
X130637594Y-85865689D01*
X130705435Y-85771277D01*
X130708453Y-85767077D01*
X130710746Y-85762437D01*
X130712446Y-85759608D01*
X130764674Y-85711518D01*
X130820451Y-85698500D01*
X133280406Y-85698500D01*
X133348527Y-85718502D01*
X133369501Y-85735405D01*
X135014595Y-87380500D01*
X135048621Y-87442812D01*
X135051500Y-87469595D01*
X135051500Y-88130400D01*
X135051837Y-88133646D01*
X135051837Y-88133650D01*
X135061629Y-88228021D01*
X135062474Y-88236166D01*
X135064655Y-88242702D01*
X135064655Y-88242704D01*
X135105937Y-88366440D01*
X135118450Y-88403946D01*
X135211522Y-88554348D01*
X135336697Y-88679305D01*
X135342927Y-88683145D01*
X135342928Y-88683146D01*
X135480090Y-88767694D01*
X135487262Y-88772115D01*
X135504218Y-88777739D01*
X135648611Y-88825632D01*
X135648613Y-88825632D01*
X135655139Y-88827797D01*
X135661975Y-88828497D01*
X135661978Y-88828498D01*
X135705031Y-88832909D01*
X135759600Y-88838500D01*
X136560400Y-88838500D01*
X136563646Y-88838163D01*
X136563650Y-88838163D01*
X136659308Y-88828238D01*
X136659312Y-88828237D01*
X136666166Y-88827526D01*
X136672702Y-88825345D01*
X136672704Y-88825345D01*
X136815395Y-88777739D01*
X136833946Y-88771550D01*
X136984348Y-88678478D01*
X137070784Y-88591891D01*
X137133066Y-88557812D01*
X137203886Y-88562815D01*
X137248975Y-88591736D01*
X137296911Y-88639588D01*
X137336697Y-88679305D01*
X137342927Y-88683145D01*
X137342928Y-88683146D01*
X137480090Y-88767694D01*
X137487262Y-88772115D01*
X137504218Y-88777739D01*
X137648611Y-88825632D01*
X137648613Y-88825632D01*
X137655139Y-88827797D01*
X137661975Y-88828497D01*
X137661978Y-88828498D01*
X137705031Y-88832909D01*
X137759600Y-88838500D01*
X137928406Y-88838500D01*
X137996527Y-88858502D01*
X138017501Y-88875405D01*
X139958343Y-90816247D01*
X139965887Y-90824537D01*
X139970000Y-90831018D01*
X139975777Y-90836443D01*
X140019667Y-90877658D01*
X140022509Y-90880413D01*
X140042231Y-90900135D01*
X140045355Y-90902558D01*
X140045359Y-90902562D01*
X140045424Y-90902612D01*
X140054445Y-90910317D01*
X140086679Y-90940586D01*
X140093627Y-90944405D01*
X140093629Y-90944407D01*
X140104432Y-90950346D01*
X140120959Y-90961202D01*
X140130698Y-90968757D01*
X140130700Y-90968758D01*
X140136960Y-90973614D01*
X140177540Y-90991174D01*
X140188188Y-90996391D01*
X140205440Y-91005875D01*
X140226940Y-91017695D01*
X140234616Y-91019666D01*
X140234619Y-91019667D01*
X140246562Y-91022733D01*
X140265266Y-91029137D01*
X140269849Y-91031120D01*
X140283855Y-91037181D01*
X140291678Y-91038420D01*
X140291688Y-91038423D01*
X140327524Y-91044099D01*
X140339144Y-91046505D01*
X140374289Y-91055528D01*
X140381970Y-91057500D01*
X140402224Y-91057500D01*
X140421934Y-91059051D01*
X140441943Y-91062220D01*
X140449835Y-91061474D01*
X140485961Y-91058059D01*
X140497819Y-91057500D01*
X143055800Y-91057500D01*
X143123921Y-91077502D01*
X143143147Y-91093843D01*
X143143420Y-91093540D01*
X143148332Y-91097963D01*
X143152747Y-91102866D01*
X143307248Y-91215118D01*
X143313276Y-91217802D01*
X143313278Y-91217803D01*
X143382124Y-91248455D01*
X143481712Y-91292794D01*
X143567063Y-91310936D01*
X143662056Y-91331128D01*
X143662061Y-91331128D01*
X143668513Y-91332500D01*
X143859487Y-91332500D01*
X143865939Y-91331128D01*
X143865944Y-91331128D01*
X143960937Y-91310936D01*
X144046288Y-91292794D01*
X144145876Y-91248455D01*
X144214722Y-91217803D01*
X144214724Y-91217802D01*
X144220752Y-91215118D01*
X144375253Y-91102866D01*
X144411851Y-91062220D01*
X144498621Y-90965852D01*
X144498622Y-90965851D01*
X144503040Y-90960944D01*
X144578053Y-90831018D01*
X144595223Y-90801279D01*
X144595224Y-90801278D01*
X144598527Y-90795556D01*
X144605667Y-90773581D01*
X144645741Y-90714975D01*
X144711138Y-90687339D01*
X144781095Y-90699446D01*
X144833401Y-90747453D01*
X144851500Y-90812518D01*
X144851500Y-90932930D01*
X144850067Y-90951880D01*
X144846801Y-90973349D01*
X144847394Y-90980641D01*
X144847394Y-90980644D01*
X144851085Y-91026018D01*
X144851500Y-91036233D01*
X144851500Y-91044293D01*
X144851925Y-91047937D01*
X144854789Y-91072507D01*
X144855222Y-91076882D01*
X144857652Y-91106749D01*
X144861140Y-91149637D01*
X144863396Y-91156601D01*
X144864587Y-91162560D01*
X144865971Y-91168415D01*
X144866818Y-91175681D01*
X144891735Y-91244327D01*
X144893152Y-91248455D01*
X144915649Y-91317899D01*
X144919445Y-91324154D01*
X144921951Y-91329628D01*
X144924670Y-91335058D01*
X144927167Y-91341937D01*
X144931180Y-91348057D01*
X144931180Y-91348058D01*
X144967186Y-91402976D01*
X144969523Y-91406680D01*
X145007405Y-91469107D01*
X145011121Y-91473315D01*
X145011122Y-91473316D01*
X145014803Y-91477484D01*
X145014776Y-91477508D01*
X145017429Y-91480500D01*
X145020132Y-91483733D01*
X145024144Y-91489852D01*
X145029456Y-91494884D01*
X145080383Y-91543128D01*
X145082825Y-91545506D01*
X145466230Y-91928911D01*
X145478616Y-91943323D01*
X145487149Y-91954918D01*
X145487154Y-91954923D01*
X145491492Y-91960818D01*
X145497070Y-91965557D01*
X145497073Y-91965560D01*
X145531768Y-91995035D01*
X145539284Y-92001965D01*
X145544979Y-92007660D01*
X145547861Y-92009940D01*
X145567251Y-92025281D01*
X145570655Y-92028072D01*
X145610445Y-92061876D01*
X145626285Y-92075333D01*
X145632801Y-92078661D01*
X145637850Y-92082028D01*
X145642979Y-92085195D01*
X145648716Y-92089734D01*
X145714875Y-92120655D01*
X145718769Y-92122558D01*
X145783808Y-92155769D01*
X145790916Y-92157508D01*
X145796559Y-92159607D01*
X145802322Y-92161524D01*
X145808950Y-92164622D01*
X145816112Y-92166112D01*
X145816113Y-92166112D01*
X145880412Y-92179486D01*
X145884696Y-92180456D01*
X145955610Y-92197808D01*
X145961212Y-92198156D01*
X145961215Y-92198156D01*
X145966764Y-92198500D01*
X145966762Y-92198536D01*
X145970755Y-92198775D01*
X145974947Y-92199149D01*
X145982115Y-92200640D01*
X146059520Y-92198546D01*
X146062928Y-92198500D01*
X151062930Y-92198500D01*
X151081880Y-92199933D01*
X151096115Y-92202099D01*
X151096119Y-92202099D01*
X151103349Y-92203199D01*
X151110641Y-92202606D01*
X151110644Y-92202606D01*
X151156018Y-92198915D01*
X151166233Y-92198500D01*
X151174293Y-92198500D01*
X151191680Y-92196473D01*
X151202507Y-92195211D01*
X151206882Y-92194778D01*
X151272339Y-92189454D01*
X151272342Y-92189453D01*
X151279637Y-92188860D01*
X151286601Y-92186604D01*
X151292560Y-92185413D01*
X151298415Y-92184029D01*
X151305681Y-92183182D01*
X151374327Y-92158265D01*
X151378455Y-92156848D01*
X151440936Y-92136607D01*
X151440938Y-92136606D01*
X151447899Y-92134351D01*
X151454154Y-92130555D01*
X151459628Y-92128049D01*
X151465058Y-92125330D01*
X151471937Y-92122833D01*
X151478058Y-92118820D01*
X151532976Y-92082814D01*
X151536680Y-92080477D01*
X151599107Y-92042595D01*
X151607484Y-92035197D01*
X151607508Y-92035224D01*
X151610500Y-92032571D01*
X151613733Y-92029868D01*
X151619852Y-92025856D01*
X151673128Y-91969617D01*
X151675506Y-91967175D01*
X152246905Y-91395776D01*
X152309217Y-91361750D01*
X152380032Y-91366815D01*
X152436868Y-91409362D01*
X152461679Y-91475882D01*
X152462000Y-91484871D01*
X152462000Y-91532885D01*
X152466475Y-91548124D01*
X152467865Y-91549329D01*
X152475548Y-91551000D01*
X154859884Y-91551000D01*
X154875123Y-91546525D01*
X154876328Y-91545135D01*
X154877999Y-91537452D01*
X154877999Y-91407901D01*
X154877662Y-91401386D01*
X154867743Y-91305794D01*
X154864851Y-91292400D01*
X154813412Y-91138216D01*
X154807239Y-91125038D01*
X154721937Y-90987193D01*
X154712901Y-90975792D01*
X154631538Y-90894570D01*
X154597459Y-90832287D01*
X154602462Y-90761467D01*
X154631383Y-90716380D01*
X154714130Y-90633488D01*
X154714134Y-90633483D01*
X154719305Y-90628303D01*
X154729251Y-90612168D01*
X154808275Y-90483968D01*
X154808276Y-90483966D01*
X154812115Y-90477738D01*
X154865619Y-90316427D01*
X159261223Y-90316427D01*
X159267968Y-90328758D01*
X160007188Y-91067978D01*
X160021132Y-91075592D01*
X160022965Y-91075461D01*
X160029580Y-91071210D01*
X160773389Y-90327401D01*
X160780410Y-90314544D01*
X160773611Y-90305213D01*
X160769554Y-90302518D01*
X160583117Y-90199599D01*
X160573705Y-90195369D01*
X160372959Y-90124280D01*
X160362989Y-90121646D01*
X160153327Y-90084301D01*
X160143073Y-90083331D01*
X159930116Y-90080728D01*
X159919832Y-90081448D01*
X159709321Y-90113661D01*
X159699293Y-90116050D01*
X159496868Y-90182212D01*
X159487359Y-90186209D01*
X159298466Y-90284540D01*
X159289734Y-90290039D01*
X159269677Y-90305099D01*
X159261223Y-90316427D01*
X154865619Y-90316427D01*
X154867797Y-90309861D01*
X154868550Y-90302518D01*
X154875634Y-90233368D01*
X154878500Y-90205400D01*
X154878500Y-89784500D01*
X154898502Y-89716379D01*
X154952158Y-89669886D01*
X155004500Y-89658500D01*
X156282491Y-89658500D01*
X156350612Y-89678502D01*
X156379402Y-89705595D01*
X156379987Y-89705088D01*
X156526250Y-89873938D01*
X156698126Y-90016632D01*
X156891000Y-90129338D01*
X157099692Y-90209030D01*
X157104760Y-90210061D01*
X157104763Y-90210062D01*
X157191919Y-90227794D01*
X157318597Y-90253567D01*
X157323772Y-90253757D01*
X157323774Y-90253757D01*
X157536673Y-90261564D01*
X157536677Y-90261564D01*
X157541837Y-90261753D01*
X157546957Y-90261097D01*
X157546959Y-90261097D01*
X157758288Y-90234025D01*
X157758289Y-90234025D01*
X157763416Y-90233368D01*
X157781995Y-90227794D01*
X157972429Y-90170661D01*
X157972434Y-90170659D01*
X157977384Y-90169174D01*
X158177994Y-90070896D01*
X158359860Y-89941173D01*
X158408429Y-89892774D01*
X158511060Y-89790500D01*
X158518096Y-89783489D01*
X158565987Y-89716842D01*
X158645435Y-89606277D01*
X158648453Y-89602077D01*
X158679381Y-89539500D01*
X158745136Y-89406453D01*
X158745137Y-89406451D01*
X158747430Y-89401811D01*
X158791351Y-89257250D01*
X158810865Y-89193023D01*
X158810865Y-89193021D01*
X158812370Y-89188069D01*
X158841529Y-88966590D01*
X158842194Y-88939393D01*
X158843074Y-88903365D01*
X158843074Y-88903361D01*
X158843156Y-88900000D01*
X158825870Y-88689747D01*
X158840223Y-88620219D01*
X158862351Y-88590330D01*
X161778911Y-85673770D01*
X161793323Y-85661384D01*
X161804918Y-85652851D01*
X161804923Y-85652846D01*
X161810818Y-85648508D01*
X161815557Y-85642930D01*
X161815560Y-85642927D01*
X161845035Y-85608232D01*
X161851965Y-85600716D01*
X161857661Y-85595020D01*
X161859924Y-85592159D01*
X161859929Y-85592154D01*
X161875293Y-85572734D01*
X161878082Y-85569333D01*
X161900821Y-85542567D01*
X161925333Y-85513715D01*
X161928659Y-85507202D01*
X161932020Y-85502163D01*
X161935196Y-85497021D01*
X161939734Y-85491284D01*
X161970655Y-85425125D01*
X161972561Y-85421225D01*
X161974908Y-85416629D01*
X162005769Y-85356192D01*
X162007508Y-85349083D01*
X162009604Y-85343449D01*
X162011523Y-85337679D01*
X162014622Y-85331050D01*
X162016146Y-85323726D01*
X162029490Y-85259571D01*
X162030461Y-85255282D01*
X162030600Y-85254715D01*
X162047808Y-85184390D01*
X162048500Y-85173236D01*
X162048535Y-85173238D01*
X162048775Y-85169266D01*
X162049152Y-85165045D01*
X162050641Y-85157885D01*
X162048546Y-85080458D01*
X162048500Y-85077050D01*
X162048500Y-82472632D01*
X162068502Y-82404511D01*
X162101331Y-82370054D01*
X162169860Y-82321173D01*
X162328096Y-82163489D01*
X162387594Y-82080689D01*
X162455435Y-81986277D01*
X162458453Y-81982077D01*
X162471605Y-81955467D01*
X162555136Y-81786453D01*
X162555137Y-81786451D01*
X162557430Y-81781811D01*
X162622370Y-81568069D01*
X162651529Y-81346590D01*
X162653156Y-81280000D01*
X162634852Y-81057361D01*
X162580431Y-80840702D01*
X162491354Y-80635840D01*
X162370014Y-80448277D01*
X162219670Y-80283051D01*
X162096407Y-80185703D01*
X162055345Y-80127785D01*
X162048500Y-80086821D01*
X162048500Y-79932632D01*
X162068502Y-79864511D01*
X162101331Y-79830054D01*
X162169860Y-79781173D01*
X162328096Y-79623489D01*
X162387594Y-79540689D01*
X162455435Y-79446277D01*
X162458453Y-79442077D01*
X162552642Y-79251500D01*
X162555136Y-79246453D01*
X162555137Y-79246451D01*
X162557430Y-79241811D01*
X162609506Y-79070410D01*
X162620865Y-79033023D01*
X162620865Y-79033021D01*
X162622370Y-79028069D01*
X162651529Y-78806590D01*
X162653156Y-78740000D01*
X162634852Y-78517361D01*
X162580431Y-78300702D01*
X162491354Y-78095840D01*
X162370014Y-77908277D01*
X162219670Y-77743051D01*
X162215619Y-77739852D01*
X162215615Y-77739848D01*
X162048414Y-77607800D01*
X162048410Y-77607798D01*
X162044359Y-77604598D01*
X161848789Y-77496638D01*
X161843920Y-77494914D01*
X161843916Y-77494912D01*
X161643087Y-77423795D01*
X161643083Y-77423794D01*
X161638212Y-77422069D01*
X161633119Y-77421162D01*
X161633116Y-77421161D01*
X161423373Y-77383800D01*
X161423367Y-77383799D01*
X161418284Y-77382894D01*
X161344452Y-77381992D01*
X161200081Y-77380228D01*
X161200079Y-77380228D01*
X161194911Y-77380165D01*
X160974091Y-77413955D01*
X160761756Y-77483357D01*
X160563607Y-77586507D01*
X160559474Y-77589610D01*
X160559471Y-77589612D01*
X160389100Y-77717530D01*
X160384965Y-77720635D01*
X160230629Y-77882138D01*
X160104743Y-78066680D01*
X160010688Y-78269305D01*
X159950989Y-78484570D01*
X159927251Y-78706695D01*
X159927548Y-78711848D01*
X159927548Y-78711851D01*
X159933011Y-78806590D01*
X159940110Y-78929715D01*
X159941247Y-78934761D01*
X159941248Y-78934767D01*
X159959107Y-79014011D01*
X159989222Y-79147639D01*
X160073266Y-79354616D01*
X160189987Y-79545088D01*
X160336250Y-79713938D01*
X160484124Y-79836705D01*
X160485985Y-79838250D01*
X160525620Y-79897152D01*
X160531500Y-79935194D01*
X160531500Y-80087655D01*
X160511498Y-80155776D01*
X160481153Y-80188415D01*
X160419756Y-80234513D01*
X160384965Y-80260635D01*
X160230629Y-80422138D01*
X160227715Y-80426410D01*
X160227714Y-80426411D01*
X160215404Y-80444457D01*
X160104743Y-80606680D01*
X160089003Y-80640590D01*
X160041234Y-80743500D01*
X160010688Y-80809305D01*
X159950989Y-81024570D01*
X159927251Y-81246695D01*
X159927548Y-81251848D01*
X159927548Y-81251851D01*
X159935926Y-81397143D01*
X159940110Y-81469715D01*
X159941247Y-81474761D01*
X159941248Y-81474767D01*
X159953257Y-81528051D01*
X159989222Y-81687639D01*
X160027461Y-81781811D01*
X160070588Y-81888020D01*
X160073266Y-81894616D01*
X160108801Y-81952604D01*
X160181573Y-82071357D01*
X160189987Y-82085088D01*
X160336250Y-82253938D01*
X160484124Y-82376705D01*
X160485985Y-82378250D01*
X160525620Y-82437152D01*
X160531500Y-82475194D01*
X160531500Y-84723629D01*
X160511498Y-84791750D01*
X160494595Y-84812724D01*
X157787296Y-87520023D01*
X157724984Y-87554049D01*
X157676105Y-87554975D01*
X157608284Y-87542894D01*
X157534452Y-87541992D01*
X157390081Y-87540228D01*
X157390079Y-87540228D01*
X157384911Y-87540165D01*
X157164091Y-87573955D01*
X156951756Y-87643357D01*
X156921449Y-87659134D01*
X156780895Y-87732302D01*
X156753607Y-87746507D01*
X156749474Y-87749610D01*
X156749471Y-87749612D01*
X156585179Y-87872966D01*
X156574965Y-87880635D01*
X156420629Y-88042138D01*
X156390363Y-88086507D01*
X156335455Y-88131507D01*
X156286277Y-88141500D01*
X155805462Y-88141500D01*
X155737341Y-88121498D01*
X155690848Y-88067842D01*
X155680744Y-87997568D01*
X155713993Y-87928843D01*
X155715632Y-87927113D01*
X155718006Y-87924675D01*
X157968911Y-85673770D01*
X157983323Y-85661384D01*
X157994918Y-85652851D01*
X157994923Y-85652846D01*
X158000818Y-85648508D01*
X158005557Y-85642930D01*
X158005560Y-85642927D01*
X158035035Y-85608232D01*
X158041965Y-85600716D01*
X158047661Y-85595020D01*
X158049924Y-85592159D01*
X158049929Y-85592154D01*
X158065293Y-85572734D01*
X158068082Y-85569333D01*
X158090821Y-85542567D01*
X158115333Y-85513715D01*
X158118659Y-85507202D01*
X158122020Y-85502163D01*
X158125196Y-85497021D01*
X158129734Y-85491284D01*
X158160655Y-85425125D01*
X158162561Y-85421225D01*
X158164908Y-85416629D01*
X158195769Y-85356192D01*
X158197508Y-85349083D01*
X158199604Y-85343449D01*
X158201523Y-85337679D01*
X158204622Y-85331050D01*
X158206146Y-85323726D01*
X158219490Y-85259571D01*
X158220461Y-85255282D01*
X158220600Y-85254715D01*
X158237808Y-85184390D01*
X158238500Y-85173236D01*
X158238535Y-85173238D01*
X158238775Y-85169266D01*
X158239152Y-85165045D01*
X158240641Y-85157885D01*
X158238546Y-85080458D01*
X158238500Y-85077050D01*
X158238500Y-82764500D01*
X158258502Y-82696379D01*
X158312158Y-82649886D01*
X158364500Y-82638500D01*
X158378134Y-82638500D01*
X158440316Y-82631745D01*
X158576705Y-82580615D01*
X158693261Y-82493261D01*
X158780615Y-82376705D01*
X158831745Y-82240316D01*
X158838500Y-82178134D01*
X158838500Y-80381866D01*
X158831745Y-80319684D01*
X158780615Y-80183295D01*
X158707370Y-80085564D01*
X158682522Y-80019059D01*
X158697575Y-79949676D01*
X158707370Y-79934435D01*
X158780615Y-79836705D01*
X158831745Y-79700316D01*
X158838500Y-79638134D01*
X158838500Y-77841866D01*
X158831745Y-77779684D01*
X158780615Y-77643295D01*
X158693261Y-77526739D01*
X158576705Y-77439385D01*
X158440316Y-77388255D01*
X158378134Y-77381500D01*
X156581866Y-77381500D01*
X156519684Y-77388255D01*
X156383295Y-77439385D01*
X156266739Y-77526739D01*
X156179385Y-77643295D01*
X156128255Y-77779684D01*
X156121500Y-77841866D01*
X156121500Y-79638134D01*
X156128255Y-79700316D01*
X156179385Y-79836705D01*
X156252630Y-79934435D01*
X156277478Y-80000941D01*
X156262425Y-80070324D01*
X156252632Y-80085562D01*
X156179385Y-80183295D01*
X156128255Y-80319684D01*
X156121500Y-80381866D01*
X156121500Y-82178134D01*
X156128255Y-82240316D01*
X156179385Y-82376705D01*
X156266739Y-82493261D01*
X156383295Y-82580615D01*
X156519684Y-82631745D01*
X156581866Y-82638500D01*
X156595500Y-82638500D01*
X156663621Y-82658502D01*
X156710114Y-82712158D01*
X156721500Y-82764500D01*
X156721500Y-84723629D01*
X156701498Y-84791750D01*
X156684595Y-84812724D01*
X154895224Y-86602095D01*
X154832912Y-86636121D01*
X154806129Y-86639000D01*
X153764224Y-86639000D01*
X153696103Y-86618998D01*
X153649610Y-86565342D01*
X153638224Y-86513000D01*
X153638224Y-85594615D01*
X153633749Y-85579376D01*
X153632359Y-85578171D01*
X153624676Y-85576500D01*
X151179891Y-85576500D01*
X151164652Y-85580975D01*
X151163447Y-85582365D01*
X151161776Y-85590048D01*
X151161776Y-86609176D01*
X151161799Y-86610836D01*
X151162376Y-86632271D01*
X151163567Y-86642881D01*
X151171971Y-86685061D01*
X151173117Y-86727611D01*
X151170545Y-86745500D01*
X151167967Y-86763432D01*
X151138474Y-86828013D01*
X151078748Y-86866396D01*
X151043250Y-86871500D01*
X150664500Y-86871500D01*
X150596379Y-86851498D01*
X150549886Y-86797842D01*
X150538500Y-86745500D01*
X150538500Y-86306866D01*
X150531745Y-86244684D01*
X150480615Y-86108295D01*
X150393261Y-85991739D01*
X150276705Y-85904385D01*
X150140316Y-85853255D01*
X150078134Y-85846500D01*
X149914500Y-85846500D01*
X149846379Y-85826498D01*
X149799886Y-85772842D01*
X149788500Y-85720500D01*
X149788500Y-85050385D01*
X151161776Y-85050385D01*
X151166251Y-85065624D01*
X151167641Y-85066829D01*
X151175324Y-85068500D01*
X152127885Y-85068500D01*
X152143124Y-85064025D01*
X152144329Y-85062635D01*
X152146000Y-85054952D01*
X152146000Y-85050385D01*
X152654000Y-85050385D01*
X152658475Y-85065624D01*
X152659865Y-85066829D01*
X152667548Y-85068500D01*
X153620109Y-85068500D01*
X153635348Y-85064025D01*
X153636553Y-85062635D01*
X153638224Y-85054952D01*
X153638224Y-84737257D01*
X153638063Y-84732750D01*
X153633482Y-84668700D01*
X153631096Y-84655478D01*
X153594384Y-84530445D01*
X153586974Y-84514219D01*
X153517740Y-84406490D01*
X153506059Y-84393009D01*
X153409281Y-84309150D01*
X153394272Y-84299504D01*
X153277788Y-84246308D01*
X153260675Y-84241283D01*
X153129446Y-84222415D01*
X153120505Y-84221776D01*
X152672115Y-84221776D01*
X152656876Y-84226251D01*
X152655671Y-84227641D01*
X152654000Y-84235324D01*
X152654000Y-85050385D01*
X152146000Y-85050385D01*
X152146000Y-84239891D01*
X152141525Y-84224652D01*
X152140135Y-84223447D01*
X152132452Y-84221776D01*
X151677257Y-84221776D01*
X151672750Y-84221937D01*
X151608700Y-84226518D01*
X151595478Y-84228904D01*
X151470445Y-84265616D01*
X151454219Y-84273026D01*
X151346490Y-84342260D01*
X151333009Y-84353941D01*
X151249150Y-84450719D01*
X151239504Y-84465728D01*
X151186308Y-84582212D01*
X151181283Y-84599325D01*
X151162415Y-84730554D01*
X151161776Y-84739495D01*
X151161776Y-85050385D01*
X149788500Y-85050385D01*
X149788500Y-84581069D01*
X149789933Y-84562118D01*
X149792099Y-84547883D01*
X149792099Y-84547881D01*
X149793199Y-84540651D01*
X149788915Y-84487982D01*
X149788500Y-84477767D01*
X149788500Y-84469707D01*
X149785211Y-84441493D01*
X149784778Y-84437118D01*
X149779454Y-84371661D01*
X149779453Y-84371658D01*
X149778860Y-84364363D01*
X149776604Y-84357399D01*
X149775413Y-84351440D01*
X149774029Y-84345585D01*
X149773182Y-84338319D01*
X149748265Y-84269673D01*
X149746848Y-84265545D01*
X149726607Y-84203064D01*
X149726606Y-84203062D01*
X149724351Y-84196101D01*
X149720555Y-84189846D01*
X149718049Y-84184372D01*
X149715330Y-84178942D01*
X149712833Y-84172063D01*
X149672809Y-84111016D01*
X149670472Y-84107312D01*
X149635509Y-84049693D01*
X149635505Y-84049688D01*
X149632595Y-84044892D01*
X149626215Y-84037668D01*
X149625197Y-84036516D01*
X149625223Y-84036493D01*
X149622574Y-84033503D01*
X149619866Y-84030264D01*
X149615856Y-84024148D01*
X149610549Y-84019121D01*
X149610546Y-84019117D01*
X149559617Y-83970872D01*
X149557175Y-83968494D01*
X149472276Y-83883595D01*
X149438250Y-83821283D01*
X149443315Y-83750468D01*
X149485862Y-83693632D01*
X149552382Y-83668821D01*
X149561371Y-83668500D01*
X150632542Y-83668500D01*
X150635082Y-83668293D01*
X150635092Y-83668293D01*
X150720295Y-83661362D01*
X150774200Y-83656978D01*
X150833970Y-83641632D01*
X150986361Y-83602505D01*
X150986362Y-83602505D01*
X150991794Y-83601110D01*
X151196055Y-83507591D01*
X151380527Y-83379380D01*
X151539380Y-83220527D01*
X151643619Y-83070546D01*
X151664390Y-83040661D01*
X151664391Y-83040659D01*
X151667591Y-83036055D01*
X151761110Y-82831794D01*
X151789873Y-82719767D01*
X151815644Y-82619396D01*
X151815644Y-82619395D01*
X151816978Y-82614200D01*
X151827399Y-82486081D01*
X151828293Y-82475092D01*
X151828293Y-82475082D01*
X151828500Y-82472542D01*
X151828500Y-80904484D01*
X151848502Y-80836363D01*
X151902158Y-80789870D01*
X151972432Y-80779766D01*
X152036163Y-80808530D01*
X152075650Y-80842136D01*
X152248294Y-80938624D01*
X152436392Y-80999740D01*
X152632777Y-81023158D01*
X152638912Y-81022686D01*
X152638914Y-81022686D01*
X152823830Y-81008457D01*
X152823834Y-81008456D01*
X152829972Y-81007984D01*
X153020463Y-80954798D01*
X153025967Y-80952018D01*
X153025969Y-80952017D01*
X153191495Y-80868404D01*
X153191497Y-80868403D01*
X153196996Y-80865625D01*
X153352847Y-80743861D01*
X153482078Y-80594145D01*
X153579769Y-80422179D01*
X153642197Y-80234513D01*
X153666985Y-80038295D01*
X153667380Y-80010000D01*
X153648080Y-79813167D01*
X153638421Y-79781173D01*
X153595234Y-79638134D01*
X153590916Y-79623831D01*
X153498066Y-79449204D01*
X153417018Y-79349829D01*
X153376960Y-79300713D01*
X153376957Y-79300710D01*
X153373065Y-79295938D01*
X153307637Y-79241811D01*
X153225425Y-79173799D01*
X153225421Y-79173797D01*
X153220675Y-79169870D01*
X153046701Y-79075802D01*
X152857768Y-79017318D01*
X152851643Y-79016674D01*
X152851642Y-79016674D01*
X152667204Y-78997289D01*
X152667202Y-78997289D01*
X152661075Y-78996645D01*
X152578576Y-79004153D01*
X152470251Y-79014011D01*
X152470248Y-79014012D01*
X152464112Y-79014570D01*
X152458206Y-79016308D01*
X152458202Y-79016309D01*
X152403054Y-79032540D01*
X152274381Y-79070410D01*
X152268923Y-79073263D01*
X152268919Y-79073265D01*
X152216824Y-79100500D01*
X152099110Y-79162040D01*
X152094312Y-79165898D01*
X152094310Y-79165899D01*
X152033452Y-79214830D01*
X151967829Y-79241926D01*
X151897975Y-79229242D01*
X151846067Y-79180806D01*
X151828500Y-79116633D01*
X151828500Y-77547458D01*
X151824367Y-77496638D01*
X151819453Y-77436233D01*
X151816978Y-77405800D01*
X151813186Y-77391029D01*
X151762505Y-77193639D01*
X151762505Y-77193638D01*
X151761110Y-77188206D01*
X151667591Y-76983945D01*
X151539380Y-76799473D01*
X151463502Y-76723595D01*
X151429476Y-76661283D01*
X151434541Y-76590468D01*
X151477088Y-76533632D01*
X151543608Y-76508821D01*
X151552597Y-76508500D01*
X163365500Y-76508500D01*
X163433621Y-76528502D01*
X163480114Y-76582158D01*
X163491500Y-76634500D01*
X163491500Y-87648906D01*
X163471498Y-87717027D01*
X163417842Y-87763520D01*
X163347568Y-87773624D01*
X163304610Y-87759216D01*
X163118789Y-87656638D01*
X163113920Y-87654914D01*
X163113916Y-87654912D01*
X162913087Y-87583795D01*
X162913083Y-87583794D01*
X162908212Y-87582069D01*
X162903119Y-87581162D01*
X162903116Y-87581161D01*
X162693373Y-87543800D01*
X162693367Y-87543799D01*
X162688284Y-87542894D01*
X162614452Y-87541992D01*
X162470081Y-87540228D01*
X162470079Y-87540228D01*
X162464911Y-87540165D01*
X162244091Y-87573955D01*
X162031756Y-87643357D01*
X162001449Y-87659134D01*
X161860895Y-87732302D01*
X161833607Y-87746507D01*
X161829474Y-87749610D01*
X161829471Y-87749612D01*
X161665179Y-87872966D01*
X161654965Y-87880635D01*
X161500629Y-88042138D01*
X161497720Y-88046403D01*
X161497714Y-88046411D01*
X161466717Y-88091851D01*
X161374743Y-88226680D01*
X161343630Y-88293708D01*
X161290102Y-88409025D01*
X161280688Y-88429305D01*
X161220989Y-88644570D01*
X161197251Y-88866695D01*
X161197548Y-88871848D01*
X161197548Y-88871851D01*
X161203011Y-88966590D01*
X161210110Y-89089715D01*
X161211247Y-89094761D01*
X161211248Y-89094767D01*
X161226971Y-89164533D01*
X161259222Y-89307639D01*
X161306831Y-89424886D01*
X161332117Y-89487158D01*
X161343266Y-89514616D01*
X161345965Y-89519020D01*
X161418118Y-89636763D01*
X161459987Y-89705088D01*
X161606250Y-89873938D01*
X161778126Y-90016632D01*
X161971000Y-90129338D01*
X162179692Y-90209030D01*
X162184760Y-90210061D01*
X162184763Y-90210062D01*
X162271919Y-90227794D01*
X162398597Y-90253567D01*
X162403772Y-90253757D01*
X162403774Y-90253757D01*
X162616673Y-90261564D01*
X162616677Y-90261564D01*
X162621837Y-90261753D01*
X162626957Y-90261097D01*
X162626959Y-90261097D01*
X162838288Y-90234025D01*
X162838289Y-90234025D01*
X162843416Y-90233368D01*
X162861995Y-90227794D01*
X163052429Y-90170661D01*
X163052434Y-90170659D01*
X163057384Y-90169174D01*
X163257994Y-90070896D01*
X163262199Y-90067896D01*
X163262205Y-90067893D01*
X163292332Y-90046403D01*
X163359405Y-90023130D01*
X163428414Y-90039813D01*
X163477447Y-90091157D01*
X163491500Y-90148982D01*
X163491500Y-92365500D01*
X163471498Y-92433621D01*
X163417842Y-92480114D01*
X163365500Y-92491500D01*
X161182447Y-92491500D01*
X161114326Y-92471498D01*
X161067833Y-92417842D01*
X161057729Y-92347568D01*
X161080124Y-92291974D01*
X161185009Y-92146011D01*
X161190313Y-92137183D01*
X161284670Y-91946267D01*
X161288469Y-91936672D01*
X161350376Y-91732915D01*
X161352555Y-91722834D01*
X161380590Y-91509887D01*
X161381109Y-91503212D01*
X161382572Y-91443364D01*
X161382378Y-91436646D01*
X161364781Y-91222604D01*
X161363096Y-91212424D01*
X161311214Y-91005875D01*
X161307894Y-90996124D01*
X161222972Y-90800814D01*
X161218105Y-90791739D01*
X161153063Y-90691197D01*
X161142377Y-90681995D01*
X161132812Y-90686398D01*
X160109095Y-91710115D01*
X160046783Y-91744141D01*
X159975968Y-91739076D01*
X159930905Y-91710115D01*
X158909849Y-90689059D01*
X158898313Y-90682759D01*
X158886031Y-90692382D01*
X158838089Y-90762662D01*
X158833004Y-90771613D01*
X158743338Y-90964783D01*
X158739775Y-90974470D01*
X158682864Y-91179681D01*
X158680933Y-91189800D01*
X158658302Y-91401574D01*
X158658050Y-91411863D01*
X158670309Y-91624477D01*
X158671745Y-91634697D01*
X158718565Y-91842446D01*
X158721645Y-91852275D01*
X158801770Y-92049603D01*
X158806413Y-92058794D01*
X158917694Y-92240388D01*
X158923772Y-92248691D01*
X158953493Y-92283003D01*
X158982975Y-92347589D01*
X158972860Y-92417861D01*
X158926358Y-92471509D01*
X158858255Y-92491500D01*
X154981566Y-92491500D01*
X154913445Y-92471498D01*
X154866952Y-92417842D01*
X154856848Y-92347568D01*
X154861973Y-92325834D01*
X154865136Y-92316297D01*
X154868005Y-92302914D01*
X154877672Y-92208562D01*
X154878000Y-92202146D01*
X154878000Y-92077115D01*
X154873525Y-92061876D01*
X154872135Y-92060671D01*
X154864452Y-92059000D01*
X152480116Y-92059000D01*
X152464877Y-92063475D01*
X152463672Y-92064865D01*
X152462001Y-92072548D01*
X152462001Y-92202095D01*
X152462338Y-92208614D01*
X152472257Y-92304206D01*
X152475150Y-92317605D01*
X152477825Y-92325623D01*
X152480410Y-92396573D01*
X152444227Y-92457657D01*
X152380763Y-92489482D01*
X152358302Y-92491500D01*
X126634500Y-92491500D01*
X126566379Y-92471498D01*
X126519886Y-92417842D01*
X126508500Y-92365500D01*
X126508500Y-87872966D01*
X128208257Y-87872966D01*
X128238565Y-88007446D01*
X128241645Y-88017275D01*
X128321770Y-88214603D01*
X128326413Y-88223794D01*
X128437694Y-88405388D01*
X128443777Y-88413699D01*
X128583213Y-88574667D01*
X128590580Y-88581883D01*
X128754434Y-88717916D01*
X128762881Y-88723831D01*
X128946756Y-88831279D01*
X128956042Y-88835729D01*
X129155001Y-88911703D01*
X129164899Y-88914579D01*
X129268250Y-88935606D01*
X129282299Y-88934410D01*
X129286000Y-88924065D01*
X129286000Y-88923517D01*
X129794000Y-88923517D01*
X129798064Y-88937359D01*
X129811478Y-88939393D01*
X129818184Y-88938534D01*
X129828262Y-88936392D01*
X130032255Y-88875191D01*
X130041842Y-88871433D01*
X130233095Y-88777739D01*
X130241945Y-88772464D01*
X130415328Y-88648792D01*
X130423200Y-88642139D01*
X130574052Y-88491812D01*
X130580730Y-88483965D01*
X130705003Y-88311020D01*
X130710313Y-88302183D01*
X130804670Y-88111267D01*
X130808469Y-88101672D01*
X130870377Y-87897910D01*
X130872555Y-87887837D01*
X130873986Y-87876962D01*
X130871775Y-87862778D01*
X130858617Y-87859000D01*
X129812115Y-87859000D01*
X129796876Y-87863475D01*
X129795671Y-87864865D01*
X129794000Y-87872548D01*
X129794000Y-88923517D01*
X129286000Y-88923517D01*
X129286000Y-87877115D01*
X129281525Y-87861876D01*
X129280135Y-87860671D01*
X129272452Y-87859000D01*
X128223225Y-87859000D01*
X128209694Y-87862973D01*
X128208257Y-87872966D01*
X126508500Y-87872966D01*
X126508500Y-76634500D01*
X126528502Y-76566379D01*
X126582158Y-76519886D01*
X126634500Y-76508500D01*
X143087403Y-76508500D01*
X143155524Y-76528502D01*
G37*
%TD.AperFunction*%
%TA.AperFunction,Conductor*%
G36*
X148037750Y-84598502D02*
G01*
X148058724Y-84615405D01*
X148234595Y-84791276D01*
X148268621Y-84853588D01*
X148271500Y-84880371D01*
X148271500Y-85720500D01*
X148251498Y-85788621D01*
X148197842Y-85835114D01*
X148145500Y-85846500D01*
X147981866Y-85846500D01*
X147919684Y-85853255D01*
X147783295Y-85904385D01*
X147666739Y-85991739D01*
X147579385Y-86108295D01*
X147528255Y-86244684D01*
X147521500Y-86306866D01*
X147521500Y-87053134D01*
X147528255Y-87115316D01*
X147531029Y-87122715D01*
X147531775Y-87125854D01*
X147531775Y-87184146D01*
X147531029Y-87187285D01*
X147528255Y-87194684D01*
X147521500Y-87256866D01*
X147521500Y-88003134D01*
X147528255Y-88065316D01*
X147531029Y-88072715D01*
X147531775Y-88075854D01*
X147531775Y-88134146D01*
X147531029Y-88137285D01*
X147528255Y-88144684D01*
X147521500Y-88206866D01*
X147521500Y-88953134D01*
X147528255Y-89015316D01*
X147579385Y-89151705D01*
X147666739Y-89268261D01*
X147783295Y-89355615D01*
X147919684Y-89406745D01*
X147981866Y-89413500D01*
X148338500Y-89413500D01*
X148406621Y-89433502D01*
X148453114Y-89487158D01*
X148464500Y-89539500D01*
X148464500Y-89721476D01*
X148444498Y-89789597D01*
X148432142Y-89805779D01*
X148358960Y-89887056D01*
X148325985Y-89944171D01*
X148270766Y-90039813D01*
X148263473Y-90052444D01*
X148204458Y-90234072D01*
X148203768Y-90240633D01*
X148203768Y-90240635D01*
X148199154Y-90284540D01*
X148184496Y-90424000D01*
X148185186Y-90430564D01*
X148196933Y-90542329D01*
X148184161Y-90612168D01*
X148135659Y-90664014D01*
X148071623Y-90681500D01*
X146494500Y-90681500D01*
X146426379Y-90661498D01*
X146379886Y-90607842D01*
X146368500Y-90555500D01*
X146368500Y-89539500D01*
X146388502Y-89471379D01*
X146442158Y-89424886D01*
X146494500Y-89413500D01*
X146658134Y-89413500D01*
X146720316Y-89406745D01*
X146856705Y-89355615D01*
X146973261Y-89268261D01*
X147060615Y-89151705D01*
X147111745Y-89015316D01*
X147118500Y-88953134D01*
X147118500Y-88206866D01*
X147111745Y-88144684D01*
X147108971Y-88137284D01*
X147107966Y-88133058D01*
X147107966Y-88074761D01*
X147112105Y-88057354D01*
X147117631Y-88006486D01*
X147118000Y-87999672D01*
X147118000Y-87902115D01*
X147113525Y-87886876D01*
X147112135Y-87885671D01*
X147104452Y-87884000D01*
X147004910Y-87884000D01*
X146936789Y-87863998D01*
X146929345Y-87858826D01*
X146856705Y-87804385D01*
X146720316Y-87753255D01*
X146713010Y-87752461D01*
X146651576Y-87717365D01*
X146618756Y-87654410D01*
X146625182Y-87583705D01*
X146668814Y-87527698D01*
X146712940Y-87507546D01*
X146720316Y-87506745D01*
X146856705Y-87455615D01*
X146929346Y-87401174D01*
X146995851Y-87376326D01*
X147004910Y-87376000D01*
X147099884Y-87376000D01*
X147115123Y-87371525D01*
X147116328Y-87370135D01*
X147117999Y-87362452D01*
X147117999Y-87260331D01*
X147117629Y-87253510D01*
X147112105Y-87202651D01*
X147107965Y-87185236D01*
X147107966Y-87126942D01*
X147108971Y-87122716D01*
X147111745Y-87115316D01*
X147118500Y-87053134D01*
X147118500Y-86306866D01*
X147111745Y-86244684D01*
X147060615Y-86108295D01*
X146973261Y-85991739D01*
X146856705Y-85904385D01*
X146720316Y-85853255D01*
X146658134Y-85846500D01*
X146612426Y-85846500D01*
X146544305Y-85826498D01*
X146497812Y-85772842D01*
X146487708Y-85702568D01*
X146492868Y-85680728D01*
X146495183Y-85673770D01*
X146530197Y-85568513D01*
X146554985Y-85372295D01*
X146555380Y-85344000D01*
X146536080Y-85147167D01*
X146478916Y-84957831D01*
X146416531Y-84840500D01*
X146388958Y-84788643D01*
X146386066Y-84783204D01*
X146382172Y-84778429D01*
X146379381Y-84774229D01*
X146358343Y-84706421D01*
X146377304Y-84638003D01*
X146430245Y-84590698D01*
X146484328Y-84578500D01*
X147969629Y-84578500D01*
X148037750Y-84598502D01*
G37*
%TD.AperFunction*%
%TA.AperFunction,Conductor*%
G36*
X151386131Y-88408502D02*
G01*
X151390449Y-88411277D01*
X151397257Y-88417176D01*
X151530266Y-88477919D01*
X151675000Y-88498729D01*
X152913718Y-88498729D01*
X152981839Y-88518731D01*
X153028332Y-88572387D01*
X153038436Y-88642661D01*
X153008942Y-88707241D01*
X152953594Y-88744252D01*
X152903009Y-88761128D01*
X152902997Y-88761134D01*
X152896054Y-88763450D01*
X152745652Y-88856522D01*
X152740479Y-88861704D01*
X152726802Y-88875405D01*
X152620695Y-88981697D01*
X152616855Y-88987927D01*
X152616854Y-88987928D01*
X152589140Y-89032889D01*
X152536368Y-89080382D01*
X152524889Y-89085205D01*
X152520681Y-89086732D01*
X152516565Y-89088146D01*
X152501280Y-89093097D01*
X152454063Y-89108393D01*
X152454058Y-89108395D01*
X152447101Y-89110649D01*
X152440847Y-89114444D01*
X152435372Y-89116951D01*
X152429942Y-89119670D01*
X152423063Y-89122167D01*
X152416943Y-89126180D01*
X152416942Y-89126180D01*
X152362024Y-89162186D01*
X152358320Y-89164523D01*
X152295893Y-89202405D01*
X152287516Y-89209803D01*
X152287492Y-89209776D01*
X152284500Y-89212429D01*
X152281267Y-89215132D01*
X152275148Y-89219144D01*
X152228619Y-89268261D01*
X152221872Y-89275383D01*
X152219494Y-89277825D01*
X150852724Y-90644595D01*
X150790412Y-90678621D01*
X150763629Y-90681500D01*
X150124377Y-90681500D01*
X150056256Y-90661498D01*
X150009763Y-90607842D01*
X149999067Y-90542329D01*
X150010814Y-90430564D01*
X150011504Y-90424000D01*
X149996846Y-90284540D01*
X149992232Y-90240635D01*
X149992232Y-90240633D01*
X149991542Y-90234072D01*
X149932527Y-90052444D01*
X149925235Y-90039813D01*
X149870015Y-89944171D01*
X149837040Y-89887056D01*
X149763863Y-89805785D01*
X149733147Y-89741779D01*
X149731500Y-89721476D01*
X149731500Y-89539500D01*
X149751502Y-89471379D01*
X149805158Y-89424886D01*
X149857500Y-89413500D01*
X150078134Y-89413500D01*
X150140316Y-89406745D01*
X150276705Y-89355615D01*
X150393261Y-89268261D01*
X150480615Y-89151705D01*
X150531745Y-89015316D01*
X150538500Y-88953134D01*
X150538500Y-88514500D01*
X150558502Y-88446379D01*
X150612158Y-88399886D01*
X150664500Y-88388500D01*
X151318011Y-88388500D01*
X151386131Y-88408502D01*
G37*
%TD.AperFunction*%
%TA.AperFunction,Conductor*%
G36*
X142753621Y-80763502D02*
G01*
X142800114Y-80817158D01*
X142811500Y-80869500D01*
X142811500Y-82472542D01*
X142811707Y-82475082D01*
X142811707Y-82475092D01*
X142812601Y-82486081D01*
X142823022Y-82614200D01*
X142824356Y-82619395D01*
X142824356Y-82619396D01*
X142850127Y-82719767D01*
X142878890Y-82831794D01*
X142881224Y-82836892D01*
X142881228Y-82836903D01*
X142900742Y-82879524D01*
X142910914Y-82949788D01*
X142881483Y-83014397D01*
X142821793Y-83052838D01*
X142781826Y-83057894D01*
X142774651Y-83056802D01*
X142767359Y-83057395D01*
X142767356Y-83057395D01*
X142721991Y-83061085D01*
X142711777Y-83061500D01*
X142703707Y-83061500D01*
X142700087Y-83061922D01*
X142700069Y-83061923D01*
X142675461Y-83064792D01*
X142671100Y-83065224D01*
X142645981Y-83067267D01*
X142605661Y-83070546D01*
X142605658Y-83070547D01*
X142598363Y-83071140D01*
X142591399Y-83073396D01*
X142585440Y-83074587D01*
X142579585Y-83075971D01*
X142572319Y-83076818D01*
X142503673Y-83101735D01*
X142499545Y-83103152D01*
X142437064Y-83123393D01*
X142437062Y-83123394D01*
X142430101Y-83125649D01*
X142423846Y-83129445D01*
X142418372Y-83131951D01*
X142412942Y-83134670D01*
X142406063Y-83137167D01*
X142345016Y-83177191D01*
X142341327Y-83179518D01*
X142321135Y-83191771D01*
X142283693Y-83214491D01*
X142283688Y-83214495D01*
X142278892Y-83217405D01*
X142270516Y-83224803D01*
X142270493Y-83224777D01*
X142267503Y-83227426D01*
X142264264Y-83230134D01*
X142258148Y-83234144D01*
X142253121Y-83239451D01*
X142253117Y-83239454D01*
X142204872Y-83290383D01*
X142202494Y-83292825D01*
X141751089Y-83744230D01*
X141736677Y-83756616D01*
X141725082Y-83765149D01*
X141725077Y-83765154D01*
X141719182Y-83769492D01*
X141714443Y-83775070D01*
X141714440Y-83775073D01*
X141684965Y-83809768D01*
X141678035Y-83817284D01*
X141672340Y-83822979D01*
X141670060Y-83825861D01*
X141654719Y-83845251D01*
X141651928Y-83848655D01*
X141614701Y-83892474D01*
X141604667Y-83904285D01*
X141601339Y-83910801D01*
X141597972Y-83915850D01*
X141594805Y-83920979D01*
X141590266Y-83926716D01*
X141559345Y-83992875D01*
X141557442Y-83996769D01*
X141524231Y-84061808D01*
X141522492Y-84068916D01*
X141520393Y-84074559D01*
X141518476Y-84080322D01*
X141515378Y-84086950D01*
X141513888Y-84094112D01*
X141513888Y-84094113D01*
X141500514Y-84158412D01*
X141499544Y-84162696D01*
X141482192Y-84233610D01*
X141481500Y-84244764D01*
X141481464Y-84244762D01*
X141481225Y-84248755D01*
X141480851Y-84252947D01*
X141479360Y-84260115D01*
X141479709Y-84273026D01*
X141481454Y-84337521D01*
X141481500Y-84340928D01*
X141481500Y-85390547D01*
X141461498Y-85458668D01*
X141407842Y-85505161D01*
X141390998Y-85511443D01*
X141310235Y-85535157D01*
X141310233Y-85535158D01*
X141301589Y-85537696D01*
X141294010Y-85542567D01*
X141186159Y-85611878D01*
X141186156Y-85611880D01*
X141178579Y-85616750D01*
X141172678Y-85623560D01*
X141088726Y-85720445D01*
X141088724Y-85720448D01*
X141082824Y-85727257D01*
X141022081Y-85860266D01*
X141001271Y-86005000D01*
X141001271Y-87180000D01*
X141001694Y-87183633D01*
X141001694Y-87183636D01*
X141012466Y-87276187D01*
X141012029Y-87308685D01*
X141002415Y-87375552D01*
X141001776Y-87384496D01*
X141001776Y-88395385D01*
X141006251Y-88410624D01*
X141007641Y-88411829D01*
X141015324Y-88413500D01*
X143460109Y-88413500D01*
X143475348Y-88409025D01*
X143476553Y-88407635D01*
X143478224Y-88399952D01*
X143478224Y-87380824D01*
X143478201Y-87379164D01*
X143477624Y-87357729D01*
X143476433Y-87347119D01*
X143468029Y-87304939D01*
X143466883Y-87262389D01*
X143478729Y-87180000D01*
X143478729Y-86005000D01*
X143473500Y-85931889D01*
X143432304Y-85791589D01*
X143407035Y-85752270D01*
X143358122Y-85676159D01*
X143358120Y-85676156D01*
X143353250Y-85668579D01*
X143308347Y-85629670D01*
X143249555Y-85578726D01*
X143249552Y-85578724D01*
X143242743Y-85572824D01*
X143109734Y-85512081D01*
X143100817Y-85510799D01*
X143092167Y-85508259D01*
X143092998Y-85505427D01*
X143041994Y-85482138D01*
X143003606Y-85422414D01*
X142998500Y-85386908D01*
X142998500Y-84704500D01*
X143018502Y-84636379D01*
X143072158Y-84589886D01*
X143124500Y-84578500D01*
X144599727Y-84578500D01*
X144667848Y-84598502D01*
X144714341Y-84652158D01*
X144724445Y-84722432D01*
X144705421Y-84771240D01*
X144705846Y-84771474D01*
X144702877Y-84776874D01*
X144702876Y-84776876D01*
X144674671Y-84828181D01*
X144610567Y-84944787D01*
X144608706Y-84950654D01*
X144608705Y-84950656D01*
X144568069Y-85078758D01*
X144550765Y-85133306D01*
X144528719Y-85329851D01*
X144529235Y-85335995D01*
X144544021Y-85512081D01*
X144545268Y-85526934D01*
X144568580Y-85608232D01*
X144593870Y-85696430D01*
X144593419Y-85767425D01*
X144554657Y-85826906D01*
X144503718Y-85852817D01*
X144499684Y-85853255D01*
X144363295Y-85904385D01*
X144246739Y-85991739D01*
X144159385Y-86108295D01*
X144108255Y-86244684D01*
X144101500Y-86306866D01*
X144101500Y-87053134D01*
X144108255Y-87115316D01*
X144111029Y-87122716D01*
X144112034Y-87126942D01*
X144112034Y-87185239D01*
X144107895Y-87202646D01*
X144102369Y-87253514D01*
X144102000Y-87260328D01*
X144102000Y-87357885D01*
X144106475Y-87373124D01*
X144107865Y-87374329D01*
X144115548Y-87376000D01*
X144215090Y-87376000D01*
X144283211Y-87396002D01*
X144290650Y-87401171D01*
X144363295Y-87455615D01*
X144499684Y-87506745D01*
X144506990Y-87507539D01*
X144568424Y-87542635D01*
X144601244Y-87605590D01*
X144594818Y-87676295D01*
X144551186Y-87732302D01*
X144507060Y-87752454D01*
X144499684Y-87753255D01*
X144363295Y-87804385D01*
X144290655Y-87858826D01*
X144224149Y-87883674D01*
X144215090Y-87884000D01*
X144120116Y-87884000D01*
X144104877Y-87888475D01*
X144103672Y-87889865D01*
X144102001Y-87897548D01*
X144102001Y-87999669D01*
X144102371Y-88006490D01*
X144107895Y-88057349D01*
X144112035Y-88074764D01*
X144112034Y-88133058D01*
X144111029Y-88137284D01*
X144108255Y-88144684D01*
X144101500Y-88206866D01*
X144101500Y-88953134D01*
X144108255Y-89015316D01*
X144159385Y-89151705D01*
X144246739Y-89268261D01*
X144363295Y-89355615D01*
X144499684Y-89406745D01*
X144561866Y-89413500D01*
X144725500Y-89413500D01*
X144793621Y-89433502D01*
X144840114Y-89487158D01*
X144851500Y-89539500D01*
X144851500Y-90035482D01*
X144831498Y-90103603D01*
X144777842Y-90150096D01*
X144707568Y-90160200D01*
X144642988Y-90130706D01*
X144605667Y-90074419D01*
X144604522Y-90070896D01*
X144598527Y-90052444D01*
X144591235Y-90039813D01*
X144536015Y-89944171D01*
X144503040Y-89887056D01*
X144375253Y-89745134D01*
X144220752Y-89632882D01*
X144214724Y-89630198D01*
X144214722Y-89630197D01*
X144052319Y-89557891D01*
X144052318Y-89557891D01*
X144046288Y-89555206D01*
X143952887Y-89535353D01*
X143865944Y-89516872D01*
X143865939Y-89516872D01*
X143859487Y-89515500D01*
X143668513Y-89515500D01*
X143662058Y-89516872D01*
X143662049Y-89516873D01*
X143610202Y-89527894D01*
X143539411Y-89522493D01*
X143482778Y-89479677D01*
X143458284Y-89413039D01*
X143459287Y-89386716D01*
X143477584Y-89259459D01*
X143478224Y-89250503D01*
X143478224Y-88939615D01*
X143473749Y-88924376D01*
X143472359Y-88923171D01*
X143464676Y-88921500D01*
X141019891Y-88921500D01*
X141004652Y-88925975D01*
X141003447Y-88927365D01*
X141001776Y-88935048D01*
X141001776Y-89252743D01*
X141001937Y-89257250D01*
X141006518Y-89321300D01*
X141008904Y-89334522D01*
X141045616Y-89459555D01*
X141053026Y-89475781D01*
X141127131Y-89591090D01*
X141125559Y-89592100D01*
X141150433Y-89646568D01*
X141140330Y-89716842D01*
X141093837Y-89770498D01*
X141025716Y-89790500D01*
X140776594Y-89790500D01*
X140708473Y-89770498D01*
X140687499Y-89753595D01*
X139289925Y-88356020D01*
X139255899Y-88293708D01*
X139255820Y-88240820D01*
X139257797Y-88234861D01*
X139268500Y-88130400D01*
X139268500Y-87129600D01*
X139268163Y-87126350D01*
X139258238Y-87030692D01*
X139258237Y-87030688D01*
X139257526Y-87023834D01*
X139201550Y-86856054D01*
X139108478Y-86705652D01*
X138983303Y-86580695D01*
X138943119Y-86555925D01*
X138853384Y-86500611D01*
X138805890Y-86447838D01*
X138793500Y-86393351D01*
X138793500Y-86326781D01*
X138813502Y-86258660D01*
X138853197Y-86219637D01*
X138910395Y-86184242D01*
X138984348Y-86138478D01*
X139109305Y-86013303D01*
X139117174Y-86000537D01*
X139198275Y-85868968D01*
X139198276Y-85868966D01*
X139202115Y-85862738D01*
X139257797Y-85694861D01*
X139259850Y-85674829D01*
X139267761Y-85597608D01*
X139268500Y-85590400D01*
X139268500Y-84589600D01*
X139267789Y-84582745D01*
X139258238Y-84490692D01*
X139258237Y-84490688D01*
X139257526Y-84483834D01*
X139252689Y-84469334D01*
X139208712Y-84337521D01*
X139201550Y-84316054D01*
X139108478Y-84165652D01*
X138983303Y-84040695D01*
X138977072Y-84036854D01*
X138838968Y-83951725D01*
X138838966Y-83951724D01*
X138832738Y-83947885D01*
X138736155Y-83915850D01*
X138671389Y-83894368D01*
X138671387Y-83894368D01*
X138664861Y-83892203D01*
X138658025Y-83891503D01*
X138658022Y-83891502D01*
X138614969Y-83887091D01*
X138560400Y-83881500D01*
X137759600Y-83881500D01*
X137756354Y-83881837D01*
X137756350Y-83881837D01*
X137660692Y-83891762D01*
X137660688Y-83891763D01*
X137653834Y-83892474D01*
X137647298Y-83894655D01*
X137647296Y-83894655D01*
X137542560Y-83929598D01*
X137486054Y-83948450D01*
X137335652Y-84041522D01*
X137330479Y-84046704D01*
X137249216Y-84128109D01*
X137186934Y-84162188D01*
X137116114Y-84157185D01*
X137071025Y-84128264D01*
X136988483Y-84045866D01*
X136983303Y-84040695D01*
X136977072Y-84036854D01*
X136838968Y-83951725D01*
X136838966Y-83951724D01*
X136832738Y-83947885D01*
X136736155Y-83915850D01*
X136671389Y-83894368D01*
X136671387Y-83894368D01*
X136664861Y-83892203D01*
X136658025Y-83891503D01*
X136658022Y-83891502D01*
X136614969Y-83887091D01*
X136560400Y-83881500D01*
X135899594Y-83881500D01*
X135831473Y-83861498D01*
X135810499Y-83844595D01*
X134098652Y-82132747D01*
X134091112Y-82124461D01*
X134087000Y-82117982D01*
X134037348Y-82071356D01*
X134034507Y-82068602D01*
X134014770Y-82048865D01*
X134011573Y-82046385D01*
X134002551Y-82038680D01*
X133976100Y-82013841D01*
X133970321Y-82008414D01*
X133963375Y-82004595D01*
X133963372Y-82004593D01*
X133952566Y-81998652D01*
X133936047Y-81987801D01*
X133928667Y-81982077D01*
X133920041Y-81975386D01*
X133912772Y-81972241D01*
X133912768Y-81972238D01*
X133879463Y-81957826D01*
X133868813Y-81952609D01*
X133830060Y-81931305D01*
X133810437Y-81926267D01*
X133791734Y-81919863D01*
X133780420Y-81914967D01*
X133780419Y-81914967D01*
X133773145Y-81911819D01*
X133765322Y-81910580D01*
X133765312Y-81910577D01*
X133729476Y-81904901D01*
X133717856Y-81902495D01*
X133682711Y-81893472D01*
X133682710Y-81893472D01*
X133675030Y-81891500D01*
X133654776Y-81891500D01*
X133635065Y-81889949D01*
X133634308Y-81889829D01*
X133615057Y-81886780D01*
X133607165Y-81887526D01*
X133571039Y-81890941D01*
X133559181Y-81891500D01*
X130816805Y-81891500D01*
X130748684Y-81871498D01*
X130711013Y-81833940D01*
X130622822Y-81697617D01*
X130622820Y-81697614D01*
X130620014Y-81693277D01*
X130610295Y-81682596D01*
X130472798Y-81531488D01*
X130441746Y-81467642D01*
X130450141Y-81397143D01*
X130495317Y-81342375D01*
X130521761Y-81328706D01*
X130628297Y-81288767D01*
X130636705Y-81285615D01*
X130753261Y-81198261D01*
X130840615Y-81081705D01*
X130891745Y-80945316D01*
X130898500Y-80883134D01*
X130898500Y-80869500D01*
X130918502Y-80801379D01*
X130972158Y-80754886D01*
X131024500Y-80743500D01*
X142685500Y-80743500D01*
X142753621Y-80763502D01*
G37*
%TD.AperFunction*%
%TD*%
M02*
