%TF.GenerationSoftware,KiCad,Pcbnew,(6.0.6)*%
%TF.CreationDate,2023-07-05T13:12:53+02:00*%
%TF.ProjectId,LedDriver,4c656444-7269-4766-9572-2e6b69636164,rev?*%
%TF.SameCoordinates,Original*%
%TF.FileFunction,Copper,L2,Bot*%
%TF.FilePolarity,Positive*%
%FSLAX46Y46*%
G04 Gerber Fmt 4.6, Leading zero omitted, Abs format (unit mm)*
G04 Created by KiCad (PCBNEW (6.0.6)) date 2023-07-05 13:12:53*
%MOMM*%
%LPD*%
G01*
G04 APERTURE LIST*
%TA.AperFunction,ComponentPad*%
%ADD10R,1.700000X1.700000*%
%TD*%
%TA.AperFunction,ComponentPad*%
%ADD11O,1.700000X1.700000*%
%TD*%
%TA.AperFunction,ComponentPad*%
%ADD12C,1.700000*%
%TD*%
%TA.AperFunction,ViaPad*%
%ADD13C,0.800000*%
%TD*%
%TA.AperFunction,ViaPad*%
%ADD14C,1.000000*%
%TD*%
%TA.AperFunction,Conductor*%
%ADD15C,0.500000*%
%TD*%
%TA.AperFunction,Conductor*%
%ADD16C,0.250000*%
%TD*%
G04 APERTURE END LIST*
D10*
%TO.P,D1,1,A*%
%TO.N,/Vout*%
X157480000Y-81280000D03*
X157480000Y-78740000D03*
D11*
%TO.P,D1,2,K*%
%TO.N,/Vfb*%
X161290000Y-78740000D03*
X161290000Y-81280000D03*
%TD*%
D12*
%TO.P,RV1,1,1*%
%TO.N,/Vfb*%
X157480000Y-88900000D03*
%TO.P,RV1,2,2*%
%TO.N,GND*%
X160020000Y-91440000D03*
%TO.P,RV1,3,3*%
%TO.N,unconnected-(RV1-Pad3)*%
X162560000Y-88900000D03*
%TD*%
D10*
%TO.P,J1,1,P1*%
%TO.N,VCC*%
X129540000Y-79985000D03*
D11*
%TO.P,J1,2,P2*%
%TO.N,Net-(J1-Pad2)*%
X129540000Y-82525000D03*
%TO.P,J1,3,P3*%
%TO.N,Net-(J1-Pad3)*%
X129540000Y-85065000D03*
%TO.P,J1,4,P4*%
%TO.N,GND*%
X129540000Y-87605000D03*
%TD*%
D13*
%TO.N,GND*%
X136525000Y-77470000D03*
X141732000Y-91948000D03*
X156972000Y-91440000D03*
X139065000Y-77470000D03*
X154305000Y-77470000D03*
X143764000Y-91948000D03*
X157988000Y-91440000D03*
X133985000Y-77470000D03*
X139700000Y-91948000D03*
X140335000Y-77470000D03*
X154305000Y-78740000D03*
X138684000Y-91948000D03*
X137795000Y-77470000D03*
X152400000Y-88900000D03*
X137668000Y-90932000D03*
X154305000Y-81280000D03*
D14*
X143764000Y-88900000D03*
D13*
X137668000Y-91948000D03*
X135636000Y-91948000D03*
X144780000Y-91948000D03*
X135636000Y-90932000D03*
X147320000Y-88646000D03*
X138684000Y-90932000D03*
X155575000Y-81280000D03*
X136652000Y-90932000D03*
X150622000Y-84328000D03*
X155575000Y-80010000D03*
X154305000Y-80010000D03*
X141605000Y-77470000D03*
X143764000Y-85090000D03*
X150622000Y-85344000D03*
X150495000Y-90170000D03*
X155448000Y-91440000D03*
X153035000Y-77470000D03*
X140716000Y-91948000D03*
X136652000Y-91948000D03*
X142748000Y-91948000D03*
X155448000Y-90424000D03*
X132715000Y-77470000D03*
X155575000Y-78740000D03*
X147320000Y-85344000D03*
X155575000Y-77470000D03*
X147320000Y-86360000D03*
X135255000Y-77470000D03*
X151130000Y-88900000D03*
D14*
X154432000Y-85344000D03*
D13*
X143764000Y-86868000D03*
X147320000Y-87376000D03*
D14*
%TO.N,Net-(L1-Pad2)*%
X145542000Y-85344000D03*
X152654000Y-80010000D03*
D13*
%TO.N,/CTRL*%
X149098000Y-90424000D03*
X143764000Y-90424000D03*
%TD*%
D15*
%TO.N,GND*%
X147320000Y-85344000D02*
X150622000Y-85344000D01*
X157734000Y-85344000D02*
X154432000Y-85344000D01*
X150622000Y-85344000D02*
X154432000Y-85344000D01*
X160020000Y-87630000D02*
X157734000Y-85344000D01*
X142469000Y-87605000D02*
X143764000Y-88900000D01*
X143764000Y-88900000D02*
X147320000Y-85344000D01*
X129540000Y-87605000D02*
X142469000Y-87605000D01*
X160020000Y-91440000D02*
X160020000Y-87630000D01*
%TO.N,Net-(L1-Pad2)*%
X150876000Y-80010000D02*
X152654000Y-80010000D01*
X145542000Y-85344000D02*
X149352000Y-81534000D01*
X149352000Y-81534000D02*
X150876000Y-80010000D01*
D16*
%TO.N,/CTRL*%
X143764000Y-90424000D02*
X149098000Y-90424000D01*
%TD*%
%TA.AperFunction,Conductor*%
%TO.N,GND*%
G36*
X163433621Y-76528502D02*
G01*
X163480114Y-76582158D01*
X163491500Y-76634500D01*
X163491500Y-87648906D01*
X163471498Y-87717027D01*
X163417842Y-87763520D01*
X163347568Y-87773624D01*
X163304610Y-87759216D01*
X163118789Y-87656638D01*
X163113920Y-87654914D01*
X163113916Y-87654912D01*
X162913087Y-87583795D01*
X162913083Y-87583794D01*
X162908212Y-87582069D01*
X162903119Y-87581162D01*
X162903116Y-87581161D01*
X162693373Y-87543800D01*
X162693367Y-87543799D01*
X162688284Y-87542894D01*
X162614452Y-87541992D01*
X162470081Y-87540228D01*
X162470079Y-87540228D01*
X162464911Y-87540165D01*
X162244091Y-87573955D01*
X162031756Y-87643357D01*
X161833607Y-87746507D01*
X161829474Y-87749610D01*
X161829471Y-87749612D01*
X161665179Y-87872966D01*
X161654965Y-87880635D01*
X161500629Y-88042138D01*
X161374743Y-88226680D01*
X161280688Y-88429305D01*
X161220989Y-88644570D01*
X161197251Y-88866695D01*
X161197548Y-88871848D01*
X161197548Y-88871851D01*
X161203011Y-88966590D01*
X161210110Y-89089715D01*
X161211247Y-89094761D01*
X161211248Y-89094767D01*
X161231119Y-89182939D01*
X161259222Y-89307639D01*
X161343266Y-89514616D01*
X161345965Y-89519020D01*
X161418118Y-89636763D01*
X161459987Y-89705088D01*
X161606250Y-89873938D01*
X161778126Y-90016632D01*
X161971000Y-90129338D01*
X162179692Y-90209030D01*
X162184760Y-90210061D01*
X162184763Y-90210062D01*
X162271919Y-90227794D01*
X162398597Y-90253567D01*
X162403772Y-90253757D01*
X162403774Y-90253757D01*
X162616673Y-90261564D01*
X162616677Y-90261564D01*
X162621837Y-90261753D01*
X162626957Y-90261097D01*
X162626959Y-90261097D01*
X162838288Y-90234025D01*
X162838289Y-90234025D01*
X162843416Y-90233368D01*
X162861995Y-90227794D01*
X163052429Y-90170661D01*
X163052434Y-90170659D01*
X163057384Y-90169174D01*
X163257994Y-90070896D01*
X163262199Y-90067896D01*
X163262205Y-90067893D01*
X163292332Y-90046403D01*
X163359405Y-90023130D01*
X163428414Y-90039813D01*
X163477447Y-90091157D01*
X163491500Y-90148982D01*
X163491500Y-92365500D01*
X163471498Y-92433621D01*
X163417842Y-92480114D01*
X163365500Y-92491500D01*
X161182447Y-92491500D01*
X161114326Y-92471498D01*
X161067833Y-92417842D01*
X161057729Y-92347568D01*
X161080124Y-92291974D01*
X161185009Y-92146011D01*
X161190313Y-92137183D01*
X161284670Y-91946267D01*
X161288469Y-91936672D01*
X161350376Y-91732915D01*
X161352555Y-91722834D01*
X161380590Y-91509887D01*
X161381109Y-91503212D01*
X161382572Y-91443364D01*
X161382378Y-91436646D01*
X161364781Y-91222604D01*
X161363096Y-91212424D01*
X161311214Y-91005875D01*
X161307894Y-90996124D01*
X161222972Y-90800814D01*
X161218105Y-90791739D01*
X161153063Y-90691197D01*
X161142377Y-90681995D01*
X161132812Y-90686398D01*
X160109095Y-91710115D01*
X160046783Y-91744141D01*
X159975968Y-91739076D01*
X159930905Y-91710115D01*
X158909849Y-90689059D01*
X158898313Y-90682759D01*
X158886031Y-90692382D01*
X158838089Y-90762662D01*
X158833004Y-90771613D01*
X158743338Y-90964783D01*
X158739775Y-90974470D01*
X158682864Y-91179681D01*
X158680933Y-91189800D01*
X158658302Y-91401574D01*
X158658050Y-91411863D01*
X158670309Y-91624477D01*
X158671745Y-91634697D01*
X158718565Y-91842446D01*
X158721645Y-91852275D01*
X158801770Y-92049603D01*
X158806413Y-92058794D01*
X158917694Y-92240388D01*
X158923772Y-92248691D01*
X158953493Y-92283003D01*
X158982975Y-92347589D01*
X158972860Y-92417861D01*
X158926358Y-92471509D01*
X158858255Y-92491500D01*
X126634500Y-92491500D01*
X126566379Y-92471498D01*
X126519886Y-92417842D01*
X126508500Y-92365500D01*
X126508500Y-90424000D01*
X142850496Y-90424000D01*
X142870458Y-90613928D01*
X142929473Y-90795556D01*
X143024960Y-90960944D01*
X143152747Y-91102866D01*
X143307248Y-91215118D01*
X143313276Y-91217802D01*
X143313278Y-91217803D01*
X143475681Y-91290109D01*
X143481712Y-91292794D01*
X143575112Y-91312647D01*
X143662056Y-91331128D01*
X143662061Y-91331128D01*
X143668513Y-91332500D01*
X143859487Y-91332500D01*
X143865939Y-91331128D01*
X143865944Y-91331128D01*
X143952888Y-91312647D01*
X144046288Y-91292794D01*
X144052319Y-91290109D01*
X144214722Y-91217803D01*
X144214724Y-91217802D01*
X144220752Y-91215118D01*
X144375253Y-91102866D01*
X144379668Y-91097963D01*
X144384580Y-91093540D01*
X144385705Y-91094789D01*
X144439014Y-91061949D01*
X144472200Y-91057500D01*
X148389800Y-91057500D01*
X148457921Y-91077502D01*
X148477147Y-91093843D01*
X148477420Y-91093540D01*
X148482332Y-91097963D01*
X148486747Y-91102866D01*
X148641248Y-91215118D01*
X148647276Y-91217802D01*
X148647278Y-91217803D01*
X148809681Y-91290109D01*
X148815712Y-91292794D01*
X148909112Y-91312647D01*
X148996056Y-91331128D01*
X148996061Y-91331128D01*
X149002513Y-91332500D01*
X149193487Y-91332500D01*
X149199939Y-91331128D01*
X149199944Y-91331128D01*
X149286888Y-91312647D01*
X149380288Y-91292794D01*
X149386319Y-91290109D01*
X149548722Y-91217803D01*
X149548724Y-91217802D01*
X149554752Y-91215118D01*
X149709253Y-91102866D01*
X149837040Y-90960944D01*
X149932527Y-90795556D01*
X149991542Y-90613928D01*
X150011504Y-90424000D01*
X150000197Y-90316427D01*
X159261223Y-90316427D01*
X159267968Y-90328758D01*
X160007188Y-91067978D01*
X160021132Y-91075592D01*
X160022965Y-91075461D01*
X160029580Y-91071210D01*
X160773389Y-90327401D01*
X160780410Y-90314544D01*
X160773611Y-90305213D01*
X160769554Y-90302518D01*
X160583117Y-90199599D01*
X160573705Y-90195369D01*
X160372959Y-90124280D01*
X160362989Y-90121646D01*
X160153327Y-90084301D01*
X160143073Y-90083331D01*
X159930116Y-90080728D01*
X159919832Y-90081448D01*
X159709321Y-90113661D01*
X159699293Y-90116050D01*
X159496868Y-90182212D01*
X159487359Y-90186209D01*
X159298466Y-90284540D01*
X159289734Y-90290039D01*
X159269677Y-90305099D01*
X159261223Y-90316427D01*
X150000197Y-90316427D01*
X149996846Y-90284540D01*
X149992232Y-90240635D01*
X149992232Y-90240633D01*
X149991542Y-90234072D01*
X149932527Y-90052444D01*
X149925235Y-90039813D01*
X149870015Y-89944171D01*
X149837040Y-89887056D01*
X149709253Y-89745134D01*
X149554752Y-89632882D01*
X149548724Y-89630198D01*
X149548722Y-89630197D01*
X149386319Y-89557891D01*
X149386318Y-89557891D01*
X149380288Y-89555206D01*
X149286887Y-89535353D01*
X149199944Y-89516872D01*
X149199939Y-89516872D01*
X149193487Y-89515500D01*
X149002513Y-89515500D01*
X148996061Y-89516872D01*
X148996056Y-89516872D01*
X148909113Y-89535353D01*
X148815712Y-89555206D01*
X148809682Y-89557891D01*
X148809681Y-89557891D01*
X148647278Y-89630197D01*
X148647276Y-89630198D01*
X148641248Y-89632882D01*
X148486747Y-89745134D01*
X148482332Y-89750037D01*
X148477420Y-89754460D01*
X148476295Y-89753211D01*
X148422986Y-89786051D01*
X148389800Y-89790500D01*
X144472200Y-89790500D01*
X144404079Y-89770498D01*
X144384853Y-89754157D01*
X144384580Y-89754460D01*
X144379668Y-89750037D01*
X144375253Y-89745134D01*
X144220752Y-89632882D01*
X144214724Y-89630198D01*
X144214722Y-89630197D01*
X144052319Y-89557891D01*
X144052318Y-89557891D01*
X144046288Y-89555206D01*
X143952887Y-89535353D01*
X143865944Y-89516872D01*
X143865939Y-89516872D01*
X143859487Y-89515500D01*
X143668513Y-89515500D01*
X143662061Y-89516872D01*
X143662056Y-89516872D01*
X143575113Y-89535353D01*
X143481712Y-89555206D01*
X143475682Y-89557891D01*
X143475681Y-89557891D01*
X143313278Y-89630197D01*
X143313276Y-89630198D01*
X143307248Y-89632882D01*
X143152747Y-89745134D01*
X143024960Y-89887056D01*
X142991985Y-89944171D01*
X142936766Y-90039813D01*
X142929473Y-90052444D01*
X142870458Y-90234072D01*
X142869768Y-90240633D01*
X142869768Y-90240635D01*
X142865154Y-90284540D01*
X142850496Y-90424000D01*
X126508500Y-90424000D01*
X126508500Y-87872966D01*
X128208257Y-87872966D01*
X128238565Y-88007446D01*
X128241645Y-88017275D01*
X128321770Y-88214603D01*
X128326413Y-88223794D01*
X128437694Y-88405388D01*
X128443777Y-88413699D01*
X128583213Y-88574667D01*
X128590580Y-88581883D01*
X128754434Y-88717916D01*
X128762881Y-88723831D01*
X128946756Y-88831279D01*
X128956042Y-88835729D01*
X129155001Y-88911703D01*
X129164899Y-88914579D01*
X129268250Y-88935606D01*
X129282299Y-88934410D01*
X129286000Y-88924065D01*
X129286000Y-88923517D01*
X129794000Y-88923517D01*
X129798064Y-88937359D01*
X129811478Y-88939393D01*
X129818184Y-88938534D01*
X129828262Y-88936392D01*
X130032255Y-88875191D01*
X130041842Y-88871433D01*
X130051513Y-88866695D01*
X156117251Y-88866695D01*
X156117548Y-88871848D01*
X156117548Y-88871851D01*
X156123011Y-88966590D01*
X156130110Y-89089715D01*
X156131247Y-89094761D01*
X156131248Y-89094767D01*
X156151119Y-89182939D01*
X156179222Y-89307639D01*
X156263266Y-89514616D01*
X156265965Y-89519020D01*
X156338118Y-89636763D01*
X156379987Y-89705088D01*
X156526250Y-89873938D01*
X156698126Y-90016632D01*
X156891000Y-90129338D01*
X157099692Y-90209030D01*
X157104760Y-90210061D01*
X157104763Y-90210062D01*
X157191919Y-90227794D01*
X157318597Y-90253567D01*
X157323772Y-90253757D01*
X157323774Y-90253757D01*
X157536673Y-90261564D01*
X157536677Y-90261564D01*
X157541837Y-90261753D01*
X157546957Y-90261097D01*
X157546959Y-90261097D01*
X157758288Y-90234025D01*
X157758289Y-90234025D01*
X157763416Y-90233368D01*
X157781995Y-90227794D01*
X157972429Y-90170661D01*
X157972434Y-90170659D01*
X157977384Y-90169174D01*
X158177994Y-90070896D01*
X158359860Y-89941173D01*
X158408429Y-89892774D01*
X158514435Y-89787137D01*
X158518096Y-89783489D01*
X158577594Y-89700689D01*
X158645435Y-89606277D01*
X158648453Y-89602077D01*
X158747430Y-89401811D01*
X158812370Y-89188069D01*
X158841529Y-88966590D01*
X158842194Y-88939393D01*
X158843074Y-88903365D01*
X158843074Y-88903361D01*
X158843156Y-88900000D01*
X158824852Y-88677361D01*
X158770431Y-88460702D01*
X158681354Y-88255840D01*
X158641906Y-88194862D01*
X158562822Y-88072617D01*
X158562820Y-88072614D01*
X158560014Y-88068277D01*
X158409670Y-87903051D01*
X158405619Y-87899852D01*
X158405615Y-87899848D01*
X158238414Y-87767800D01*
X158238410Y-87767798D01*
X158234359Y-87764598D01*
X158038789Y-87656638D01*
X158033920Y-87654914D01*
X158033916Y-87654912D01*
X157833087Y-87583795D01*
X157833083Y-87583794D01*
X157828212Y-87582069D01*
X157823119Y-87581162D01*
X157823116Y-87581161D01*
X157613373Y-87543800D01*
X157613367Y-87543799D01*
X157608284Y-87542894D01*
X157534452Y-87541992D01*
X157390081Y-87540228D01*
X157390079Y-87540228D01*
X157384911Y-87540165D01*
X157164091Y-87573955D01*
X156951756Y-87643357D01*
X156753607Y-87746507D01*
X156749474Y-87749610D01*
X156749471Y-87749612D01*
X156585179Y-87872966D01*
X156574965Y-87880635D01*
X156420629Y-88042138D01*
X156294743Y-88226680D01*
X156200688Y-88429305D01*
X156140989Y-88644570D01*
X156117251Y-88866695D01*
X130051513Y-88866695D01*
X130233095Y-88777739D01*
X130241945Y-88772464D01*
X130415328Y-88648792D01*
X130423200Y-88642139D01*
X130574052Y-88491812D01*
X130580730Y-88483965D01*
X130705003Y-88311020D01*
X130710313Y-88302183D01*
X130804670Y-88111267D01*
X130808469Y-88101672D01*
X130870377Y-87897910D01*
X130872555Y-87887837D01*
X130873986Y-87876962D01*
X130871775Y-87862778D01*
X130858617Y-87859000D01*
X129812115Y-87859000D01*
X129796876Y-87863475D01*
X129795671Y-87864865D01*
X129794000Y-87872548D01*
X129794000Y-88923517D01*
X129286000Y-88923517D01*
X129286000Y-87877115D01*
X129281525Y-87861876D01*
X129280135Y-87860671D01*
X129272452Y-87859000D01*
X128223225Y-87859000D01*
X128209694Y-87862973D01*
X128208257Y-87872966D01*
X126508500Y-87872966D01*
X126508500Y-85031695D01*
X128177251Y-85031695D01*
X128177548Y-85036848D01*
X128177548Y-85036851D01*
X128189812Y-85249547D01*
X128190110Y-85254715D01*
X128191247Y-85259761D01*
X128191248Y-85259767D01*
X128211119Y-85347939D01*
X128239222Y-85472639D01*
X128323266Y-85679616D01*
X128439987Y-85870088D01*
X128586250Y-86038938D01*
X128758126Y-86181632D01*
X128793673Y-86202404D01*
X128831955Y-86224774D01*
X128880679Y-86276412D01*
X128893750Y-86346195D01*
X128867019Y-86411967D01*
X128826562Y-86445327D01*
X128818457Y-86449546D01*
X128809738Y-86455036D01*
X128639433Y-86582905D01*
X128631726Y-86589748D01*
X128484590Y-86743717D01*
X128478104Y-86751727D01*
X128358098Y-86927649D01*
X128353000Y-86936623D01*
X128263338Y-87129783D01*
X128259775Y-87139470D01*
X128204389Y-87339183D01*
X128205912Y-87347607D01*
X128218292Y-87351000D01*
X130858344Y-87351000D01*
X130871875Y-87347027D01*
X130873180Y-87337947D01*
X130831214Y-87170875D01*
X130827894Y-87161124D01*
X130742972Y-86965814D01*
X130738105Y-86956739D01*
X130622426Y-86777926D01*
X130616136Y-86769757D01*
X130472806Y-86612240D01*
X130465273Y-86605215D01*
X130298139Y-86473222D01*
X130289556Y-86467520D01*
X130252602Y-86447120D01*
X130202631Y-86396687D01*
X130187859Y-86327245D01*
X130212975Y-86260839D01*
X130240327Y-86234232D01*
X130294166Y-86195829D01*
X130419860Y-86106173D01*
X130452952Y-86073197D01*
X130574435Y-85952137D01*
X130578096Y-85948489D01*
X130637594Y-85865689D01*
X130705435Y-85771277D01*
X130708453Y-85767077D01*
X130807430Y-85566811D01*
X130872370Y-85353069D01*
X130875427Y-85329851D01*
X144528719Y-85329851D01*
X144545268Y-85526934D01*
X144546967Y-85532858D01*
X144590312Y-85684020D01*
X144599783Y-85717050D01*
X144602602Y-85722535D01*
X144676174Y-85865689D01*
X144690187Y-85892956D01*
X144813035Y-86047953D01*
X144963650Y-86176136D01*
X145136294Y-86272624D01*
X145324392Y-86333740D01*
X145520777Y-86357158D01*
X145526912Y-86356686D01*
X145526914Y-86356686D01*
X145711830Y-86342457D01*
X145711834Y-86342456D01*
X145717972Y-86341984D01*
X145908463Y-86288798D01*
X145913967Y-86286018D01*
X145913969Y-86286017D01*
X146079495Y-86202404D01*
X146079497Y-86202403D01*
X146084996Y-86199625D01*
X146240847Y-86077861D01*
X146352518Y-85948489D01*
X146366049Y-85932813D01*
X146366050Y-85932811D01*
X146370078Y-85928145D01*
X146467769Y-85756179D01*
X146530197Y-85568513D01*
X146545038Y-85451035D01*
X146573420Y-85385958D01*
X146580949Y-85377732D01*
X149780547Y-82178134D01*
X156121500Y-82178134D01*
X156128255Y-82240316D01*
X156179385Y-82376705D01*
X156266739Y-82493261D01*
X156383295Y-82580615D01*
X156519684Y-82631745D01*
X156581866Y-82638500D01*
X158378134Y-82638500D01*
X158440316Y-82631745D01*
X158576705Y-82580615D01*
X158693261Y-82493261D01*
X158780615Y-82376705D01*
X158831745Y-82240316D01*
X158838500Y-82178134D01*
X158838500Y-81246695D01*
X159927251Y-81246695D01*
X159927548Y-81251848D01*
X159927548Y-81251851D01*
X159935926Y-81397143D01*
X159940110Y-81469715D01*
X159941247Y-81474761D01*
X159941248Y-81474767D01*
X159953257Y-81528051D01*
X159989222Y-81687639D01*
X160073266Y-81894616D01*
X160189987Y-82085088D01*
X160336250Y-82253938D01*
X160508126Y-82396632D01*
X160701000Y-82509338D01*
X160705825Y-82511180D01*
X160705826Y-82511181D01*
X160778612Y-82538975D01*
X160909692Y-82589030D01*
X160914760Y-82590061D01*
X160914763Y-82590062D01*
X161022017Y-82611883D01*
X161128597Y-82633567D01*
X161133772Y-82633757D01*
X161133774Y-82633757D01*
X161346673Y-82641564D01*
X161346677Y-82641564D01*
X161351837Y-82641753D01*
X161356957Y-82641097D01*
X161356959Y-82641097D01*
X161568288Y-82614025D01*
X161568289Y-82614025D01*
X161573416Y-82613368D01*
X161634946Y-82594908D01*
X161782429Y-82550661D01*
X161782434Y-82550659D01*
X161787384Y-82549174D01*
X161987994Y-82450896D01*
X162169860Y-82321173D01*
X162193775Y-82297342D01*
X162313400Y-82178134D01*
X162328096Y-82163489D01*
X162387594Y-82080689D01*
X162455435Y-81986277D01*
X162458453Y-81982077D01*
X162520579Y-81856375D01*
X162555136Y-81786453D01*
X162555137Y-81786451D01*
X162557430Y-81781811D01*
X162622370Y-81568069D01*
X162651529Y-81346590D01*
X162653156Y-81280000D01*
X162634852Y-81057361D01*
X162580431Y-80840702D01*
X162491354Y-80635840D01*
X162370014Y-80448277D01*
X162219670Y-80283051D01*
X162215619Y-80279852D01*
X162215615Y-80279848D01*
X162048414Y-80147800D01*
X162048410Y-80147798D01*
X162044359Y-80144598D01*
X162003053Y-80121796D01*
X161953084Y-80071364D01*
X161938312Y-80001921D01*
X161963428Y-79935516D01*
X161990780Y-79908909D01*
X162034603Y-79877650D01*
X162169860Y-79781173D01*
X162328096Y-79623489D01*
X162387594Y-79540689D01*
X162455435Y-79446277D01*
X162458453Y-79442077D01*
X162471946Y-79414777D01*
X162555136Y-79246453D01*
X162555137Y-79246451D01*
X162557430Y-79241811D01*
X162609506Y-79070410D01*
X162620865Y-79033023D01*
X162620865Y-79033021D01*
X162622370Y-79028069D01*
X162651529Y-78806590D01*
X162653156Y-78740000D01*
X162634852Y-78517361D01*
X162580431Y-78300702D01*
X162491354Y-78095840D01*
X162370014Y-77908277D01*
X162219670Y-77743051D01*
X162215619Y-77739852D01*
X162215615Y-77739848D01*
X162048414Y-77607800D01*
X162048410Y-77607798D01*
X162044359Y-77604598D01*
X161848789Y-77496638D01*
X161843920Y-77494914D01*
X161843916Y-77494912D01*
X161643087Y-77423795D01*
X161643083Y-77423794D01*
X161638212Y-77422069D01*
X161633119Y-77421162D01*
X161633116Y-77421161D01*
X161423373Y-77383800D01*
X161423367Y-77383799D01*
X161418284Y-77382894D01*
X161344452Y-77381992D01*
X161200081Y-77380228D01*
X161200079Y-77380228D01*
X161194911Y-77380165D01*
X160974091Y-77413955D01*
X160761756Y-77483357D01*
X160563607Y-77586507D01*
X160559474Y-77589610D01*
X160559471Y-77589612D01*
X160389100Y-77717530D01*
X160384965Y-77720635D01*
X160230629Y-77882138D01*
X160104743Y-78066680D01*
X160010688Y-78269305D01*
X159950989Y-78484570D01*
X159927251Y-78706695D01*
X159927548Y-78711848D01*
X159927548Y-78711851D01*
X159933011Y-78806590D01*
X159940110Y-78929715D01*
X159941247Y-78934761D01*
X159941248Y-78934767D01*
X159959107Y-79014011D01*
X159989222Y-79147639D01*
X160073266Y-79354616D01*
X160189987Y-79545088D01*
X160336250Y-79713938D01*
X160508126Y-79856632D01*
X160578595Y-79897811D01*
X160581445Y-79899476D01*
X160630169Y-79951114D01*
X160643240Y-80020897D01*
X160616509Y-80086669D01*
X160576055Y-80120027D01*
X160563607Y-80126507D01*
X160559474Y-80129610D01*
X160559471Y-80129612D01*
X160427907Y-80228393D01*
X160384965Y-80260635D01*
X160230629Y-80422138D01*
X160227715Y-80426410D01*
X160227714Y-80426411D01*
X160215404Y-80444457D01*
X160104743Y-80606680D01*
X160089003Y-80640590D01*
X160028293Y-80771379D01*
X160010688Y-80809305D01*
X159950989Y-81024570D01*
X159927251Y-81246695D01*
X158838500Y-81246695D01*
X158838500Y-80381866D01*
X158831745Y-80319684D01*
X158780615Y-80183295D01*
X158707370Y-80085564D01*
X158682522Y-80019059D01*
X158697575Y-79949676D01*
X158707370Y-79934435D01*
X158726501Y-79908909D01*
X158780615Y-79836705D01*
X158831745Y-79700316D01*
X158838500Y-79638134D01*
X158838500Y-77841866D01*
X158831745Y-77779684D01*
X158780615Y-77643295D01*
X158693261Y-77526739D01*
X158576705Y-77439385D01*
X158440316Y-77388255D01*
X158378134Y-77381500D01*
X156581866Y-77381500D01*
X156519684Y-77388255D01*
X156383295Y-77439385D01*
X156266739Y-77526739D01*
X156179385Y-77643295D01*
X156128255Y-77779684D01*
X156121500Y-77841866D01*
X156121500Y-79638134D01*
X156128255Y-79700316D01*
X156179385Y-79836705D01*
X156233499Y-79908909D01*
X156252630Y-79934435D01*
X156277478Y-80000941D01*
X156262425Y-80070324D01*
X156252632Y-80085562D01*
X156179385Y-80183295D01*
X156128255Y-80319684D01*
X156121500Y-80381866D01*
X156121500Y-82178134D01*
X149780547Y-82178134D01*
X151153276Y-80805405D01*
X151215588Y-80771379D01*
X151242371Y-80768500D01*
X151942769Y-80768500D01*
X152010890Y-80788502D01*
X152024431Y-80798546D01*
X152075650Y-80842136D01*
X152248294Y-80938624D01*
X152436392Y-80999740D01*
X152632777Y-81023158D01*
X152638912Y-81022686D01*
X152638914Y-81022686D01*
X152823830Y-81008457D01*
X152823834Y-81008456D01*
X152829972Y-81007984D01*
X153020463Y-80954798D01*
X153025967Y-80952018D01*
X153025969Y-80952017D01*
X153191495Y-80868404D01*
X153191497Y-80868403D01*
X153196996Y-80865625D01*
X153352847Y-80743861D01*
X153482078Y-80594145D01*
X153579769Y-80422179D01*
X153642197Y-80234513D01*
X153666985Y-80038295D01*
X153667380Y-80010000D01*
X153648080Y-79813167D01*
X153638421Y-79781173D01*
X153595234Y-79638134D01*
X153590916Y-79623831D01*
X153498066Y-79449204D01*
X153398535Y-79327167D01*
X153376960Y-79300713D01*
X153376957Y-79300710D01*
X153373065Y-79295938D01*
X153337865Y-79266818D01*
X153225425Y-79173799D01*
X153225421Y-79173797D01*
X153220675Y-79169870D01*
X153046701Y-79075802D01*
X152857768Y-79017318D01*
X152851643Y-79016674D01*
X152851642Y-79016674D01*
X152667204Y-78997289D01*
X152667202Y-78997289D01*
X152661075Y-78996645D01*
X152578576Y-79004153D01*
X152470251Y-79014011D01*
X152470248Y-79014012D01*
X152464112Y-79014570D01*
X152458206Y-79016308D01*
X152458202Y-79016309D01*
X152403054Y-79032540D01*
X152274381Y-79070410D01*
X152268923Y-79073263D01*
X152268919Y-79073265D01*
X152173135Y-79123340D01*
X152099110Y-79162040D01*
X152094312Y-79165898D01*
X152094310Y-79165899D01*
X152022424Y-79223697D01*
X151956802Y-79250793D01*
X151943472Y-79251500D01*
X150943063Y-79251500D01*
X150924114Y-79250067D01*
X150923907Y-79250036D01*
X150902651Y-79246802D01*
X150895359Y-79247395D01*
X150895356Y-79247395D01*
X150849991Y-79251085D01*
X150839777Y-79251500D01*
X150831707Y-79251500D01*
X150828087Y-79251922D01*
X150828069Y-79251923D01*
X150803461Y-79254792D01*
X150799100Y-79255224D01*
X150773981Y-79257267D01*
X150733661Y-79260546D01*
X150733658Y-79260547D01*
X150726363Y-79261140D01*
X150719399Y-79263396D01*
X150713440Y-79264587D01*
X150707585Y-79265971D01*
X150700319Y-79266818D01*
X150631673Y-79291735D01*
X150627545Y-79293152D01*
X150565064Y-79313393D01*
X150565062Y-79313394D01*
X150558101Y-79315649D01*
X150551846Y-79319445D01*
X150546372Y-79321951D01*
X150540942Y-79324670D01*
X150534063Y-79327167D01*
X150473016Y-79367191D01*
X150469327Y-79369518D01*
X150449135Y-79381771D01*
X150411693Y-79404491D01*
X150411688Y-79404495D01*
X150406892Y-79407405D01*
X150398516Y-79414803D01*
X150398493Y-79414777D01*
X150395503Y-79417426D01*
X150392264Y-79420134D01*
X150386148Y-79424144D01*
X150381121Y-79429451D01*
X150381117Y-79429454D01*
X150332872Y-79480383D01*
X150330494Y-79482825D01*
X145508278Y-84305041D01*
X145445966Y-84339067D01*
X145430604Y-84341427D01*
X145405952Y-84343670D01*
X145358252Y-84348011D01*
X145358250Y-84348011D01*
X145352112Y-84348570D01*
X145346206Y-84350308D01*
X145346202Y-84350309D01*
X145241076Y-84381249D01*
X145162381Y-84404410D01*
X145156923Y-84407263D01*
X145156919Y-84407265D01*
X145066147Y-84454720D01*
X144987110Y-84496040D01*
X144832975Y-84619968D01*
X144705846Y-84771474D01*
X144702879Y-84776872D01*
X144702875Y-84776877D01*
X144624095Y-84920180D01*
X144610567Y-84944787D01*
X144608706Y-84950654D01*
X144608705Y-84950656D01*
X144552627Y-85127436D01*
X144550765Y-85133306D01*
X144528719Y-85329851D01*
X130875427Y-85329851D01*
X130901529Y-85131590D01*
X130901611Y-85128240D01*
X130903074Y-85068365D01*
X130903074Y-85068361D01*
X130903156Y-85065000D01*
X130884852Y-84842361D01*
X130830431Y-84625702D01*
X130741354Y-84420840D01*
X130620014Y-84233277D01*
X130469670Y-84068051D01*
X130465619Y-84064852D01*
X130465615Y-84064848D01*
X130298414Y-83932800D01*
X130298410Y-83932798D01*
X130294359Y-83929598D01*
X130253053Y-83906796D01*
X130203084Y-83856364D01*
X130188312Y-83786921D01*
X130213428Y-83720516D01*
X130240780Y-83693909D01*
X130284603Y-83662650D01*
X130419860Y-83566173D01*
X130578096Y-83408489D01*
X130637594Y-83325689D01*
X130705435Y-83231277D01*
X130708453Y-83227077D01*
X130807430Y-83026811D01*
X130872370Y-82813069D01*
X130901529Y-82591590D01*
X130902529Y-82550661D01*
X130903074Y-82528365D01*
X130903074Y-82528361D01*
X130903156Y-82525000D01*
X130884852Y-82302361D01*
X130830431Y-82085702D01*
X130741354Y-81880840D01*
X130620014Y-81693277D01*
X130610295Y-81682596D01*
X130472798Y-81531488D01*
X130441746Y-81467642D01*
X130450141Y-81397143D01*
X130495317Y-81342375D01*
X130521761Y-81328706D01*
X130628297Y-81288767D01*
X130636705Y-81285615D01*
X130753261Y-81198261D01*
X130840615Y-81081705D01*
X130891745Y-80945316D01*
X130898500Y-80883134D01*
X130898500Y-79086866D01*
X130891745Y-79024684D01*
X130840615Y-78888295D01*
X130753261Y-78771739D01*
X130636705Y-78684385D01*
X130500316Y-78633255D01*
X130438134Y-78626500D01*
X128641866Y-78626500D01*
X128579684Y-78633255D01*
X128443295Y-78684385D01*
X128326739Y-78771739D01*
X128239385Y-78888295D01*
X128188255Y-79024684D01*
X128181500Y-79086866D01*
X128181500Y-80883134D01*
X128188255Y-80945316D01*
X128239385Y-81081705D01*
X128326739Y-81198261D01*
X128443295Y-81285615D01*
X128451704Y-81288767D01*
X128451705Y-81288768D01*
X128560451Y-81329535D01*
X128617216Y-81372176D01*
X128641916Y-81438738D01*
X128626709Y-81508087D01*
X128607316Y-81534568D01*
X128480629Y-81667138D01*
X128354743Y-81851680D01*
X128260688Y-82054305D01*
X128200989Y-82269570D01*
X128177251Y-82491695D01*
X128177548Y-82496848D01*
X128177548Y-82496851D01*
X128185865Y-82641097D01*
X128190110Y-82714715D01*
X128191247Y-82719761D01*
X128191248Y-82719767D01*
X128211119Y-82807939D01*
X128239222Y-82932639D01*
X128323266Y-83139616D01*
X128439987Y-83330088D01*
X128586250Y-83498938D01*
X128758126Y-83641632D01*
X128828595Y-83682811D01*
X128831445Y-83684476D01*
X128880169Y-83736114D01*
X128893240Y-83805897D01*
X128866509Y-83871669D01*
X128826055Y-83905027D01*
X128813607Y-83911507D01*
X128809474Y-83914610D01*
X128809471Y-83914612D01*
X128785247Y-83932800D01*
X128634965Y-84045635D01*
X128480629Y-84207138D01*
X128354743Y-84391680D01*
X128260688Y-84594305D01*
X128200989Y-84809570D01*
X128177251Y-85031695D01*
X126508500Y-85031695D01*
X126508500Y-76634500D01*
X126528502Y-76566379D01*
X126582158Y-76519886D01*
X126634500Y-76508500D01*
X163365500Y-76508500D01*
X163433621Y-76528502D01*
G37*
%TD.AperFunction*%
%TD*%
M02*
