%TF.GenerationSoftware,KiCad,Pcbnew,(6.0.6)*%
%TF.CreationDate,2023-07-05T13:12:53+02:00*%
%TF.ProjectId,LedDriver,4c656444-7269-4766-9572-2e6b69636164,rev?*%
%TF.SameCoordinates,Original*%
%TF.FileFunction,Legend,Top*%
%TF.FilePolarity,Positive*%
%FSLAX46Y46*%
G04 Gerber Fmt 4.6, Leading zero omitted, Abs format (unit mm)*
G04 Created by KiCad (PCBNEW (6.0.6)) date 2023-07-05 13:12:53*
%MOMM*%
%LPD*%
G01*
G04 APERTURE LIST*
%ADD10C,0.150000*%
%ADD11C,0.120000*%
G04 APERTURE END LIST*
D10*
%TO.C,L1*%
X141819333Y-81224380D02*
X141343142Y-81224380D01*
X141343142Y-80224380D01*
X142676476Y-81224380D02*
X142105047Y-81224380D01*
X142390761Y-81224380D02*
X142390761Y-80224380D01*
X142295523Y-80367238D01*
X142200285Y-80462476D01*
X142105047Y-80510095D01*
%TO.C,C2*%
X152868333Y-84177142D02*
X152820714Y-84224761D01*
X152677857Y-84272380D01*
X152582619Y-84272380D01*
X152439761Y-84224761D01*
X152344523Y-84129523D01*
X152296904Y-84034285D01*
X152249285Y-83843809D01*
X152249285Y-83700952D01*
X152296904Y-83510476D01*
X152344523Y-83415238D01*
X152439761Y-83320000D01*
X152582619Y-83272380D01*
X152677857Y-83272380D01*
X152820714Y-83320000D01*
X152868333Y-83367619D01*
X153249285Y-83367619D02*
X153296904Y-83320000D01*
X153392142Y-83272380D01*
X153630238Y-83272380D01*
X153725476Y-83320000D01*
X153773095Y-83367619D01*
X153820714Y-83462857D01*
X153820714Y-83558095D01*
X153773095Y-83700952D01*
X153201666Y-84272380D01*
X153820714Y-84272380D01*
%TO.C,R2*%
X136993333Y-89860380D02*
X136660000Y-89384190D01*
X136421904Y-89860380D02*
X136421904Y-88860380D01*
X136802857Y-88860380D01*
X136898095Y-88908000D01*
X136945714Y-88955619D01*
X136993333Y-89050857D01*
X136993333Y-89193714D01*
X136945714Y-89288952D01*
X136898095Y-89336571D01*
X136802857Y-89384190D01*
X136421904Y-89384190D01*
X137374285Y-88955619D02*
X137421904Y-88908000D01*
X137517142Y-88860380D01*
X137755238Y-88860380D01*
X137850476Y-88908000D01*
X137898095Y-88955619D01*
X137945714Y-89050857D01*
X137945714Y-89146095D01*
X137898095Y-89288952D01*
X137326666Y-89860380D01*
X137945714Y-89860380D01*
%TO.C,D1*%
X158773904Y-77414380D02*
X158773904Y-76414380D01*
X159012000Y-76414380D01*
X159154857Y-76462000D01*
X159250095Y-76557238D01*
X159297714Y-76652476D01*
X159345333Y-76842952D01*
X159345333Y-76985809D01*
X159297714Y-77176285D01*
X159250095Y-77271523D01*
X159154857Y-77366761D01*
X159012000Y-77414380D01*
X158773904Y-77414380D01*
X160297714Y-77414380D02*
X159726285Y-77414380D01*
X160012000Y-77414380D02*
X160012000Y-76414380D01*
X159916761Y-76557238D01*
X159821523Y-76652476D01*
X159726285Y-76700095D01*
%TO.C,RV1*%
X156630761Y-84780380D02*
X156297428Y-84304190D01*
X156059333Y-84780380D02*
X156059333Y-83780380D01*
X156440285Y-83780380D01*
X156535523Y-83828000D01*
X156583142Y-83875619D01*
X156630761Y-83970857D01*
X156630761Y-84113714D01*
X156583142Y-84208952D01*
X156535523Y-84256571D01*
X156440285Y-84304190D01*
X156059333Y-84304190D01*
X156916476Y-83780380D02*
X157249809Y-84780380D01*
X157583142Y-83780380D01*
X158440285Y-84780380D02*
X157868857Y-84780380D01*
X158154571Y-84780380D02*
X158154571Y-83780380D01*
X158059333Y-83923238D01*
X157964095Y-84018476D01*
X157868857Y-84066095D01*
%TO.C,C1*%
X142073333Y-90527142D02*
X142025714Y-90574761D01*
X141882857Y-90622380D01*
X141787619Y-90622380D01*
X141644761Y-90574761D01*
X141549523Y-90479523D01*
X141501904Y-90384285D01*
X141454285Y-90193809D01*
X141454285Y-90050952D01*
X141501904Y-89860476D01*
X141549523Y-89765238D01*
X141644761Y-89670000D01*
X141787619Y-89622380D01*
X141882857Y-89622380D01*
X142025714Y-89670000D01*
X142073333Y-89717619D01*
X143025714Y-90622380D02*
X142454285Y-90622380D01*
X142740000Y-90622380D02*
X142740000Y-89622380D01*
X142644761Y-89765238D01*
X142549523Y-89860476D01*
X142454285Y-89908095D01*
%TO.C,R3*%
X151598333Y-91030316D02*
X151265000Y-90554126D01*
X151026904Y-91030316D02*
X151026904Y-90030316D01*
X151407857Y-90030316D01*
X151503095Y-90077936D01*
X151550714Y-90125555D01*
X151598333Y-90220793D01*
X151598333Y-90363650D01*
X151550714Y-90458888D01*
X151503095Y-90506507D01*
X151407857Y-90554126D01*
X151026904Y-90554126D01*
X151931666Y-90030316D02*
X152550714Y-90030316D01*
X152217380Y-90411269D01*
X152360238Y-90411269D01*
X152455476Y-90458888D01*
X152503095Y-90506507D01*
X152550714Y-90601745D01*
X152550714Y-90839840D01*
X152503095Y-90935078D01*
X152455476Y-90982697D01*
X152360238Y-91030316D01*
X152074523Y-91030316D01*
X151979285Y-90982697D01*
X151931666Y-90935078D01*
%TO.C,U1*%
X146558095Y-84632380D02*
X146558095Y-85441904D01*
X146605714Y-85537142D01*
X146653333Y-85584761D01*
X146748571Y-85632380D01*
X146939047Y-85632380D01*
X147034285Y-85584761D01*
X147081904Y-85537142D01*
X147129523Y-85441904D01*
X147129523Y-84632380D01*
X148129523Y-85632380D02*
X147558095Y-85632380D01*
X147843809Y-85632380D02*
X147843809Y-84632380D01*
X147748571Y-84775238D01*
X147653333Y-84870476D01*
X147558095Y-84918095D01*
%TO.C,R1*%
X136993333Y-83892380D02*
X136660000Y-83416190D01*
X136421904Y-83892380D02*
X136421904Y-82892380D01*
X136802857Y-82892380D01*
X136898095Y-82940000D01*
X136945714Y-82987619D01*
X136993333Y-83082857D01*
X136993333Y-83225714D01*
X136945714Y-83320952D01*
X136898095Y-83368571D01*
X136802857Y-83416190D01*
X136421904Y-83416190D01*
X137945714Y-83892380D02*
X137374285Y-83892380D01*
X137660000Y-83892380D02*
X137660000Y-82892380D01*
X137564761Y-83035238D01*
X137469523Y-83130476D01*
X137374285Y-83178095D01*
%TO.C,J1*%
X129206666Y-77137380D02*
X129206666Y-77851666D01*
X129159047Y-77994523D01*
X129063809Y-78089761D01*
X128920952Y-78137380D01*
X128825714Y-78137380D01*
X130206666Y-78137380D02*
X129635238Y-78137380D01*
X129920952Y-78137380D02*
X129920952Y-77137380D01*
X129825714Y-77280238D01*
X129730476Y-77375476D01*
X129635238Y-77423095D01*
X133825714Y-80437380D02*
X133254285Y-80437380D01*
X133540000Y-80437380D02*
X133540000Y-79437380D01*
X133444761Y-79580238D01*
X133349523Y-79675476D01*
X133254285Y-79723095D01*
D11*
%TO.C,L1*%
X143002000Y-76454000D02*
X151638000Y-76454000D01*
X151638000Y-76454000D02*
X151638000Y-83566000D01*
X151638000Y-83566000D02*
X143002000Y-83566000D01*
X143002000Y-83566000D02*
X143002000Y-76454000D01*
%TO.C,R2*%
X136932936Y-88365000D02*
X137387064Y-88365000D01*
X136932936Y-86895000D02*
X137387064Y-86895000D01*
%TO.C,RV1*%
X156420000Y-92370000D02*
X163620000Y-92370000D01*
X163620000Y-92370000D02*
X163620000Y-85370000D01*
X163620000Y-85370000D02*
X156420000Y-85370000D01*
X156420000Y-85370000D02*
X156420000Y-92370000D01*
%TO.C,R3*%
X154405000Y-90577936D02*
X154405000Y-91032064D01*
X152935000Y-90577936D02*
X152935000Y-91032064D01*
%TO.C,U1*%
X148200000Y-86120000D02*
X145770000Y-86120000D01*
X146440000Y-89190000D02*
X148200000Y-89190000D01*
%TO.C,R1*%
X136932936Y-85825000D02*
X137387064Y-85825000D01*
X136932936Y-84355000D02*
X137387064Y-84355000D01*
%TO.C,J1*%
X131040000Y-78785000D02*
X131040000Y-88805000D01*
X126290000Y-88805000D02*
X126290000Y-78785000D01*
X132640000Y-78785000D02*
X132640000Y-88805000D01*
X126290000Y-78785000D02*
X132640000Y-78785000D01*
X126290000Y-88805000D02*
X132640000Y-88805000D01*
%TD*%
M02*
